G04 #@! TF.GenerationSoftware,KiCad,Pcbnew,(5.1.0)-1*
G04 #@! TF.CreationDate,2019-07-12T21:05:45-04:00*
G04 #@! TF.ProjectId,Genesis_SMS Breakout,47656e65-7369-4735-9f53-4d5320427265,rev?*
G04 #@! TF.SameCoordinates,Original*
G04 #@! TF.FileFunction,Copper,L1,Top*
G04 #@! TF.FilePolarity,Positive*
%FSLAX46Y46*%
G04 Gerber Fmt 4.6, Leading zero omitted, Abs format (unit mm)*
G04 Created by KiCad (PCBNEW (5.1.0)-1) date 2019-07-12 21:05:45*
%MOMM*%
%LPD*%
G04 APERTURE LIST*
%ADD10O,3.016000X1.508000*%
%ADD11O,1.700000X3.400000*%
%ADD12C,1.408000*%
%ADD13R,1.408000X1.408000*%
%ADD14C,3.200000*%
%ADD15C,0.100000*%
%ADD16C,1.600000*%
%ADD17C,2.000000*%
%ADD18O,2.000000X4.000000*%
%ADD19O,2.200000X4.000000*%
%ADD20R,1.600000X1.600000*%
%ADD21C,4.000000*%
%ADD22C,0.300000*%
%ADD23C,0.950000*%
%ADD24C,0.800000*%
%ADD25C,0.250000*%
%ADD26C,0.254000*%
G04 APERTURE END LIST*
D10*
X183300000Y-78600000D03*
X183300000Y-84100000D03*
X183300000Y-90200000D03*
X181300000Y-87700000D03*
X181300000Y-82200000D03*
X143950000Y-58650000D03*
X143950000Y-53150000D03*
X141950000Y-50650000D03*
X141950000Y-56750000D03*
X141950000Y-62250000D03*
D11*
X142090000Y-72610000D03*
D12*
X145900000Y-76600000D03*
D13*
X145900000Y-73900000D03*
D12*
X145900000Y-71900000D03*
X145900000Y-68600000D03*
X148400000Y-76600000D03*
X148400000Y-68600000D03*
X148400000Y-70600000D03*
X148400000Y-74600000D03*
X148400000Y-72600000D03*
D14*
X142900000Y-65350000D03*
X142900000Y-79850000D03*
D15*
G36*
X164374504Y-72451204D02*
G01*
X164398773Y-72454804D01*
X164422571Y-72460765D01*
X164445671Y-72469030D01*
X164467849Y-72479520D01*
X164488893Y-72492133D01*
X164508598Y-72506747D01*
X164526777Y-72523223D01*
X164543253Y-72541402D01*
X164557867Y-72561107D01*
X164570480Y-72582151D01*
X164580970Y-72604329D01*
X164589235Y-72627429D01*
X164595196Y-72651227D01*
X164598796Y-72675496D01*
X164600000Y-72700000D01*
X164600000Y-75700000D01*
X164598796Y-75724504D01*
X164595196Y-75748773D01*
X164589235Y-75772571D01*
X164580970Y-75795671D01*
X164570480Y-75817849D01*
X164557867Y-75838893D01*
X164543253Y-75858598D01*
X164526777Y-75876777D01*
X164508598Y-75893253D01*
X164488893Y-75907867D01*
X164467849Y-75920480D01*
X164445671Y-75930970D01*
X164422571Y-75939235D01*
X164398773Y-75945196D01*
X164374504Y-75948796D01*
X164350000Y-75950000D01*
X163250000Y-75950000D01*
X163225496Y-75948796D01*
X163201227Y-75945196D01*
X163177429Y-75939235D01*
X163154329Y-75930970D01*
X163132151Y-75920480D01*
X163111107Y-75907867D01*
X163091402Y-75893253D01*
X163073223Y-75876777D01*
X163056747Y-75858598D01*
X163042133Y-75838893D01*
X163029520Y-75817849D01*
X163019030Y-75795671D01*
X163010765Y-75772571D01*
X163004804Y-75748773D01*
X163001204Y-75724504D01*
X163000000Y-75700000D01*
X163000000Y-72700000D01*
X163001204Y-72675496D01*
X163004804Y-72651227D01*
X163010765Y-72627429D01*
X163019030Y-72604329D01*
X163029520Y-72582151D01*
X163042133Y-72561107D01*
X163056747Y-72541402D01*
X163073223Y-72523223D01*
X163091402Y-72506747D01*
X163111107Y-72492133D01*
X163132151Y-72479520D01*
X163154329Y-72469030D01*
X163177429Y-72460765D01*
X163201227Y-72454804D01*
X163225496Y-72451204D01*
X163250000Y-72450000D01*
X164350000Y-72450000D01*
X164374504Y-72451204D01*
X164374504Y-72451204D01*
G37*
D16*
X163800000Y-74200000D03*
D15*
G36*
X164374504Y-78051204D02*
G01*
X164398773Y-78054804D01*
X164422571Y-78060765D01*
X164445671Y-78069030D01*
X164467849Y-78079520D01*
X164488893Y-78092133D01*
X164508598Y-78106747D01*
X164526777Y-78123223D01*
X164543253Y-78141402D01*
X164557867Y-78161107D01*
X164570480Y-78182151D01*
X164580970Y-78204329D01*
X164589235Y-78227429D01*
X164595196Y-78251227D01*
X164598796Y-78275496D01*
X164600000Y-78300000D01*
X164600000Y-81300000D01*
X164598796Y-81324504D01*
X164595196Y-81348773D01*
X164589235Y-81372571D01*
X164580970Y-81395671D01*
X164570480Y-81417849D01*
X164557867Y-81438893D01*
X164543253Y-81458598D01*
X164526777Y-81476777D01*
X164508598Y-81493253D01*
X164488893Y-81507867D01*
X164467849Y-81520480D01*
X164445671Y-81530970D01*
X164422571Y-81539235D01*
X164398773Y-81545196D01*
X164374504Y-81548796D01*
X164350000Y-81550000D01*
X163250000Y-81550000D01*
X163225496Y-81548796D01*
X163201227Y-81545196D01*
X163177429Y-81539235D01*
X163154329Y-81530970D01*
X163132151Y-81520480D01*
X163111107Y-81507867D01*
X163091402Y-81493253D01*
X163073223Y-81476777D01*
X163056747Y-81458598D01*
X163042133Y-81438893D01*
X163029520Y-81417849D01*
X163019030Y-81395671D01*
X163010765Y-81372571D01*
X163004804Y-81348773D01*
X163001204Y-81324504D01*
X163000000Y-81300000D01*
X163000000Y-78300000D01*
X163001204Y-78275496D01*
X163004804Y-78251227D01*
X163010765Y-78227429D01*
X163019030Y-78204329D01*
X163029520Y-78182151D01*
X163042133Y-78161107D01*
X163056747Y-78141402D01*
X163073223Y-78123223D01*
X163091402Y-78106747D01*
X163111107Y-78092133D01*
X163132151Y-78079520D01*
X163154329Y-78069030D01*
X163177429Y-78060765D01*
X163201227Y-78054804D01*
X163225496Y-78051204D01*
X163250000Y-78050000D01*
X164350000Y-78050000D01*
X164374504Y-78051204D01*
X164374504Y-78051204D01*
G37*
D16*
X163800000Y-79800000D03*
D15*
G36*
X155874504Y-78051204D02*
G01*
X155898773Y-78054804D01*
X155922571Y-78060765D01*
X155945671Y-78069030D01*
X155967849Y-78079520D01*
X155988893Y-78092133D01*
X156008598Y-78106747D01*
X156026777Y-78123223D01*
X156043253Y-78141402D01*
X156057867Y-78161107D01*
X156070480Y-78182151D01*
X156080970Y-78204329D01*
X156089235Y-78227429D01*
X156095196Y-78251227D01*
X156098796Y-78275496D01*
X156100000Y-78300000D01*
X156100000Y-81300000D01*
X156098796Y-81324504D01*
X156095196Y-81348773D01*
X156089235Y-81372571D01*
X156080970Y-81395671D01*
X156070480Y-81417849D01*
X156057867Y-81438893D01*
X156043253Y-81458598D01*
X156026777Y-81476777D01*
X156008598Y-81493253D01*
X155988893Y-81507867D01*
X155967849Y-81520480D01*
X155945671Y-81530970D01*
X155922571Y-81539235D01*
X155898773Y-81545196D01*
X155874504Y-81548796D01*
X155850000Y-81550000D01*
X154750000Y-81550000D01*
X154725496Y-81548796D01*
X154701227Y-81545196D01*
X154677429Y-81539235D01*
X154654329Y-81530970D01*
X154632151Y-81520480D01*
X154611107Y-81507867D01*
X154591402Y-81493253D01*
X154573223Y-81476777D01*
X154556747Y-81458598D01*
X154542133Y-81438893D01*
X154529520Y-81417849D01*
X154519030Y-81395671D01*
X154510765Y-81372571D01*
X154504804Y-81348773D01*
X154501204Y-81324504D01*
X154500000Y-81300000D01*
X154500000Y-78300000D01*
X154501204Y-78275496D01*
X154504804Y-78251227D01*
X154510765Y-78227429D01*
X154519030Y-78204329D01*
X154529520Y-78182151D01*
X154542133Y-78161107D01*
X154556747Y-78141402D01*
X154573223Y-78123223D01*
X154591402Y-78106747D01*
X154611107Y-78092133D01*
X154632151Y-78079520D01*
X154654329Y-78069030D01*
X154677429Y-78060765D01*
X154701227Y-78054804D01*
X154725496Y-78051204D01*
X154750000Y-78050000D01*
X155850000Y-78050000D01*
X155874504Y-78051204D01*
X155874504Y-78051204D01*
G37*
D16*
X155300000Y-79800000D03*
D15*
G36*
X155874504Y-72451204D02*
G01*
X155898773Y-72454804D01*
X155922571Y-72460765D01*
X155945671Y-72469030D01*
X155967849Y-72479520D01*
X155988893Y-72492133D01*
X156008598Y-72506747D01*
X156026777Y-72523223D01*
X156043253Y-72541402D01*
X156057867Y-72561107D01*
X156070480Y-72582151D01*
X156080970Y-72604329D01*
X156089235Y-72627429D01*
X156095196Y-72651227D01*
X156098796Y-72675496D01*
X156100000Y-72700000D01*
X156100000Y-75700000D01*
X156098796Y-75724504D01*
X156095196Y-75748773D01*
X156089235Y-75772571D01*
X156080970Y-75795671D01*
X156070480Y-75817849D01*
X156057867Y-75838893D01*
X156043253Y-75858598D01*
X156026777Y-75876777D01*
X156008598Y-75893253D01*
X155988893Y-75907867D01*
X155967849Y-75920480D01*
X155945671Y-75930970D01*
X155922571Y-75939235D01*
X155898773Y-75945196D01*
X155874504Y-75948796D01*
X155850000Y-75950000D01*
X154750000Y-75950000D01*
X154725496Y-75948796D01*
X154701227Y-75945196D01*
X154677429Y-75939235D01*
X154654329Y-75930970D01*
X154632151Y-75920480D01*
X154611107Y-75907867D01*
X154591402Y-75893253D01*
X154573223Y-75876777D01*
X154556747Y-75858598D01*
X154542133Y-75838893D01*
X154529520Y-75817849D01*
X154519030Y-75795671D01*
X154510765Y-75772571D01*
X154504804Y-75748773D01*
X154501204Y-75724504D01*
X154500000Y-75700000D01*
X154500000Y-72700000D01*
X154501204Y-72675496D01*
X154504804Y-72651227D01*
X154510765Y-72627429D01*
X154519030Y-72604329D01*
X154529520Y-72582151D01*
X154542133Y-72561107D01*
X154556747Y-72541402D01*
X154573223Y-72523223D01*
X154591402Y-72506747D01*
X154611107Y-72492133D01*
X154632151Y-72479520D01*
X154654329Y-72469030D01*
X154677429Y-72460765D01*
X154701227Y-72454804D01*
X154725496Y-72451204D01*
X154750000Y-72450000D01*
X155850000Y-72450000D01*
X155874504Y-72451204D01*
X155874504Y-72451204D01*
G37*
D16*
X155300000Y-74200000D03*
D15*
G36*
X160574504Y-64051204D02*
G01*
X160598773Y-64054804D01*
X160622571Y-64060765D01*
X160645671Y-64069030D01*
X160667849Y-64079520D01*
X160688893Y-64092133D01*
X160708598Y-64106747D01*
X160726777Y-64123223D01*
X160743253Y-64141402D01*
X160757867Y-64161107D01*
X160770480Y-64182151D01*
X160780970Y-64204329D01*
X160789235Y-64227429D01*
X160795196Y-64251227D01*
X160798796Y-64275496D01*
X160800000Y-64300000D01*
X160800000Y-67300000D01*
X160798796Y-67324504D01*
X160795196Y-67348773D01*
X160789235Y-67372571D01*
X160780970Y-67395671D01*
X160770480Y-67417849D01*
X160757867Y-67438893D01*
X160743253Y-67458598D01*
X160726777Y-67476777D01*
X160708598Y-67493253D01*
X160688893Y-67507867D01*
X160667849Y-67520480D01*
X160645671Y-67530970D01*
X160622571Y-67539235D01*
X160598773Y-67545196D01*
X160574504Y-67548796D01*
X160550000Y-67550000D01*
X159450000Y-67550000D01*
X159425496Y-67548796D01*
X159401227Y-67545196D01*
X159377429Y-67539235D01*
X159354329Y-67530970D01*
X159332151Y-67520480D01*
X159311107Y-67507867D01*
X159291402Y-67493253D01*
X159273223Y-67476777D01*
X159256747Y-67458598D01*
X159242133Y-67438893D01*
X159229520Y-67417849D01*
X159219030Y-67395671D01*
X159210765Y-67372571D01*
X159204804Y-67348773D01*
X159201204Y-67324504D01*
X159200000Y-67300000D01*
X159200000Y-64300000D01*
X159201204Y-64275496D01*
X159204804Y-64251227D01*
X159210765Y-64227429D01*
X159219030Y-64204329D01*
X159229520Y-64182151D01*
X159242133Y-64161107D01*
X159256747Y-64141402D01*
X159273223Y-64123223D01*
X159291402Y-64106747D01*
X159311107Y-64092133D01*
X159332151Y-64079520D01*
X159354329Y-64069030D01*
X159377429Y-64060765D01*
X159401227Y-64054804D01*
X159425496Y-64051204D01*
X159450000Y-64050000D01*
X160550000Y-64050000D01*
X160574504Y-64051204D01*
X160574504Y-64051204D01*
G37*
D16*
X160000000Y-65800000D03*
D15*
G36*
X160574504Y-69651204D02*
G01*
X160598773Y-69654804D01*
X160622571Y-69660765D01*
X160645671Y-69669030D01*
X160667849Y-69679520D01*
X160688893Y-69692133D01*
X160708598Y-69706747D01*
X160726777Y-69723223D01*
X160743253Y-69741402D01*
X160757867Y-69761107D01*
X160770480Y-69782151D01*
X160780970Y-69804329D01*
X160789235Y-69827429D01*
X160795196Y-69851227D01*
X160798796Y-69875496D01*
X160800000Y-69900000D01*
X160800000Y-72900000D01*
X160798796Y-72924504D01*
X160795196Y-72948773D01*
X160789235Y-72972571D01*
X160780970Y-72995671D01*
X160770480Y-73017849D01*
X160757867Y-73038893D01*
X160743253Y-73058598D01*
X160726777Y-73076777D01*
X160708598Y-73093253D01*
X160688893Y-73107867D01*
X160667849Y-73120480D01*
X160645671Y-73130970D01*
X160622571Y-73139235D01*
X160598773Y-73145196D01*
X160574504Y-73148796D01*
X160550000Y-73150000D01*
X159450000Y-73150000D01*
X159425496Y-73148796D01*
X159401227Y-73145196D01*
X159377429Y-73139235D01*
X159354329Y-73130970D01*
X159332151Y-73120480D01*
X159311107Y-73107867D01*
X159291402Y-73093253D01*
X159273223Y-73076777D01*
X159256747Y-73058598D01*
X159242133Y-73038893D01*
X159229520Y-73017849D01*
X159219030Y-72995671D01*
X159210765Y-72972571D01*
X159204804Y-72948773D01*
X159201204Y-72924504D01*
X159200000Y-72900000D01*
X159200000Y-69900000D01*
X159201204Y-69875496D01*
X159204804Y-69851227D01*
X159210765Y-69827429D01*
X159219030Y-69804329D01*
X159229520Y-69782151D01*
X159242133Y-69761107D01*
X159256747Y-69741402D01*
X159273223Y-69723223D01*
X159291402Y-69706747D01*
X159311107Y-69692133D01*
X159332151Y-69679520D01*
X159354329Y-69669030D01*
X159377429Y-69660765D01*
X159401227Y-69654804D01*
X159425496Y-69651204D01*
X159450000Y-69650000D01*
X160550000Y-69650000D01*
X160574504Y-69651204D01*
X160574504Y-69651204D01*
G37*
D16*
X160000000Y-71400000D03*
D15*
G36*
X167674504Y-69651204D02*
G01*
X167698773Y-69654804D01*
X167722571Y-69660765D01*
X167745671Y-69669030D01*
X167767849Y-69679520D01*
X167788893Y-69692133D01*
X167808598Y-69706747D01*
X167826777Y-69723223D01*
X167843253Y-69741402D01*
X167857867Y-69761107D01*
X167870480Y-69782151D01*
X167880970Y-69804329D01*
X167889235Y-69827429D01*
X167895196Y-69851227D01*
X167898796Y-69875496D01*
X167900000Y-69900000D01*
X167900000Y-72900000D01*
X167898796Y-72924504D01*
X167895196Y-72948773D01*
X167889235Y-72972571D01*
X167880970Y-72995671D01*
X167870480Y-73017849D01*
X167857867Y-73038893D01*
X167843253Y-73058598D01*
X167826777Y-73076777D01*
X167808598Y-73093253D01*
X167788893Y-73107867D01*
X167767849Y-73120480D01*
X167745671Y-73130970D01*
X167722571Y-73139235D01*
X167698773Y-73145196D01*
X167674504Y-73148796D01*
X167650000Y-73150000D01*
X166550000Y-73150000D01*
X166525496Y-73148796D01*
X166501227Y-73145196D01*
X166477429Y-73139235D01*
X166454329Y-73130970D01*
X166432151Y-73120480D01*
X166411107Y-73107867D01*
X166391402Y-73093253D01*
X166373223Y-73076777D01*
X166356747Y-73058598D01*
X166342133Y-73038893D01*
X166329520Y-73017849D01*
X166319030Y-72995671D01*
X166310765Y-72972571D01*
X166304804Y-72948773D01*
X166301204Y-72924504D01*
X166300000Y-72900000D01*
X166300000Y-69900000D01*
X166301204Y-69875496D01*
X166304804Y-69851227D01*
X166310765Y-69827429D01*
X166319030Y-69804329D01*
X166329520Y-69782151D01*
X166342133Y-69761107D01*
X166356747Y-69741402D01*
X166373223Y-69723223D01*
X166391402Y-69706747D01*
X166411107Y-69692133D01*
X166432151Y-69679520D01*
X166454329Y-69669030D01*
X166477429Y-69660765D01*
X166501227Y-69654804D01*
X166525496Y-69651204D01*
X166550000Y-69650000D01*
X167650000Y-69650000D01*
X167674504Y-69651204D01*
X167674504Y-69651204D01*
G37*
D16*
X167100000Y-71400000D03*
D15*
G36*
X167674504Y-64051204D02*
G01*
X167698773Y-64054804D01*
X167722571Y-64060765D01*
X167745671Y-64069030D01*
X167767849Y-64079520D01*
X167788893Y-64092133D01*
X167808598Y-64106747D01*
X167826777Y-64123223D01*
X167843253Y-64141402D01*
X167857867Y-64161107D01*
X167870480Y-64182151D01*
X167880970Y-64204329D01*
X167889235Y-64227429D01*
X167895196Y-64251227D01*
X167898796Y-64275496D01*
X167900000Y-64300000D01*
X167900000Y-67300000D01*
X167898796Y-67324504D01*
X167895196Y-67348773D01*
X167889235Y-67372571D01*
X167880970Y-67395671D01*
X167870480Y-67417849D01*
X167857867Y-67438893D01*
X167843253Y-67458598D01*
X167826777Y-67476777D01*
X167808598Y-67493253D01*
X167788893Y-67507867D01*
X167767849Y-67520480D01*
X167745671Y-67530970D01*
X167722571Y-67539235D01*
X167698773Y-67545196D01*
X167674504Y-67548796D01*
X167650000Y-67550000D01*
X166550000Y-67550000D01*
X166525496Y-67548796D01*
X166501227Y-67545196D01*
X166477429Y-67539235D01*
X166454329Y-67530970D01*
X166432151Y-67520480D01*
X166411107Y-67507867D01*
X166391402Y-67493253D01*
X166373223Y-67476777D01*
X166356747Y-67458598D01*
X166342133Y-67438893D01*
X166329520Y-67417849D01*
X166319030Y-67395671D01*
X166310765Y-67372571D01*
X166304804Y-67348773D01*
X166301204Y-67324504D01*
X166300000Y-67300000D01*
X166300000Y-64300000D01*
X166301204Y-64275496D01*
X166304804Y-64251227D01*
X166310765Y-64227429D01*
X166319030Y-64204329D01*
X166329520Y-64182151D01*
X166342133Y-64161107D01*
X166356747Y-64141402D01*
X166373223Y-64123223D01*
X166391402Y-64106747D01*
X166411107Y-64092133D01*
X166432151Y-64079520D01*
X166454329Y-64069030D01*
X166477429Y-64060765D01*
X166501227Y-64054804D01*
X166525496Y-64051204D01*
X166550000Y-64050000D01*
X167650000Y-64050000D01*
X167674504Y-64051204D01*
X167674504Y-64051204D01*
G37*
D16*
X167100000Y-65800000D03*
D17*
X153050000Y-57950000D03*
X158050000Y-57950000D03*
X163050000Y-57950000D03*
X155550000Y-60450000D03*
X160550000Y-60450000D03*
X158050000Y-62950000D03*
X150550000Y-60450000D03*
X165550000Y-60450000D03*
X155550000Y-47950000D03*
X160550000Y-47950000D03*
D18*
X160450000Y-82900000D03*
X152950000Y-82900000D03*
X146450000Y-82900000D03*
X138950000Y-82900000D03*
X166950000Y-82900000D03*
X174450000Y-82900000D03*
D19*
X146450000Y-90150000D03*
X160450000Y-90150000D03*
X174450000Y-90150000D03*
D20*
X173000000Y-57000000D03*
D16*
X173000000Y-59290000D03*
X173000000Y-61580000D03*
X173000000Y-63870000D03*
X173000000Y-66160000D03*
X175540000Y-55855000D03*
X175540000Y-58145000D03*
X175540000Y-60435000D03*
X175540000Y-62725000D03*
X175540000Y-65015000D03*
X178080000Y-57000000D03*
X178080000Y-59290000D03*
X178080000Y-61580000D03*
X178080000Y-63870000D03*
X178080000Y-66160000D03*
D21*
X175540000Y-73815000D03*
X175540000Y-48815000D03*
D22*
X169000000Y-77550000D03*
D15*
G36*
X168250000Y-78050000D02*
G01*
X168250000Y-76900000D01*
X169000000Y-77400000D01*
X169750000Y-76900000D01*
X169750000Y-78050000D01*
X168250000Y-78050000D01*
X168250000Y-78050000D01*
G37*
D22*
X169000000Y-76100000D03*
D15*
G36*
X169000000Y-77100000D02*
G01*
X168250000Y-76600000D01*
X168250000Y-75600000D01*
X169750000Y-75600000D01*
X169750000Y-76600000D01*
X169000000Y-77100000D01*
X169000000Y-77100000D01*
G37*
G36*
X155060779Y-70426144D02*
G01*
X155083834Y-70429563D01*
X155106443Y-70435227D01*
X155128387Y-70443079D01*
X155149457Y-70453044D01*
X155169448Y-70465026D01*
X155188168Y-70478910D01*
X155205438Y-70494562D01*
X155221090Y-70511832D01*
X155234974Y-70530552D01*
X155246956Y-70550543D01*
X155256921Y-70571613D01*
X155264773Y-70593557D01*
X155270437Y-70616166D01*
X155273856Y-70639221D01*
X155275000Y-70662500D01*
X155275000Y-71237500D01*
X155273856Y-71260779D01*
X155270437Y-71283834D01*
X155264773Y-71306443D01*
X155256921Y-71328387D01*
X155246956Y-71349457D01*
X155234974Y-71369448D01*
X155221090Y-71388168D01*
X155205438Y-71405438D01*
X155188168Y-71421090D01*
X155169448Y-71434974D01*
X155149457Y-71446956D01*
X155128387Y-71456921D01*
X155106443Y-71464773D01*
X155083834Y-71470437D01*
X155060779Y-71473856D01*
X155037500Y-71475000D01*
X154562500Y-71475000D01*
X154539221Y-71473856D01*
X154516166Y-71470437D01*
X154493557Y-71464773D01*
X154471613Y-71456921D01*
X154450543Y-71446956D01*
X154430552Y-71434974D01*
X154411832Y-71421090D01*
X154394562Y-71405438D01*
X154378910Y-71388168D01*
X154365026Y-71369448D01*
X154353044Y-71349457D01*
X154343079Y-71328387D01*
X154335227Y-71306443D01*
X154329563Y-71283834D01*
X154326144Y-71260779D01*
X154325000Y-71237500D01*
X154325000Y-70662500D01*
X154326144Y-70639221D01*
X154329563Y-70616166D01*
X154335227Y-70593557D01*
X154343079Y-70571613D01*
X154353044Y-70550543D01*
X154365026Y-70530552D01*
X154378910Y-70511832D01*
X154394562Y-70494562D01*
X154411832Y-70478910D01*
X154430552Y-70465026D01*
X154450543Y-70453044D01*
X154471613Y-70443079D01*
X154493557Y-70435227D01*
X154516166Y-70429563D01*
X154539221Y-70426144D01*
X154562500Y-70425000D01*
X155037500Y-70425000D01*
X155060779Y-70426144D01*
X155060779Y-70426144D01*
G37*
D23*
X154800000Y-70950000D03*
D15*
G36*
X155060779Y-68676144D02*
G01*
X155083834Y-68679563D01*
X155106443Y-68685227D01*
X155128387Y-68693079D01*
X155149457Y-68703044D01*
X155169448Y-68715026D01*
X155188168Y-68728910D01*
X155205438Y-68744562D01*
X155221090Y-68761832D01*
X155234974Y-68780552D01*
X155246956Y-68800543D01*
X155256921Y-68821613D01*
X155264773Y-68843557D01*
X155270437Y-68866166D01*
X155273856Y-68889221D01*
X155275000Y-68912500D01*
X155275000Y-69487500D01*
X155273856Y-69510779D01*
X155270437Y-69533834D01*
X155264773Y-69556443D01*
X155256921Y-69578387D01*
X155246956Y-69599457D01*
X155234974Y-69619448D01*
X155221090Y-69638168D01*
X155205438Y-69655438D01*
X155188168Y-69671090D01*
X155169448Y-69684974D01*
X155149457Y-69696956D01*
X155128387Y-69706921D01*
X155106443Y-69714773D01*
X155083834Y-69720437D01*
X155060779Y-69723856D01*
X155037500Y-69725000D01*
X154562500Y-69725000D01*
X154539221Y-69723856D01*
X154516166Y-69720437D01*
X154493557Y-69714773D01*
X154471613Y-69706921D01*
X154450543Y-69696956D01*
X154430552Y-69684974D01*
X154411832Y-69671090D01*
X154394562Y-69655438D01*
X154378910Y-69638168D01*
X154365026Y-69619448D01*
X154353044Y-69599457D01*
X154343079Y-69578387D01*
X154335227Y-69556443D01*
X154329563Y-69533834D01*
X154326144Y-69510779D01*
X154325000Y-69487500D01*
X154325000Y-68912500D01*
X154326144Y-68889221D01*
X154329563Y-68866166D01*
X154335227Y-68843557D01*
X154343079Y-68821613D01*
X154353044Y-68800543D01*
X154365026Y-68780552D01*
X154378910Y-68761832D01*
X154394562Y-68744562D01*
X154411832Y-68728910D01*
X154430552Y-68715026D01*
X154450543Y-68703044D01*
X154471613Y-68693079D01*
X154493557Y-68685227D01*
X154516166Y-68679563D01*
X154539221Y-68676144D01*
X154562500Y-68675000D01*
X155037500Y-68675000D01*
X155060779Y-68676144D01*
X155060779Y-68676144D01*
G37*
D23*
X154800000Y-69200000D03*
D15*
G36*
X152360779Y-68676144D02*
G01*
X152383834Y-68679563D01*
X152406443Y-68685227D01*
X152428387Y-68693079D01*
X152449457Y-68703044D01*
X152469448Y-68715026D01*
X152488168Y-68728910D01*
X152505438Y-68744562D01*
X152521090Y-68761832D01*
X152534974Y-68780552D01*
X152546956Y-68800543D01*
X152556921Y-68821613D01*
X152564773Y-68843557D01*
X152570437Y-68866166D01*
X152573856Y-68889221D01*
X152575000Y-68912500D01*
X152575000Y-69487500D01*
X152573856Y-69510779D01*
X152570437Y-69533834D01*
X152564773Y-69556443D01*
X152556921Y-69578387D01*
X152546956Y-69599457D01*
X152534974Y-69619448D01*
X152521090Y-69638168D01*
X152505438Y-69655438D01*
X152488168Y-69671090D01*
X152469448Y-69684974D01*
X152449457Y-69696956D01*
X152428387Y-69706921D01*
X152406443Y-69714773D01*
X152383834Y-69720437D01*
X152360779Y-69723856D01*
X152337500Y-69725000D01*
X151862500Y-69725000D01*
X151839221Y-69723856D01*
X151816166Y-69720437D01*
X151793557Y-69714773D01*
X151771613Y-69706921D01*
X151750543Y-69696956D01*
X151730552Y-69684974D01*
X151711832Y-69671090D01*
X151694562Y-69655438D01*
X151678910Y-69638168D01*
X151665026Y-69619448D01*
X151653044Y-69599457D01*
X151643079Y-69578387D01*
X151635227Y-69556443D01*
X151629563Y-69533834D01*
X151626144Y-69510779D01*
X151625000Y-69487500D01*
X151625000Y-68912500D01*
X151626144Y-68889221D01*
X151629563Y-68866166D01*
X151635227Y-68843557D01*
X151643079Y-68821613D01*
X151653044Y-68800543D01*
X151665026Y-68780552D01*
X151678910Y-68761832D01*
X151694562Y-68744562D01*
X151711832Y-68728910D01*
X151730552Y-68715026D01*
X151750543Y-68703044D01*
X151771613Y-68693079D01*
X151793557Y-68685227D01*
X151816166Y-68679563D01*
X151839221Y-68676144D01*
X151862500Y-68675000D01*
X152337500Y-68675000D01*
X152360779Y-68676144D01*
X152360779Y-68676144D01*
G37*
D23*
X152100000Y-69200000D03*
D15*
G36*
X152360779Y-70426144D02*
G01*
X152383834Y-70429563D01*
X152406443Y-70435227D01*
X152428387Y-70443079D01*
X152449457Y-70453044D01*
X152469448Y-70465026D01*
X152488168Y-70478910D01*
X152505438Y-70494562D01*
X152521090Y-70511832D01*
X152534974Y-70530552D01*
X152546956Y-70550543D01*
X152556921Y-70571613D01*
X152564773Y-70593557D01*
X152570437Y-70616166D01*
X152573856Y-70639221D01*
X152575000Y-70662500D01*
X152575000Y-71237500D01*
X152573856Y-71260779D01*
X152570437Y-71283834D01*
X152564773Y-71306443D01*
X152556921Y-71328387D01*
X152546956Y-71349457D01*
X152534974Y-71369448D01*
X152521090Y-71388168D01*
X152505438Y-71405438D01*
X152488168Y-71421090D01*
X152469448Y-71434974D01*
X152449457Y-71446956D01*
X152428387Y-71456921D01*
X152406443Y-71464773D01*
X152383834Y-71470437D01*
X152360779Y-71473856D01*
X152337500Y-71475000D01*
X151862500Y-71475000D01*
X151839221Y-71473856D01*
X151816166Y-71470437D01*
X151793557Y-71464773D01*
X151771613Y-71456921D01*
X151750543Y-71446956D01*
X151730552Y-71434974D01*
X151711832Y-71421090D01*
X151694562Y-71405438D01*
X151678910Y-71388168D01*
X151665026Y-71369448D01*
X151653044Y-71349457D01*
X151643079Y-71328387D01*
X151635227Y-71306443D01*
X151629563Y-71283834D01*
X151626144Y-71260779D01*
X151625000Y-71237500D01*
X151625000Y-70662500D01*
X151626144Y-70639221D01*
X151629563Y-70616166D01*
X151635227Y-70593557D01*
X151643079Y-70571613D01*
X151653044Y-70550543D01*
X151665026Y-70530552D01*
X151678910Y-70511832D01*
X151694562Y-70494562D01*
X151711832Y-70478910D01*
X151730552Y-70465026D01*
X151750543Y-70453044D01*
X151771613Y-70443079D01*
X151793557Y-70435227D01*
X151816166Y-70429563D01*
X151839221Y-70426144D01*
X151862500Y-70425000D01*
X152337500Y-70425000D01*
X152360779Y-70426144D01*
X152360779Y-70426144D01*
G37*
D23*
X152100000Y-70950000D03*
D15*
G36*
X152360779Y-66226144D02*
G01*
X152383834Y-66229563D01*
X152406443Y-66235227D01*
X152428387Y-66243079D01*
X152449457Y-66253044D01*
X152469448Y-66265026D01*
X152488168Y-66278910D01*
X152505438Y-66294562D01*
X152521090Y-66311832D01*
X152534974Y-66330552D01*
X152546956Y-66350543D01*
X152556921Y-66371613D01*
X152564773Y-66393557D01*
X152570437Y-66416166D01*
X152573856Y-66439221D01*
X152575000Y-66462500D01*
X152575000Y-67037500D01*
X152573856Y-67060779D01*
X152570437Y-67083834D01*
X152564773Y-67106443D01*
X152556921Y-67128387D01*
X152546956Y-67149457D01*
X152534974Y-67169448D01*
X152521090Y-67188168D01*
X152505438Y-67205438D01*
X152488168Y-67221090D01*
X152469448Y-67234974D01*
X152449457Y-67246956D01*
X152428387Y-67256921D01*
X152406443Y-67264773D01*
X152383834Y-67270437D01*
X152360779Y-67273856D01*
X152337500Y-67275000D01*
X151862500Y-67275000D01*
X151839221Y-67273856D01*
X151816166Y-67270437D01*
X151793557Y-67264773D01*
X151771613Y-67256921D01*
X151750543Y-67246956D01*
X151730552Y-67234974D01*
X151711832Y-67221090D01*
X151694562Y-67205438D01*
X151678910Y-67188168D01*
X151665026Y-67169448D01*
X151653044Y-67149457D01*
X151643079Y-67128387D01*
X151635227Y-67106443D01*
X151629563Y-67083834D01*
X151626144Y-67060779D01*
X151625000Y-67037500D01*
X151625000Y-66462500D01*
X151626144Y-66439221D01*
X151629563Y-66416166D01*
X151635227Y-66393557D01*
X151643079Y-66371613D01*
X151653044Y-66350543D01*
X151665026Y-66330552D01*
X151678910Y-66311832D01*
X151694562Y-66294562D01*
X151711832Y-66278910D01*
X151730552Y-66265026D01*
X151750543Y-66253044D01*
X151771613Y-66243079D01*
X151793557Y-66235227D01*
X151816166Y-66229563D01*
X151839221Y-66226144D01*
X151862500Y-66225000D01*
X152337500Y-66225000D01*
X152360779Y-66226144D01*
X152360779Y-66226144D01*
G37*
D23*
X152100000Y-66750000D03*
D15*
G36*
X152360779Y-64476144D02*
G01*
X152383834Y-64479563D01*
X152406443Y-64485227D01*
X152428387Y-64493079D01*
X152449457Y-64503044D01*
X152469448Y-64515026D01*
X152488168Y-64528910D01*
X152505438Y-64544562D01*
X152521090Y-64561832D01*
X152534974Y-64580552D01*
X152546956Y-64600543D01*
X152556921Y-64621613D01*
X152564773Y-64643557D01*
X152570437Y-64666166D01*
X152573856Y-64689221D01*
X152575000Y-64712500D01*
X152575000Y-65287500D01*
X152573856Y-65310779D01*
X152570437Y-65333834D01*
X152564773Y-65356443D01*
X152556921Y-65378387D01*
X152546956Y-65399457D01*
X152534974Y-65419448D01*
X152521090Y-65438168D01*
X152505438Y-65455438D01*
X152488168Y-65471090D01*
X152469448Y-65484974D01*
X152449457Y-65496956D01*
X152428387Y-65506921D01*
X152406443Y-65514773D01*
X152383834Y-65520437D01*
X152360779Y-65523856D01*
X152337500Y-65525000D01*
X151862500Y-65525000D01*
X151839221Y-65523856D01*
X151816166Y-65520437D01*
X151793557Y-65514773D01*
X151771613Y-65506921D01*
X151750543Y-65496956D01*
X151730552Y-65484974D01*
X151711832Y-65471090D01*
X151694562Y-65455438D01*
X151678910Y-65438168D01*
X151665026Y-65419448D01*
X151653044Y-65399457D01*
X151643079Y-65378387D01*
X151635227Y-65356443D01*
X151629563Y-65333834D01*
X151626144Y-65310779D01*
X151625000Y-65287500D01*
X151625000Y-64712500D01*
X151626144Y-64689221D01*
X151629563Y-64666166D01*
X151635227Y-64643557D01*
X151643079Y-64621613D01*
X151653044Y-64600543D01*
X151665026Y-64580552D01*
X151678910Y-64561832D01*
X151694562Y-64544562D01*
X151711832Y-64528910D01*
X151730552Y-64515026D01*
X151750543Y-64503044D01*
X151771613Y-64493079D01*
X151793557Y-64485227D01*
X151816166Y-64479563D01*
X151839221Y-64476144D01*
X151862500Y-64475000D01*
X152337500Y-64475000D01*
X152360779Y-64476144D01*
X152360779Y-64476144D01*
G37*
D23*
X152100000Y-65000000D03*
D15*
G36*
X155060779Y-64501144D02*
G01*
X155083834Y-64504563D01*
X155106443Y-64510227D01*
X155128387Y-64518079D01*
X155149457Y-64528044D01*
X155169448Y-64540026D01*
X155188168Y-64553910D01*
X155205438Y-64569562D01*
X155221090Y-64586832D01*
X155234974Y-64605552D01*
X155246956Y-64625543D01*
X155256921Y-64646613D01*
X155264773Y-64668557D01*
X155270437Y-64691166D01*
X155273856Y-64714221D01*
X155275000Y-64737500D01*
X155275000Y-65312500D01*
X155273856Y-65335779D01*
X155270437Y-65358834D01*
X155264773Y-65381443D01*
X155256921Y-65403387D01*
X155246956Y-65424457D01*
X155234974Y-65444448D01*
X155221090Y-65463168D01*
X155205438Y-65480438D01*
X155188168Y-65496090D01*
X155169448Y-65509974D01*
X155149457Y-65521956D01*
X155128387Y-65531921D01*
X155106443Y-65539773D01*
X155083834Y-65545437D01*
X155060779Y-65548856D01*
X155037500Y-65550000D01*
X154562500Y-65550000D01*
X154539221Y-65548856D01*
X154516166Y-65545437D01*
X154493557Y-65539773D01*
X154471613Y-65531921D01*
X154450543Y-65521956D01*
X154430552Y-65509974D01*
X154411832Y-65496090D01*
X154394562Y-65480438D01*
X154378910Y-65463168D01*
X154365026Y-65444448D01*
X154353044Y-65424457D01*
X154343079Y-65403387D01*
X154335227Y-65381443D01*
X154329563Y-65358834D01*
X154326144Y-65335779D01*
X154325000Y-65312500D01*
X154325000Y-64737500D01*
X154326144Y-64714221D01*
X154329563Y-64691166D01*
X154335227Y-64668557D01*
X154343079Y-64646613D01*
X154353044Y-64625543D01*
X154365026Y-64605552D01*
X154378910Y-64586832D01*
X154394562Y-64569562D01*
X154411832Y-64553910D01*
X154430552Y-64540026D01*
X154450543Y-64528044D01*
X154471613Y-64518079D01*
X154493557Y-64510227D01*
X154516166Y-64504563D01*
X154539221Y-64501144D01*
X154562500Y-64500000D01*
X155037500Y-64500000D01*
X155060779Y-64501144D01*
X155060779Y-64501144D01*
G37*
D23*
X154800000Y-65025000D03*
D15*
G36*
X155060779Y-66251144D02*
G01*
X155083834Y-66254563D01*
X155106443Y-66260227D01*
X155128387Y-66268079D01*
X155149457Y-66278044D01*
X155169448Y-66290026D01*
X155188168Y-66303910D01*
X155205438Y-66319562D01*
X155221090Y-66336832D01*
X155234974Y-66355552D01*
X155246956Y-66375543D01*
X155256921Y-66396613D01*
X155264773Y-66418557D01*
X155270437Y-66441166D01*
X155273856Y-66464221D01*
X155275000Y-66487500D01*
X155275000Y-67062500D01*
X155273856Y-67085779D01*
X155270437Y-67108834D01*
X155264773Y-67131443D01*
X155256921Y-67153387D01*
X155246956Y-67174457D01*
X155234974Y-67194448D01*
X155221090Y-67213168D01*
X155205438Y-67230438D01*
X155188168Y-67246090D01*
X155169448Y-67259974D01*
X155149457Y-67271956D01*
X155128387Y-67281921D01*
X155106443Y-67289773D01*
X155083834Y-67295437D01*
X155060779Y-67298856D01*
X155037500Y-67300000D01*
X154562500Y-67300000D01*
X154539221Y-67298856D01*
X154516166Y-67295437D01*
X154493557Y-67289773D01*
X154471613Y-67281921D01*
X154450543Y-67271956D01*
X154430552Y-67259974D01*
X154411832Y-67246090D01*
X154394562Y-67230438D01*
X154378910Y-67213168D01*
X154365026Y-67194448D01*
X154353044Y-67174457D01*
X154343079Y-67153387D01*
X154335227Y-67131443D01*
X154329563Y-67108834D01*
X154326144Y-67085779D01*
X154325000Y-67062500D01*
X154325000Y-66487500D01*
X154326144Y-66464221D01*
X154329563Y-66441166D01*
X154335227Y-66418557D01*
X154343079Y-66396613D01*
X154353044Y-66375543D01*
X154365026Y-66355552D01*
X154378910Y-66336832D01*
X154394562Y-66319562D01*
X154411832Y-66303910D01*
X154430552Y-66290026D01*
X154450543Y-66278044D01*
X154471613Y-66268079D01*
X154493557Y-66260227D01*
X154516166Y-66254563D01*
X154539221Y-66251144D01*
X154562500Y-66250000D01*
X155037500Y-66250000D01*
X155060779Y-66251144D01*
X155060779Y-66251144D01*
G37*
D23*
X154800000Y-66775000D03*
D24*
X158100000Y-77700000D03*
X172900000Y-79800000D03*
X149900000Y-81800000D03*
X157200000Y-82600000D03*
X169700000Y-82000000D03*
X150700000Y-63800000D03*
X150000000Y-66300000D03*
X165700000Y-62900000D03*
X164400000Y-71200000D03*
X151200000Y-75200000D03*
X149900000Y-73700000D03*
X150100000Y-68300000D03*
X140000000Y-93000000D03*
X143000000Y-93000000D03*
X151000000Y-93000000D03*
X156000000Y-93000000D03*
X164000000Y-93000000D03*
X169000000Y-93000000D03*
X177000000Y-93000000D03*
X186000000Y-90000000D03*
X186000000Y-88000000D03*
X186000000Y-83000000D03*
X186000000Y-80000000D03*
X186000000Y-75000000D03*
X186000000Y-73000000D03*
X186000000Y-70000000D03*
X186000000Y-66000000D03*
X186000000Y-64000000D03*
X186000000Y-60000000D03*
X186000000Y-55000000D03*
X186000000Y-51000000D03*
X186000000Y-50000000D03*
X186000000Y-47000000D03*
X181000000Y-47000000D03*
X171000000Y-47000000D03*
X166000000Y-47000000D03*
X158000000Y-47000000D03*
X151000000Y-47000000D03*
X145000000Y-47000000D03*
D25*
X163800000Y-74200000D02*
X163300000Y-74200000D01*
X163800000Y-72336810D02*
X163800000Y-74200000D01*
X160788180Y-69324990D02*
X163800000Y-72336810D01*
X159211820Y-69324990D02*
X160788180Y-69324990D01*
X157600000Y-70936810D02*
X159211820Y-69324990D01*
X157600000Y-74900000D02*
X157600000Y-70936810D01*
X154800000Y-71575000D02*
X154174990Y-72200010D01*
X154800000Y-70950000D02*
X154800000Y-71575000D01*
X154174990Y-72200010D02*
X154174990Y-75938180D01*
X154174990Y-75938180D02*
X154511820Y-76275010D01*
X154511820Y-76275010D02*
X156224990Y-76275010D01*
X156224990Y-76275010D02*
X157600000Y-74900000D01*
X173200000Y-82900000D02*
X174450000Y-82900000D01*
X170500000Y-80200000D02*
X173200000Y-82900000D01*
X163800000Y-79800000D02*
X164200000Y-80200000D01*
X164200000Y-80200000D02*
X170500000Y-80200000D01*
X174900000Y-82900000D02*
X174450000Y-82900000D01*
X173000000Y-55950000D02*
X174220001Y-54729999D01*
X173000000Y-57000000D02*
X173000000Y-55950000D01*
X174220001Y-54729999D02*
X177475001Y-54729999D01*
X177475001Y-54729999D02*
X179655011Y-56910009D01*
X179655011Y-56910009D02*
X179655011Y-78144989D01*
X179655011Y-78144989D02*
X174900000Y-82900000D01*
X147700000Y-82900000D02*
X146450000Y-82900000D01*
X150025010Y-85225010D02*
X147700000Y-82900000D01*
X153498837Y-85225010D02*
X150025010Y-85225010D01*
X155300000Y-83423847D02*
X153498837Y-85225010D01*
X155300000Y-79800000D02*
X155300000Y-83423847D01*
X156200000Y-79800000D02*
X155300000Y-79800000D01*
X165648857Y-85225010D02*
X160223847Y-79800000D01*
X174998837Y-85225010D02*
X165648857Y-85225010D01*
X180105021Y-56723609D02*
X180105021Y-80118826D01*
X177661402Y-54279990D02*
X180105021Y-56723609D01*
X160223847Y-79800000D02*
X156200000Y-79800000D01*
X173520010Y-54279990D02*
X177661402Y-54279990D01*
X171700000Y-57990000D02*
X171700000Y-56100000D01*
X180105021Y-80118826D02*
X174998837Y-85225010D01*
X171700000Y-56100000D02*
X173520010Y-54279990D01*
X173000000Y-59290000D02*
X171700000Y-57990000D01*
X152100000Y-70950000D02*
X152350000Y-70950000D01*
X156170710Y-73329290D02*
X155300000Y-74200000D01*
X156170710Y-69250200D02*
X156170710Y-73329290D01*
X154329500Y-68349990D02*
X155270500Y-68349990D01*
X153449990Y-69229500D02*
X154329500Y-68349990D01*
X153449990Y-70175010D02*
X153449990Y-69229500D01*
X155270500Y-68349990D02*
X156170710Y-69250200D01*
X152675000Y-70950000D02*
X153449990Y-70175010D01*
X152100000Y-70950000D02*
X152675000Y-70950000D01*
X157313988Y-64174990D02*
X158938998Y-65800000D01*
X153629500Y-64174990D02*
X157313988Y-64174990D01*
X159100000Y-65800000D02*
X160000000Y-65800000D01*
X153299990Y-64504500D02*
X153629500Y-64174990D01*
X153299990Y-65120520D02*
X153299990Y-64504500D01*
X152100000Y-66320510D02*
X153299990Y-65120520D01*
X158938998Y-65800000D02*
X159100000Y-65800000D01*
X152100000Y-66750000D02*
X152100000Y-66320510D01*
X159200000Y-82900000D02*
X160450000Y-82900000D01*
X156424980Y-85675020D02*
X159200000Y-82900000D01*
X159129290Y-72270710D02*
X159129290Y-74007120D01*
X160000000Y-71400000D02*
X159129290Y-72270710D01*
X145124990Y-84448837D02*
X146351173Y-85675020D01*
X159129290Y-74007120D02*
X156336410Y-76800000D01*
X156336410Y-76800000D02*
X149676153Y-76800000D01*
X149676153Y-76800000D02*
X145124990Y-81351163D01*
X146351173Y-85675020D02*
X156424980Y-85675020D01*
X145124990Y-81351163D02*
X145124990Y-84448837D01*
X175040258Y-92475010D02*
X171275010Y-92475010D01*
X161700000Y-82900000D02*
X160450000Y-82900000D01*
X171275010Y-92475010D02*
X161700000Y-82900000D01*
X180555031Y-80665019D02*
X178025010Y-83195040D01*
X180555031Y-56537209D02*
X180555031Y-80665019D01*
X177847803Y-53829981D02*
X180555031Y-56537209D01*
X178025010Y-89490258D02*
X175040258Y-92475010D01*
X173333610Y-53829980D02*
X177847803Y-53829981D01*
X171249991Y-55913599D02*
X173333610Y-53829980D01*
X178025010Y-83195040D02*
X178025010Y-89490258D01*
X171249990Y-59829990D02*
X171249991Y-55913599D01*
X173000000Y-61580000D02*
X171249990Y-59829990D01*
X178879999Y-62379999D02*
X178080000Y-61580000D01*
X179205001Y-62705001D02*
X178879999Y-62379999D01*
X179205001Y-66700001D02*
X179205001Y-62705001D01*
X178405002Y-67500000D02*
X179205001Y-66700001D01*
X167100000Y-71400000D02*
X171000000Y-67500000D01*
X171000000Y-67500000D02*
X178405002Y-67500000D01*
X164100000Y-68800000D02*
X166229290Y-66670710D01*
X156700000Y-68800000D02*
X164100000Y-68800000D01*
X154800000Y-66775000D02*
X154800000Y-66900000D01*
X154800000Y-66900000D02*
X156700000Y-68800000D01*
X166229290Y-66670710D02*
X167100000Y-65800000D01*
X165524980Y-67375020D02*
X166229290Y-66670710D01*
X165524980Y-74924980D02*
X165524980Y-67375020D01*
X168150000Y-77550000D02*
X165524980Y-74924980D01*
X169000000Y-77550000D02*
X168150000Y-77550000D01*
X154100000Y-65025000D02*
X154800000Y-65025000D01*
X152900000Y-66225000D02*
X154100000Y-65025000D01*
X152900000Y-69720510D02*
X152900000Y-66225000D01*
X152570500Y-70050010D02*
X152900000Y-69720510D01*
X148400000Y-72600000D02*
X150949990Y-70050010D01*
X150949990Y-70050010D02*
X152570500Y-70050010D01*
X155299072Y-65524072D02*
X154800000Y-65025000D01*
X157650010Y-67875010D02*
X155299072Y-65524072D01*
X160788180Y-67875010D02*
X157650010Y-67875010D01*
X164550001Y-64113189D02*
X160788180Y-67875010D01*
X164550001Y-61449999D02*
X164550001Y-64113189D01*
X165550000Y-60450000D02*
X164550001Y-61449999D01*
X166549999Y-61449999D02*
X165550000Y-60450000D01*
X168225010Y-63125010D02*
X166549999Y-61449999D01*
X168225010Y-67538180D02*
X168225010Y-63125010D01*
X167888180Y-67875010D02*
X168225010Y-67538180D01*
X167761800Y-67875010D02*
X167888180Y-67875010D01*
X165974990Y-69661820D02*
X167761800Y-67875010D01*
X165974990Y-73138180D02*
X165974990Y-69661820D01*
X168366100Y-75529290D02*
X165974990Y-73138180D01*
X168429290Y-75529290D02*
X168366100Y-75529290D01*
X169000000Y-76100000D02*
X168429290Y-75529290D01*
X153900000Y-70100000D02*
X154800000Y-69200000D01*
X148400000Y-76600000D02*
X153900000Y-71100000D01*
X153900000Y-71100000D02*
X153900000Y-70100000D01*
X150550000Y-60450000D02*
X150550000Y-61150000D01*
X143900000Y-67800000D02*
X143900000Y-76122922D01*
X143900000Y-76122922D02*
X145406079Y-77629001D01*
X147696001Y-77303999D02*
X148400000Y-76600000D01*
X145406079Y-77629001D02*
X147370999Y-77629001D01*
X150550000Y-61150000D02*
X143900000Y-67800000D01*
X147370999Y-77629001D02*
X147696001Y-77303999D01*
X151525000Y-65000000D02*
X152100000Y-65000000D01*
X147977078Y-65000000D02*
X151525000Y-65000000D01*
X144870999Y-68106079D02*
X147977078Y-65000000D01*
X144870999Y-73824999D02*
X144870999Y-68106079D01*
X144946000Y-73900000D02*
X144870999Y-73824999D01*
X145900000Y-73900000D02*
X144946000Y-73900000D01*
X154150000Y-62950000D02*
X152100000Y-65000000D01*
X158050000Y-62950000D02*
X154150000Y-62950000D01*
X151600928Y-68700928D02*
X152100000Y-69200000D01*
X150470999Y-67570999D02*
X151600928Y-68700928D01*
X147906079Y-67570999D02*
X150470999Y-67570999D01*
X147370999Y-68106079D02*
X147906079Y-67570999D01*
X147370999Y-75129001D02*
X147370999Y-68106079D01*
X145900000Y-76600000D02*
X147370999Y-75129001D01*
X145196001Y-75896001D02*
X145900000Y-76600000D01*
X144420989Y-75120989D02*
X145196001Y-75896001D01*
X144420989Y-67919679D02*
X144420989Y-75120989D01*
X155461012Y-62499990D02*
X149840678Y-62499990D01*
X157511002Y-60450000D02*
X155461012Y-62499990D01*
X149840678Y-62499990D02*
X144420989Y-67919679D01*
X160550000Y-60450000D02*
X157511002Y-60450000D01*
X142704000Y-62250000D02*
X141950000Y-62250000D01*
X153050000Y-57950000D02*
X147004000Y-57950000D01*
X147004000Y-57950000D02*
X142704000Y-62250000D01*
X174395000Y-66160000D02*
X173000000Y-66160000D01*
X175540000Y-65015000D02*
X174395000Y-66160000D01*
X175540000Y-60435000D02*
X175540000Y-55855000D01*
X176339999Y-61234999D02*
X175540000Y-60435000D01*
X176665001Y-61560001D02*
X176339999Y-61234999D01*
X176665001Y-63889999D02*
X176665001Y-61560001D01*
X175540000Y-65015000D02*
X176665001Y-63889999D01*
X173799999Y-65360001D02*
X173000000Y-66160000D01*
X174400000Y-64760000D02*
X173799999Y-65360001D01*
X174400000Y-61600000D02*
X174400000Y-64760000D01*
X175540000Y-60435000D02*
X175540000Y-60460000D01*
X175540000Y-60460000D02*
X174400000Y-61600000D01*
D26*
G36*
X186740001Y-94740000D02*
G01*
X138060000Y-94740000D01*
X138060000Y-90277000D01*
X144715000Y-90277000D01*
X144715000Y-91177000D01*
X144773114Y-91513041D01*
X144895670Y-91831288D01*
X145077958Y-92119511D01*
X145312973Y-92366633D01*
X145591683Y-92563157D01*
X145903378Y-92701531D01*
X146053878Y-92739175D01*
X146323000Y-92621125D01*
X146323000Y-90277000D01*
X146577000Y-90277000D01*
X146577000Y-92621125D01*
X146846122Y-92739175D01*
X146996622Y-92701531D01*
X147308317Y-92563157D01*
X147587027Y-92366633D01*
X147822042Y-92119511D01*
X148004330Y-91831288D01*
X148126886Y-91513041D01*
X148185000Y-91177000D01*
X148185000Y-90277000D01*
X158715000Y-90277000D01*
X158715000Y-91177000D01*
X158773114Y-91513041D01*
X158895670Y-91831288D01*
X159077958Y-92119511D01*
X159312973Y-92366633D01*
X159591683Y-92563157D01*
X159903378Y-92701531D01*
X160053878Y-92739175D01*
X160323000Y-92621125D01*
X160323000Y-90277000D01*
X160577000Y-90277000D01*
X160577000Y-92621125D01*
X160846122Y-92739175D01*
X160996622Y-92701531D01*
X161308317Y-92563157D01*
X161587027Y-92366633D01*
X161822042Y-92119511D01*
X162004330Y-91831288D01*
X162126886Y-91513041D01*
X162185000Y-91177000D01*
X162185000Y-90277000D01*
X160577000Y-90277000D01*
X160323000Y-90277000D01*
X158715000Y-90277000D01*
X148185000Y-90277000D01*
X146577000Y-90277000D01*
X146323000Y-90277000D01*
X144715000Y-90277000D01*
X138060000Y-90277000D01*
X138060000Y-89123000D01*
X144715000Y-89123000D01*
X144715000Y-90023000D01*
X146323000Y-90023000D01*
X146323000Y-87678875D01*
X146577000Y-87678875D01*
X146577000Y-90023000D01*
X148185000Y-90023000D01*
X148185000Y-89123000D01*
X158715000Y-89123000D01*
X158715000Y-90023000D01*
X160323000Y-90023000D01*
X160323000Y-87678875D01*
X160577000Y-87678875D01*
X160577000Y-90023000D01*
X162185000Y-90023000D01*
X162185000Y-89123000D01*
X162126886Y-88786959D01*
X162004330Y-88468712D01*
X161822042Y-88180489D01*
X161587027Y-87933367D01*
X161308317Y-87736843D01*
X160996622Y-87598469D01*
X160846122Y-87560825D01*
X160577000Y-87678875D01*
X160323000Y-87678875D01*
X160053878Y-87560825D01*
X159903378Y-87598469D01*
X159591683Y-87736843D01*
X159312973Y-87933367D01*
X159077958Y-88180489D01*
X158895670Y-88468712D01*
X158773114Y-88786959D01*
X158715000Y-89123000D01*
X148185000Y-89123000D01*
X148126886Y-88786959D01*
X148004330Y-88468712D01*
X147822042Y-88180489D01*
X147587027Y-87933367D01*
X147308317Y-87736843D01*
X146996622Y-87598469D01*
X146846122Y-87560825D01*
X146577000Y-87678875D01*
X146323000Y-87678875D01*
X146053878Y-87560825D01*
X145903378Y-87598469D01*
X145591683Y-87736843D01*
X145312973Y-87933367D01*
X145077958Y-88180489D01*
X144895670Y-88468712D01*
X144773114Y-88786959D01*
X144715000Y-89123000D01*
X138060000Y-89123000D01*
X138060000Y-85278192D01*
X138321286Y-85417852D01*
X138629485Y-85511343D01*
X138950000Y-85542911D01*
X139270516Y-85511343D01*
X139578715Y-85417852D01*
X139862752Y-85266031D01*
X140111714Y-85061714D01*
X140316031Y-84812752D01*
X140467852Y-84528715D01*
X140561343Y-84220516D01*
X140585000Y-83980322D01*
X140585000Y-81819678D01*
X140561343Y-81579484D01*
X140467852Y-81271285D01*
X140316031Y-80987248D01*
X140111714Y-80738286D01*
X139862751Y-80533969D01*
X139578714Y-80382148D01*
X139270515Y-80288657D01*
X138950000Y-80257089D01*
X138629484Y-80288657D01*
X138321285Y-80382148D01*
X138060000Y-80521808D01*
X138060000Y-79888873D01*
X140654524Y-79888873D01*
X140705254Y-80326197D01*
X140840326Y-80745221D01*
X141011357Y-81065198D01*
X141337155Y-81233239D01*
X142720395Y-79850000D01*
X141337155Y-78466761D01*
X141011357Y-78634802D01*
X140810574Y-79026607D01*
X140690086Y-79450055D01*
X140654524Y-79888873D01*
X138060000Y-79888873D01*
X138060000Y-78287155D01*
X141516761Y-78287155D01*
X142900000Y-79670395D01*
X144283239Y-78287155D01*
X144115198Y-77961357D01*
X143723393Y-77760574D01*
X143299945Y-77640086D01*
X142861127Y-77604524D01*
X142423803Y-77655254D01*
X142004779Y-77790326D01*
X141684802Y-77961357D01*
X141516761Y-78287155D01*
X138060000Y-78287155D01*
X138060000Y-72737000D01*
X140605000Y-72737000D01*
X140605000Y-73587000D01*
X140658310Y-73874269D01*
X140766639Y-74145618D01*
X140925824Y-74390619D01*
X141129748Y-74599857D01*
X141370574Y-74765291D01*
X141639047Y-74880563D01*
X141733110Y-74901476D01*
X141963000Y-74780155D01*
X141963000Y-72737000D01*
X140605000Y-72737000D01*
X138060000Y-72737000D01*
X138060000Y-71633000D01*
X140605000Y-71633000D01*
X140605000Y-72483000D01*
X141963000Y-72483000D01*
X141963000Y-70439845D01*
X141733110Y-70318524D01*
X141639047Y-70339437D01*
X141370574Y-70454709D01*
X141129748Y-70620143D01*
X140925824Y-70829381D01*
X140766639Y-71074382D01*
X140658310Y-71345731D01*
X140605000Y-71633000D01*
X138060000Y-71633000D01*
X138060000Y-66912845D01*
X141516761Y-66912845D01*
X141684802Y-67238643D01*
X142076607Y-67439426D01*
X142500055Y-67559914D01*
X142938873Y-67595476D01*
X143176195Y-67567946D01*
X143150997Y-67651015D01*
X143140000Y-67762668D01*
X143140000Y-67762678D01*
X143136324Y-67800000D01*
X143140000Y-67837322D01*
X143140000Y-70712230D01*
X143050252Y-70620143D01*
X142809426Y-70454709D01*
X142540953Y-70339437D01*
X142446890Y-70318524D01*
X142217000Y-70439845D01*
X142217000Y-72483000D01*
X142237000Y-72483000D01*
X142237000Y-72737000D01*
X142217000Y-72737000D01*
X142217000Y-74780155D01*
X142446890Y-74901476D01*
X142540953Y-74880563D01*
X142809426Y-74765291D01*
X143050252Y-74599857D01*
X143140001Y-74507769D01*
X143140001Y-76085590D01*
X143136324Y-76122922D01*
X143140001Y-76160255D01*
X143150998Y-76271908D01*
X143151939Y-76275010D01*
X143194454Y-76415168D01*
X143265026Y-76547198D01*
X143308360Y-76600000D01*
X143360000Y-76662923D01*
X143388998Y-76686721D01*
X144842280Y-78140004D01*
X144866078Y-78169002D01*
X144981803Y-78263975D01*
X145113832Y-78334547D01*
X145257093Y-78378004D01*
X145368746Y-78389001D01*
X145368755Y-78389001D01*
X145406078Y-78392677D01*
X145443401Y-78389001D01*
X147012350Y-78389001D01*
X145093412Y-80307940D01*
X145109914Y-80249945D01*
X145145476Y-79811127D01*
X145094746Y-79373803D01*
X144959674Y-78954779D01*
X144788643Y-78634802D01*
X144462845Y-78466761D01*
X143079605Y-79850000D01*
X143093748Y-79864142D01*
X142914142Y-80043748D01*
X142900000Y-80029605D01*
X141516761Y-81412845D01*
X141684802Y-81738643D01*
X142076607Y-81939426D01*
X142500055Y-82059914D01*
X142938873Y-82095476D01*
X143376197Y-82044746D01*
X143795221Y-81909674D01*
X144115198Y-81738643D01*
X144283238Y-81412846D01*
X144364990Y-81494598D01*
X144364991Y-84411505D01*
X144361314Y-84448837D01*
X144375988Y-84597822D01*
X144419444Y-84741083D01*
X144490016Y-84873113D01*
X144524409Y-84915020D01*
X144584990Y-84988838D01*
X144613988Y-85012636D01*
X145787374Y-86186023D01*
X145811172Y-86215021D01*
X145840170Y-86238819D01*
X145926897Y-86309994D01*
X146058926Y-86380566D01*
X146202187Y-86424023D01*
X146351173Y-86438697D01*
X146388506Y-86435020D01*
X156387658Y-86435020D01*
X156424980Y-86438696D01*
X156462302Y-86435020D01*
X156462313Y-86435020D01*
X156573966Y-86424023D01*
X156717227Y-86380566D01*
X156849256Y-86309994D01*
X156964981Y-86215021D01*
X156988784Y-86186017D01*
X158865570Y-84309232D01*
X158932149Y-84528715D01*
X159083970Y-84812752D01*
X159288287Y-85061714D01*
X159537249Y-85266031D01*
X159821286Y-85417852D01*
X160129485Y-85511343D01*
X160450000Y-85542911D01*
X160770516Y-85511343D01*
X161078715Y-85417852D01*
X161362752Y-85266031D01*
X161611714Y-85061714D01*
X161816031Y-84812752D01*
X161967852Y-84528715D01*
X162034431Y-84309232D01*
X170711211Y-92986013D01*
X170735009Y-93015011D01*
X170764007Y-93038809D01*
X170850733Y-93109984D01*
X170982763Y-93180556D01*
X171126024Y-93224013D01*
X171237677Y-93235010D01*
X171237687Y-93235010D01*
X171275009Y-93238686D01*
X171312332Y-93235010D01*
X175002936Y-93235010D01*
X175040258Y-93238686D01*
X175077580Y-93235010D01*
X175077591Y-93235010D01*
X175189244Y-93224013D01*
X175332505Y-93180556D01*
X175464534Y-93109984D01*
X175580259Y-93015011D01*
X175604062Y-92986007D01*
X178048255Y-90541814D01*
X181199714Y-90541814D01*
X181214130Y-90614215D01*
X181320531Y-90866091D01*
X181474026Y-91092369D01*
X181668716Y-91284354D01*
X181897120Y-91434668D01*
X182150460Y-91537534D01*
X182419000Y-91589000D01*
X183173000Y-91589000D01*
X183173000Y-90327000D01*
X183427000Y-90327000D01*
X183427000Y-91589000D01*
X184181000Y-91589000D01*
X184449540Y-91537534D01*
X184702880Y-91434668D01*
X184931284Y-91284354D01*
X185125974Y-91092369D01*
X185279469Y-90866091D01*
X185385870Y-90614215D01*
X185400286Y-90541814D01*
X185277677Y-90327000D01*
X183427000Y-90327000D01*
X183173000Y-90327000D01*
X181322323Y-90327000D01*
X181199714Y-90541814D01*
X178048255Y-90541814D01*
X178536013Y-90054057D01*
X178565011Y-90030259D01*
X178659984Y-89914534D01*
X178730556Y-89782505D01*
X178774013Y-89639244D01*
X178785010Y-89527591D01*
X178785010Y-89527583D01*
X178788686Y-89490258D01*
X178785010Y-89452933D01*
X178785010Y-87700000D01*
X179150280Y-87700000D01*
X179177098Y-87972291D01*
X179256523Y-88234119D01*
X179385501Y-88475420D01*
X179559077Y-88686923D01*
X179770580Y-88860499D01*
X180011881Y-88989477D01*
X180273709Y-89068902D01*
X180477770Y-89089000D01*
X181709205Y-89089000D01*
X181668716Y-89115646D01*
X181474026Y-89307631D01*
X181320531Y-89533909D01*
X181214130Y-89785785D01*
X181199714Y-89858186D01*
X181322323Y-90073000D01*
X183173000Y-90073000D01*
X183173000Y-90053000D01*
X183427000Y-90053000D01*
X183427000Y-90073000D01*
X185277677Y-90073000D01*
X185400286Y-89858186D01*
X185385870Y-89785785D01*
X185279469Y-89533909D01*
X185125974Y-89307631D01*
X184931284Y-89115646D01*
X184702880Y-88965332D01*
X184449540Y-88862466D01*
X184181000Y-88811000D01*
X182889735Y-88811000D01*
X183040923Y-88686923D01*
X183214499Y-88475420D01*
X183343477Y-88234119D01*
X183422902Y-87972291D01*
X183449720Y-87700000D01*
X183422902Y-87427709D01*
X183343477Y-87165881D01*
X183214499Y-86924580D01*
X183040923Y-86713077D01*
X182829420Y-86539501D01*
X182588119Y-86410523D01*
X182326291Y-86331098D01*
X182122230Y-86311000D01*
X180477770Y-86311000D01*
X180273709Y-86331098D01*
X180011881Y-86410523D01*
X179770580Y-86539501D01*
X179559077Y-86713077D01*
X179385501Y-86924580D01*
X179256523Y-87165881D01*
X179177098Y-87427709D01*
X179150280Y-87700000D01*
X178785010Y-87700000D01*
X178785010Y-83509841D01*
X179362487Y-82932364D01*
X179385501Y-82975420D01*
X179559077Y-83186923D01*
X179770580Y-83360499D01*
X180011881Y-83489477D01*
X180273709Y-83568902D01*
X180477770Y-83589000D01*
X181249510Y-83589000D01*
X181177098Y-83827709D01*
X181150280Y-84100000D01*
X181177098Y-84372291D01*
X181256523Y-84634119D01*
X181385501Y-84875420D01*
X181559077Y-85086923D01*
X181770580Y-85260499D01*
X182011881Y-85389477D01*
X182273709Y-85468902D01*
X182477770Y-85489000D01*
X184122230Y-85489000D01*
X184326291Y-85468902D01*
X184588119Y-85389477D01*
X184829420Y-85260499D01*
X185040923Y-85086923D01*
X185214499Y-84875420D01*
X185343477Y-84634119D01*
X185422902Y-84372291D01*
X185449720Y-84100000D01*
X185422902Y-83827709D01*
X185343477Y-83565881D01*
X185214499Y-83324580D01*
X185040923Y-83113077D01*
X184829420Y-82939501D01*
X184588119Y-82810523D01*
X184326291Y-82731098D01*
X184122230Y-82711000D01*
X183350490Y-82711000D01*
X183422902Y-82472291D01*
X183449720Y-82200000D01*
X183422902Y-81927709D01*
X183343477Y-81665881D01*
X183214499Y-81424580D01*
X183040923Y-81213077D01*
X182829420Y-81039501D01*
X182588119Y-80910523D01*
X182326291Y-80831098D01*
X182122230Y-80811000D01*
X181304330Y-80811000D01*
X181315031Y-80702352D01*
X181315031Y-80702342D01*
X181318707Y-80665020D01*
X181315031Y-80627697D01*
X181315031Y-79243580D01*
X181385501Y-79375420D01*
X181559077Y-79586923D01*
X181770580Y-79760499D01*
X182011881Y-79889477D01*
X182273709Y-79968902D01*
X182477770Y-79989000D01*
X184122230Y-79989000D01*
X184326291Y-79968902D01*
X184588119Y-79889477D01*
X184829420Y-79760499D01*
X185040923Y-79586923D01*
X185214499Y-79375420D01*
X185343477Y-79134119D01*
X185422902Y-78872291D01*
X185449720Y-78600000D01*
X185422902Y-78327709D01*
X185343477Y-78065881D01*
X185214499Y-77824580D01*
X185040923Y-77613077D01*
X184829420Y-77439501D01*
X184588119Y-77310523D01*
X184326291Y-77231098D01*
X184122230Y-77211000D01*
X182477770Y-77211000D01*
X182273709Y-77231098D01*
X182011881Y-77310523D01*
X181770580Y-77439501D01*
X181559077Y-77613077D01*
X181385501Y-77824580D01*
X181315031Y-77956420D01*
X181315031Y-56574542D01*
X181318708Y-56537209D01*
X181304034Y-56388223D01*
X181260577Y-56244962D01*
X181190005Y-56112933D01*
X181118830Y-56026206D01*
X181095032Y-55997208D01*
X181066035Y-55973411D01*
X178411602Y-53318979D01*
X178387804Y-53289981D01*
X178358804Y-53266181D01*
X178272079Y-53195007D01*
X178140049Y-53124435D01*
X178040245Y-53094161D01*
X177996789Y-53080979D01*
X177885136Y-53069982D01*
X177847803Y-53066305D01*
X177810471Y-53069982D01*
X173370932Y-53069980D01*
X173333609Y-53066304D01*
X173296286Y-53069980D01*
X173296278Y-53069980D01*
X173184625Y-53080977D01*
X173103742Y-53105512D01*
X173041363Y-53124434D01*
X172909333Y-53195007D01*
X172822607Y-53266181D01*
X172822603Y-53266185D01*
X172793610Y-53289979D01*
X172769816Y-53318972D01*
X170738989Y-55349800D01*
X170709991Y-55373598D01*
X170686193Y-55402596D01*
X170686192Y-55402597D01*
X170615017Y-55489323D01*
X170544445Y-55621353D01*
X170514171Y-55721157D01*
X170500989Y-55764613D01*
X170498665Y-55788206D01*
X170486315Y-55913599D01*
X170489992Y-55950931D01*
X170489990Y-59792667D01*
X170486314Y-59829990D01*
X170489990Y-59867312D01*
X170489990Y-59867322D01*
X170500987Y-59978975D01*
X170544444Y-60122236D01*
X170615016Y-60254266D01*
X170683658Y-60337906D01*
X170709989Y-60369990D01*
X170738987Y-60393788D01*
X171601312Y-61256114D01*
X171565000Y-61438665D01*
X171565000Y-61721335D01*
X171620147Y-61998574D01*
X171728320Y-62259727D01*
X171885363Y-62494759D01*
X172085241Y-62694637D01*
X172130683Y-62725000D01*
X172085241Y-62755363D01*
X171885363Y-62955241D01*
X171728320Y-63190273D01*
X171620147Y-63451426D01*
X171565000Y-63728665D01*
X171565000Y-64011335D01*
X171620147Y-64288574D01*
X171728320Y-64549727D01*
X171885363Y-64784759D01*
X172085241Y-64984637D01*
X172215049Y-65071372D01*
X172186903Y-65167298D01*
X173000000Y-65980395D01*
X173813097Y-65167298D01*
X173784951Y-65071372D01*
X173914759Y-64984637D01*
X174114637Y-64784759D01*
X174120529Y-64775941D01*
X174113700Y-64803184D01*
X174099783Y-65085512D01*
X174141213Y-65365130D01*
X174151340Y-65393449D01*
X173992702Y-65346903D01*
X173179605Y-66160000D01*
X173193748Y-66174143D01*
X173014143Y-66353748D01*
X173000000Y-66339605D01*
X172985858Y-66353748D01*
X172806253Y-66174143D01*
X172820395Y-66160000D01*
X172007298Y-65346903D01*
X171763329Y-65418486D01*
X171642429Y-65673996D01*
X171573700Y-65948184D01*
X171559783Y-66230512D01*
X171601213Y-66510130D01*
X171683418Y-66740000D01*
X171037323Y-66740000D01*
X171000000Y-66736324D01*
X170962677Y-66740000D01*
X170962667Y-66740000D01*
X170851014Y-66750997D01*
X170707753Y-66794454D01*
X170575723Y-66865026D01*
X170517456Y-66912845D01*
X170459999Y-66959999D01*
X170436201Y-66988997D01*
X168209415Y-69215783D01*
X168143386Y-69161595D01*
X167989850Y-69079528D01*
X167823254Y-69028992D01*
X167695229Y-69016383D01*
X168109559Y-68602053D01*
X168180427Y-68580556D01*
X168312456Y-68509984D01*
X168428181Y-68415011D01*
X168451984Y-68386007D01*
X168736008Y-68101983D01*
X168765011Y-68078181D01*
X168859984Y-67962456D01*
X168930556Y-67830427D01*
X168974013Y-67687166D01*
X168985010Y-67575513D01*
X168985010Y-67575512D01*
X168988687Y-67538180D01*
X168985010Y-67500847D01*
X168985010Y-63162332D01*
X168988686Y-63125009D01*
X168985010Y-63087686D01*
X168985010Y-63087677D01*
X168974013Y-62976024D01*
X168930556Y-62832763D01*
X168859984Y-62700734D01*
X168765011Y-62585009D01*
X168736013Y-62561211D01*
X167116177Y-60941376D01*
X167122168Y-60926912D01*
X167185000Y-60611033D01*
X167185000Y-60288967D01*
X167122168Y-59973088D01*
X166998918Y-59675537D01*
X166819987Y-59407748D01*
X166592252Y-59180013D01*
X166324463Y-59001082D01*
X166026912Y-58877832D01*
X165711033Y-58815000D01*
X165388967Y-58815000D01*
X165073088Y-58877832D01*
X164775537Y-59001082D01*
X164507748Y-59180013D01*
X164280013Y-59407748D01*
X164101082Y-59675537D01*
X163977832Y-59973088D01*
X163915000Y-60288967D01*
X163915000Y-60611033D01*
X163977832Y-60926912D01*
X163983966Y-60941721D01*
X163968142Y-60961003D01*
X163915027Y-61025723D01*
X163880937Y-61089501D01*
X163844455Y-61157753D01*
X163800998Y-61301014D01*
X163790001Y-61412667D01*
X163790001Y-61412677D01*
X163786325Y-61449999D01*
X163790001Y-61487322D01*
X163790002Y-63798386D01*
X161438072Y-66150317D01*
X161438072Y-64300000D01*
X161421008Y-64126746D01*
X161370472Y-63960150D01*
X161288405Y-63806614D01*
X161177962Y-63672038D01*
X161043386Y-63561595D01*
X160889850Y-63479528D01*
X160723254Y-63428992D01*
X160550000Y-63411928D01*
X159625148Y-63411928D01*
X159685000Y-63111033D01*
X159685000Y-62788967D01*
X159622168Y-62473088D01*
X159498918Y-62175537D01*
X159319987Y-61907748D01*
X159092252Y-61680013D01*
X158824463Y-61501082D01*
X158526912Y-61377832D01*
X158211033Y-61315000D01*
X157888967Y-61315000D01*
X157679049Y-61356755D01*
X157825804Y-61210000D01*
X159095091Y-61210000D01*
X159101082Y-61224463D01*
X159280013Y-61492252D01*
X159507748Y-61719987D01*
X159775537Y-61898918D01*
X160073088Y-62022168D01*
X160388967Y-62085000D01*
X160711033Y-62085000D01*
X161026912Y-62022168D01*
X161324463Y-61898918D01*
X161592252Y-61719987D01*
X161819987Y-61492252D01*
X161998918Y-61224463D01*
X162122168Y-60926912D01*
X162185000Y-60611033D01*
X162185000Y-60288967D01*
X162122168Y-59973088D01*
X161998918Y-59675537D01*
X161819987Y-59407748D01*
X161592252Y-59180013D01*
X161324463Y-59001082D01*
X161026912Y-58877832D01*
X160711033Y-58815000D01*
X160388967Y-58815000D01*
X160073088Y-58877832D01*
X159775537Y-59001082D01*
X159507748Y-59180013D01*
X159280013Y-59407748D01*
X159101082Y-59675537D01*
X159095091Y-59690000D01*
X157548327Y-59690000D01*
X157511002Y-59686324D01*
X157473677Y-59690000D01*
X157473669Y-59690000D01*
X157362016Y-59700997D01*
X157218755Y-59744454D01*
X157086726Y-59815026D01*
X157064315Y-59833418D01*
X156998918Y-59675537D01*
X156819987Y-59407748D01*
X156592252Y-59180013D01*
X156450674Y-59085413D01*
X157094192Y-59085413D01*
X157189956Y-59349814D01*
X157479571Y-59490704D01*
X157791108Y-59572384D01*
X158112595Y-59591718D01*
X158431675Y-59547961D01*
X158736088Y-59442795D01*
X158910044Y-59349814D01*
X159005808Y-59085413D01*
X158050000Y-58129605D01*
X157094192Y-59085413D01*
X156450674Y-59085413D01*
X156324463Y-59001082D01*
X156026912Y-58877832D01*
X155711033Y-58815000D01*
X155388967Y-58815000D01*
X155073088Y-58877832D01*
X154775537Y-59001082D01*
X154507748Y-59180013D01*
X154280013Y-59407748D01*
X154101082Y-59675537D01*
X153977832Y-59973088D01*
X153915000Y-60288967D01*
X153915000Y-60611033D01*
X153977832Y-60926912D01*
X154101082Y-61224463D01*
X154280013Y-61492252D01*
X154507748Y-61719987D01*
X154537685Y-61739990D01*
X151562315Y-61739990D01*
X151592252Y-61719987D01*
X151819987Y-61492252D01*
X151998918Y-61224463D01*
X152122168Y-60926912D01*
X152185000Y-60611033D01*
X152185000Y-60288967D01*
X152122168Y-59973088D01*
X151998918Y-59675537D01*
X151819987Y-59407748D01*
X151592252Y-59180013D01*
X151324463Y-59001082D01*
X151026912Y-58877832D01*
X150711033Y-58815000D01*
X150388967Y-58815000D01*
X150073088Y-58877832D01*
X149775537Y-59001082D01*
X149507748Y-59180013D01*
X149280013Y-59407748D01*
X149101082Y-59675537D01*
X148977832Y-59973088D01*
X148915000Y-60288967D01*
X148915000Y-60611033D01*
X148977832Y-60926912D01*
X149101082Y-61224463D01*
X149221106Y-61404092D01*
X145130608Y-65494591D01*
X145145476Y-65311127D01*
X145094746Y-64873803D01*
X144959674Y-64454779D01*
X144788643Y-64134802D01*
X144462845Y-63966761D01*
X143079605Y-65350000D01*
X143093748Y-65364143D01*
X142914143Y-65543748D01*
X142900000Y-65529605D01*
X141516761Y-66912845D01*
X138060000Y-66912845D01*
X138060000Y-65388873D01*
X140654524Y-65388873D01*
X140705254Y-65826197D01*
X140840326Y-66245221D01*
X141011357Y-66565198D01*
X141337155Y-66733239D01*
X142720395Y-65350000D01*
X141337155Y-63966761D01*
X141011357Y-64134802D01*
X140810574Y-64526607D01*
X140690086Y-64950055D01*
X140654524Y-65388873D01*
X138060000Y-65388873D01*
X138060000Y-56750000D01*
X139800280Y-56750000D01*
X139827098Y-57022291D01*
X139906523Y-57284119D01*
X140035501Y-57525420D01*
X140209077Y-57736923D01*
X140420580Y-57910499D01*
X140661881Y-58039477D01*
X140923709Y-58118902D01*
X141127770Y-58139000D01*
X141899510Y-58139000D01*
X141827098Y-58377709D01*
X141800280Y-58650000D01*
X141827098Y-58922291D01*
X141906523Y-59184119D01*
X142035501Y-59425420D01*
X142209077Y-59636923D01*
X142420580Y-59810499D01*
X142661881Y-59939477D01*
X142923709Y-60018902D01*
X143127770Y-60039000D01*
X143840199Y-60039000D01*
X142993025Y-60886174D01*
X142976291Y-60881098D01*
X142772230Y-60861000D01*
X141127770Y-60861000D01*
X140923709Y-60881098D01*
X140661881Y-60960523D01*
X140420580Y-61089501D01*
X140209077Y-61263077D01*
X140035501Y-61474580D01*
X139906523Y-61715881D01*
X139827098Y-61977709D01*
X139800280Y-62250000D01*
X139827098Y-62522291D01*
X139906523Y-62784119D01*
X140035501Y-63025420D01*
X140209077Y-63236923D01*
X140420580Y-63410499D01*
X140661881Y-63539477D01*
X140923709Y-63618902D01*
X141127770Y-63639000D01*
X141593177Y-63639000D01*
X141516761Y-63787155D01*
X142900000Y-65170395D01*
X144283239Y-63787155D01*
X144115198Y-63461357D01*
X143723393Y-63260574D01*
X143677883Y-63247625D01*
X143690923Y-63236923D01*
X143864499Y-63025420D01*
X143993477Y-62784119D01*
X144072902Y-62522291D01*
X144099720Y-62250000D01*
X144072902Y-61977709D01*
X144067826Y-61960975D01*
X147318802Y-58710000D01*
X151595091Y-58710000D01*
X151601082Y-58724463D01*
X151780013Y-58992252D01*
X152007748Y-59219987D01*
X152275537Y-59398918D01*
X152573088Y-59522168D01*
X152888967Y-59585000D01*
X153211033Y-59585000D01*
X153526912Y-59522168D01*
X153824463Y-59398918D01*
X154092252Y-59219987D01*
X154319987Y-58992252D01*
X154498918Y-58724463D01*
X154622168Y-58426912D01*
X154685000Y-58111033D01*
X154685000Y-58012595D01*
X156408282Y-58012595D01*
X156452039Y-58331675D01*
X156557205Y-58636088D01*
X156650186Y-58810044D01*
X156914587Y-58905808D01*
X157870395Y-57950000D01*
X158229605Y-57950000D01*
X159185413Y-58905808D01*
X159449814Y-58810044D01*
X159590704Y-58520429D01*
X159672384Y-58208892D01*
X159691718Y-57887405D01*
X159678219Y-57788967D01*
X161415000Y-57788967D01*
X161415000Y-58111033D01*
X161477832Y-58426912D01*
X161601082Y-58724463D01*
X161780013Y-58992252D01*
X162007748Y-59219987D01*
X162275537Y-59398918D01*
X162573088Y-59522168D01*
X162888967Y-59585000D01*
X163211033Y-59585000D01*
X163526912Y-59522168D01*
X163824463Y-59398918D01*
X164092252Y-59219987D01*
X164319987Y-58992252D01*
X164498918Y-58724463D01*
X164622168Y-58426912D01*
X164685000Y-58111033D01*
X164685000Y-57788967D01*
X164622168Y-57473088D01*
X164498918Y-57175537D01*
X164319987Y-56907748D01*
X164092252Y-56680013D01*
X163824463Y-56501082D01*
X163526912Y-56377832D01*
X163211033Y-56315000D01*
X162888967Y-56315000D01*
X162573088Y-56377832D01*
X162275537Y-56501082D01*
X162007748Y-56680013D01*
X161780013Y-56907748D01*
X161601082Y-57175537D01*
X161477832Y-57473088D01*
X161415000Y-57788967D01*
X159678219Y-57788967D01*
X159647961Y-57568325D01*
X159542795Y-57263912D01*
X159449814Y-57089956D01*
X159185413Y-56994192D01*
X158229605Y-57950000D01*
X157870395Y-57950000D01*
X156914587Y-56994192D01*
X156650186Y-57089956D01*
X156509296Y-57379571D01*
X156427616Y-57691108D01*
X156408282Y-58012595D01*
X154685000Y-58012595D01*
X154685000Y-57788967D01*
X154622168Y-57473088D01*
X154498918Y-57175537D01*
X154319987Y-56907748D01*
X154226826Y-56814587D01*
X157094192Y-56814587D01*
X158050000Y-57770395D01*
X159005808Y-56814587D01*
X158910044Y-56550186D01*
X158620429Y-56409296D01*
X158308892Y-56327616D01*
X157987405Y-56308282D01*
X157668325Y-56352039D01*
X157363912Y-56457205D01*
X157189956Y-56550186D01*
X157094192Y-56814587D01*
X154226826Y-56814587D01*
X154092252Y-56680013D01*
X153824463Y-56501082D01*
X153526912Y-56377832D01*
X153211033Y-56315000D01*
X152888967Y-56315000D01*
X152573088Y-56377832D01*
X152275537Y-56501082D01*
X152007748Y-56680013D01*
X151780013Y-56907748D01*
X151601082Y-57175537D01*
X151595091Y-57190000D01*
X147041322Y-57190000D01*
X147003999Y-57186324D01*
X146966676Y-57190000D01*
X146966667Y-57190000D01*
X146855014Y-57200997D01*
X146711753Y-57244454D01*
X146579724Y-57315026D01*
X146463999Y-57409999D01*
X146440201Y-57438997D01*
X145913306Y-57965892D01*
X145864499Y-57874580D01*
X145690923Y-57663077D01*
X145479420Y-57489501D01*
X145238119Y-57360523D01*
X144976291Y-57281098D01*
X144772230Y-57261000D01*
X144000490Y-57261000D01*
X144072902Y-57022291D01*
X144099720Y-56750000D01*
X144072902Y-56477709D01*
X143993477Y-56215881D01*
X143864499Y-55974580D01*
X143690923Y-55763077D01*
X143479420Y-55589501D01*
X143238119Y-55460523D01*
X142976291Y-55381098D01*
X142772230Y-55361000D01*
X141127770Y-55361000D01*
X140923709Y-55381098D01*
X140661881Y-55460523D01*
X140420580Y-55589501D01*
X140209077Y-55763077D01*
X140035501Y-55974580D01*
X139906523Y-56215881D01*
X139827098Y-56477709D01*
X139800280Y-56750000D01*
X138060000Y-56750000D01*
X138060000Y-53150000D01*
X141800280Y-53150000D01*
X141827098Y-53422291D01*
X141906523Y-53684119D01*
X142035501Y-53925420D01*
X142209077Y-54136923D01*
X142420580Y-54310499D01*
X142661881Y-54439477D01*
X142923709Y-54518902D01*
X143127770Y-54539000D01*
X144772230Y-54539000D01*
X144976291Y-54518902D01*
X145238119Y-54439477D01*
X145479420Y-54310499D01*
X145690923Y-54136923D01*
X145864499Y-53925420D01*
X145993477Y-53684119D01*
X146072902Y-53422291D01*
X146099720Y-53150000D01*
X146072902Y-52877709D01*
X146040007Y-52769268D01*
X148715000Y-52769268D01*
X148715000Y-53130732D01*
X148785518Y-53485250D01*
X148923844Y-53819199D01*
X149124662Y-54119744D01*
X149380256Y-54375338D01*
X149680801Y-54576156D01*
X150014750Y-54714482D01*
X150369268Y-54785000D01*
X150730732Y-54785000D01*
X151085250Y-54714482D01*
X151419199Y-54576156D01*
X151719744Y-54375338D01*
X151975338Y-54119744D01*
X152176156Y-53819199D01*
X152314482Y-53485250D01*
X152385000Y-53130732D01*
X152385000Y-52769268D01*
X163715000Y-52769268D01*
X163715000Y-53130732D01*
X163785518Y-53485250D01*
X163923844Y-53819199D01*
X164124662Y-54119744D01*
X164380256Y-54375338D01*
X164680801Y-54576156D01*
X165014750Y-54714482D01*
X165369268Y-54785000D01*
X165730732Y-54785000D01*
X166085250Y-54714482D01*
X166419199Y-54576156D01*
X166719744Y-54375338D01*
X166975338Y-54119744D01*
X167176156Y-53819199D01*
X167314482Y-53485250D01*
X167385000Y-53130732D01*
X167385000Y-52769268D01*
X167314482Y-52414750D01*
X167176156Y-52080801D01*
X166975338Y-51780256D01*
X166719744Y-51524662D01*
X166419199Y-51323844D01*
X166085250Y-51185518D01*
X165730732Y-51115000D01*
X165369268Y-51115000D01*
X165014750Y-51185518D01*
X164680801Y-51323844D01*
X164380256Y-51524662D01*
X164124662Y-51780256D01*
X163923844Y-52080801D01*
X163785518Y-52414750D01*
X163715000Y-52769268D01*
X152385000Y-52769268D01*
X152314482Y-52414750D01*
X152176156Y-52080801D01*
X151975338Y-51780256D01*
X151719744Y-51524662D01*
X151419199Y-51323844D01*
X151085250Y-51185518D01*
X150730732Y-51115000D01*
X150369268Y-51115000D01*
X150014750Y-51185518D01*
X149680801Y-51323844D01*
X149380256Y-51524662D01*
X149124662Y-51780256D01*
X148923844Y-52080801D01*
X148785518Y-52414750D01*
X148715000Y-52769268D01*
X146040007Y-52769268D01*
X145993477Y-52615881D01*
X145864499Y-52374580D01*
X145690923Y-52163077D01*
X145479420Y-51989501D01*
X145238119Y-51860523D01*
X144976291Y-51781098D01*
X144772230Y-51761000D01*
X143540795Y-51761000D01*
X143581284Y-51734354D01*
X143775974Y-51542369D01*
X143929469Y-51316091D01*
X144035870Y-51064215D01*
X144050286Y-50991814D01*
X143927677Y-50777000D01*
X142077000Y-50777000D01*
X142077000Y-52039000D01*
X142360265Y-52039000D01*
X142209077Y-52163077D01*
X142035501Y-52374580D01*
X141906523Y-52615881D01*
X141827098Y-52877709D01*
X141800280Y-53150000D01*
X138060000Y-53150000D01*
X138060000Y-50991814D01*
X139849714Y-50991814D01*
X139864130Y-51064215D01*
X139970531Y-51316091D01*
X140124026Y-51542369D01*
X140318716Y-51734354D01*
X140547120Y-51884668D01*
X140800460Y-51987534D01*
X141069000Y-52039000D01*
X141823000Y-52039000D01*
X141823000Y-50777000D01*
X139972323Y-50777000D01*
X139849714Y-50991814D01*
X138060000Y-50991814D01*
X138060000Y-50662499D01*
X173872106Y-50662499D01*
X174088228Y-51029258D01*
X174548105Y-51269938D01*
X175046098Y-51416275D01*
X175563071Y-51462648D01*
X176079159Y-51407273D01*
X176574526Y-51252279D01*
X176991772Y-51029258D01*
X177207894Y-50662499D01*
X175540000Y-48994605D01*
X173872106Y-50662499D01*
X138060000Y-50662499D01*
X138060000Y-50308186D01*
X139849714Y-50308186D01*
X139972323Y-50523000D01*
X141823000Y-50523000D01*
X141823000Y-50503000D01*
X142077000Y-50503000D01*
X142077000Y-50523000D01*
X143927677Y-50523000D01*
X144050286Y-50308186D01*
X144035870Y-50235785D01*
X143929469Y-49983909D01*
X143775974Y-49757631D01*
X143581284Y-49565646D01*
X143352880Y-49415332D01*
X143099540Y-49312466D01*
X142831000Y-49261000D01*
X141069000Y-49261000D01*
X140800460Y-49312466D01*
X140547120Y-49415332D01*
X140318716Y-49565646D01*
X140124026Y-49757631D01*
X139970531Y-49983909D01*
X139864130Y-50235785D01*
X139849714Y-50308186D01*
X138060000Y-50308186D01*
X138060000Y-49085413D01*
X154594192Y-49085413D01*
X154689956Y-49349814D01*
X154979571Y-49490704D01*
X155291108Y-49572384D01*
X155612595Y-49591718D01*
X155931675Y-49547961D01*
X156236088Y-49442795D01*
X156410044Y-49349814D01*
X156505808Y-49085413D01*
X159594192Y-49085413D01*
X159689956Y-49349814D01*
X159979571Y-49490704D01*
X160291108Y-49572384D01*
X160612595Y-49591718D01*
X160931675Y-49547961D01*
X161236088Y-49442795D01*
X161410044Y-49349814D01*
X161505808Y-49085413D01*
X160550000Y-48129605D01*
X159594192Y-49085413D01*
X156505808Y-49085413D01*
X155550000Y-48129605D01*
X154594192Y-49085413D01*
X138060000Y-49085413D01*
X138060000Y-48012595D01*
X153908282Y-48012595D01*
X153952039Y-48331675D01*
X154057205Y-48636088D01*
X154150186Y-48810044D01*
X154414587Y-48905808D01*
X155370395Y-47950000D01*
X155729605Y-47950000D01*
X156685413Y-48905808D01*
X156949814Y-48810044D01*
X157090704Y-48520429D01*
X157172384Y-48208892D01*
X157184189Y-48012595D01*
X158908282Y-48012595D01*
X158952039Y-48331675D01*
X159057205Y-48636088D01*
X159150186Y-48810044D01*
X159414587Y-48905808D01*
X160370395Y-47950000D01*
X160729605Y-47950000D01*
X161685413Y-48905808D01*
X161872432Y-48838071D01*
X172892352Y-48838071D01*
X172947727Y-49354159D01*
X173102721Y-49849526D01*
X173325742Y-50266772D01*
X173692501Y-50482894D01*
X175360395Y-48815000D01*
X175719605Y-48815000D01*
X177387499Y-50482894D01*
X177754258Y-50266772D01*
X177994938Y-49806895D01*
X178141275Y-49308902D01*
X178187648Y-48791929D01*
X178132273Y-48275841D01*
X177977279Y-47780474D01*
X177754258Y-47363228D01*
X177387499Y-47147106D01*
X175719605Y-48815000D01*
X175360395Y-48815000D01*
X173692501Y-47147106D01*
X173325742Y-47363228D01*
X173085062Y-47823105D01*
X172938725Y-48321098D01*
X172892352Y-48838071D01*
X161872432Y-48838071D01*
X161949814Y-48810044D01*
X162090704Y-48520429D01*
X162172384Y-48208892D01*
X162191718Y-47887405D01*
X162147961Y-47568325D01*
X162042795Y-47263912D01*
X161949814Y-47089956D01*
X161685413Y-46994192D01*
X160729605Y-47950000D01*
X160370395Y-47950000D01*
X159414587Y-46994192D01*
X159150186Y-47089956D01*
X159009296Y-47379571D01*
X158927616Y-47691108D01*
X158908282Y-48012595D01*
X157184189Y-48012595D01*
X157191718Y-47887405D01*
X157147961Y-47568325D01*
X157042795Y-47263912D01*
X156949814Y-47089956D01*
X156685413Y-46994192D01*
X155729605Y-47950000D01*
X155370395Y-47950000D01*
X154414587Y-46994192D01*
X154150186Y-47089956D01*
X154009296Y-47379571D01*
X153927616Y-47691108D01*
X153908282Y-48012595D01*
X138060000Y-48012595D01*
X138060000Y-46814587D01*
X154594192Y-46814587D01*
X155550000Y-47770395D01*
X156505808Y-46814587D01*
X159594192Y-46814587D01*
X160550000Y-47770395D01*
X161352894Y-46967501D01*
X173872106Y-46967501D01*
X175540000Y-48635395D01*
X177207894Y-46967501D01*
X176991772Y-46600742D01*
X176531895Y-46360062D01*
X176033902Y-46213725D01*
X175516929Y-46167352D01*
X175000841Y-46222727D01*
X174505474Y-46377721D01*
X174088228Y-46600742D01*
X173872106Y-46967501D01*
X161352894Y-46967501D01*
X161505808Y-46814587D01*
X161410044Y-46550186D01*
X161120429Y-46409296D01*
X160808892Y-46327616D01*
X160487405Y-46308282D01*
X160168325Y-46352039D01*
X159863912Y-46457205D01*
X159689956Y-46550186D01*
X159594192Y-46814587D01*
X156505808Y-46814587D01*
X156410044Y-46550186D01*
X156120429Y-46409296D01*
X155808892Y-46327616D01*
X155487405Y-46308282D01*
X155168325Y-46352039D01*
X154863912Y-46457205D01*
X154689956Y-46550186D01*
X154594192Y-46814587D01*
X138060000Y-46814587D01*
X138060000Y-46060000D01*
X186740000Y-46060000D01*
X186740001Y-94740000D01*
X186740001Y-94740000D01*
G37*
X186740001Y-94740000D02*
X138060000Y-94740000D01*
X138060000Y-90277000D01*
X144715000Y-90277000D01*
X144715000Y-91177000D01*
X144773114Y-91513041D01*
X144895670Y-91831288D01*
X145077958Y-92119511D01*
X145312973Y-92366633D01*
X145591683Y-92563157D01*
X145903378Y-92701531D01*
X146053878Y-92739175D01*
X146323000Y-92621125D01*
X146323000Y-90277000D01*
X146577000Y-90277000D01*
X146577000Y-92621125D01*
X146846122Y-92739175D01*
X146996622Y-92701531D01*
X147308317Y-92563157D01*
X147587027Y-92366633D01*
X147822042Y-92119511D01*
X148004330Y-91831288D01*
X148126886Y-91513041D01*
X148185000Y-91177000D01*
X148185000Y-90277000D01*
X158715000Y-90277000D01*
X158715000Y-91177000D01*
X158773114Y-91513041D01*
X158895670Y-91831288D01*
X159077958Y-92119511D01*
X159312973Y-92366633D01*
X159591683Y-92563157D01*
X159903378Y-92701531D01*
X160053878Y-92739175D01*
X160323000Y-92621125D01*
X160323000Y-90277000D01*
X160577000Y-90277000D01*
X160577000Y-92621125D01*
X160846122Y-92739175D01*
X160996622Y-92701531D01*
X161308317Y-92563157D01*
X161587027Y-92366633D01*
X161822042Y-92119511D01*
X162004330Y-91831288D01*
X162126886Y-91513041D01*
X162185000Y-91177000D01*
X162185000Y-90277000D01*
X160577000Y-90277000D01*
X160323000Y-90277000D01*
X158715000Y-90277000D01*
X148185000Y-90277000D01*
X146577000Y-90277000D01*
X146323000Y-90277000D01*
X144715000Y-90277000D01*
X138060000Y-90277000D01*
X138060000Y-89123000D01*
X144715000Y-89123000D01*
X144715000Y-90023000D01*
X146323000Y-90023000D01*
X146323000Y-87678875D01*
X146577000Y-87678875D01*
X146577000Y-90023000D01*
X148185000Y-90023000D01*
X148185000Y-89123000D01*
X158715000Y-89123000D01*
X158715000Y-90023000D01*
X160323000Y-90023000D01*
X160323000Y-87678875D01*
X160577000Y-87678875D01*
X160577000Y-90023000D01*
X162185000Y-90023000D01*
X162185000Y-89123000D01*
X162126886Y-88786959D01*
X162004330Y-88468712D01*
X161822042Y-88180489D01*
X161587027Y-87933367D01*
X161308317Y-87736843D01*
X160996622Y-87598469D01*
X160846122Y-87560825D01*
X160577000Y-87678875D01*
X160323000Y-87678875D01*
X160053878Y-87560825D01*
X159903378Y-87598469D01*
X159591683Y-87736843D01*
X159312973Y-87933367D01*
X159077958Y-88180489D01*
X158895670Y-88468712D01*
X158773114Y-88786959D01*
X158715000Y-89123000D01*
X148185000Y-89123000D01*
X148126886Y-88786959D01*
X148004330Y-88468712D01*
X147822042Y-88180489D01*
X147587027Y-87933367D01*
X147308317Y-87736843D01*
X146996622Y-87598469D01*
X146846122Y-87560825D01*
X146577000Y-87678875D01*
X146323000Y-87678875D01*
X146053878Y-87560825D01*
X145903378Y-87598469D01*
X145591683Y-87736843D01*
X145312973Y-87933367D01*
X145077958Y-88180489D01*
X144895670Y-88468712D01*
X144773114Y-88786959D01*
X144715000Y-89123000D01*
X138060000Y-89123000D01*
X138060000Y-85278192D01*
X138321286Y-85417852D01*
X138629485Y-85511343D01*
X138950000Y-85542911D01*
X139270516Y-85511343D01*
X139578715Y-85417852D01*
X139862752Y-85266031D01*
X140111714Y-85061714D01*
X140316031Y-84812752D01*
X140467852Y-84528715D01*
X140561343Y-84220516D01*
X140585000Y-83980322D01*
X140585000Y-81819678D01*
X140561343Y-81579484D01*
X140467852Y-81271285D01*
X140316031Y-80987248D01*
X140111714Y-80738286D01*
X139862751Y-80533969D01*
X139578714Y-80382148D01*
X139270515Y-80288657D01*
X138950000Y-80257089D01*
X138629484Y-80288657D01*
X138321285Y-80382148D01*
X138060000Y-80521808D01*
X138060000Y-79888873D01*
X140654524Y-79888873D01*
X140705254Y-80326197D01*
X140840326Y-80745221D01*
X141011357Y-81065198D01*
X141337155Y-81233239D01*
X142720395Y-79850000D01*
X141337155Y-78466761D01*
X141011357Y-78634802D01*
X140810574Y-79026607D01*
X140690086Y-79450055D01*
X140654524Y-79888873D01*
X138060000Y-79888873D01*
X138060000Y-78287155D01*
X141516761Y-78287155D01*
X142900000Y-79670395D01*
X144283239Y-78287155D01*
X144115198Y-77961357D01*
X143723393Y-77760574D01*
X143299945Y-77640086D01*
X142861127Y-77604524D01*
X142423803Y-77655254D01*
X142004779Y-77790326D01*
X141684802Y-77961357D01*
X141516761Y-78287155D01*
X138060000Y-78287155D01*
X138060000Y-72737000D01*
X140605000Y-72737000D01*
X140605000Y-73587000D01*
X140658310Y-73874269D01*
X140766639Y-74145618D01*
X140925824Y-74390619D01*
X141129748Y-74599857D01*
X141370574Y-74765291D01*
X141639047Y-74880563D01*
X141733110Y-74901476D01*
X141963000Y-74780155D01*
X141963000Y-72737000D01*
X140605000Y-72737000D01*
X138060000Y-72737000D01*
X138060000Y-71633000D01*
X140605000Y-71633000D01*
X140605000Y-72483000D01*
X141963000Y-72483000D01*
X141963000Y-70439845D01*
X141733110Y-70318524D01*
X141639047Y-70339437D01*
X141370574Y-70454709D01*
X141129748Y-70620143D01*
X140925824Y-70829381D01*
X140766639Y-71074382D01*
X140658310Y-71345731D01*
X140605000Y-71633000D01*
X138060000Y-71633000D01*
X138060000Y-66912845D01*
X141516761Y-66912845D01*
X141684802Y-67238643D01*
X142076607Y-67439426D01*
X142500055Y-67559914D01*
X142938873Y-67595476D01*
X143176195Y-67567946D01*
X143150997Y-67651015D01*
X143140000Y-67762668D01*
X143140000Y-67762678D01*
X143136324Y-67800000D01*
X143140000Y-67837322D01*
X143140000Y-70712230D01*
X143050252Y-70620143D01*
X142809426Y-70454709D01*
X142540953Y-70339437D01*
X142446890Y-70318524D01*
X142217000Y-70439845D01*
X142217000Y-72483000D01*
X142237000Y-72483000D01*
X142237000Y-72737000D01*
X142217000Y-72737000D01*
X142217000Y-74780155D01*
X142446890Y-74901476D01*
X142540953Y-74880563D01*
X142809426Y-74765291D01*
X143050252Y-74599857D01*
X143140001Y-74507769D01*
X143140001Y-76085590D01*
X143136324Y-76122922D01*
X143140001Y-76160255D01*
X143150998Y-76271908D01*
X143151939Y-76275010D01*
X143194454Y-76415168D01*
X143265026Y-76547198D01*
X143308360Y-76600000D01*
X143360000Y-76662923D01*
X143388998Y-76686721D01*
X144842280Y-78140004D01*
X144866078Y-78169002D01*
X144981803Y-78263975D01*
X145113832Y-78334547D01*
X145257093Y-78378004D01*
X145368746Y-78389001D01*
X145368755Y-78389001D01*
X145406078Y-78392677D01*
X145443401Y-78389001D01*
X147012350Y-78389001D01*
X145093412Y-80307940D01*
X145109914Y-80249945D01*
X145145476Y-79811127D01*
X145094746Y-79373803D01*
X144959674Y-78954779D01*
X144788643Y-78634802D01*
X144462845Y-78466761D01*
X143079605Y-79850000D01*
X143093748Y-79864142D01*
X142914142Y-80043748D01*
X142900000Y-80029605D01*
X141516761Y-81412845D01*
X141684802Y-81738643D01*
X142076607Y-81939426D01*
X142500055Y-82059914D01*
X142938873Y-82095476D01*
X143376197Y-82044746D01*
X143795221Y-81909674D01*
X144115198Y-81738643D01*
X144283238Y-81412846D01*
X144364990Y-81494598D01*
X144364991Y-84411505D01*
X144361314Y-84448837D01*
X144375988Y-84597822D01*
X144419444Y-84741083D01*
X144490016Y-84873113D01*
X144524409Y-84915020D01*
X144584990Y-84988838D01*
X144613988Y-85012636D01*
X145787374Y-86186023D01*
X145811172Y-86215021D01*
X145840170Y-86238819D01*
X145926897Y-86309994D01*
X146058926Y-86380566D01*
X146202187Y-86424023D01*
X146351173Y-86438697D01*
X146388506Y-86435020D01*
X156387658Y-86435020D01*
X156424980Y-86438696D01*
X156462302Y-86435020D01*
X156462313Y-86435020D01*
X156573966Y-86424023D01*
X156717227Y-86380566D01*
X156849256Y-86309994D01*
X156964981Y-86215021D01*
X156988784Y-86186017D01*
X158865570Y-84309232D01*
X158932149Y-84528715D01*
X159083970Y-84812752D01*
X159288287Y-85061714D01*
X159537249Y-85266031D01*
X159821286Y-85417852D01*
X160129485Y-85511343D01*
X160450000Y-85542911D01*
X160770516Y-85511343D01*
X161078715Y-85417852D01*
X161362752Y-85266031D01*
X161611714Y-85061714D01*
X161816031Y-84812752D01*
X161967852Y-84528715D01*
X162034431Y-84309232D01*
X170711211Y-92986013D01*
X170735009Y-93015011D01*
X170764007Y-93038809D01*
X170850733Y-93109984D01*
X170982763Y-93180556D01*
X171126024Y-93224013D01*
X171237677Y-93235010D01*
X171237687Y-93235010D01*
X171275009Y-93238686D01*
X171312332Y-93235010D01*
X175002936Y-93235010D01*
X175040258Y-93238686D01*
X175077580Y-93235010D01*
X175077591Y-93235010D01*
X175189244Y-93224013D01*
X175332505Y-93180556D01*
X175464534Y-93109984D01*
X175580259Y-93015011D01*
X175604062Y-92986007D01*
X178048255Y-90541814D01*
X181199714Y-90541814D01*
X181214130Y-90614215D01*
X181320531Y-90866091D01*
X181474026Y-91092369D01*
X181668716Y-91284354D01*
X181897120Y-91434668D01*
X182150460Y-91537534D01*
X182419000Y-91589000D01*
X183173000Y-91589000D01*
X183173000Y-90327000D01*
X183427000Y-90327000D01*
X183427000Y-91589000D01*
X184181000Y-91589000D01*
X184449540Y-91537534D01*
X184702880Y-91434668D01*
X184931284Y-91284354D01*
X185125974Y-91092369D01*
X185279469Y-90866091D01*
X185385870Y-90614215D01*
X185400286Y-90541814D01*
X185277677Y-90327000D01*
X183427000Y-90327000D01*
X183173000Y-90327000D01*
X181322323Y-90327000D01*
X181199714Y-90541814D01*
X178048255Y-90541814D01*
X178536013Y-90054057D01*
X178565011Y-90030259D01*
X178659984Y-89914534D01*
X178730556Y-89782505D01*
X178774013Y-89639244D01*
X178785010Y-89527591D01*
X178785010Y-89527583D01*
X178788686Y-89490258D01*
X178785010Y-89452933D01*
X178785010Y-87700000D01*
X179150280Y-87700000D01*
X179177098Y-87972291D01*
X179256523Y-88234119D01*
X179385501Y-88475420D01*
X179559077Y-88686923D01*
X179770580Y-88860499D01*
X180011881Y-88989477D01*
X180273709Y-89068902D01*
X180477770Y-89089000D01*
X181709205Y-89089000D01*
X181668716Y-89115646D01*
X181474026Y-89307631D01*
X181320531Y-89533909D01*
X181214130Y-89785785D01*
X181199714Y-89858186D01*
X181322323Y-90073000D01*
X183173000Y-90073000D01*
X183173000Y-90053000D01*
X183427000Y-90053000D01*
X183427000Y-90073000D01*
X185277677Y-90073000D01*
X185400286Y-89858186D01*
X185385870Y-89785785D01*
X185279469Y-89533909D01*
X185125974Y-89307631D01*
X184931284Y-89115646D01*
X184702880Y-88965332D01*
X184449540Y-88862466D01*
X184181000Y-88811000D01*
X182889735Y-88811000D01*
X183040923Y-88686923D01*
X183214499Y-88475420D01*
X183343477Y-88234119D01*
X183422902Y-87972291D01*
X183449720Y-87700000D01*
X183422902Y-87427709D01*
X183343477Y-87165881D01*
X183214499Y-86924580D01*
X183040923Y-86713077D01*
X182829420Y-86539501D01*
X182588119Y-86410523D01*
X182326291Y-86331098D01*
X182122230Y-86311000D01*
X180477770Y-86311000D01*
X180273709Y-86331098D01*
X180011881Y-86410523D01*
X179770580Y-86539501D01*
X179559077Y-86713077D01*
X179385501Y-86924580D01*
X179256523Y-87165881D01*
X179177098Y-87427709D01*
X179150280Y-87700000D01*
X178785010Y-87700000D01*
X178785010Y-83509841D01*
X179362487Y-82932364D01*
X179385501Y-82975420D01*
X179559077Y-83186923D01*
X179770580Y-83360499D01*
X180011881Y-83489477D01*
X180273709Y-83568902D01*
X180477770Y-83589000D01*
X181249510Y-83589000D01*
X181177098Y-83827709D01*
X181150280Y-84100000D01*
X181177098Y-84372291D01*
X181256523Y-84634119D01*
X181385501Y-84875420D01*
X181559077Y-85086923D01*
X181770580Y-85260499D01*
X182011881Y-85389477D01*
X182273709Y-85468902D01*
X182477770Y-85489000D01*
X184122230Y-85489000D01*
X184326291Y-85468902D01*
X184588119Y-85389477D01*
X184829420Y-85260499D01*
X185040923Y-85086923D01*
X185214499Y-84875420D01*
X185343477Y-84634119D01*
X185422902Y-84372291D01*
X185449720Y-84100000D01*
X185422902Y-83827709D01*
X185343477Y-83565881D01*
X185214499Y-83324580D01*
X185040923Y-83113077D01*
X184829420Y-82939501D01*
X184588119Y-82810523D01*
X184326291Y-82731098D01*
X184122230Y-82711000D01*
X183350490Y-82711000D01*
X183422902Y-82472291D01*
X183449720Y-82200000D01*
X183422902Y-81927709D01*
X183343477Y-81665881D01*
X183214499Y-81424580D01*
X183040923Y-81213077D01*
X182829420Y-81039501D01*
X182588119Y-80910523D01*
X182326291Y-80831098D01*
X182122230Y-80811000D01*
X181304330Y-80811000D01*
X181315031Y-80702352D01*
X181315031Y-80702342D01*
X181318707Y-80665020D01*
X181315031Y-80627697D01*
X181315031Y-79243580D01*
X181385501Y-79375420D01*
X181559077Y-79586923D01*
X181770580Y-79760499D01*
X182011881Y-79889477D01*
X182273709Y-79968902D01*
X182477770Y-79989000D01*
X184122230Y-79989000D01*
X184326291Y-79968902D01*
X184588119Y-79889477D01*
X184829420Y-79760499D01*
X185040923Y-79586923D01*
X185214499Y-79375420D01*
X185343477Y-79134119D01*
X185422902Y-78872291D01*
X185449720Y-78600000D01*
X185422902Y-78327709D01*
X185343477Y-78065881D01*
X185214499Y-77824580D01*
X185040923Y-77613077D01*
X184829420Y-77439501D01*
X184588119Y-77310523D01*
X184326291Y-77231098D01*
X184122230Y-77211000D01*
X182477770Y-77211000D01*
X182273709Y-77231098D01*
X182011881Y-77310523D01*
X181770580Y-77439501D01*
X181559077Y-77613077D01*
X181385501Y-77824580D01*
X181315031Y-77956420D01*
X181315031Y-56574542D01*
X181318708Y-56537209D01*
X181304034Y-56388223D01*
X181260577Y-56244962D01*
X181190005Y-56112933D01*
X181118830Y-56026206D01*
X181095032Y-55997208D01*
X181066035Y-55973411D01*
X178411602Y-53318979D01*
X178387804Y-53289981D01*
X178358804Y-53266181D01*
X178272079Y-53195007D01*
X178140049Y-53124435D01*
X178040245Y-53094161D01*
X177996789Y-53080979D01*
X177885136Y-53069982D01*
X177847803Y-53066305D01*
X177810471Y-53069982D01*
X173370932Y-53069980D01*
X173333609Y-53066304D01*
X173296286Y-53069980D01*
X173296278Y-53069980D01*
X173184625Y-53080977D01*
X173103742Y-53105512D01*
X173041363Y-53124434D01*
X172909333Y-53195007D01*
X172822607Y-53266181D01*
X172822603Y-53266185D01*
X172793610Y-53289979D01*
X172769816Y-53318972D01*
X170738989Y-55349800D01*
X170709991Y-55373598D01*
X170686193Y-55402596D01*
X170686192Y-55402597D01*
X170615017Y-55489323D01*
X170544445Y-55621353D01*
X170514171Y-55721157D01*
X170500989Y-55764613D01*
X170498665Y-55788206D01*
X170486315Y-55913599D01*
X170489992Y-55950931D01*
X170489990Y-59792667D01*
X170486314Y-59829990D01*
X170489990Y-59867312D01*
X170489990Y-59867322D01*
X170500987Y-59978975D01*
X170544444Y-60122236D01*
X170615016Y-60254266D01*
X170683658Y-60337906D01*
X170709989Y-60369990D01*
X170738987Y-60393788D01*
X171601312Y-61256114D01*
X171565000Y-61438665D01*
X171565000Y-61721335D01*
X171620147Y-61998574D01*
X171728320Y-62259727D01*
X171885363Y-62494759D01*
X172085241Y-62694637D01*
X172130683Y-62725000D01*
X172085241Y-62755363D01*
X171885363Y-62955241D01*
X171728320Y-63190273D01*
X171620147Y-63451426D01*
X171565000Y-63728665D01*
X171565000Y-64011335D01*
X171620147Y-64288574D01*
X171728320Y-64549727D01*
X171885363Y-64784759D01*
X172085241Y-64984637D01*
X172215049Y-65071372D01*
X172186903Y-65167298D01*
X173000000Y-65980395D01*
X173813097Y-65167298D01*
X173784951Y-65071372D01*
X173914759Y-64984637D01*
X174114637Y-64784759D01*
X174120529Y-64775941D01*
X174113700Y-64803184D01*
X174099783Y-65085512D01*
X174141213Y-65365130D01*
X174151340Y-65393449D01*
X173992702Y-65346903D01*
X173179605Y-66160000D01*
X173193748Y-66174143D01*
X173014143Y-66353748D01*
X173000000Y-66339605D01*
X172985858Y-66353748D01*
X172806253Y-66174143D01*
X172820395Y-66160000D01*
X172007298Y-65346903D01*
X171763329Y-65418486D01*
X171642429Y-65673996D01*
X171573700Y-65948184D01*
X171559783Y-66230512D01*
X171601213Y-66510130D01*
X171683418Y-66740000D01*
X171037323Y-66740000D01*
X171000000Y-66736324D01*
X170962677Y-66740000D01*
X170962667Y-66740000D01*
X170851014Y-66750997D01*
X170707753Y-66794454D01*
X170575723Y-66865026D01*
X170517456Y-66912845D01*
X170459999Y-66959999D01*
X170436201Y-66988997D01*
X168209415Y-69215783D01*
X168143386Y-69161595D01*
X167989850Y-69079528D01*
X167823254Y-69028992D01*
X167695229Y-69016383D01*
X168109559Y-68602053D01*
X168180427Y-68580556D01*
X168312456Y-68509984D01*
X168428181Y-68415011D01*
X168451984Y-68386007D01*
X168736008Y-68101983D01*
X168765011Y-68078181D01*
X168859984Y-67962456D01*
X168930556Y-67830427D01*
X168974013Y-67687166D01*
X168985010Y-67575513D01*
X168985010Y-67575512D01*
X168988687Y-67538180D01*
X168985010Y-67500847D01*
X168985010Y-63162332D01*
X168988686Y-63125009D01*
X168985010Y-63087686D01*
X168985010Y-63087677D01*
X168974013Y-62976024D01*
X168930556Y-62832763D01*
X168859984Y-62700734D01*
X168765011Y-62585009D01*
X168736013Y-62561211D01*
X167116177Y-60941376D01*
X167122168Y-60926912D01*
X167185000Y-60611033D01*
X167185000Y-60288967D01*
X167122168Y-59973088D01*
X166998918Y-59675537D01*
X166819987Y-59407748D01*
X166592252Y-59180013D01*
X166324463Y-59001082D01*
X166026912Y-58877832D01*
X165711033Y-58815000D01*
X165388967Y-58815000D01*
X165073088Y-58877832D01*
X164775537Y-59001082D01*
X164507748Y-59180013D01*
X164280013Y-59407748D01*
X164101082Y-59675537D01*
X163977832Y-59973088D01*
X163915000Y-60288967D01*
X163915000Y-60611033D01*
X163977832Y-60926912D01*
X163983966Y-60941721D01*
X163968142Y-60961003D01*
X163915027Y-61025723D01*
X163880937Y-61089501D01*
X163844455Y-61157753D01*
X163800998Y-61301014D01*
X163790001Y-61412667D01*
X163790001Y-61412677D01*
X163786325Y-61449999D01*
X163790001Y-61487322D01*
X163790002Y-63798386D01*
X161438072Y-66150317D01*
X161438072Y-64300000D01*
X161421008Y-64126746D01*
X161370472Y-63960150D01*
X161288405Y-63806614D01*
X161177962Y-63672038D01*
X161043386Y-63561595D01*
X160889850Y-63479528D01*
X160723254Y-63428992D01*
X160550000Y-63411928D01*
X159625148Y-63411928D01*
X159685000Y-63111033D01*
X159685000Y-62788967D01*
X159622168Y-62473088D01*
X159498918Y-62175537D01*
X159319987Y-61907748D01*
X159092252Y-61680013D01*
X158824463Y-61501082D01*
X158526912Y-61377832D01*
X158211033Y-61315000D01*
X157888967Y-61315000D01*
X157679049Y-61356755D01*
X157825804Y-61210000D01*
X159095091Y-61210000D01*
X159101082Y-61224463D01*
X159280013Y-61492252D01*
X159507748Y-61719987D01*
X159775537Y-61898918D01*
X160073088Y-62022168D01*
X160388967Y-62085000D01*
X160711033Y-62085000D01*
X161026912Y-62022168D01*
X161324463Y-61898918D01*
X161592252Y-61719987D01*
X161819987Y-61492252D01*
X161998918Y-61224463D01*
X162122168Y-60926912D01*
X162185000Y-60611033D01*
X162185000Y-60288967D01*
X162122168Y-59973088D01*
X161998918Y-59675537D01*
X161819987Y-59407748D01*
X161592252Y-59180013D01*
X161324463Y-59001082D01*
X161026912Y-58877832D01*
X160711033Y-58815000D01*
X160388967Y-58815000D01*
X160073088Y-58877832D01*
X159775537Y-59001082D01*
X159507748Y-59180013D01*
X159280013Y-59407748D01*
X159101082Y-59675537D01*
X159095091Y-59690000D01*
X157548327Y-59690000D01*
X157511002Y-59686324D01*
X157473677Y-59690000D01*
X157473669Y-59690000D01*
X157362016Y-59700997D01*
X157218755Y-59744454D01*
X157086726Y-59815026D01*
X157064315Y-59833418D01*
X156998918Y-59675537D01*
X156819987Y-59407748D01*
X156592252Y-59180013D01*
X156450674Y-59085413D01*
X157094192Y-59085413D01*
X157189956Y-59349814D01*
X157479571Y-59490704D01*
X157791108Y-59572384D01*
X158112595Y-59591718D01*
X158431675Y-59547961D01*
X158736088Y-59442795D01*
X158910044Y-59349814D01*
X159005808Y-59085413D01*
X158050000Y-58129605D01*
X157094192Y-59085413D01*
X156450674Y-59085413D01*
X156324463Y-59001082D01*
X156026912Y-58877832D01*
X155711033Y-58815000D01*
X155388967Y-58815000D01*
X155073088Y-58877832D01*
X154775537Y-59001082D01*
X154507748Y-59180013D01*
X154280013Y-59407748D01*
X154101082Y-59675537D01*
X153977832Y-59973088D01*
X153915000Y-60288967D01*
X153915000Y-60611033D01*
X153977832Y-60926912D01*
X154101082Y-61224463D01*
X154280013Y-61492252D01*
X154507748Y-61719987D01*
X154537685Y-61739990D01*
X151562315Y-61739990D01*
X151592252Y-61719987D01*
X151819987Y-61492252D01*
X151998918Y-61224463D01*
X152122168Y-60926912D01*
X152185000Y-60611033D01*
X152185000Y-60288967D01*
X152122168Y-59973088D01*
X151998918Y-59675537D01*
X151819987Y-59407748D01*
X151592252Y-59180013D01*
X151324463Y-59001082D01*
X151026912Y-58877832D01*
X150711033Y-58815000D01*
X150388967Y-58815000D01*
X150073088Y-58877832D01*
X149775537Y-59001082D01*
X149507748Y-59180013D01*
X149280013Y-59407748D01*
X149101082Y-59675537D01*
X148977832Y-59973088D01*
X148915000Y-60288967D01*
X148915000Y-60611033D01*
X148977832Y-60926912D01*
X149101082Y-61224463D01*
X149221106Y-61404092D01*
X145130608Y-65494591D01*
X145145476Y-65311127D01*
X145094746Y-64873803D01*
X144959674Y-64454779D01*
X144788643Y-64134802D01*
X144462845Y-63966761D01*
X143079605Y-65350000D01*
X143093748Y-65364143D01*
X142914143Y-65543748D01*
X142900000Y-65529605D01*
X141516761Y-66912845D01*
X138060000Y-66912845D01*
X138060000Y-65388873D01*
X140654524Y-65388873D01*
X140705254Y-65826197D01*
X140840326Y-66245221D01*
X141011357Y-66565198D01*
X141337155Y-66733239D01*
X142720395Y-65350000D01*
X141337155Y-63966761D01*
X141011357Y-64134802D01*
X140810574Y-64526607D01*
X140690086Y-64950055D01*
X140654524Y-65388873D01*
X138060000Y-65388873D01*
X138060000Y-56750000D01*
X139800280Y-56750000D01*
X139827098Y-57022291D01*
X139906523Y-57284119D01*
X140035501Y-57525420D01*
X140209077Y-57736923D01*
X140420580Y-57910499D01*
X140661881Y-58039477D01*
X140923709Y-58118902D01*
X141127770Y-58139000D01*
X141899510Y-58139000D01*
X141827098Y-58377709D01*
X141800280Y-58650000D01*
X141827098Y-58922291D01*
X141906523Y-59184119D01*
X142035501Y-59425420D01*
X142209077Y-59636923D01*
X142420580Y-59810499D01*
X142661881Y-59939477D01*
X142923709Y-60018902D01*
X143127770Y-60039000D01*
X143840199Y-60039000D01*
X142993025Y-60886174D01*
X142976291Y-60881098D01*
X142772230Y-60861000D01*
X141127770Y-60861000D01*
X140923709Y-60881098D01*
X140661881Y-60960523D01*
X140420580Y-61089501D01*
X140209077Y-61263077D01*
X140035501Y-61474580D01*
X139906523Y-61715881D01*
X139827098Y-61977709D01*
X139800280Y-62250000D01*
X139827098Y-62522291D01*
X139906523Y-62784119D01*
X140035501Y-63025420D01*
X140209077Y-63236923D01*
X140420580Y-63410499D01*
X140661881Y-63539477D01*
X140923709Y-63618902D01*
X141127770Y-63639000D01*
X141593177Y-63639000D01*
X141516761Y-63787155D01*
X142900000Y-65170395D01*
X144283239Y-63787155D01*
X144115198Y-63461357D01*
X143723393Y-63260574D01*
X143677883Y-63247625D01*
X143690923Y-63236923D01*
X143864499Y-63025420D01*
X143993477Y-62784119D01*
X144072902Y-62522291D01*
X144099720Y-62250000D01*
X144072902Y-61977709D01*
X144067826Y-61960975D01*
X147318802Y-58710000D01*
X151595091Y-58710000D01*
X151601082Y-58724463D01*
X151780013Y-58992252D01*
X152007748Y-59219987D01*
X152275537Y-59398918D01*
X152573088Y-59522168D01*
X152888967Y-59585000D01*
X153211033Y-59585000D01*
X153526912Y-59522168D01*
X153824463Y-59398918D01*
X154092252Y-59219987D01*
X154319987Y-58992252D01*
X154498918Y-58724463D01*
X154622168Y-58426912D01*
X154685000Y-58111033D01*
X154685000Y-58012595D01*
X156408282Y-58012595D01*
X156452039Y-58331675D01*
X156557205Y-58636088D01*
X156650186Y-58810044D01*
X156914587Y-58905808D01*
X157870395Y-57950000D01*
X158229605Y-57950000D01*
X159185413Y-58905808D01*
X159449814Y-58810044D01*
X159590704Y-58520429D01*
X159672384Y-58208892D01*
X159691718Y-57887405D01*
X159678219Y-57788967D01*
X161415000Y-57788967D01*
X161415000Y-58111033D01*
X161477832Y-58426912D01*
X161601082Y-58724463D01*
X161780013Y-58992252D01*
X162007748Y-59219987D01*
X162275537Y-59398918D01*
X162573088Y-59522168D01*
X162888967Y-59585000D01*
X163211033Y-59585000D01*
X163526912Y-59522168D01*
X163824463Y-59398918D01*
X164092252Y-59219987D01*
X164319987Y-58992252D01*
X164498918Y-58724463D01*
X164622168Y-58426912D01*
X164685000Y-58111033D01*
X164685000Y-57788967D01*
X164622168Y-57473088D01*
X164498918Y-57175537D01*
X164319987Y-56907748D01*
X164092252Y-56680013D01*
X163824463Y-56501082D01*
X163526912Y-56377832D01*
X163211033Y-56315000D01*
X162888967Y-56315000D01*
X162573088Y-56377832D01*
X162275537Y-56501082D01*
X162007748Y-56680013D01*
X161780013Y-56907748D01*
X161601082Y-57175537D01*
X161477832Y-57473088D01*
X161415000Y-57788967D01*
X159678219Y-57788967D01*
X159647961Y-57568325D01*
X159542795Y-57263912D01*
X159449814Y-57089956D01*
X159185413Y-56994192D01*
X158229605Y-57950000D01*
X157870395Y-57950000D01*
X156914587Y-56994192D01*
X156650186Y-57089956D01*
X156509296Y-57379571D01*
X156427616Y-57691108D01*
X156408282Y-58012595D01*
X154685000Y-58012595D01*
X154685000Y-57788967D01*
X154622168Y-57473088D01*
X154498918Y-57175537D01*
X154319987Y-56907748D01*
X154226826Y-56814587D01*
X157094192Y-56814587D01*
X158050000Y-57770395D01*
X159005808Y-56814587D01*
X158910044Y-56550186D01*
X158620429Y-56409296D01*
X158308892Y-56327616D01*
X157987405Y-56308282D01*
X157668325Y-56352039D01*
X157363912Y-56457205D01*
X157189956Y-56550186D01*
X157094192Y-56814587D01*
X154226826Y-56814587D01*
X154092252Y-56680013D01*
X153824463Y-56501082D01*
X153526912Y-56377832D01*
X153211033Y-56315000D01*
X152888967Y-56315000D01*
X152573088Y-56377832D01*
X152275537Y-56501082D01*
X152007748Y-56680013D01*
X151780013Y-56907748D01*
X151601082Y-57175537D01*
X151595091Y-57190000D01*
X147041322Y-57190000D01*
X147003999Y-57186324D01*
X146966676Y-57190000D01*
X146966667Y-57190000D01*
X146855014Y-57200997D01*
X146711753Y-57244454D01*
X146579724Y-57315026D01*
X146463999Y-57409999D01*
X146440201Y-57438997D01*
X145913306Y-57965892D01*
X145864499Y-57874580D01*
X145690923Y-57663077D01*
X145479420Y-57489501D01*
X145238119Y-57360523D01*
X144976291Y-57281098D01*
X144772230Y-57261000D01*
X144000490Y-57261000D01*
X144072902Y-57022291D01*
X144099720Y-56750000D01*
X144072902Y-56477709D01*
X143993477Y-56215881D01*
X143864499Y-55974580D01*
X143690923Y-55763077D01*
X143479420Y-55589501D01*
X143238119Y-55460523D01*
X142976291Y-55381098D01*
X142772230Y-55361000D01*
X141127770Y-55361000D01*
X140923709Y-55381098D01*
X140661881Y-55460523D01*
X140420580Y-55589501D01*
X140209077Y-55763077D01*
X140035501Y-55974580D01*
X139906523Y-56215881D01*
X139827098Y-56477709D01*
X139800280Y-56750000D01*
X138060000Y-56750000D01*
X138060000Y-53150000D01*
X141800280Y-53150000D01*
X141827098Y-53422291D01*
X141906523Y-53684119D01*
X142035501Y-53925420D01*
X142209077Y-54136923D01*
X142420580Y-54310499D01*
X142661881Y-54439477D01*
X142923709Y-54518902D01*
X143127770Y-54539000D01*
X144772230Y-54539000D01*
X144976291Y-54518902D01*
X145238119Y-54439477D01*
X145479420Y-54310499D01*
X145690923Y-54136923D01*
X145864499Y-53925420D01*
X145993477Y-53684119D01*
X146072902Y-53422291D01*
X146099720Y-53150000D01*
X146072902Y-52877709D01*
X146040007Y-52769268D01*
X148715000Y-52769268D01*
X148715000Y-53130732D01*
X148785518Y-53485250D01*
X148923844Y-53819199D01*
X149124662Y-54119744D01*
X149380256Y-54375338D01*
X149680801Y-54576156D01*
X150014750Y-54714482D01*
X150369268Y-54785000D01*
X150730732Y-54785000D01*
X151085250Y-54714482D01*
X151419199Y-54576156D01*
X151719744Y-54375338D01*
X151975338Y-54119744D01*
X152176156Y-53819199D01*
X152314482Y-53485250D01*
X152385000Y-53130732D01*
X152385000Y-52769268D01*
X163715000Y-52769268D01*
X163715000Y-53130732D01*
X163785518Y-53485250D01*
X163923844Y-53819199D01*
X164124662Y-54119744D01*
X164380256Y-54375338D01*
X164680801Y-54576156D01*
X165014750Y-54714482D01*
X165369268Y-54785000D01*
X165730732Y-54785000D01*
X166085250Y-54714482D01*
X166419199Y-54576156D01*
X166719744Y-54375338D01*
X166975338Y-54119744D01*
X167176156Y-53819199D01*
X167314482Y-53485250D01*
X167385000Y-53130732D01*
X167385000Y-52769268D01*
X167314482Y-52414750D01*
X167176156Y-52080801D01*
X166975338Y-51780256D01*
X166719744Y-51524662D01*
X166419199Y-51323844D01*
X166085250Y-51185518D01*
X165730732Y-51115000D01*
X165369268Y-51115000D01*
X165014750Y-51185518D01*
X164680801Y-51323844D01*
X164380256Y-51524662D01*
X164124662Y-51780256D01*
X163923844Y-52080801D01*
X163785518Y-52414750D01*
X163715000Y-52769268D01*
X152385000Y-52769268D01*
X152314482Y-52414750D01*
X152176156Y-52080801D01*
X151975338Y-51780256D01*
X151719744Y-51524662D01*
X151419199Y-51323844D01*
X151085250Y-51185518D01*
X150730732Y-51115000D01*
X150369268Y-51115000D01*
X150014750Y-51185518D01*
X149680801Y-51323844D01*
X149380256Y-51524662D01*
X149124662Y-51780256D01*
X148923844Y-52080801D01*
X148785518Y-52414750D01*
X148715000Y-52769268D01*
X146040007Y-52769268D01*
X145993477Y-52615881D01*
X145864499Y-52374580D01*
X145690923Y-52163077D01*
X145479420Y-51989501D01*
X145238119Y-51860523D01*
X144976291Y-51781098D01*
X144772230Y-51761000D01*
X143540795Y-51761000D01*
X143581284Y-51734354D01*
X143775974Y-51542369D01*
X143929469Y-51316091D01*
X144035870Y-51064215D01*
X144050286Y-50991814D01*
X143927677Y-50777000D01*
X142077000Y-50777000D01*
X142077000Y-52039000D01*
X142360265Y-52039000D01*
X142209077Y-52163077D01*
X142035501Y-52374580D01*
X141906523Y-52615881D01*
X141827098Y-52877709D01*
X141800280Y-53150000D01*
X138060000Y-53150000D01*
X138060000Y-50991814D01*
X139849714Y-50991814D01*
X139864130Y-51064215D01*
X139970531Y-51316091D01*
X140124026Y-51542369D01*
X140318716Y-51734354D01*
X140547120Y-51884668D01*
X140800460Y-51987534D01*
X141069000Y-52039000D01*
X141823000Y-52039000D01*
X141823000Y-50777000D01*
X139972323Y-50777000D01*
X139849714Y-50991814D01*
X138060000Y-50991814D01*
X138060000Y-50662499D01*
X173872106Y-50662499D01*
X174088228Y-51029258D01*
X174548105Y-51269938D01*
X175046098Y-51416275D01*
X175563071Y-51462648D01*
X176079159Y-51407273D01*
X176574526Y-51252279D01*
X176991772Y-51029258D01*
X177207894Y-50662499D01*
X175540000Y-48994605D01*
X173872106Y-50662499D01*
X138060000Y-50662499D01*
X138060000Y-50308186D01*
X139849714Y-50308186D01*
X139972323Y-50523000D01*
X141823000Y-50523000D01*
X141823000Y-50503000D01*
X142077000Y-50503000D01*
X142077000Y-50523000D01*
X143927677Y-50523000D01*
X144050286Y-50308186D01*
X144035870Y-50235785D01*
X143929469Y-49983909D01*
X143775974Y-49757631D01*
X143581284Y-49565646D01*
X143352880Y-49415332D01*
X143099540Y-49312466D01*
X142831000Y-49261000D01*
X141069000Y-49261000D01*
X140800460Y-49312466D01*
X140547120Y-49415332D01*
X140318716Y-49565646D01*
X140124026Y-49757631D01*
X139970531Y-49983909D01*
X139864130Y-50235785D01*
X139849714Y-50308186D01*
X138060000Y-50308186D01*
X138060000Y-49085413D01*
X154594192Y-49085413D01*
X154689956Y-49349814D01*
X154979571Y-49490704D01*
X155291108Y-49572384D01*
X155612595Y-49591718D01*
X155931675Y-49547961D01*
X156236088Y-49442795D01*
X156410044Y-49349814D01*
X156505808Y-49085413D01*
X159594192Y-49085413D01*
X159689956Y-49349814D01*
X159979571Y-49490704D01*
X160291108Y-49572384D01*
X160612595Y-49591718D01*
X160931675Y-49547961D01*
X161236088Y-49442795D01*
X161410044Y-49349814D01*
X161505808Y-49085413D01*
X160550000Y-48129605D01*
X159594192Y-49085413D01*
X156505808Y-49085413D01*
X155550000Y-48129605D01*
X154594192Y-49085413D01*
X138060000Y-49085413D01*
X138060000Y-48012595D01*
X153908282Y-48012595D01*
X153952039Y-48331675D01*
X154057205Y-48636088D01*
X154150186Y-48810044D01*
X154414587Y-48905808D01*
X155370395Y-47950000D01*
X155729605Y-47950000D01*
X156685413Y-48905808D01*
X156949814Y-48810044D01*
X157090704Y-48520429D01*
X157172384Y-48208892D01*
X157184189Y-48012595D01*
X158908282Y-48012595D01*
X158952039Y-48331675D01*
X159057205Y-48636088D01*
X159150186Y-48810044D01*
X159414587Y-48905808D01*
X160370395Y-47950000D01*
X160729605Y-47950000D01*
X161685413Y-48905808D01*
X161872432Y-48838071D01*
X172892352Y-48838071D01*
X172947727Y-49354159D01*
X173102721Y-49849526D01*
X173325742Y-50266772D01*
X173692501Y-50482894D01*
X175360395Y-48815000D01*
X175719605Y-48815000D01*
X177387499Y-50482894D01*
X177754258Y-50266772D01*
X177994938Y-49806895D01*
X178141275Y-49308902D01*
X178187648Y-48791929D01*
X178132273Y-48275841D01*
X177977279Y-47780474D01*
X177754258Y-47363228D01*
X177387499Y-47147106D01*
X175719605Y-48815000D01*
X175360395Y-48815000D01*
X173692501Y-47147106D01*
X173325742Y-47363228D01*
X173085062Y-47823105D01*
X172938725Y-48321098D01*
X172892352Y-48838071D01*
X161872432Y-48838071D01*
X161949814Y-48810044D01*
X162090704Y-48520429D01*
X162172384Y-48208892D01*
X162191718Y-47887405D01*
X162147961Y-47568325D01*
X162042795Y-47263912D01*
X161949814Y-47089956D01*
X161685413Y-46994192D01*
X160729605Y-47950000D01*
X160370395Y-47950000D01*
X159414587Y-46994192D01*
X159150186Y-47089956D01*
X159009296Y-47379571D01*
X158927616Y-47691108D01*
X158908282Y-48012595D01*
X157184189Y-48012595D01*
X157191718Y-47887405D01*
X157147961Y-47568325D01*
X157042795Y-47263912D01*
X156949814Y-47089956D01*
X156685413Y-46994192D01*
X155729605Y-47950000D01*
X155370395Y-47950000D01*
X154414587Y-46994192D01*
X154150186Y-47089956D01*
X154009296Y-47379571D01*
X153927616Y-47691108D01*
X153908282Y-48012595D01*
X138060000Y-48012595D01*
X138060000Y-46814587D01*
X154594192Y-46814587D01*
X155550000Y-47770395D01*
X156505808Y-46814587D01*
X159594192Y-46814587D01*
X160550000Y-47770395D01*
X161352894Y-46967501D01*
X173872106Y-46967501D01*
X175540000Y-48635395D01*
X177207894Y-46967501D01*
X176991772Y-46600742D01*
X176531895Y-46360062D01*
X176033902Y-46213725D01*
X175516929Y-46167352D01*
X175000841Y-46222727D01*
X174505474Y-46377721D01*
X174088228Y-46600742D01*
X173872106Y-46967501D01*
X161352894Y-46967501D01*
X161505808Y-46814587D01*
X161410044Y-46550186D01*
X161120429Y-46409296D01*
X160808892Y-46327616D01*
X160487405Y-46308282D01*
X160168325Y-46352039D01*
X159863912Y-46457205D01*
X159689956Y-46550186D01*
X159594192Y-46814587D01*
X156505808Y-46814587D01*
X156410044Y-46550186D01*
X156120429Y-46409296D01*
X155808892Y-46327616D01*
X155487405Y-46308282D01*
X155168325Y-46352039D01*
X154863912Y-46457205D01*
X154689956Y-46550186D01*
X154594192Y-46814587D01*
X138060000Y-46814587D01*
X138060000Y-46060000D01*
X186740000Y-46060000D01*
X186740001Y-94740000D01*
G36*
X175365001Y-87776812D02*
G01*
X175308317Y-87736843D01*
X174996622Y-87598469D01*
X174846122Y-87560825D01*
X174577000Y-87678875D01*
X174577000Y-90023000D01*
X176185000Y-90023000D01*
X176185000Y-89478373D01*
X176278967Y-89528599D01*
X176558890Y-89613513D01*
X176802918Y-89637548D01*
X176163466Y-90277000D01*
X174577000Y-90277000D01*
X174577000Y-90297000D01*
X174323000Y-90297000D01*
X174323000Y-90277000D01*
X172715000Y-90277000D01*
X172715000Y-91177000D01*
X172773114Y-91513041D01*
X172850892Y-91715010D01*
X171589812Y-91715010D01*
X168997802Y-89123000D01*
X172715000Y-89123000D01*
X172715000Y-90023000D01*
X174323000Y-90023000D01*
X174323000Y-87678875D01*
X174053878Y-87560825D01*
X173903378Y-87598469D01*
X173591683Y-87736843D01*
X173312973Y-87933367D01*
X173077958Y-88180489D01*
X172895670Y-88468712D01*
X172773114Y-88786959D01*
X172715000Y-89123000D01*
X168997802Y-89123000D01*
X165859811Y-85985010D01*
X174961515Y-85985010D01*
X174998837Y-85988686D01*
X175036159Y-85985010D01*
X175036170Y-85985010D01*
X175147823Y-85974013D01*
X175291084Y-85930556D01*
X175365000Y-85891046D01*
X175365001Y-87776812D01*
X175365001Y-87776812D01*
G37*
X175365001Y-87776812D02*
X175308317Y-87736843D01*
X174996622Y-87598469D01*
X174846122Y-87560825D01*
X174577000Y-87678875D01*
X174577000Y-90023000D01*
X176185000Y-90023000D01*
X176185000Y-89478373D01*
X176278967Y-89528599D01*
X176558890Y-89613513D01*
X176802918Y-89637548D01*
X176163466Y-90277000D01*
X174577000Y-90277000D01*
X174577000Y-90297000D01*
X174323000Y-90297000D01*
X174323000Y-90277000D01*
X172715000Y-90277000D01*
X172715000Y-91177000D01*
X172773114Y-91513041D01*
X172850892Y-91715010D01*
X171589812Y-91715010D01*
X168997802Y-89123000D01*
X172715000Y-89123000D01*
X172715000Y-90023000D01*
X174323000Y-90023000D01*
X174323000Y-87678875D01*
X174053878Y-87560825D01*
X173903378Y-87598469D01*
X173591683Y-87736843D01*
X173312973Y-87933367D01*
X173077958Y-88180489D01*
X172895670Y-88468712D01*
X172773114Y-88786959D01*
X172715000Y-89123000D01*
X168997802Y-89123000D01*
X165859811Y-85985010D01*
X174961515Y-85985010D01*
X174998837Y-85988686D01*
X175036159Y-85985010D01*
X175036170Y-85985010D01*
X175147823Y-85974013D01*
X175291084Y-85930556D01*
X175365000Y-85891046D01*
X175365001Y-87776812D01*
G36*
X159288286Y-80738286D02*
G01*
X159083969Y-80987249D01*
X158932148Y-81271286D01*
X158838657Y-81579485D01*
X158815000Y-81819679D01*
X158815000Y-82244032D01*
X158775723Y-82265026D01*
X158692083Y-82333668D01*
X158659999Y-82359999D01*
X158636201Y-82388997D01*
X156110179Y-84915020D01*
X154883628Y-84915020D01*
X155811003Y-83987646D01*
X155840001Y-83963848D01*
X155866332Y-83931764D01*
X155934974Y-83848124D01*
X156005546Y-83716094D01*
X156021446Y-83663677D01*
X156049003Y-83572833D01*
X156060000Y-83461180D01*
X156060000Y-83461171D01*
X156063676Y-83423848D01*
X156060000Y-83386525D01*
X156060000Y-82159861D01*
X156189850Y-82120472D01*
X156343386Y-82038405D01*
X156477962Y-81927962D01*
X156588405Y-81793386D01*
X156670472Y-81639850D01*
X156721008Y-81473254D01*
X156738072Y-81300000D01*
X156738072Y-80560000D01*
X159505529Y-80560000D01*
X159288286Y-80738286D01*
X159288286Y-80738286D01*
G37*
X159288286Y-80738286D02*
X159083969Y-80987249D01*
X158932148Y-81271286D01*
X158838657Y-81579485D01*
X158815000Y-81819679D01*
X158815000Y-82244032D01*
X158775723Y-82265026D01*
X158692083Y-82333668D01*
X158659999Y-82359999D01*
X158636201Y-82388997D01*
X156110179Y-84915020D01*
X154883628Y-84915020D01*
X155811003Y-83987646D01*
X155840001Y-83963848D01*
X155866332Y-83931764D01*
X155934974Y-83848124D01*
X156005546Y-83716094D01*
X156021446Y-83663677D01*
X156049003Y-83572833D01*
X156060000Y-83461180D01*
X156060000Y-83461171D01*
X156063676Y-83423848D01*
X156060000Y-83386525D01*
X156060000Y-82159861D01*
X156189850Y-82120472D01*
X156343386Y-82038405D01*
X156477962Y-81927962D01*
X156588405Y-81793386D01*
X156670472Y-81639850D01*
X156721008Y-81473254D01*
X156738072Y-81300000D01*
X156738072Y-80560000D01*
X159505529Y-80560000D01*
X159288286Y-80738286D01*
G36*
X154256614Y-77561595D02*
G01*
X154122038Y-77672038D01*
X154011595Y-77806614D01*
X153929528Y-77960150D01*
X153878992Y-78126746D01*
X153861928Y-78300000D01*
X153861928Y-80533529D01*
X153578714Y-80382148D01*
X153270515Y-80288657D01*
X152950000Y-80257089D01*
X152629484Y-80288657D01*
X152321285Y-80382148D01*
X152037248Y-80533969D01*
X151788286Y-80738286D01*
X151583969Y-80987249D01*
X151432148Y-81271286D01*
X151338657Y-81579485D01*
X151315000Y-81819679D01*
X151315001Y-83980322D01*
X151338658Y-84220516D01*
X151412824Y-84465010D01*
X150339812Y-84465010D01*
X148263804Y-82389003D01*
X148240001Y-82359999D01*
X148124276Y-82265026D01*
X148085000Y-82244032D01*
X148085000Y-81819678D01*
X148061343Y-81579484D01*
X147967852Y-81271285D01*
X147816031Y-80987248D01*
X147611714Y-80738286D01*
X147362751Y-80533969D01*
X147137425Y-80413530D01*
X149990956Y-77560000D01*
X154259598Y-77560000D01*
X154256614Y-77561595D01*
X154256614Y-77561595D01*
G37*
X154256614Y-77561595D02*
X154122038Y-77672038D01*
X154011595Y-77806614D01*
X153929528Y-77960150D01*
X153878992Y-78126746D01*
X153861928Y-78300000D01*
X153861928Y-80533529D01*
X153578714Y-80382148D01*
X153270515Y-80288657D01*
X152950000Y-80257089D01*
X152629484Y-80288657D01*
X152321285Y-80382148D01*
X152037248Y-80533969D01*
X151788286Y-80738286D01*
X151583969Y-80987249D01*
X151432148Y-81271286D01*
X151338657Y-81579485D01*
X151315000Y-81819679D01*
X151315001Y-83980322D01*
X151338658Y-84220516D01*
X151412824Y-84465010D01*
X150339812Y-84465010D01*
X148263804Y-82389003D01*
X148240001Y-82359999D01*
X148124276Y-82265026D01*
X148085000Y-82244032D01*
X148085000Y-81819678D01*
X148061343Y-81579484D01*
X147967852Y-81271285D01*
X147816031Y-80987248D01*
X147611714Y-80738286D01*
X147362751Y-80533969D01*
X147137425Y-80413530D01*
X149990956Y-77560000D01*
X154259598Y-77560000D01*
X154256614Y-77561595D01*
G36*
X172636200Y-83411002D02*
G01*
X172659999Y-83440001D01*
X172688997Y-83463799D01*
X172775724Y-83534974D01*
X172815001Y-83555968D01*
X172815001Y-83980322D01*
X172838658Y-84220516D01*
X172912824Y-84465010D01*
X168487177Y-84465010D01*
X168561343Y-84220516D01*
X168585000Y-83980322D01*
X168585000Y-81819678D01*
X168561343Y-81579484D01*
X168467852Y-81271285D01*
X168316031Y-80987248D01*
X168293669Y-80960000D01*
X170185199Y-80960000D01*
X172636200Y-83411002D01*
X172636200Y-83411002D01*
G37*
X172636200Y-83411002D02*
X172659999Y-83440001D01*
X172688997Y-83463799D01*
X172775724Y-83534974D01*
X172815001Y-83555968D01*
X172815001Y-83980322D01*
X172838658Y-84220516D01*
X172912824Y-84465010D01*
X168487177Y-84465010D01*
X168561343Y-84220516D01*
X168585000Y-83980322D01*
X168585000Y-81819678D01*
X168561343Y-81579484D01*
X168467852Y-81271285D01*
X168316031Y-80987248D01*
X168293669Y-80960000D01*
X170185199Y-80960000D01*
X172636200Y-83411002D01*
G36*
X178895012Y-77830186D02*
G01*
X175780836Y-80944363D01*
X175611714Y-80738286D01*
X175362751Y-80533969D01*
X175078714Y-80382148D01*
X174770515Y-80288657D01*
X174450000Y-80257089D01*
X174129484Y-80288657D01*
X173821285Y-80382148D01*
X173537248Y-80533969D01*
X173288286Y-80738286D01*
X173083969Y-80987249D01*
X172932148Y-81271286D01*
X172865569Y-81490767D01*
X171063804Y-79689003D01*
X171040001Y-79659999D01*
X170924276Y-79565026D01*
X170792247Y-79494454D01*
X170648986Y-79450997D01*
X170537333Y-79440000D01*
X170537322Y-79440000D01*
X170500000Y-79436324D01*
X170462678Y-79440000D01*
X165238072Y-79440000D01*
X165238072Y-78300000D01*
X165221008Y-78126746D01*
X165170472Y-77960150D01*
X165088405Y-77806614D01*
X164977962Y-77672038D01*
X164843386Y-77561595D01*
X164689850Y-77479528D01*
X164523254Y-77428992D01*
X164350000Y-77411928D01*
X163250000Y-77411928D01*
X163076746Y-77428992D01*
X162910150Y-77479528D01*
X162756614Y-77561595D01*
X162622038Y-77672038D01*
X162511595Y-77806614D01*
X162429528Y-77960150D01*
X162378992Y-78126746D01*
X162361928Y-78300000D01*
X162361928Y-80863280D01*
X160787651Y-79289003D01*
X160763848Y-79259999D01*
X160648123Y-79165026D01*
X160516094Y-79094454D01*
X160372833Y-79050997D01*
X160261180Y-79040000D01*
X160261169Y-79040000D01*
X160223847Y-79036324D01*
X160186525Y-79040000D01*
X156738072Y-79040000D01*
X156738072Y-78300000D01*
X156721008Y-78126746D01*
X156670472Y-77960150D01*
X156588405Y-77806614D01*
X156477962Y-77672038D01*
X156344902Y-77562840D01*
X156373732Y-77560000D01*
X156373743Y-77560000D01*
X156485396Y-77549003D01*
X156628657Y-77505546D01*
X156760686Y-77434974D01*
X156876411Y-77340001D01*
X156900214Y-77310997D01*
X159640293Y-74570919D01*
X159669291Y-74547121D01*
X159764264Y-74431396D01*
X159834836Y-74299367D01*
X159878293Y-74156106D01*
X159889290Y-74044453D01*
X159889290Y-74044445D01*
X159892966Y-74007120D01*
X159889290Y-73969795D01*
X159889290Y-73788072D01*
X160550000Y-73788072D01*
X160723254Y-73771008D01*
X160889850Y-73720472D01*
X161043386Y-73638405D01*
X161177962Y-73527962D01*
X161288405Y-73393386D01*
X161370472Y-73239850D01*
X161421008Y-73073254D01*
X161438072Y-72900000D01*
X161438072Y-71049683D01*
X162549191Y-72160803D01*
X162511595Y-72206614D01*
X162429528Y-72360150D01*
X162378992Y-72526746D01*
X162361928Y-72700000D01*
X162361928Y-75700000D01*
X162378992Y-75873254D01*
X162429528Y-76039850D01*
X162511595Y-76193386D01*
X162622038Y-76327962D01*
X162756614Y-76438405D01*
X162910150Y-76520472D01*
X163076746Y-76571008D01*
X163250000Y-76588072D01*
X164350000Y-76588072D01*
X164523254Y-76571008D01*
X164689850Y-76520472D01*
X164843386Y-76438405D01*
X164977962Y-76327962D01*
X165088405Y-76193386D01*
X165170472Y-76039850D01*
X165221008Y-75873254D01*
X165236918Y-75711719D01*
X167586201Y-78061003D01*
X167609999Y-78090001D01*
X167616384Y-78095241D01*
X167624188Y-78174482D01*
X167660498Y-78294180D01*
X167719463Y-78404494D01*
X167798815Y-78501185D01*
X167895506Y-78580537D01*
X168005820Y-78639502D01*
X168125518Y-78675812D01*
X168250000Y-78688072D01*
X169750000Y-78688072D01*
X169874482Y-78675812D01*
X169994180Y-78639502D01*
X170104494Y-78580537D01*
X170201185Y-78501185D01*
X170280537Y-78404494D01*
X170339502Y-78294180D01*
X170375812Y-78174482D01*
X170388072Y-78050000D01*
X170388072Y-76900000D01*
X170375941Y-76776173D01*
X170368051Y-76750065D01*
X170375812Y-76724482D01*
X170388072Y-76600000D01*
X170388072Y-75662499D01*
X173872106Y-75662499D01*
X174088228Y-76029258D01*
X174548105Y-76269938D01*
X175046098Y-76416275D01*
X175563071Y-76462648D01*
X176079159Y-76407273D01*
X176574526Y-76252279D01*
X176991772Y-76029258D01*
X177207894Y-75662499D01*
X175540000Y-73994605D01*
X173872106Y-75662499D01*
X170388072Y-75662499D01*
X170388072Y-75600000D01*
X170375812Y-75475518D01*
X170339502Y-75355820D01*
X170280537Y-75245506D01*
X170201185Y-75148815D01*
X170104494Y-75069463D01*
X169994180Y-75010498D01*
X169874482Y-74974188D01*
X169750000Y-74961928D01*
X168935952Y-74961928D01*
X168853566Y-74894316D01*
X168751224Y-74839612D01*
X167749683Y-73838071D01*
X172892352Y-73838071D01*
X172947727Y-74354159D01*
X173102721Y-74849526D01*
X173325742Y-75266772D01*
X173692501Y-75482894D01*
X175360395Y-73815000D01*
X175719605Y-73815000D01*
X177387499Y-75482894D01*
X177754258Y-75266772D01*
X177994938Y-74806895D01*
X178141275Y-74308902D01*
X178187648Y-73791929D01*
X178132273Y-73275841D01*
X177977279Y-72780474D01*
X177754258Y-72363228D01*
X177387499Y-72147106D01*
X175719605Y-73815000D01*
X175360395Y-73815000D01*
X173692501Y-72147106D01*
X173325742Y-72363228D01*
X173085062Y-72823105D01*
X172938725Y-73321098D01*
X172892352Y-73838071D01*
X167749683Y-73838071D01*
X167695229Y-73783617D01*
X167823254Y-73771008D01*
X167989850Y-73720472D01*
X168143386Y-73638405D01*
X168277962Y-73527962D01*
X168388405Y-73393386D01*
X168470472Y-73239850D01*
X168521008Y-73073254D01*
X168538072Y-72900000D01*
X168538072Y-71967501D01*
X173872106Y-71967501D01*
X175540000Y-73635395D01*
X177207894Y-71967501D01*
X176991772Y-71600742D01*
X176531895Y-71360062D01*
X176033902Y-71213725D01*
X175516929Y-71167352D01*
X175000841Y-71222727D01*
X174505474Y-71377721D01*
X174088228Y-71600742D01*
X173872106Y-71967501D01*
X168538072Y-71967501D01*
X168538072Y-71036729D01*
X171314802Y-68260000D01*
X178367680Y-68260000D01*
X178405002Y-68263676D01*
X178442324Y-68260000D01*
X178442335Y-68260000D01*
X178553988Y-68249003D01*
X178697249Y-68205546D01*
X178829278Y-68134974D01*
X178895012Y-68081028D01*
X178895012Y-77830186D01*
X178895012Y-77830186D01*
G37*
X178895012Y-77830186D02*
X175780836Y-80944363D01*
X175611714Y-80738286D01*
X175362751Y-80533969D01*
X175078714Y-80382148D01*
X174770515Y-80288657D01*
X174450000Y-80257089D01*
X174129484Y-80288657D01*
X173821285Y-80382148D01*
X173537248Y-80533969D01*
X173288286Y-80738286D01*
X173083969Y-80987249D01*
X172932148Y-81271286D01*
X172865569Y-81490767D01*
X171063804Y-79689003D01*
X171040001Y-79659999D01*
X170924276Y-79565026D01*
X170792247Y-79494454D01*
X170648986Y-79450997D01*
X170537333Y-79440000D01*
X170537322Y-79440000D01*
X170500000Y-79436324D01*
X170462678Y-79440000D01*
X165238072Y-79440000D01*
X165238072Y-78300000D01*
X165221008Y-78126746D01*
X165170472Y-77960150D01*
X165088405Y-77806614D01*
X164977962Y-77672038D01*
X164843386Y-77561595D01*
X164689850Y-77479528D01*
X164523254Y-77428992D01*
X164350000Y-77411928D01*
X163250000Y-77411928D01*
X163076746Y-77428992D01*
X162910150Y-77479528D01*
X162756614Y-77561595D01*
X162622038Y-77672038D01*
X162511595Y-77806614D01*
X162429528Y-77960150D01*
X162378992Y-78126746D01*
X162361928Y-78300000D01*
X162361928Y-80863280D01*
X160787651Y-79289003D01*
X160763848Y-79259999D01*
X160648123Y-79165026D01*
X160516094Y-79094454D01*
X160372833Y-79050997D01*
X160261180Y-79040000D01*
X160261169Y-79040000D01*
X160223847Y-79036324D01*
X160186525Y-79040000D01*
X156738072Y-79040000D01*
X156738072Y-78300000D01*
X156721008Y-78126746D01*
X156670472Y-77960150D01*
X156588405Y-77806614D01*
X156477962Y-77672038D01*
X156344902Y-77562840D01*
X156373732Y-77560000D01*
X156373743Y-77560000D01*
X156485396Y-77549003D01*
X156628657Y-77505546D01*
X156760686Y-77434974D01*
X156876411Y-77340001D01*
X156900214Y-77310997D01*
X159640293Y-74570919D01*
X159669291Y-74547121D01*
X159764264Y-74431396D01*
X159834836Y-74299367D01*
X159878293Y-74156106D01*
X159889290Y-74044453D01*
X159889290Y-74044445D01*
X159892966Y-74007120D01*
X159889290Y-73969795D01*
X159889290Y-73788072D01*
X160550000Y-73788072D01*
X160723254Y-73771008D01*
X160889850Y-73720472D01*
X161043386Y-73638405D01*
X161177962Y-73527962D01*
X161288405Y-73393386D01*
X161370472Y-73239850D01*
X161421008Y-73073254D01*
X161438072Y-72900000D01*
X161438072Y-71049683D01*
X162549191Y-72160803D01*
X162511595Y-72206614D01*
X162429528Y-72360150D01*
X162378992Y-72526746D01*
X162361928Y-72700000D01*
X162361928Y-75700000D01*
X162378992Y-75873254D01*
X162429528Y-76039850D01*
X162511595Y-76193386D01*
X162622038Y-76327962D01*
X162756614Y-76438405D01*
X162910150Y-76520472D01*
X163076746Y-76571008D01*
X163250000Y-76588072D01*
X164350000Y-76588072D01*
X164523254Y-76571008D01*
X164689850Y-76520472D01*
X164843386Y-76438405D01*
X164977962Y-76327962D01*
X165088405Y-76193386D01*
X165170472Y-76039850D01*
X165221008Y-75873254D01*
X165236918Y-75711719D01*
X167586201Y-78061003D01*
X167609999Y-78090001D01*
X167616384Y-78095241D01*
X167624188Y-78174482D01*
X167660498Y-78294180D01*
X167719463Y-78404494D01*
X167798815Y-78501185D01*
X167895506Y-78580537D01*
X168005820Y-78639502D01*
X168125518Y-78675812D01*
X168250000Y-78688072D01*
X169750000Y-78688072D01*
X169874482Y-78675812D01*
X169994180Y-78639502D01*
X170104494Y-78580537D01*
X170201185Y-78501185D01*
X170280537Y-78404494D01*
X170339502Y-78294180D01*
X170375812Y-78174482D01*
X170388072Y-78050000D01*
X170388072Y-76900000D01*
X170375941Y-76776173D01*
X170368051Y-76750065D01*
X170375812Y-76724482D01*
X170388072Y-76600000D01*
X170388072Y-75662499D01*
X173872106Y-75662499D01*
X174088228Y-76029258D01*
X174548105Y-76269938D01*
X175046098Y-76416275D01*
X175563071Y-76462648D01*
X176079159Y-76407273D01*
X176574526Y-76252279D01*
X176991772Y-76029258D01*
X177207894Y-75662499D01*
X175540000Y-73994605D01*
X173872106Y-75662499D01*
X170388072Y-75662499D01*
X170388072Y-75600000D01*
X170375812Y-75475518D01*
X170339502Y-75355820D01*
X170280537Y-75245506D01*
X170201185Y-75148815D01*
X170104494Y-75069463D01*
X169994180Y-75010498D01*
X169874482Y-74974188D01*
X169750000Y-74961928D01*
X168935952Y-74961928D01*
X168853566Y-74894316D01*
X168751224Y-74839612D01*
X167749683Y-73838071D01*
X172892352Y-73838071D01*
X172947727Y-74354159D01*
X173102721Y-74849526D01*
X173325742Y-75266772D01*
X173692501Y-75482894D01*
X175360395Y-73815000D01*
X175719605Y-73815000D01*
X177387499Y-75482894D01*
X177754258Y-75266772D01*
X177994938Y-74806895D01*
X178141275Y-74308902D01*
X178187648Y-73791929D01*
X178132273Y-73275841D01*
X177977279Y-72780474D01*
X177754258Y-72363228D01*
X177387499Y-72147106D01*
X175719605Y-73815000D01*
X175360395Y-73815000D01*
X173692501Y-72147106D01*
X173325742Y-72363228D01*
X173085062Y-72823105D01*
X172938725Y-73321098D01*
X172892352Y-73838071D01*
X167749683Y-73838071D01*
X167695229Y-73783617D01*
X167823254Y-73771008D01*
X167989850Y-73720472D01*
X168143386Y-73638405D01*
X168277962Y-73527962D01*
X168388405Y-73393386D01*
X168470472Y-73239850D01*
X168521008Y-73073254D01*
X168538072Y-72900000D01*
X168538072Y-71967501D01*
X173872106Y-71967501D01*
X175540000Y-73635395D01*
X177207894Y-71967501D01*
X176991772Y-71600742D01*
X176531895Y-71360062D01*
X176033902Y-71213725D01*
X175516929Y-71167352D01*
X175000841Y-71222727D01*
X174505474Y-71377721D01*
X174088228Y-71600742D01*
X173872106Y-71967501D01*
X168538072Y-71967501D01*
X168538072Y-71036729D01*
X171314802Y-68260000D01*
X178367680Y-68260000D01*
X178405002Y-68263676D01*
X178442324Y-68260000D01*
X178442335Y-68260000D01*
X178553988Y-68249003D01*
X178697249Y-68205546D01*
X178829278Y-68134974D01*
X178895012Y-68081028D01*
X178895012Y-77830186D01*
G36*
X153414991Y-75900848D02*
G01*
X153411314Y-75938180D01*
X153414991Y-75975513D01*
X153421342Y-76040000D01*
X150034801Y-76040000D01*
X153414990Y-72659812D01*
X153414991Y-75900848D01*
X153414991Y-75900848D01*
G37*
X153414991Y-75900848D02*
X153411314Y-75938180D01*
X153414991Y-75975513D01*
X153421342Y-76040000D01*
X150034801Y-76040000D01*
X153414990Y-72659812D01*
X153414991Y-75900848D01*
G36*
X150986928Y-71237500D02*
G01*
X151003752Y-71408316D01*
X151053577Y-71572567D01*
X151134488Y-71723942D01*
X151243377Y-71856623D01*
X151376058Y-71965512D01*
X151527433Y-72046423D01*
X151691684Y-72096248D01*
X151816643Y-72108555D01*
X149692226Y-74232972D01*
X149687543Y-74209428D01*
X149586607Y-73965746D01*
X149440069Y-73746437D01*
X149293632Y-73600000D01*
X149440069Y-73453563D01*
X149586607Y-73234254D01*
X149687543Y-72990572D01*
X149739000Y-72731880D01*
X149739000Y-72468120D01*
X149717047Y-72357755D01*
X150986928Y-71087875D01*
X150986928Y-71237500D01*
X150986928Y-71237500D01*
G37*
X150986928Y-71237500D02*
X151003752Y-71408316D01*
X151053577Y-71572567D01*
X151134488Y-71723942D01*
X151243377Y-71856623D01*
X151376058Y-71965512D01*
X151527433Y-72046423D01*
X151691684Y-72096248D01*
X151816643Y-72108555D01*
X149692226Y-74232972D01*
X149687543Y-74209428D01*
X149586607Y-73965746D01*
X149440069Y-73746437D01*
X149293632Y-73600000D01*
X149440069Y-73453563D01*
X149586607Y-73234254D01*
X149687543Y-72990572D01*
X149739000Y-72731880D01*
X149739000Y-72468120D01*
X149717047Y-72357755D01*
X150986928Y-71087875D01*
X150986928Y-71237500D01*
G36*
X164764980Y-71919686D02*
G01*
X164689850Y-71879528D01*
X164523254Y-71828992D01*
X164352621Y-71812186D01*
X164340001Y-71796809D01*
X164311004Y-71773012D01*
X162097991Y-69560000D01*
X164062678Y-69560000D01*
X164100000Y-69563676D01*
X164137322Y-69560000D01*
X164137333Y-69560000D01*
X164248986Y-69549003D01*
X164392247Y-69505546D01*
X164524276Y-69434974D01*
X164640001Y-69340001D01*
X164663804Y-69310997D01*
X164764981Y-69209820D01*
X164764980Y-71919686D01*
X164764980Y-71919686D01*
G37*
X164764980Y-71919686D02*
X164689850Y-71879528D01*
X164523254Y-71828992D01*
X164352621Y-71812186D01*
X164340001Y-71796809D01*
X164311004Y-71773012D01*
X162097991Y-69560000D01*
X164062678Y-69560000D01*
X164100000Y-69563676D01*
X164137322Y-69560000D01*
X164137333Y-69560000D01*
X164248986Y-69549003D01*
X164392247Y-69505546D01*
X164524276Y-69434974D01*
X164640001Y-69340001D01*
X164663804Y-69310997D01*
X164764981Y-69209820D01*
X164764980Y-71919686D01*
G36*
X150986928Y-69161730D02*
G01*
X150986928Y-69289972D01*
X150949989Y-69286334D01*
X150912666Y-69290010D01*
X150912657Y-69290010D01*
X150801004Y-69301007D01*
X150657743Y-69344464D01*
X150525714Y-69415036D01*
X150525712Y-69415037D01*
X150525713Y-69415037D01*
X150438986Y-69486211D01*
X150438982Y-69486215D01*
X150409989Y-69510009D01*
X150386195Y-69539002D01*
X149692226Y-70232971D01*
X149687543Y-70209428D01*
X149586607Y-69965746D01*
X149440069Y-69746437D01*
X149293632Y-69600000D01*
X149440069Y-69453563D01*
X149586607Y-69234254D01*
X149687543Y-68990572D01*
X149739000Y-68731880D01*
X149739000Y-68468120D01*
X149711725Y-68330999D01*
X150156198Y-68330999D01*
X150986928Y-69161730D01*
X150986928Y-69161730D01*
G37*
X150986928Y-69161730D02*
X150986928Y-69289972D01*
X150949989Y-69286334D01*
X150912666Y-69290010D01*
X150912657Y-69290010D01*
X150801004Y-69301007D01*
X150657743Y-69344464D01*
X150525714Y-69415036D01*
X150525712Y-69415037D01*
X150525713Y-69415037D01*
X150438986Y-69486211D01*
X150438982Y-69486215D01*
X150409989Y-69510009D01*
X150386195Y-69539002D01*
X149692226Y-70232971D01*
X149687543Y-70209428D01*
X149586607Y-69965746D01*
X149440069Y-69746437D01*
X149293632Y-69600000D01*
X149440069Y-69453563D01*
X149586607Y-69234254D01*
X149687543Y-68990572D01*
X149739000Y-68731880D01*
X149739000Y-68468120D01*
X149711725Y-68330999D01*
X150156198Y-68330999D01*
X150986928Y-69161730D01*
G36*
X167437126Y-63411928D02*
G01*
X166550000Y-63411928D01*
X166376746Y-63428992D01*
X166210150Y-63479528D01*
X166056614Y-63561595D01*
X165922038Y-63672038D01*
X165811595Y-63806614D01*
X165729528Y-63960150D01*
X165678992Y-64126746D01*
X165661928Y-64300000D01*
X165661928Y-66163270D01*
X165013974Y-66811224D01*
X164984980Y-66835019D01*
X164961185Y-66864014D01*
X163785199Y-68040000D01*
X161697991Y-68040000D01*
X165061004Y-64676988D01*
X165090002Y-64653190D01*
X165184975Y-64537465D01*
X165255547Y-64405436D01*
X165299004Y-64262175D01*
X165310001Y-64150522D01*
X165310001Y-64150513D01*
X165313677Y-64113190D01*
X165310001Y-64075867D01*
X165310001Y-62069293D01*
X165388967Y-62085000D01*
X165711033Y-62085000D01*
X166026912Y-62022168D01*
X166041376Y-62016177D01*
X167437126Y-63411928D01*
X167437126Y-63411928D01*
G37*
X167437126Y-63411928D02*
X166550000Y-63411928D01*
X166376746Y-63428992D01*
X166210150Y-63479528D01*
X166056614Y-63561595D01*
X165922038Y-63672038D01*
X165811595Y-63806614D01*
X165729528Y-63960150D01*
X165678992Y-64126746D01*
X165661928Y-64300000D01*
X165661928Y-66163270D01*
X165013974Y-66811224D01*
X164984980Y-66835019D01*
X164961185Y-66864014D01*
X163785199Y-68040000D01*
X161697991Y-68040000D01*
X165061004Y-64676988D01*
X165090002Y-64653190D01*
X165184975Y-64537465D01*
X165255547Y-64405436D01*
X165299004Y-64262175D01*
X165310001Y-64150522D01*
X165310001Y-64150513D01*
X165313677Y-64113190D01*
X165310001Y-64075867D01*
X165310001Y-62069293D01*
X165388967Y-62085000D01*
X165711033Y-62085000D01*
X166026912Y-62022168D01*
X166041376Y-62016177D01*
X167437126Y-63411928D01*
G36*
X151134488Y-65773942D02*
G01*
X151217425Y-65875000D01*
X151134488Y-65976058D01*
X151053577Y-66127433D01*
X151003752Y-66291684D01*
X150986928Y-66462500D01*
X150986928Y-67011243D01*
X150895275Y-66936025D01*
X150763246Y-66865453D01*
X150619985Y-66821996D01*
X150508332Y-66810999D01*
X150508321Y-66810999D01*
X150470999Y-66807323D01*
X150433677Y-66810999D01*
X147943401Y-66810999D01*
X147906078Y-66807323D01*
X147868755Y-66810999D01*
X147868746Y-66810999D01*
X147757093Y-66821996D01*
X147613832Y-66865453D01*
X147481803Y-66936025D01*
X147480209Y-66937333D01*
X147395075Y-67007200D01*
X147395071Y-67007204D01*
X147366078Y-67030998D01*
X147342284Y-67059992D01*
X146859996Y-67542281D01*
X146830999Y-67566078D01*
X146807201Y-67595076D01*
X146807200Y-67595077D01*
X146798865Y-67605233D01*
X146753563Y-67559931D01*
X146596737Y-67455143D01*
X148291880Y-65760000D01*
X151127036Y-65760000D01*
X151134488Y-65773942D01*
X151134488Y-65773942D01*
G37*
X151134488Y-65773942D02*
X151217425Y-65875000D01*
X151134488Y-65976058D01*
X151053577Y-66127433D01*
X151003752Y-66291684D01*
X150986928Y-66462500D01*
X150986928Y-67011243D01*
X150895275Y-66936025D01*
X150763246Y-66865453D01*
X150619985Y-66821996D01*
X150508332Y-66810999D01*
X150508321Y-66810999D01*
X150470999Y-66807323D01*
X150433677Y-66810999D01*
X147943401Y-66810999D01*
X147906078Y-66807323D01*
X147868755Y-66810999D01*
X147868746Y-66810999D01*
X147757093Y-66821996D01*
X147613832Y-66865453D01*
X147481803Y-66936025D01*
X147480209Y-66937333D01*
X147395075Y-67007200D01*
X147395071Y-67007204D01*
X147366078Y-67030998D01*
X147342284Y-67059992D01*
X146859996Y-67542281D01*
X146830999Y-67566078D01*
X146807201Y-67595076D01*
X146807200Y-67595077D01*
X146798865Y-67605233D01*
X146753563Y-67559931D01*
X146596737Y-67455143D01*
X148291880Y-65760000D01*
X151127036Y-65760000D01*
X151134488Y-65773942D01*
G36*
X176645000Y-63728665D02*
G01*
X176645000Y-64011335D01*
X176692217Y-64248706D01*
X176532702Y-64201903D01*
X175719605Y-65015000D01*
X176532702Y-65828097D01*
X176692217Y-65781294D01*
X176645000Y-66018665D01*
X176645000Y-66301335D01*
X176700147Y-66578574D01*
X176767012Y-66740000D01*
X174313095Y-66740000D01*
X174357571Y-66646004D01*
X174426300Y-66371816D01*
X174440217Y-66089488D01*
X174428100Y-66007702D01*
X174726903Y-66007702D01*
X174798486Y-66251671D01*
X175053996Y-66372571D01*
X175328184Y-66441300D01*
X175610512Y-66455217D01*
X175890130Y-66413787D01*
X176156292Y-66318603D01*
X176281514Y-66251671D01*
X176353097Y-66007702D01*
X175540000Y-65194605D01*
X174726903Y-66007702D01*
X174428100Y-66007702D01*
X174398787Y-65809870D01*
X174388660Y-65781551D01*
X174547298Y-65828097D01*
X175360395Y-65015000D01*
X174547298Y-64201903D01*
X174387783Y-64248706D01*
X174435000Y-64011335D01*
X174435000Y-63728665D01*
X174413904Y-63622609D01*
X174425363Y-63639759D01*
X174625241Y-63839637D01*
X174755049Y-63926372D01*
X174726903Y-64022298D01*
X175540000Y-64835395D01*
X176353097Y-64022298D01*
X176324951Y-63926372D01*
X176454759Y-63839637D01*
X176654637Y-63639759D01*
X176666096Y-63622609D01*
X176645000Y-63728665D01*
X176645000Y-63728665D01*
G37*
X176645000Y-63728665D02*
X176645000Y-64011335D01*
X176692217Y-64248706D01*
X176532702Y-64201903D01*
X175719605Y-65015000D01*
X176532702Y-65828097D01*
X176692217Y-65781294D01*
X176645000Y-66018665D01*
X176645000Y-66301335D01*
X176700147Y-66578574D01*
X176767012Y-66740000D01*
X174313095Y-66740000D01*
X174357571Y-66646004D01*
X174426300Y-66371816D01*
X174440217Y-66089488D01*
X174428100Y-66007702D01*
X174726903Y-66007702D01*
X174798486Y-66251671D01*
X175053996Y-66372571D01*
X175328184Y-66441300D01*
X175610512Y-66455217D01*
X175890130Y-66413787D01*
X176156292Y-66318603D01*
X176281514Y-66251671D01*
X176353097Y-66007702D01*
X175540000Y-65194605D01*
X174726903Y-66007702D01*
X174428100Y-66007702D01*
X174398787Y-65809870D01*
X174388660Y-65781551D01*
X174547298Y-65828097D01*
X175360395Y-65015000D01*
X174547298Y-64201903D01*
X174387783Y-64248706D01*
X174435000Y-64011335D01*
X174435000Y-63728665D01*
X174413904Y-63622609D01*
X174425363Y-63639759D01*
X174625241Y-63839637D01*
X174755049Y-63926372D01*
X174726903Y-64022298D01*
X175540000Y-64835395D01*
X176353097Y-64022298D01*
X176324951Y-63926372D01*
X176454759Y-63839637D01*
X176654637Y-63639759D01*
X176666096Y-63622609D01*
X176645000Y-63728665D01*
G36*
X152188271Y-63836928D02*
G01*
X151862500Y-63836928D01*
X151691684Y-63853752D01*
X151527433Y-63903577D01*
X151376058Y-63984488D01*
X151243377Y-64093377D01*
X151134488Y-64226058D01*
X151127036Y-64240000D01*
X149175470Y-64240000D01*
X150155480Y-63259990D01*
X152765208Y-63259990D01*
X152188271Y-63836928D01*
X152188271Y-63836928D01*
G37*
X152188271Y-63836928D02*
X151862500Y-63836928D01*
X151691684Y-63853752D01*
X151527433Y-63903577D01*
X151376058Y-63984488D01*
X151243377Y-64093377D01*
X151134488Y-64226058D01*
X151127036Y-64240000D01*
X149175470Y-64240000D01*
X150155480Y-63259990D01*
X152765208Y-63259990D01*
X152188271Y-63836928D01*
G36*
X175733748Y-55840858D02*
G01*
X175719605Y-55855000D01*
X176532702Y-56668097D01*
X176692217Y-56621294D01*
X176645000Y-56858665D01*
X176645000Y-57141335D01*
X176692217Y-57378706D01*
X176532702Y-57331903D01*
X175719605Y-58145000D01*
X176532702Y-58958097D01*
X176692217Y-58911294D01*
X176645000Y-59148665D01*
X176645000Y-59431335D01*
X176692217Y-59668706D01*
X176532702Y-59621903D01*
X175719605Y-60435000D01*
X176532702Y-61248097D01*
X176692217Y-61201294D01*
X176645000Y-61438665D01*
X176645000Y-61721335D01*
X176666096Y-61827391D01*
X176654637Y-61810241D01*
X176454759Y-61610363D01*
X176324951Y-61523628D01*
X176353097Y-61427702D01*
X175540000Y-60614605D01*
X174726903Y-61427702D01*
X174755049Y-61523628D01*
X174625241Y-61610363D01*
X174425363Y-61810241D01*
X174413904Y-61827391D01*
X174435000Y-61721335D01*
X174435000Y-61438665D01*
X174387783Y-61201294D01*
X174547298Y-61248097D01*
X175360395Y-60435000D01*
X174547298Y-59621903D01*
X174387783Y-59668706D01*
X174435000Y-59431335D01*
X174435000Y-59148665D01*
X174432820Y-59137702D01*
X174726903Y-59137702D01*
X174771589Y-59290000D01*
X174726903Y-59442298D01*
X175540000Y-60255395D01*
X176353097Y-59442298D01*
X176308411Y-59290000D01*
X176353097Y-59137702D01*
X175540000Y-58324605D01*
X174726903Y-59137702D01*
X174432820Y-59137702D01*
X174387783Y-58911294D01*
X174547298Y-58958097D01*
X175360395Y-58145000D01*
X174547298Y-57331903D01*
X174438072Y-57363951D01*
X174438072Y-56847702D01*
X174726903Y-56847702D01*
X174771589Y-57000000D01*
X174726903Y-57152298D01*
X175540000Y-57965395D01*
X176353097Y-57152298D01*
X176308411Y-57000000D01*
X176353097Y-56847702D01*
X175540000Y-56034605D01*
X174726903Y-56847702D01*
X174438072Y-56847702D01*
X174438072Y-56636049D01*
X174547298Y-56668097D01*
X175360395Y-55855000D01*
X175346253Y-55840858D01*
X175525858Y-55661253D01*
X175540000Y-55675395D01*
X175554143Y-55661253D01*
X175733748Y-55840858D01*
X175733748Y-55840858D01*
G37*
X175733748Y-55840858D02*
X175719605Y-55855000D01*
X176532702Y-56668097D01*
X176692217Y-56621294D01*
X176645000Y-56858665D01*
X176645000Y-57141335D01*
X176692217Y-57378706D01*
X176532702Y-57331903D01*
X175719605Y-58145000D01*
X176532702Y-58958097D01*
X176692217Y-58911294D01*
X176645000Y-59148665D01*
X176645000Y-59431335D01*
X176692217Y-59668706D01*
X176532702Y-59621903D01*
X175719605Y-60435000D01*
X176532702Y-61248097D01*
X176692217Y-61201294D01*
X176645000Y-61438665D01*
X176645000Y-61721335D01*
X176666096Y-61827391D01*
X176654637Y-61810241D01*
X176454759Y-61610363D01*
X176324951Y-61523628D01*
X176353097Y-61427702D01*
X175540000Y-60614605D01*
X174726903Y-61427702D01*
X174755049Y-61523628D01*
X174625241Y-61610363D01*
X174425363Y-61810241D01*
X174413904Y-61827391D01*
X174435000Y-61721335D01*
X174435000Y-61438665D01*
X174387783Y-61201294D01*
X174547298Y-61248097D01*
X175360395Y-60435000D01*
X174547298Y-59621903D01*
X174387783Y-59668706D01*
X174435000Y-59431335D01*
X174435000Y-59148665D01*
X174432820Y-59137702D01*
X174726903Y-59137702D01*
X174771589Y-59290000D01*
X174726903Y-59442298D01*
X175540000Y-60255395D01*
X176353097Y-59442298D01*
X176308411Y-59290000D01*
X176353097Y-59137702D01*
X175540000Y-58324605D01*
X174726903Y-59137702D01*
X174432820Y-59137702D01*
X174387783Y-58911294D01*
X174547298Y-58958097D01*
X175360395Y-58145000D01*
X174547298Y-57331903D01*
X174438072Y-57363951D01*
X174438072Y-56847702D01*
X174726903Y-56847702D01*
X174771589Y-57000000D01*
X174726903Y-57152298D01*
X175540000Y-57965395D01*
X176353097Y-57152298D01*
X176308411Y-57000000D01*
X176353097Y-56847702D01*
X175540000Y-56034605D01*
X174726903Y-56847702D01*
X174438072Y-56847702D01*
X174438072Y-56636049D01*
X174547298Y-56668097D01*
X175360395Y-55855000D01*
X175346253Y-55840858D01*
X175525858Y-55661253D01*
X175540000Y-55675395D01*
X175554143Y-55661253D01*
X175733748Y-55840858D01*
M02*
