G04 #@! TF.GenerationSoftware,KiCad,Pcbnew,(5.1.0)-1*
G04 #@! TF.CreationDate,2019-07-12T21:05:46-04:00*
G04 #@! TF.ProjectId,Genesis_SMS Breakout,47656e65-7369-4735-9f53-4d5320427265,rev?*
G04 #@! TF.SameCoordinates,Original*
G04 #@! TF.FileFunction,Soldermask,Bot*
G04 #@! TF.FilePolarity,Negative*
%FSLAX46Y46*%
G04 Gerber Fmt 4.6, Leading zero omitted, Abs format (unit mm)*
G04 Created by KiCad (PCBNEW (5.1.0)-1) date 2019-07-12 21:05:46*
%MOMM*%
%LPD*%
G04 APERTURE LIST*
%ADD10C,0.100000*%
G04 APERTURE END LIST*
D10*
G36*
X146675634Y-88115654D02*
G01*
X146892599Y-88181470D01*
X146892601Y-88181471D01*
X147092553Y-88288347D01*
X147092555Y-88288348D01*
X147092554Y-88288348D01*
X147267818Y-88432182D01*
X147318019Y-88493352D01*
X147411653Y-88607445D01*
X147509329Y-88790186D01*
X147518530Y-88807400D01*
X147547463Y-88902779D01*
X147584346Y-89024366D01*
X147601000Y-89193455D01*
X147601000Y-91106545D01*
X147584346Y-91275634D01*
X147518529Y-91492602D01*
X147411653Y-91692555D01*
X147267818Y-91867818D01*
X147092555Y-92011653D01*
X146892602Y-92118529D01*
X146892600Y-92118530D01*
X146675635Y-92184346D01*
X146450000Y-92206569D01*
X146224366Y-92184346D01*
X146007401Y-92118530D01*
X146007399Y-92118529D01*
X145807446Y-92011653D01*
X145632183Y-91867818D01*
X145488348Y-91692555D01*
X145381472Y-91492602D01*
X145315655Y-91275634D01*
X145299000Y-91106544D01*
X145299000Y-89193456D01*
X145310103Y-89080730D01*
X145315654Y-89024366D01*
X145381470Y-88807401D01*
X145381472Y-88807398D01*
X145488347Y-88607447D01*
X145510219Y-88580796D01*
X145632182Y-88432182D01*
X145711183Y-88367348D01*
X145807445Y-88288347D01*
X146007398Y-88181471D01*
X146007400Y-88181470D01*
X146224365Y-88115654D01*
X146450000Y-88093431D01*
X146675634Y-88115654D01*
X146675634Y-88115654D01*
G37*
G36*
X174675634Y-88115654D02*
G01*
X174892599Y-88181470D01*
X174892601Y-88181471D01*
X175092553Y-88288347D01*
X175092555Y-88288348D01*
X175092554Y-88288348D01*
X175267818Y-88432182D01*
X175318019Y-88493352D01*
X175411653Y-88607445D01*
X175509329Y-88790186D01*
X175518530Y-88807400D01*
X175547463Y-88902779D01*
X175584346Y-89024366D01*
X175601000Y-89193455D01*
X175601000Y-91106545D01*
X175584346Y-91275634D01*
X175518529Y-91492602D01*
X175411653Y-91692555D01*
X175267818Y-91867818D01*
X175092555Y-92011653D01*
X174892602Y-92118529D01*
X174892600Y-92118530D01*
X174675635Y-92184346D01*
X174450000Y-92206569D01*
X174224366Y-92184346D01*
X174007401Y-92118530D01*
X174007399Y-92118529D01*
X173807446Y-92011653D01*
X173632183Y-91867818D01*
X173488348Y-91692555D01*
X173381472Y-91492602D01*
X173315655Y-91275634D01*
X173299000Y-91106544D01*
X173299000Y-89193456D01*
X173310103Y-89080730D01*
X173315654Y-89024366D01*
X173381470Y-88807401D01*
X173381472Y-88807398D01*
X173488347Y-88607447D01*
X173510219Y-88580796D01*
X173632182Y-88432182D01*
X173711183Y-88367348D01*
X173807445Y-88288347D01*
X174007398Y-88181471D01*
X174007400Y-88181470D01*
X174224365Y-88115654D01*
X174450000Y-88093431D01*
X174675634Y-88115654D01*
X174675634Y-88115654D01*
G37*
G36*
X160675634Y-88115654D02*
G01*
X160892599Y-88181470D01*
X160892601Y-88181471D01*
X161092553Y-88288347D01*
X161092555Y-88288348D01*
X161092554Y-88288348D01*
X161267818Y-88432182D01*
X161318019Y-88493352D01*
X161411653Y-88607445D01*
X161509329Y-88790186D01*
X161518530Y-88807400D01*
X161547463Y-88902779D01*
X161584346Y-89024366D01*
X161601000Y-89193455D01*
X161601000Y-91106545D01*
X161584346Y-91275634D01*
X161518529Y-91492602D01*
X161411653Y-91692555D01*
X161267818Y-91867818D01*
X161092555Y-92011653D01*
X160892602Y-92118529D01*
X160892600Y-92118530D01*
X160675635Y-92184346D01*
X160450000Y-92206569D01*
X160224366Y-92184346D01*
X160007401Y-92118530D01*
X160007399Y-92118529D01*
X159807446Y-92011653D01*
X159632183Y-91867818D01*
X159488348Y-91692555D01*
X159381472Y-91492602D01*
X159315655Y-91275634D01*
X159299000Y-91106544D01*
X159299000Y-89193456D01*
X159310103Y-89080730D01*
X159315654Y-89024366D01*
X159381470Y-88807401D01*
X159381472Y-88807398D01*
X159488347Y-88607447D01*
X159510219Y-88580796D01*
X159632182Y-88432182D01*
X159711183Y-88367348D01*
X159807445Y-88288347D01*
X160007398Y-88181471D01*
X160007400Y-88181470D01*
X160224365Y-88115654D01*
X160450000Y-88093431D01*
X160675634Y-88115654D01*
X160675634Y-88115654D01*
G37*
G36*
X184211808Y-89406648D02*
G01*
X184363551Y-89452678D01*
X184503398Y-89527428D01*
X184625975Y-89628025D01*
X184726572Y-89750602D01*
X184801322Y-89890449D01*
X184847352Y-90042192D01*
X184862895Y-90200000D01*
X184847352Y-90357808D01*
X184801322Y-90509551D01*
X184726572Y-90649398D01*
X184625975Y-90771975D01*
X184503398Y-90872572D01*
X184363551Y-90947322D01*
X184211808Y-90993352D01*
X184093546Y-91005000D01*
X182506454Y-91005000D01*
X182388192Y-90993352D01*
X182236449Y-90947322D01*
X182096602Y-90872572D01*
X181974025Y-90771975D01*
X181873428Y-90649398D01*
X181798678Y-90509551D01*
X181752648Y-90357808D01*
X181737105Y-90200000D01*
X181752648Y-90042192D01*
X181798678Y-89890449D01*
X181873428Y-89750602D01*
X181974025Y-89628025D01*
X182096602Y-89527428D01*
X182236449Y-89452678D01*
X182388192Y-89406648D01*
X182506454Y-89395000D01*
X184093546Y-89395000D01*
X184211808Y-89406648D01*
X184211808Y-89406648D01*
G37*
G36*
X177026626Y-84262037D02*
G01*
X177196465Y-84313557D01*
X177196467Y-84313558D01*
X177352989Y-84397221D01*
X177490186Y-84509814D01*
X177573448Y-84611271D01*
X177602778Y-84647009D01*
X177686443Y-84803534D01*
X177737963Y-84973373D01*
X177751000Y-85105742D01*
X177751000Y-88194258D01*
X177737963Y-88326627D01*
X177686443Y-88496466D01*
X177686442Y-88496468D01*
X177644610Y-88574729D01*
X177602778Y-88652991D01*
X177573448Y-88688729D01*
X177490186Y-88790186D01*
X177388729Y-88873448D01*
X177352991Y-88902778D01*
X177196466Y-88986443D01*
X177026627Y-89037963D01*
X176850000Y-89055359D01*
X176673374Y-89037963D01*
X176503535Y-88986443D01*
X176347010Y-88902778D01*
X176311272Y-88873448D01*
X176209815Y-88790186D01*
X176126553Y-88688729D01*
X176097223Y-88652991D01*
X176055391Y-88574729D01*
X176013559Y-88496468D01*
X176013558Y-88496466D01*
X175962038Y-88326627D01*
X175949001Y-88194258D01*
X175949000Y-85105743D01*
X175962037Y-84973374D01*
X176013557Y-84803535D01*
X176030107Y-84772572D01*
X176097221Y-84647011D01*
X176209814Y-84509814D01*
X176331984Y-84409553D01*
X176347009Y-84397222D01*
X176503534Y-84313557D01*
X176673373Y-84262037D01*
X176850000Y-84244641D01*
X177026626Y-84262037D01*
X177026626Y-84262037D01*
G37*
G36*
X136726626Y-84262037D02*
G01*
X136896465Y-84313557D01*
X136896467Y-84313558D01*
X137052989Y-84397221D01*
X137190186Y-84509814D01*
X137273448Y-84611271D01*
X137302778Y-84647009D01*
X137386443Y-84803534D01*
X137437963Y-84973373D01*
X137451000Y-85105742D01*
X137451000Y-88194258D01*
X137437963Y-88326627D01*
X137386443Y-88496466D01*
X137386442Y-88496468D01*
X137344610Y-88574729D01*
X137302778Y-88652991D01*
X137273448Y-88688729D01*
X137190186Y-88790186D01*
X137088729Y-88873448D01*
X137052991Y-88902778D01*
X136896466Y-88986443D01*
X136726627Y-89037963D01*
X136550000Y-89055359D01*
X136373374Y-89037963D01*
X136203535Y-88986443D01*
X136047010Y-88902778D01*
X136011272Y-88873448D01*
X135909815Y-88790186D01*
X135826553Y-88688729D01*
X135797223Y-88652991D01*
X135755391Y-88574729D01*
X135713559Y-88496468D01*
X135713558Y-88496466D01*
X135662038Y-88326627D01*
X135649001Y-88194258D01*
X135649000Y-85105743D01*
X135662037Y-84973374D01*
X135713557Y-84803535D01*
X135730107Y-84772572D01*
X135797221Y-84647011D01*
X135909814Y-84509814D01*
X136031984Y-84409553D01*
X136047009Y-84397222D01*
X136203534Y-84313557D01*
X136373373Y-84262037D01*
X136550000Y-84244641D01*
X136726626Y-84262037D01*
X136726626Y-84262037D01*
G37*
G36*
X182211808Y-86906648D02*
G01*
X182363551Y-86952678D01*
X182503398Y-87027428D01*
X182625975Y-87128025D01*
X182726572Y-87250602D01*
X182801322Y-87390449D01*
X182847352Y-87542192D01*
X182862895Y-87700000D01*
X182847352Y-87857808D01*
X182801322Y-88009551D01*
X182726572Y-88149398D01*
X182625975Y-88271975D01*
X182503398Y-88372572D01*
X182363551Y-88447322D01*
X182211808Y-88493352D01*
X182093546Y-88505000D01*
X180506454Y-88505000D01*
X180388192Y-88493352D01*
X180236449Y-88447322D01*
X180096602Y-88372572D01*
X179974025Y-88271975D01*
X179873428Y-88149398D01*
X179798678Y-88009551D01*
X179752648Y-87857808D01*
X179737105Y-87700000D01*
X179752648Y-87542192D01*
X179798678Y-87390449D01*
X179873428Y-87250602D01*
X179974025Y-87128025D01*
X180096602Y-87027428D01*
X180236449Y-86952678D01*
X180388192Y-86906648D01*
X180506454Y-86895000D01*
X182093546Y-86895000D01*
X182211808Y-86906648D01*
X182211808Y-86906648D01*
G37*
G36*
X174656031Y-80864207D02*
G01*
X174854145Y-80924305D01*
X174854148Y-80924306D01*
X174920030Y-80959521D01*
X175036729Y-81021897D01*
X175196765Y-81153235D01*
X175328103Y-81313271D01*
X175328104Y-81313273D01*
X175425694Y-81495851D01*
X175425694Y-81495852D01*
X175425695Y-81495854D01*
X175485793Y-81693968D01*
X175501000Y-81848370D01*
X175501000Y-83951630D01*
X175485793Y-84106032D01*
X175438469Y-84262037D01*
X175425694Y-84304149D01*
X175375946Y-84397221D01*
X175328103Y-84486729D01*
X175196765Y-84646765D01*
X175036729Y-84778103D01*
X174950975Y-84823939D01*
X174854149Y-84875694D01*
X174854146Y-84875695D01*
X174656032Y-84935793D01*
X174450000Y-84956085D01*
X174243969Y-84935793D01*
X174045855Y-84875695D01*
X174045852Y-84875694D01*
X173949026Y-84823939D01*
X173863272Y-84778103D01*
X173703236Y-84646765D01*
X173571898Y-84486729D01*
X173524055Y-84397221D01*
X173474307Y-84304149D01*
X173461532Y-84262037D01*
X173414208Y-84106032D01*
X173399001Y-83951630D01*
X173399000Y-81848371D01*
X173414207Y-81693969D01*
X173474305Y-81495855D01*
X173474306Y-81495852D01*
X173521987Y-81406648D01*
X173571897Y-81313271D01*
X173703235Y-81153235D01*
X173863271Y-81021897D01*
X173949025Y-80976061D01*
X174045851Y-80924306D01*
X174045854Y-80924305D01*
X174243968Y-80864207D01*
X174450000Y-80843915D01*
X174656031Y-80864207D01*
X174656031Y-80864207D01*
G37*
G36*
X160656031Y-80864207D02*
G01*
X160854145Y-80924305D01*
X160854148Y-80924306D01*
X160920030Y-80959521D01*
X161036729Y-81021897D01*
X161196765Y-81153235D01*
X161328103Y-81313271D01*
X161328104Y-81313273D01*
X161425694Y-81495851D01*
X161425694Y-81495852D01*
X161425695Y-81495854D01*
X161485793Y-81693968D01*
X161501000Y-81848370D01*
X161501000Y-83951630D01*
X161485793Y-84106032D01*
X161438469Y-84262037D01*
X161425694Y-84304149D01*
X161375946Y-84397221D01*
X161328103Y-84486729D01*
X161196765Y-84646765D01*
X161036729Y-84778103D01*
X160950975Y-84823939D01*
X160854149Y-84875694D01*
X160854146Y-84875695D01*
X160656032Y-84935793D01*
X160450000Y-84956085D01*
X160243969Y-84935793D01*
X160045855Y-84875695D01*
X160045852Y-84875694D01*
X159949026Y-84823939D01*
X159863272Y-84778103D01*
X159703236Y-84646765D01*
X159571898Y-84486729D01*
X159524055Y-84397221D01*
X159474307Y-84304149D01*
X159461532Y-84262037D01*
X159414208Y-84106032D01*
X159399001Y-83951630D01*
X159399000Y-81848371D01*
X159414207Y-81693969D01*
X159474305Y-81495855D01*
X159474306Y-81495852D01*
X159521987Y-81406648D01*
X159571897Y-81313271D01*
X159703235Y-81153235D01*
X159863271Y-81021897D01*
X159949025Y-80976061D01*
X160045851Y-80924306D01*
X160045854Y-80924305D01*
X160243968Y-80864207D01*
X160450000Y-80843915D01*
X160656031Y-80864207D01*
X160656031Y-80864207D01*
G37*
G36*
X153156031Y-80864207D02*
G01*
X153354145Y-80924305D01*
X153354148Y-80924306D01*
X153420030Y-80959521D01*
X153536729Y-81021897D01*
X153696765Y-81153235D01*
X153828103Y-81313271D01*
X153828104Y-81313273D01*
X153925694Y-81495851D01*
X153925694Y-81495852D01*
X153925695Y-81495854D01*
X153985793Y-81693968D01*
X154001000Y-81848370D01*
X154001000Y-83951630D01*
X153985793Y-84106032D01*
X153938469Y-84262037D01*
X153925694Y-84304149D01*
X153875946Y-84397221D01*
X153828103Y-84486729D01*
X153696765Y-84646765D01*
X153536729Y-84778103D01*
X153450975Y-84823939D01*
X153354149Y-84875694D01*
X153354146Y-84875695D01*
X153156032Y-84935793D01*
X152950000Y-84956085D01*
X152743969Y-84935793D01*
X152545855Y-84875695D01*
X152545852Y-84875694D01*
X152449026Y-84823939D01*
X152363272Y-84778103D01*
X152203236Y-84646765D01*
X152071898Y-84486729D01*
X152024055Y-84397221D01*
X151974307Y-84304149D01*
X151961532Y-84262037D01*
X151914208Y-84106032D01*
X151899001Y-83951630D01*
X151899000Y-81848371D01*
X151914207Y-81693969D01*
X151974305Y-81495855D01*
X151974306Y-81495852D01*
X152021987Y-81406648D01*
X152071897Y-81313271D01*
X152203235Y-81153235D01*
X152363271Y-81021897D01*
X152449025Y-80976061D01*
X152545851Y-80924306D01*
X152545854Y-80924305D01*
X152743968Y-80864207D01*
X152950000Y-80843915D01*
X153156031Y-80864207D01*
X153156031Y-80864207D01*
G37*
G36*
X146656031Y-80864207D02*
G01*
X146854145Y-80924305D01*
X146854148Y-80924306D01*
X146920030Y-80959521D01*
X147036729Y-81021897D01*
X147196765Y-81153235D01*
X147328103Y-81313271D01*
X147328104Y-81313273D01*
X147425694Y-81495851D01*
X147425694Y-81495852D01*
X147425695Y-81495854D01*
X147485793Y-81693968D01*
X147501000Y-81848370D01*
X147501000Y-83951630D01*
X147485793Y-84106032D01*
X147438469Y-84262037D01*
X147425694Y-84304149D01*
X147375946Y-84397221D01*
X147328103Y-84486729D01*
X147196765Y-84646765D01*
X147036729Y-84778103D01*
X146950975Y-84823939D01*
X146854149Y-84875694D01*
X146854146Y-84875695D01*
X146656032Y-84935793D01*
X146450000Y-84956085D01*
X146243969Y-84935793D01*
X146045855Y-84875695D01*
X146045852Y-84875694D01*
X145949026Y-84823939D01*
X145863272Y-84778103D01*
X145703236Y-84646765D01*
X145571898Y-84486729D01*
X145524055Y-84397221D01*
X145474307Y-84304149D01*
X145461532Y-84262037D01*
X145414208Y-84106032D01*
X145399001Y-83951630D01*
X145399000Y-81848371D01*
X145414207Y-81693969D01*
X145474305Y-81495855D01*
X145474306Y-81495852D01*
X145521987Y-81406648D01*
X145571897Y-81313271D01*
X145703235Y-81153235D01*
X145863271Y-81021897D01*
X145949025Y-80976061D01*
X146045851Y-80924306D01*
X146045854Y-80924305D01*
X146243968Y-80864207D01*
X146450000Y-80843915D01*
X146656031Y-80864207D01*
X146656031Y-80864207D01*
G37*
G36*
X139156031Y-80864207D02*
G01*
X139354145Y-80924305D01*
X139354148Y-80924306D01*
X139420030Y-80959521D01*
X139536729Y-81021897D01*
X139696765Y-81153235D01*
X139828103Y-81313271D01*
X139828104Y-81313273D01*
X139925694Y-81495851D01*
X139925694Y-81495852D01*
X139925695Y-81495854D01*
X139985793Y-81693968D01*
X140001000Y-81848370D01*
X140001000Y-83951630D01*
X139985793Y-84106032D01*
X139938469Y-84262037D01*
X139925694Y-84304149D01*
X139875946Y-84397221D01*
X139828103Y-84486729D01*
X139696765Y-84646765D01*
X139536729Y-84778103D01*
X139450975Y-84823939D01*
X139354149Y-84875694D01*
X139354146Y-84875695D01*
X139156032Y-84935793D01*
X138950000Y-84956085D01*
X138743969Y-84935793D01*
X138545855Y-84875695D01*
X138545852Y-84875694D01*
X138449026Y-84823939D01*
X138363272Y-84778103D01*
X138203236Y-84646765D01*
X138071898Y-84486729D01*
X138024055Y-84397221D01*
X137974307Y-84304149D01*
X137961532Y-84262037D01*
X137914208Y-84106032D01*
X137899001Y-83951630D01*
X137899000Y-81848371D01*
X137914207Y-81693969D01*
X137974305Y-81495855D01*
X137974306Y-81495852D01*
X138021987Y-81406648D01*
X138071897Y-81313271D01*
X138203235Y-81153235D01*
X138363271Y-81021897D01*
X138449025Y-80976061D01*
X138545851Y-80924306D01*
X138545854Y-80924305D01*
X138743968Y-80864207D01*
X138950000Y-80843915D01*
X139156031Y-80864207D01*
X139156031Y-80864207D01*
G37*
G36*
X167156031Y-80864207D02*
G01*
X167354145Y-80924305D01*
X167354148Y-80924306D01*
X167420030Y-80959521D01*
X167536729Y-81021897D01*
X167696765Y-81153235D01*
X167828103Y-81313271D01*
X167828104Y-81313273D01*
X167925694Y-81495851D01*
X167925694Y-81495852D01*
X167925695Y-81495854D01*
X167985793Y-81693968D01*
X168001000Y-81848370D01*
X168001000Y-83951630D01*
X167985793Y-84106032D01*
X167938469Y-84262037D01*
X167925694Y-84304149D01*
X167875946Y-84397221D01*
X167828103Y-84486729D01*
X167696765Y-84646765D01*
X167536729Y-84778103D01*
X167450975Y-84823939D01*
X167354149Y-84875694D01*
X167354146Y-84875695D01*
X167156032Y-84935793D01*
X166950000Y-84956085D01*
X166743969Y-84935793D01*
X166545855Y-84875695D01*
X166545852Y-84875694D01*
X166449026Y-84823939D01*
X166363272Y-84778103D01*
X166203236Y-84646765D01*
X166071898Y-84486729D01*
X166024055Y-84397221D01*
X165974307Y-84304149D01*
X165961532Y-84262037D01*
X165914208Y-84106032D01*
X165899001Y-83951630D01*
X165899000Y-81848371D01*
X165914207Y-81693969D01*
X165974305Y-81495855D01*
X165974306Y-81495852D01*
X166021987Y-81406648D01*
X166071897Y-81313271D01*
X166203235Y-81153235D01*
X166363271Y-81021897D01*
X166449025Y-80976061D01*
X166545851Y-80924306D01*
X166545854Y-80924305D01*
X166743968Y-80864207D01*
X166950000Y-80843915D01*
X167156031Y-80864207D01*
X167156031Y-80864207D01*
G37*
G36*
X184211808Y-83306648D02*
G01*
X184363551Y-83352678D01*
X184503398Y-83427428D01*
X184625975Y-83528025D01*
X184726572Y-83650602D01*
X184801322Y-83790449D01*
X184847352Y-83942192D01*
X184862895Y-84100000D01*
X184847352Y-84257808D01*
X184801322Y-84409551D01*
X184726572Y-84549398D01*
X184625975Y-84671975D01*
X184503398Y-84772572D01*
X184363551Y-84847322D01*
X184211808Y-84893352D01*
X184093546Y-84905000D01*
X182506454Y-84905000D01*
X182388192Y-84893352D01*
X182236449Y-84847322D01*
X182096602Y-84772572D01*
X181974025Y-84671975D01*
X181873428Y-84549398D01*
X181798678Y-84409551D01*
X181752648Y-84257808D01*
X181737105Y-84100000D01*
X181752648Y-83942192D01*
X181798678Y-83790449D01*
X181873428Y-83650602D01*
X181974025Y-83528025D01*
X182096602Y-83427428D01*
X182236449Y-83352678D01*
X182388192Y-83306648D01*
X182506454Y-83295000D01*
X184093546Y-83295000D01*
X184211808Y-83306648D01*
X184211808Y-83306648D01*
G37*
G36*
X182211808Y-81406648D02*
G01*
X182363551Y-81452678D01*
X182503398Y-81527428D01*
X182625975Y-81628025D01*
X182726572Y-81750602D01*
X182801322Y-81890449D01*
X182847352Y-82042192D01*
X182862895Y-82200000D01*
X182847352Y-82357808D01*
X182801322Y-82509551D01*
X182726572Y-82649398D01*
X182625975Y-82771975D01*
X182503398Y-82872572D01*
X182363551Y-82947322D01*
X182211808Y-82993352D01*
X182093546Y-83005000D01*
X180506454Y-83005000D01*
X180388192Y-82993352D01*
X180236449Y-82947322D01*
X180096602Y-82872572D01*
X179974025Y-82771975D01*
X179873428Y-82649398D01*
X179798678Y-82509551D01*
X179752648Y-82357808D01*
X179737105Y-82200000D01*
X179752648Y-82042192D01*
X179798678Y-81890449D01*
X179873428Y-81750602D01*
X179974025Y-81628025D01*
X180096602Y-81527428D01*
X180236449Y-81452678D01*
X180388192Y-81406648D01*
X180506454Y-81395000D01*
X182093546Y-81395000D01*
X182211808Y-81406648D01*
X182211808Y-81406648D01*
G37*
G36*
X143275256Y-78241298D02*
G01*
X143381579Y-78262447D01*
X143682042Y-78386903D01*
X143952451Y-78567585D01*
X144182415Y-78797549D01*
X144363097Y-79067958D01*
X144487553Y-79368421D01*
X144551000Y-79687391D01*
X144551000Y-80012609D01*
X144487553Y-80331579D01*
X144363097Y-80632042D01*
X144182415Y-80902451D01*
X143952451Y-81132415D01*
X143682042Y-81313097D01*
X143682041Y-81313098D01*
X143682040Y-81313098D01*
X143594037Y-81349550D01*
X143381579Y-81437553D01*
X143305540Y-81452678D01*
X143062611Y-81501000D01*
X142737389Y-81501000D01*
X142494460Y-81452678D01*
X142418421Y-81437553D01*
X142205963Y-81349550D01*
X142117960Y-81313098D01*
X142117959Y-81313098D01*
X142117958Y-81313097D01*
X141847549Y-81132415D01*
X141617585Y-80902451D01*
X141436903Y-80632042D01*
X141312447Y-80331579D01*
X141249000Y-80012609D01*
X141249000Y-79687391D01*
X141312447Y-79368421D01*
X141436903Y-79067958D01*
X141617585Y-78797549D01*
X141847549Y-78567585D01*
X142117958Y-78386903D01*
X142418421Y-78262447D01*
X142524744Y-78241298D01*
X142737389Y-78199000D01*
X143062611Y-78199000D01*
X143275256Y-78241298D01*
X143275256Y-78241298D01*
G37*
G36*
X184211808Y-77806648D02*
G01*
X184363551Y-77852678D01*
X184503398Y-77927428D01*
X184625975Y-78028025D01*
X184726572Y-78150602D01*
X184801322Y-78290449D01*
X184847352Y-78442192D01*
X184862895Y-78600000D01*
X184847352Y-78757808D01*
X184801322Y-78909551D01*
X184726572Y-79049398D01*
X184625975Y-79171975D01*
X184503398Y-79272572D01*
X184363551Y-79347322D01*
X184211808Y-79393352D01*
X184093546Y-79405000D01*
X182506454Y-79405000D01*
X182388192Y-79393352D01*
X182236449Y-79347322D01*
X182096602Y-79272572D01*
X181974025Y-79171975D01*
X181873428Y-79049398D01*
X181798678Y-78909551D01*
X181752648Y-78757808D01*
X181737105Y-78600000D01*
X181752648Y-78442192D01*
X181798678Y-78290449D01*
X181873428Y-78150602D01*
X181974025Y-78028025D01*
X182096602Y-77927428D01*
X182236449Y-77852678D01*
X182388192Y-77806648D01*
X182506454Y-77795000D01*
X184093546Y-77795000D01*
X184211808Y-77806648D01*
X184211808Y-77806648D01*
G37*
G36*
X146047293Y-75859507D02*
G01*
X146120225Y-75874014D01*
X146177138Y-75897588D01*
X146257626Y-75930927D01*
X146381284Y-76013553D01*
X146486447Y-76118716D01*
X146569073Y-76242374D01*
X146625986Y-76379776D01*
X146655000Y-76525638D01*
X146655000Y-76674362D01*
X146625986Y-76820224D01*
X146569073Y-76957626D01*
X146486447Y-77081284D01*
X146381284Y-77186447D01*
X146257626Y-77269073D01*
X146177138Y-77302412D01*
X146120225Y-77325986D01*
X146047293Y-77340493D01*
X145974362Y-77355000D01*
X145825638Y-77355000D01*
X145752707Y-77340493D01*
X145679775Y-77325986D01*
X145622862Y-77302412D01*
X145542374Y-77269073D01*
X145418716Y-77186447D01*
X145313553Y-77081284D01*
X145230927Y-76957626D01*
X145174014Y-76820224D01*
X145145000Y-76674362D01*
X145145000Y-76525638D01*
X145174014Y-76379776D01*
X145230927Y-76242374D01*
X145313553Y-76118716D01*
X145418716Y-76013553D01*
X145542374Y-75930927D01*
X145622862Y-75897588D01*
X145679775Y-75874014D01*
X145752707Y-75859507D01*
X145825638Y-75845000D01*
X145974362Y-75845000D01*
X146047293Y-75859507D01*
X146047293Y-75859507D01*
G37*
G36*
X148547293Y-75859507D02*
G01*
X148620225Y-75874014D01*
X148677138Y-75897588D01*
X148757626Y-75930927D01*
X148881284Y-76013553D01*
X148986447Y-76118716D01*
X149069073Y-76242374D01*
X149125986Y-76379776D01*
X149155000Y-76525638D01*
X149155000Y-76674362D01*
X149125986Y-76820224D01*
X149069073Y-76957626D01*
X148986447Y-77081284D01*
X148881284Y-77186447D01*
X148757626Y-77269073D01*
X148677138Y-77302412D01*
X148620225Y-77325986D01*
X148547293Y-77340493D01*
X148474362Y-77355000D01*
X148325638Y-77355000D01*
X148252707Y-77340493D01*
X148179775Y-77325986D01*
X148122862Y-77302412D01*
X148042374Y-77269073D01*
X147918716Y-77186447D01*
X147813553Y-77081284D01*
X147730927Y-76957626D01*
X147674014Y-76820224D01*
X147645000Y-76674362D01*
X147645000Y-76525638D01*
X147674014Y-76379776D01*
X147730927Y-76242374D01*
X147813553Y-76118716D01*
X147918716Y-76013553D01*
X148042374Y-75930927D01*
X148122862Y-75897588D01*
X148179775Y-75874014D01*
X148252707Y-75859507D01*
X148325638Y-75845000D01*
X148474362Y-75845000D01*
X148547293Y-75859507D01*
X148547293Y-75859507D01*
G37*
G36*
X176138254Y-71842818D02*
G01*
X176511511Y-71997426D01*
X176511513Y-71997427D01*
X176847436Y-72221884D01*
X177133116Y-72507564D01*
X177342030Y-72820225D01*
X177357574Y-72843489D01*
X177512182Y-73216746D01*
X177591000Y-73612993D01*
X177591000Y-74017007D01*
X177512182Y-74413254D01*
X177357574Y-74786511D01*
X177357573Y-74786513D01*
X177133116Y-75122436D01*
X176847436Y-75408116D01*
X176511513Y-75632573D01*
X176511512Y-75632574D01*
X176511511Y-75632574D01*
X176138254Y-75787182D01*
X175742007Y-75866000D01*
X175337993Y-75866000D01*
X174941746Y-75787182D01*
X174568489Y-75632574D01*
X174568488Y-75632574D01*
X174568487Y-75632573D01*
X174232564Y-75408116D01*
X173946884Y-75122436D01*
X173722427Y-74786513D01*
X173722426Y-74786511D01*
X173567818Y-74413254D01*
X173489000Y-74017007D01*
X173489000Y-73612993D01*
X173567818Y-73216746D01*
X173722426Y-72843489D01*
X173737971Y-72820225D01*
X173946884Y-72507564D01*
X174232564Y-72221884D01*
X174568487Y-71997427D01*
X174568489Y-71997426D01*
X174941746Y-71842818D01*
X175337993Y-71764000D01*
X175742007Y-71764000D01*
X176138254Y-71842818D01*
X176138254Y-71842818D01*
G37*
G36*
X148547293Y-73859507D02*
G01*
X148620225Y-73874014D01*
X148677138Y-73897588D01*
X148757626Y-73930927D01*
X148881284Y-74013553D01*
X148986447Y-74118716D01*
X149069073Y-74242374D01*
X149091468Y-74296442D01*
X149125986Y-74379775D01*
X149140493Y-74452707D01*
X149155000Y-74525638D01*
X149155000Y-74674362D01*
X149125986Y-74820224D01*
X149069073Y-74957626D01*
X148986447Y-75081284D01*
X148881284Y-75186447D01*
X148757626Y-75269073D01*
X148677138Y-75302412D01*
X148620225Y-75325986D01*
X148547293Y-75340493D01*
X148474362Y-75355000D01*
X148325638Y-75355000D01*
X148252707Y-75340493D01*
X148179775Y-75325986D01*
X148122862Y-75302412D01*
X148042374Y-75269073D01*
X147918716Y-75186447D01*
X147813553Y-75081284D01*
X147730927Y-74957626D01*
X147674014Y-74820224D01*
X147645000Y-74674362D01*
X147645000Y-74525638D01*
X147659507Y-74452707D01*
X147674014Y-74379775D01*
X147708532Y-74296442D01*
X147730927Y-74242374D01*
X147813553Y-74118716D01*
X147918716Y-74013553D01*
X148042374Y-73930927D01*
X148122862Y-73897588D01*
X148179775Y-73874014D01*
X148252707Y-73859507D01*
X148325638Y-73845000D01*
X148474362Y-73845000D01*
X148547293Y-73859507D01*
X148547293Y-73859507D01*
G37*
G36*
X146655000Y-74655000D02*
G01*
X145145000Y-74655000D01*
X145145000Y-73145000D01*
X146655000Y-73145000D01*
X146655000Y-74655000D01*
X146655000Y-74655000D01*
G37*
G36*
X142266626Y-70872037D02*
G01*
X142436465Y-70923557D01*
X142436467Y-70923558D01*
X142592989Y-71007221D01*
X142730186Y-71119814D01*
X142784869Y-71186447D01*
X142842778Y-71257009D01*
X142926443Y-71413534D01*
X142977963Y-71583373D01*
X142991000Y-71715742D01*
X142991000Y-73504258D01*
X142977963Y-73636627D01*
X142926443Y-73806466D01*
X142842778Y-73962991D01*
X142813448Y-73998729D01*
X142730186Y-74100186D01*
X142628729Y-74183448D01*
X142592991Y-74212778D01*
X142436466Y-74296443D01*
X142266627Y-74347963D01*
X142090000Y-74365359D01*
X141913374Y-74347963D01*
X141743535Y-74296443D01*
X141587010Y-74212778D01*
X141551272Y-74183448D01*
X141449815Y-74100186D01*
X141366553Y-73998729D01*
X141337223Y-73962991D01*
X141253558Y-73806466D01*
X141202038Y-73636627D01*
X141189001Y-73504258D01*
X141189000Y-71715743D01*
X141202037Y-71583374D01*
X141253557Y-71413535D01*
X141330774Y-71269073D01*
X141337221Y-71257011D01*
X141449814Y-71119814D01*
X141551271Y-71036552D01*
X141587009Y-71007222D01*
X141743534Y-70923557D01*
X141913373Y-70872037D01*
X142090000Y-70854641D01*
X142266626Y-70872037D01*
X142266626Y-70872037D01*
G37*
G36*
X148547293Y-71859507D02*
G01*
X148620225Y-71874014D01*
X148677138Y-71897588D01*
X148757626Y-71930927D01*
X148881284Y-72013553D01*
X148986447Y-72118716D01*
X149069073Y-72242374D01*
X149102412Y-72322862D01*
X149125986Y-72379775D01*
X149155000Y-72525639D01*
X149155000Y-72674361D01*
X149125986Y-72820225D01*
X149102412Y-72877138D01*
X149069073Y-72957626D01*
X148986447Y-73081284D01*
X148881284Y-73186447D01*
X148757626Y-73269073D01*
X148677138Y-73302412D01*
X148620225Y-73325986D01*
X148547293Y-73340493D01*
X148474362Y-73355000D01*
X148325638Y-73355000D01*
X148252707Y-73340493D01*
X148179775Y-73325986D01*
X148122862Y-73302412D01*
X148042374Y-73269073D01*
X147918716Y-73186447D01*
X147813553Y-73081284D01*
X147730927Y-72957626D01*
X147697588Y-72877138D01*
X147674014Y-72820225D01*
X147645000Y-72674361D01*
X147645000Y-72525639D01*
X147674014Y-72379775D01*
X147697588Y-72322862D01*
X147730927Y-72242374D01*
X147813553Y-72118716D01*
X147918716Y-72013553D01*
X148042374Y-71930927D01*
X148122862Y-71897588D01*
X148179775Y-71874014D01*
X148252707Y-71859507D01*
X148325638Y-71845000D01*
X148474362Y-71845000D01*
X148547293Y-71859507D01*
X148547293Y-71859507D01*
G37*
G36*
X146047293Y-71159507D02*
G01*
X146120225Y-71174014D01*
X146177138Y-71197588D01*
X146257626Y-71230927D01*
X146381284Y-71313553D01*
X146486447Y-71418716D01*
X146569073Y-71542374D01*
X146625986Y-71679776D01*
X146655000Y-71825638D01*
X146655000Y-71974362D01*
X146625986Y-72120224D01*
X146569073Y-72257626D01*
X146486447Y-72381284D01*
X146381284Y-72486447D01*
X146257626Y-72569073D01*
X146177138Y-72602412D01*
X146120225Y-72625986D01*
X146047293Y-72640493D01*
X145974362Y-72655000D01*
X145825638Y-72655000D01*
X145752707Y-72640493D01*
X145679775Y-72625986D01*
X145622862Y-72602412D01*
X145542374Y-72569073D01*
X145418716Y-72486447D01*
X145313553Y-72381284D01*
X145230927Y-72257626D01*
X145174014Y-72120224D01*
X145145000Y-71974362D01*
X145145000Y-71825638D01*
X145174014Y-71679776D01*
X145230927Y-71542374D01*
X145313553Y-71418716D01*
X145418716Y-71313553D01*
X145542374Y-71230927D01*
X145622862Y-71197588D01*
X145679775Y-71174014D01*
X145752707Y-71159507D01*
X145825638Y-71145000D01*
X145974362Y-71145000D01*
X146047293Y-71159507D01*
X146047293Y-71159507D01*
G37*
G36*
X148547293Y-69859507D02*
G01*
X148620225Y-69874014D01*
X148677138Y-69897588D01*
X148757626Y-69930927D01*
X148881284Y-70013553D01*
X148986447Y-70118716D01*
X149069073Y-70242374D01*
X149125986Y-70379776D01*
X149155000Y-70525638D01*
X149155000Y-70674362D01*
X149125986Y-70820224D01*
X149069073Y-70957626D01*
X148986447Y-71081284D01*
X148881284Y-71186447D01*
X148757626Y-71269073D01*
X148677138Y-71302412D01*
X148620225Y-71325986D01*
X148547293Y-71340493D01*
X148474362Y-71355000D01*
X148325638Y-71355000D01*
X148252707Y-71340493D01*
X148179775Y-71325986D01*
X148122862Y-71302412D01*
X148042374Y-71269073D01*
X147918716Y-71186447D01*
X147813553Y-71081284D01*
X147730927Y-70957626D01*
X147674014Y-70820224D01*
X147645000Y-70674362D01*
X147645000Y-70525638D01*
X147674014Y-70379776D01*
X147730927Y-70242374D01*
X147813553Y-70118716D01*
X147918716Y-70013553D01*
X148042374Y-69930927D01*
X148122862Y-69897588D01*
X148179775Y-69874014D01*
X148252707Y-69859507D01*
X148325638Y-69845000D01*
X148474362Y-69845000D01*
X148547293Y-69859507D01*
X148547293Y-69859507D01*
G37*
G36*
X146047293Y-67859507D02*
G01*
X146120225Y-67874014D01*
X146177138Y-67897588D01*
X146257626Y-67930927D01*
X146381284Y-68013553D01*
X146486447Y-68118716D01*
X146569073Y-68242374D01*
X146625986Y-68379776D01*
X146655000Y-68525638D01*
X146655000Y-68674362D01*
X146625986Y-68820224D01*
X146569073Y-68957626D01*
X146486447Y-69081284D01*
X146381284Y-69186447D01*
X146257626Y-69269073D01*
X146177138Y-69302412D01*
X146120225Y-69325986D01*
X146047293Y-69340493D01*
X145974362Y-69355000D01*
X145825638Y-69355000D01*
X145752707Y-69340493D01*
X145679775Y-69325986D01*
X145622862Y-69302412D01*
X145542374Y-69269073D01*
X145418716Y-69186447D01*
X145313553Y-69081284D01*
X145230927Y-68957626D01*
X145174014Y-68820224D01*
X145145000Y-68674362D01*
X145145000Y-68525638D01*
X145174014Y-68379776D01*
X145230927Y-68242374D01*
X145313553Y-68118716D01*
X145418716Y-68013553D01*
X145542374Y-67930927D01*
X145622862Y-67897588D01*
X145679775Y-67874014D01*
X145752707Y-67859507D01*
X145825638Y-67845000D01*
X145974362Y-67845000D01*
X146047293Y-67859507D01*
X146047293Y-67859507D01*
G37*
G36*
X148547293Y-67859507D02*
G01*
X148620225Y-67874014D01*
X148677138Y-67897588D01*
X148757626Y-67930927D01*
X148881284Y-68013553D01*
X148986447Y-68118716D01*
X149069073Y-68242374D01*
X149125986Y-68379776D01*
X149155000Y-68525638D01*
X149155000Y-68674362D01*
X149125986Y-68820224D01*
X149069073Y-68957626D01*
X148986447Y-69081284D01*
X148881284Y-69186447D01*
X148757626Y-69269073D01*
X148677138Y-69302412D01*
X148620225Y-69325986D01*
X148547293Y-69340493D01*
X148474362Y-69355000D01*
X148325638Y-69355000D01*
X148252707Y-69340493D01*
X148179775Y-69325986D01*
X148122862Y-69302412D01*
X148042374Y-69269073D01*
X147918716Y-69186447D01*
X147813553Y-69081284D01*
X147730927Y-68957626D01*
X147674014Y-68820224D01*
X147645000Y-68674362D01*
X147645000Y-68525638D01*
X147674014Y-68379776D01*
X147730927Y-68242374D01*
X147813553Y-68118716D01*
X147918716Y-68013553D01*
X148042374Y-67930927D01*
X148122862Y-67897588D01*
X148179775Y-67874014D01*
X148252707Y-67859507D01*
X148325638Y-67845000D01*
X148474362Y-67845000D01*
X148547293Y-67859507D01*
X148547293Y-67859507D01*
G37*
G36*
X173248228Y-65341703D02*
G01*
X173403100Y-65405853D01*
X173542481Y-65498985D01*
X173661015Y-65617519D01*
X173754147Y-65756900D01*
X173818297Y-65911772D01*
X173851000Y-66076184D01*
X173851000Y-66243816D01*
X173818297Y-66408228D01*
X173754147Y-66563100D01*
X173661015Y-66702481D01*
X173542481Y-66821015D01*
X173403100Y-66914147D01*
X173248228Y-66978297D01*
X173083816Y-67011000D01*
X172916184Y-67011000D01*
X172751772Y-66978297D01*
X172596900Y-66914147D01*
X172457519Y-66821015D01*
X172338985Y-66702481D01*
X172245853Y-66563100D01*
X172181703Y-66408228D01*
X172149000Y-66243816D01*
X172149000Y-66076184D01*
X172181703Y-65911772D01*
X172245853Y-65756900D01*
X172338985Y-65617519D01*
X172457519Y-65498985D01*
X172596900Y-65405853D01*
X172751772Y-65341703D01*
X172916184Y-65309000D01*
X173083816Y-65309000D01*
X173248228Y-65341703D01*
X173248228Y-65341703D01*
G37*
G36*
X178328228Y-65341703D02*
G01*
X178483100Y-65405853D01*
X178622481Y-65498985D01*
X178741015Y-65617519D01*
X178834147Y-65756900D01*
X178898297Y-65911772D01*
X178931000Y-66076184D01*
X178931000Y-66243816D01*
X178898297Y-66408228D01*
X178834147Y-66563100D01*
X178741015Y-66702481D01*
X178622481Y-66821015D01*
X178483100Y-66914147D01*
X178328228Y-66978297D01*
X178163816Y-67011000D01*
X177996184Y-67011000D01*
X177831772Y-66978297D01*
X177676900Y-66914147D01*
X177537519Y-66821015D01*
X177418985Y-66702481D01*
X177325853Y-66563100D01*
X177261703Y-66408228D01*
X177229000Y-66243816D01*
X177229000Y-66076184D01*
X177261703Y-65911772D01*
X177325853Y-65756900D01*
X177418985Y-65617519D01*
X177537519Y-65498985D01*
X177676900Y-65405853D01*
X177831772Y-65341703D01*
X177996184Y-65309000D01*
X178163816Y-65309000D01*
X178328228Y-65341703D01*
X178328228Y-65341703D01*
G37*
G36*
X143275256Y-63741298D02*
G01*
X143381579Y-63762447D01*
X143594037Y-63850450D01*
X143668721Y-63881385D01*
X143682042Y-63886903D01*
X143952451Y-64067585D01*
X144182415Y-64297549D01*
X144363097Y-64567958D01*
X144487553Y-64868421D01*
X144508702Y-64974744D01*
X144551000Y-65187389D01*
X144551000Y-65512611D01*
X144530132Y-65617519D01*
X144487553Y-65831579D01*
X144363097Y-66132042D01*
X144182415Y-66402451D01*
X143952451Y-66632415D01*
X143682042Y-66813097D01*
X143682041Y-66813098D01*
X143682040Y-66813098D01*
X143594037Y-66849550D01*
X143381579Y-66937553D01*
X143275256Y-66958702D01*
X143062611Y-67001000D01*
X142737389Y-67001000D01*
X142524744Y-66958702D01*
X142418421Y-66937553D01*
X142205963Y-66849550D01*
X142117960Y-66813098D01*
X142117959Y-66813098D01*
X142117958Y-66813097D01*
X141847549Y-66632415D01*
X141617585Y-66402451D01*
X141436903Y-66132042D01*
X141312447Y-65831579D01*
X141269868Y-65617519D01*
X141249000Y-65512611D01*
X141249000Y-65187389D01*
X141291298Y-64974744D01*
X141312447Y-64868421D01*
X141436903Y-64567958D01*
X141617585Y-64297549D01*
X141847549Y-64067585D01*
X142117958Y-63886903D01*
X142131280Y-63881385D01*
X142205963Y-63850450D01*
X142418421Y-63762447D01*
X142524744Y-63741298D01*
X142737389Y-63699000D01*
X143062611Y-63699000D01*
X143275256Y-63741298D01*
X143275256Y-63741298D01*
G37*
G36*
X175788228Y-64196703D02*
G01*
X175943100Y-64260853D01*
X176082481Y-64353985D01*
X176201015Y-64472519D01*
X176294147Y-64611900D01*
X176358297Y-64766772D01*
X176391000Y-64931184D01*
X176391000Y-65098816D01*
X176358297Y-65263228D01*
X176294147Y-65418100D01*
X176201015Y-65557481D01*
X176082481Y-65676015D01*
X175943100Y-65769147D01*
X175788228Y-65833297D01*
X175623816Y-65866000D01*
X175456184Y-65866000D01*
X175291772Y-65833297D01*
X175136900Y-65769147D01*
X174997519Y-65676015D01*
X174878985Y-65557481D01*
X174785853Y-65418100D01*
X174721703Y-65263228D01*
X174689000Y-65098816D01*
X174689000Y-64931184D01*
X174721703Y-64766772D01*
X174785853Y-64611900D01*
X174878985Y-64472519D01*
X174997519Y-64353985D01*
X175136900Y-64260853D01*
X175291772Y-64196703D01*
X175456184Y-64164000D01*
X175623816Y-64164000D01*
X175788228Y-64196703D01*
X175788228Y-64196703D01*
G37*
G36*
X178328228Y-63051703D02*
G01*
X178483100Y-63115853D01*
X178622481Y-63208985D01*
X178741015Y-63327519D01*
X178834147Y-63466900D01*
X178898297Y-63621772D01*
X178931000Y-63786184D01*
X178931000Y-63953816D01*
X178898297Y-64118228D01*
X178834147Y-64273100D01*
X178741015Y-64412481D01*
X178622481Y-64531015D01*
X178483100Y-64624147D01*
X178328228Y-64688297D01*
X178163816Y-64721000D01*
X177996184Y-64721000D01*
X177831772Y-64688297D01*
X177676900Y-64624147D01*
X177537519Y-64531015D01*
X177418985Y-64412481D01*
X177325853Y-64273100D01*
X177261703Y-64118228D01*
X177229000Y-63953816D01*
X177229000Y-63786184D01*
X177261703Y-63621772D01*
X177325853Y-63466900D01*
X177418985Y-63327519D01*
X177537519Y-63208985D01*
X177676900Y-63115853D01*
X177831772Y-63051703D01*
X177996184Y-63019000D01*
X178163816Y-63019000D01*
X178328228Y-63051703D01*
X178328228Y-63051703D01*
G37*
G36*
X173248228Y-63051703D02*
G01*
X173403100Y-63115853D01*
X173542481Y-63208985D01*
X173661015Y-63327519D01*
X173754147Y-63466900D01*
X173818297Y-63621772D01*
X173851000Y-63786184D01*
X173851000Y-63953816D01*
X173818297Y-64118228D01*
X173754147Y-64273100D01*
X173661015Y-64412481D01*
X173542481Y-64531015D01*
X173403100Y-64624147D01*
X173248228Y-64688297D01*
X173083816Y-64721000D01*
X172916184Y-64721000D01*
X172751772Y-64688297D01*
X172596900Y-64624147D01*
X172457519Y-64531015D01*
X172338985Y-64412481D01*
X172245853Y-64273100D01*
X172181703Y-64118228D01*
X172149000Y-63953816D01*
X172149000Y-63786184D01*
X172181703Y-63621772D01*
X172245853Y-63466900D01*
X172338985Y-63327519D01*
X172457519Y-63208985D01*
X172596900Y-63115853D01*
X172751772Y-63051703D01*
X172916184Y-63019000D01*
X173083816Y-63019000D01*
X173248228Y-63051703D01*
X173248228Y-63051703D01*
G37*
G36*
X158356564Y-61939389D02*
G01*
X158547833Y-62018615D01*
X158547835Y-62018616D01*
X158719973Y-62133635D01*
X158866365Y-62280027D01*
X158951746Y-62407808D01*
X158981385Y-62452167D01*
X159060611Y-62643436D01*
X159101000Y-62846484D01*
X159101000Y-63053516D01*
X159060611Y-63256564D01*
X158981385Y-63447833D01*
X158981384Y-63447835D01*
X158866365Y-63619973D01*
X158719973Y-63766365D01*
X158547835Y-63881384D01*
X158547834Y-63881385D01*
X158547833Y-63881385D01*
X158356564Y-63960611D01*
X158153516Y-64001000D01*
X157946484Y-64001000D01*
X157743436Y-63960611D01*
X157552167Y-63881385D01*
X157552166Y-63881385D01*
X157552165Y-63881384D01*
X157380027Y-63766365D01*
X157233635Y-63619973D01*
X157118616Y-63447835D01*
X157118615Y-63447833D01*
X157039389Y-63256564D01*
X156999000Y-63053516D01*
X156999000Y-62846484D01*
X157039389Y-62643436D01*
X157118615Y-62452167D01*
X157148255Y-62407808D01*
X157233635Y-62280027D01*
X157380027Y-62133635D01*
X157552165Y-62018616D01*
X157552167Y-62018615D01*
X157743436Y-61939389D01*
X157946484Y-61899000D01*
X158153516Y-61899000D01*
X158356564Y-61939389D01*
X158356564Y-61939389D01*
G37*
G36*
X175788228Y-61906703D02*
G01*
X175943100Y-61970853D01*
X176082481Y-62063985D01*
X176201015Y-62182519D01*
X176294147Y-62321900D01*
X176358297Y-62476772D01*
X176391000Y-62641184D01*
X176391000Y-62808816D01*
X176358297Y-62973228D01*
X176294147Y-63128100D01*
X176201015Y-63267481D01*
X176082481Y-63386015D01*
X175943100Y-63479147D01*
X175788228Y-63543297D01*
X175623816Y-63576000D01*
X175456184Y-63576000D01*
X175291772Y-63543297D01*
X175136900Y-63479147D01*
X174997519Y-63386015D01*
X174878985Y-63267481D01*
X174785853Y-63128100D01*
X174721703Y-62973228D01*
X174689000Y-62808816D01*
X174689000Y-62641184D01*
X174721703Y-62476772D01*
X174785853Y-62321900D01*
X174878985Y-62182519D01*
X174997519Y-62063985D01*
X175136900Y-61970853D01*
X175291772Y-61906703D01*
X175456184Y-61874000D01*
X175623816Y-61874000D01*
X175788228Y-61906703D01*
X175788228Y-61906703D01*
G37*
G36*
X142861808Y-61456648D02*
G01*
X143013551Y-61502678D01*
X143153398Y-61577428D01*
X143275975Y-61678025D01*
X143376572Y-61800602D01*
X143451322Y-61940449D01*
X143497352Y-62092192D01*
X143512895Y-62250000D01*
X143497352Y-62407808D01*
X143451322Y-62559551D01*
X143376572Y-62699398D01*
X143275975Y-62821975D01*
X143153398Y-62922572D01*
X143013551Y-62997322D01*
X142861808Y-63043352D01*
X142743546Y-63055000D01*
X141156454Y-63055000D01*
X141038192Y-63043352D01*
X140886449Y-62997322D01*
X140746602Y-62922572D01*
X140624025Y-62821975D01*
X140523428Y-62699398D01*
X140448678Y-62559551D01*
X140402648Y-62407808D01*
X140387105Y-62250000D01*
X140402648Y-62092192D01*
X140448678Y-61940449D01*
X140523428Y-61800602D01*
X140624025Y-61678025D01*
X140746602Y-61577428D01*
X140886449Y-61502678D01*
X141038192Y-61456648D01*
X141156454Y-61445000D01*
X142743546Y-61445000D01*
X142861808Y-61456648D01*
X142861808Y-61456648D01*
G37*
G36*
X178328228Y-60761703D02*
G01*
X178483100Y-60825853D01*
X178622481Y-60918985D01*
X178741015Y-61037519D01*
X178834147Y-61176900D01*
X178898297Y-61331772D01*
X178931000Y-61496184D01*
X178931000Y-61663816D01*
X178898297Y-61828228D01*
X178834147Y-61983100D01*
X178741015Y-62122481D01*
X178622481Y-62241015D01*
X178483100Y-62334147D01*
X178328228Y-62398297D01*
X178163816Y-62431000D01*
X177996184Y-62431000D01*
X177831772Y-62398297D01*
X177676900Y-62334147D01*
X177537519Y-62241015D01*
X177418985Y-62122481D01*
X177325853Y-61983100D01*
X177261703Y-61828228D01*
X177229000Y-61663816D01*
X177229000Y-61496184D01*
X177261703Y-61331772D01*
X177325853Y-61176900D01*
X177418985Y-61037519D01*
X177537519Y-60918985D01*
X177676900Y-60825853D01*
X177831772Y-60761703D01*
X177996184Y-60729000D01*
X178163816Y-60729000D01*
X178328228Y-60761703D01*
X178328228Y-60761703D01*
G37*
G36*
X173248228Y-60761703D02*
G01*
X173403100Y-60825853D01*
X173542481Y-60918985D01*
X173661015Y-61037519D01*
X173754147Y-61176900D01*
X173818297Y-61331772D01*
X173851000Y-61496184D01*
X173851000Y-61663816D01*
X173818297Y-61828228D01*
X173754147Y-61983100D01*
X173661015Y-62122481D01*
X173542481Y-62241015D01*
X173403100Y-62334147D01*
X173248228Y-62398297D01*
X173083816Y-62431000D01*
X172916184Y-62431000D01*
X172751772Y-62398297D01*
X172596900Y-62334147D01*
X172457519Y-62241015D01*
X172338985Y-62122481D01*
X172245853Y-61983100D01*
X172181703Y-61828228D01*
X172149000Y-61663816D01*
X172149000Y-61496184D01*
X172181703Y-61331772D01*
X172245853Y-61176900D01*
X172338985Y-61037519D01*
X172457519Y-60918985D01*
X172596900Y-60825853D01*
X172751772Y-60761703D01*
X172916184Y-60729000D01*
X173083816Y-60729000D01*
X173248228Y-60761703D01*
X173248228Y-60761703D01*
G37*
G36*
X150856564Y-59439389D02*
G01*
X151047833Y-59518615D01*
X151047835Y-59518616D01*
X151219973Y-59633635D01*
X151366365Y-59780027D01*
X151480616Y-59951015D01*
X151481385Y-59952167D01*
X151560611Y-60143436D01*
X151601000Y-60346484D01*
X151601000Y-60553516D01*
X151560611Y-60756564D01*
X151493334Y-60918985D01*
X151481384Y-60947835D01*
X151366365Y-61119973D01*
X151219973Y-61266365D01*
X151047835Y-61381384D01*
X151047834Y-61381385D01*
X151047833Y-61381385D01*
X150856564Y-61460611D01*
X150653516Y-61501000D01*
X150446484Y-61501000D01*
X150243436Y-61460611D01*
X150052167Y-61381385D01*
X150052166Y-61381385D01*
X150052165Y-61381384D01*
X149880027Y-61266365D01*
X149733635Y-61119973D01*
X149618616Y-60947835D01*
X149606666Y-60918985D01*
X149539389Y-60756564D01*
X149499000Y-60553516D01*
X149499000Y-60346484D01*
X149539389Y-60143436D01*
X149618615Y-59952167D01*
X149619385Y-59951015D01*
X149733635Y-59780027D01*
X149880027Y-59633635D01*
X150052165Y-59518616D01*
X150052167Y-59518615D01*
X150243436Y-59439389D01*
X150446484Y-59399000D01*
X150653516Y-59399000D01*
X150856564Y-59439389D01*
X150856564Y-59439389D01*
G37*
G36*
X155856564Y-59439389D02*
G01*
X156047833Y-59518615D01*
X156047835Y-59518616D01*
X156219973Y-59633635D01*
X156366365Y-59780027D01*
X156480616Y-59951015D01*
X156481385Y-59952167D01*
X156560611Y-60143436D01*
X156601000Y-60346484D01*
X156601000Y-60553516D01*
X156560611Y-60756564D01*
X156493334Y-60918985D01*
X156481384Y-60947835D01*
X156366365Y-61119973D01*
X156219973Y-61266365D01*
X156047835Y-61381384D01*
X156047834Y-61381385D01*
X156047833Y-61381385D01*
X155856564Y-61460611D01*
X155653516Y-61501000D01*
X155446484Y-61501000D01*
X155243436Y-61460611D01*
X155052167Y-61381385D01*
X155052166Y-61381385D01*
X155052165Y-61381384D01*
X154880027Y-61266365D01*
X154733635Y-61119973D01*
X154618616Y-60947835D01*
X154606666Y-60918985D01*
X154539389Y-60756564D01*
X154499000Y-60553516D01*
X154499000Y-60346484D01*
X154539389Y-60143436D01*
X154618615Y-59952167D01*
X154619385Y-59951015D01*
X154733635Y-59780027D01*
X154880027Y-59633635D01*
X155052165Y-59518616D01*
X155052167Y-59518615D01*
X155243436Y-59439389D01*
X155446484Y-59399000D01*
X155653516Y-59399000D01*
X155856564Y-59439389D01*
X155856564Y-59439389D01*
G37*
G36*
X160856564Y-59439389D02*
G01*
X161047833Y-59518615D01*
X161047835Y-59518616D01*
X161219973Y-59633635D01*
X161366365Y-59780027D01*
X161480616Y-59951015D01*
X161481385Y-59952167D01*
X161560611Y-60143436D01*
X161601000Y-60346484D01*
X161601000Y-60553516D01*
X161560611Y-60756564D01*
X161493334Y-60918985D01*
X161481384Y-60947835D01*
X161366365Y-61119973D01*
X161219973Y-61266365D01*
X161047835Y-61381384D01*
X161047834Y-61381385D01*
X161047833Y-61381385D01*
X160856564Y-61460611D01*
X160653516Y-61501000D01*
X160446484Y-61501000D01*
X160243436Y-61460611D01*
X160052167Y-61381385D01*
X160052166Y-61381385D01*
X160052165Y-61381384D01*
X159880027Y-61266365D01*
X159733635Y-61119973D01*
X159618616Y-60947835D01*
X159606666Y-60918985D01*
X159539389Y-60756564D01*
X159499000Y-60553516D01*
X159499000Y-60346484D01*
X159539389Y-60143436D01*
X159618615Y-59952167D01*
X159619385Y-59951015D01*
X159733635Y-59780027D01*
X159880027Y-59633635D01*
X160052165Y-59518616D01*
X160052167Y-59518615D01*
X160243436Y-59439389D01*
X160446484Y-59399000D01*
X160653516Y-59399000D01*
X160856564Y-59439389D01*
X160856564Y-59439389D01*
G37*
G36*
X165856564Y-59439389D02*
G01*
X166047833Y-59518615D01*
X166047835Y-59518616D01*
X166219973Y-59633635D01*
X166366365Y-59780027D01*
X166480616Y-59951015D01*
X166481385Y-59952167D01*
X166560611Y-60143436D01*
X166601000Y-60346484D01*
X166601000Y-60553516D01*
X166560611Y-60756564D01*
X166493334Y-60918985D01*
X166481384Y-60947835D01*
X166366365Y-61119973D01*
X166219973Y-61266365D01*
X166047835Y-61381384D01*
X166047834Y-61381385D01*
X166047833Y-61381385D01*
X165856564Y-61460611D01*
X165653516Y-61501000D01*
X165446484Y-61501000D01*
X165243436Y-61460611D01*
X165052167Y-61381385D01*
X165052166Y-61381385D01*
X165052165Y-61381384D01*
X164880027Y-61266365D01*
X164733635Y-61119973D01*
X164618616Y-60947835D01*
X164606666Y-60918985D01*
X164539389Y-60756564D01*
X164499000Y-60553516D01*
X164499000Y-60346484D01*
X164539389Y-60143436D01*
X164618615Y-59952167D01*
X164619385Y-59951015D01*
X164733635Y-59780027D01*
X164880027Y-59633635D01*
X165052165Y-59518616D01*
X165052167Y-59518615D01*
X165243436Y-59439389D01*
X165446484Y-59399000D01*
X165653516Y-59399000D01*
X165856564Y-59439389D01*
X165856564Y-59439389D01*
G37*
G36*
X175788228Y-59616703D02*
G01*
X175943100Y-59680853D01*
X176082481Y-59773985D01*
X176201015Y-59892519D01*
X176294147Y-60031900D01*
X176358297Y-60186772D01*
X176391000Y-60351184D01*
X176391000Y-60518816D01*
X176358297Y-60683228D01*
X176294147Y-60838100D01*
X176201015Y-60977481D01*
X176082481Y-61096015D01*
X175943100Y-61189147D01*
X175788228Y-61253297D01*
X175623816Y-61286000D01*
X175456184Y-61286000D01*
X175291772Y-61253297D01*
X175136900Y-61189147D01*
X174997519Y-61096015D01*
X174878985Y-60977481D01*
X174785853Y-60838100D01*
X174721703Y-60683228D01*
X174689000Y-60518816D01*
X174689000Y-60351184D01*
X174721703Y-60186772D01*
X174785853Y-60031900D01*
X174878985Y-59892519D01*
X174997519Y-59773985D01*
X175136900Y-59680853D01*
X175291772Y-59616703D01*
X175456184Y-59584000D01*
X175623816Y-59584000D01*
X175788228Y-59616703D01*
X175788228Y-59616703D01*
G37*
G36*
X173248228Y-58471703D02*
G01*
X173403100Y-58535853D01*
X173542481Y-58628985D01*
X173661015Y-58747519D01*
X173754147Y-58886900D01*
X173818297Y-59041772D01*
X173851000Y-59206184D01*
X173851000Y-59373816D01*
X173818297Y-59538228D01*
X173754147Y-59693100D01*
X173661015Y-59832481D01*
X173542481Y-59951015D01*
X173403100Y-60044147D01*
X173248228Y-60108297D01*
X173083816Y-60141000D01*
X172916184Y-60141000D01*
X172751772Y-60108297D01*
X172596900Y-60044147D01*
X172457519Y-59951015D01*
X172338985Y-59832481D01*
X172245853Y-59693100D01*
X172181703Y-59538228D01*
X172149000Y-59373816D01*
X172149000Y-59206184D01*
X172181703Y-59041772D01*
X172245853Y-58886900D01*
X172338985Y-58747519D01*
X172457519Y-58628985D01*
X172596900Y-58535853D01*
X172751772Y-58471703D01*
X172916184Y-58439000D01*
X173083816Y-58439000D01*
X173248228Y-58471703D01*
X173248228Y-58471703D01*
G37*
G36*
X178328228Y-58471703D02*
G01*
X178483100Y-58535853D01*
X178622481Y-58628985D01*
X178741015Y-58747519D01*
X178834147Y-58886900D01*
X178898297Y-59041772D01*
X178931000Y-59206184D01*
X178931000Y-59373816D01*
X178898297Y-59538228D01*
X178834147Y-59693100D01*
X178741015Y-59832481D01*
X178622481Y-59951015D01*
X178483100Y-60044147D01*
X178328228Y-60108297D01*
X178163816Y-60141000D01*
X177996184Y-60141000D01*
X177831772Y-60108297D01*
X177676900Y-60044147D01*
X177537519Y-59951015D01*
X177418985Y-59832481D01*
X177325853Y-59693100D01*
X177261703Y-59538228D01*
X177229000Y-59373816D01*
X177229000Y-59206184D01*
X177261703Y-59041772D01*
X177325853Y-58886900D01*
X177418985Y-58747519D01*
X177537519Y-58628985D01*
X177676900Y-58535853D01*
X177831772Y-58471703D01*
X177996184Y-58439000D01*
X178163816Y-58439000D01*
X178328228Y-58471703D01*
X178328228Y-58471703D01*
G37*
G36*
X144861808Y-57856648D02*
G01*
X145013551Y-57902678D01*
X145153398Y-57977428D01*
X145275975Y-58078025D01*
X145376572Y-58200602D01*
X145451322Y-58340449D01*
X145497352Y-58492192D01*
X145512895Y-58650000D01*
X145497352Y-58807808D01*
X145451322Y-58959551D01*
X145376572Y-59099398D01*
X145275975Y-59221975D01*
X145153398Y-59322572D01*
X145013551Y-59397322D01*
X144861808Y-59443352D01*
X144743546Y-59455000D01*
X143156454Y-59455000D01*
X143038192Y-59443352D01*
X142886449Y-59397322D01*
X142746602Y-59322572D01*
X142624025Y-59221975D01*
X142523428Y-59099398D01*
X142448678Y-58959551D01*
X142402648Y-58807808D01*
X142387105Y-58650000D01*
X142402648Y-58492192D01*
X142448678Y-58340449D01*
X142523428Y-58200602D01*
X142624025Y-58078025D01*
X142746602Y-57977428D01*
X142886449Y-57902678D01*
X143038192Y-57856648D01*
X143156454Y-57845000D01*
X144743546Y-57845000D01*
X144861808Y-57856648D01*
X144861808Y-57856648D01*
G37*
G36*
X163356564Y-56939389D02*
G01*
X163547833Y-57018615D01*
X163547835Y-57018616D01*
X163719973Y-57133635D01*
X163866365Y-57280027D01*
X163961611Y-57422572D01*
X163981385Y-57452167D01*
X164060611Y-57643436D01*
X164101000Y-57846484D01*
X164101000Y-58053516D01*
X164060611Y-58256564D01*
X163985044Y-58439000D01*
X163981384Y-58447835D01*
X163866365Y-58619973D01*
X163719973Y-58766365D01*
X163547835Y-58881384D01*
X163547834Y-58881385D01*
X163547833Y-58881385D01*
X163356564Y-58960611D01*
X163153516Y-59001000D01*
X162946484Y-59001000D01*
X162743436Y-58960611D01*
X162552167Y-58881385D01*
X162552166Y-58881385D01*
X162552165Y-58881384D01*
X162380027Y-58766365D01*
X162233635Y-58619973D01*
X162118616Y-58447835D01*
X162114956Y-58439000D01*
X162039389Y-58256564D01*
X161999000Y-58053516D01*
X161999000Y-57846484D01*
X162039389Y-57643436D01*
X162118615Y-57452167D01*
X162138390Y-57422572D01*
X162233635Y-57280027D01*
X162380027Y-57133635D01*
X162552165Y-57018616D01*
X162552167Y-57018615D01*
X162743436Y-56939389D01*
X162946484Y-56899000D01*
X163153516Y-56899000D01*
X163356564Y-56939389D01*
X163356564Y-56939389D01*
G37*
G36*
X153356564Y-56939389D02*
G01*
X153547833Y-57018615D01*
X153547835Y-57018616D01*
X153719973Y-57133635D01*
X153866365Y-57280027D01*
X153961611Y-57422572D01*
X153981385Y-57452167D01*
X154060611Y-57643436D01*
X154101000Y-57846484D01*
X154101000Y-58053516D01*
X154060611Y-58256564D01*
X153985044Y-58439000D01*
X153981384Y-58447835D01*
X153866365Y-58619973D01*
X153719973Y-58766365D01*
X153547835Y-58881384D01*
X153547834Y-58881385D01*
X153547833Y-58881385D01*
X153356564Y-58960611D01*
X153153516Y-59001000D01*
X152946484Y-59001000D01*
X152743436Y-58960611D01*
X152552167Y-58881385D01*
X152552166Y-58881385D01*
X152552165Y-58881384D01*
X152380027Y-58766365D01*
X152233635Y-58619973D01*
X152118616Y-58447835D01*
X152114956Y-58439000D01*
X152039389Y-58256564D01*
X151999000Y-58053516D01*
X151999000Y-57846484D01*
X152039389Y-57643436D01*
X152118615Y-57452167D01*
X152138390Y-57422572D01*
X152233635Y-57280027D01*
X152380027Y-57133635D01*
X152552165Y-57018616D01*
X152552167Y-57018615D01*
X152743436Y-56939389D01*
X152946484Y-56899000D01*
X153153516Y-56899000D01*
X153356564Y-56939389D01*
X153356564Y-56939389D01*
G37*
G36*
X158356564Y-56939389D02*
G01*
X158547833Y-57018615D01*
X158547835Y-57018616D01*
X158719973Y-57133635D01*
X158866365Y-57280027D01*
X158961611Y-57422572D01*
X158981385Y-57452167D01*
X159060611Y-57643436D01*
X159101000Y-57846484D01*
X159101000Y-58053516D01*
X159060611Y-58256564D01*
X158985044Y-58439000D01*
X158981384Y-58447835D01*
X158866365Y-58619973D01*
X158719973Y-58766365D01*
X158547835Y-58881384D01*
X158547834Y-58881385D01*
X158547833Y-58881385D01*
X158356564Y-58960611D01*
X158153516Y-59001000D01*
X157946484Y-59001000D01*
X157743436Y-58960611D01*
X157552167Y-58881385D01*
X157552166Y-58881385D01*
X157552165Y-58881384D01*
X157380027Y-58766365D01*
X157233635Y-58619973D01*
X157118616Y-58447835D01*
X157114956Y-58439000D01*
X157039389Y-58256564D01*
X156999000Y-58053516D01*
X156999000Y-57846484D01*
X157039389Y-57643436D01*
X157118615Y-57452167D01*
X157138390Y-57422572D01*
X157233635Y-57280027D01*
X157380027Y-57133635D01*
X157552165Y-57018616D01*
X157552167Y-57018615D01*
X157743436Y-56939389D01*
X157946484Y-56899000D01*
X158153516Y-56899000D01*
X158356564Y-56939389D01*
X158356564Y-56939389D01*
G37*
G36*
X175788228Y-57326703D02*
G01*
X175943100Y-57390853D01*
X176082481Y-57483985D01*
X176201015Y-57602519D01*
X176294147Y-57741900D01*
X176358297Y-57896772D01*
X176391000Y-58061184D01*
X176391000Y-58228816D01*
X176358297Y-58393228D01*
X176294147Y-58548100D01*
X176201015Y-58687481D01*
X176082481Y-58806015D01*
X175943100Y-58899147D01*
X175788228Y-58963297D01*
X175623816Y-58996000D01*
X175456184Y-58996000D01*
X175291772Y-58963297D01*
X175136900Y-58899147D01*
X174997519Y-58806015D01*
X174878985Y-58687481D01*
X174785853Y-58548100D01*
X174721703Y-58393228D01*
X174689000Y-58228816D01*
X174689000Y-58061184D01*
X174721703Y-57896772D01*
X174785853Y-57741900D01*
X174878985Y-57602519D01*
X174997519Y-57483985D01*
X175136900Y-57390853D01*
X175291772Y-57326703D01*
X175456184Y-57294000D01*
X175623816Y-57294000D01*
X175788228Y-57326703D01*
X175788228Y-57326703D01*
G37*
G36*
X178328228Y-56181703D02*
G01*
X178483100Y-56245853D01*
X178622481Y-56338985D01*
X178741015Y-56457519D01*
X178834147Y-56596900D01*
X178898297Y-56751772D01*
X178931000Y-56916184D01*
X178931000Y-57083816D01*
X178898297Y-57248228D01*
X178834147Y-57403100D01*
X178741015Y-57542481D01*
X178622481Y-57661015D01*
X178483100Y-57754147D01*
X178328228Y-57818297D01*
X178163816Y-57851000D01*
X177996184Y-57851000D01*
X177831772Y-57818297D01*
X177676900Y-57754147D01*
X177537519Y-57661015D01*
X177418985Y-57542481D01*
X177325853Y-57403100D01*
X177261703Y-57248228D01*
X177229000Y-57083816D01*
X177229000Y-56916184D01*
X177261703Y-56751772D01*
X177325853Y-56596900D01*
X177418985Y-56457519D01*
X177537519Y-56338985D01*
X177676900Y-56245853D01*
X177831772Y-56181703D01*
X177996184Y-56149000D01*
X178163816Y-56149000D01*
X178328228Y-56181703D01*
X178328228Y-56181703D01*
G37*
G36*
X173851000Y-57851000D02*
G01*
X172149000Y-57851000D01*
X172149000Y-56149000D01*
X173851000Y-56149000D01*
X173851000Y-57851000D01*
X173851000Y-57851000D01*
G37*
G36*
X142861808Y-55956648D02*
G01*
X143013551Y-56002678D01*
X143153398Y-56077428D01*
X143275975Y-56178025D01*
X143376572Y-56300602D01*
X143451322Y-56440449D01*
X143497352Y-56592192D01*
X143512895Y-56750000D01*
X143497352Y-56907808D01*
X143451322Y-57059551D01*
X143376572Y-57199398D01*
X143275975Y-57321975D01*
X143153398Y-57422572D01*
X143013551Y-57497322D01*
X142861808Y-57543352D01*
X142743546Y-57555000D01*
X141156454Y-57555000D01*
X141038192Y-57543352D01*
X140886449Y-57497322D01*
X140746602Y-57422572D01*
X140624025Y-57321975D01*
X140523428Y-57199398D01*
X140448678Y-57059551D01*
X140402648Y-56907808D01*
X140387105Y-56750000D01*
X140402648Y-56592192D01*
X140448678Y-56440449D01*
X140523428Y-56300602D01*
X140624025Y-56178025D01*
X140746602Y-56077428D01*
X140886449Y-56002678D01*
X141038192Y-55956648D01*
X141156454Y-55945000D01*
X142743546Y-55945000D01*
X142861808Y-55956648D01*
X142861808Y-55956648D01*
G37*
G36*
X175788228Y-55036703D02*
G01*
X175943100Y-55100853D01*
X176082481Y-55193985D01*
X176201015Y-55312519D01*
X176294147Y-55451900D01*
X176358297Y-55606772D01*
X176391000Y-55771184D01*
X176391000Y-55938816D01*
X176358297Y-56103228D01*
X176294147Y-56258100D01*
X176201015Y-56397481D01*
X176082481Y-56516015D01*
X175943100Y-56609147D01*
X175788228Y-56673297D01*
X175623816Y-56706000D01*
X175456184Y-56706000D01*
X175291772Y-56673297D01*
X175136900Y-56609147D01*
X174997519Y-56516015D01*
X174878985Y-56397481D01*
X174785853Y-56258100D01*
X174721703Y-56103228D01*
X174689000Y-55938816D01*
X174689000Y-55771184D01*
X174721703Y-55606772D01*
X174785853Y-55451900D01*
X174878985Y-55312519D01*
X174997519Y-55193985D01*
X175136900Y-55100853D01*
X175291772Y-55036703D01*
X175456184Y-55004000D01*
X175623816Y-55004000D01*
X175788228Y-55036703D01*
X175788228Y-55036703D01*
G37*
G36*
X165914903Y-51747075D02*
G01*
X166142571Y-51841378D01*
X166347466Y-51978285D01*
X166521715Y-52152534D01*
X166658622Y-52357429D01*
X166752925Y-52585097D01*
X166801000Y-52826787D01*
X166801000Y-53073213D01*
X166752925Y-53314903D01*
X166658622Y-53542571D01*
X166521715Y-53747466D01*
X166347466Y-53921715D01*
X166142571Y-54058622D01*
X166142570Y-54058623D01*
X166142569Y-54058623D01*
X165914903Y-54152925D01*
X165673214Y-54201000D01*
X165426786Y-54201000D01*
X165185097Y-54152925D01*
X164957431Y-54058623D01*
X164957430Y-54058623D01*
X164957429Y-54058622D01*
X164752534Y-53921715D01*
X164578285Y-53747466D01*
X164441378Y-53542571D01*
X164347075Y-53314903D01*
X164299000Y-53073213D01*
X164299000Y-52826787D01*
X164347075Y-52585097D01*
X164441378Y-52357429D01*
X164578285Y-52152534D01*
X164752534Y-51978285D01*
X164957429Y-51841378D01*
X165185097Y-51747075D01*
X165426786Y-51699000D01*
X165673214Y-51699000D01*
X165914903Y-51747075D01*
X165914903Y-51747075D01*
G37*
G36*
X150914903Y-51747075D02*
G01*
X151142571Y-51841378D01*
X151347466Y-51978285D01*
X151521715Y-52152534D01*
X151658622Y-52357429D01*
X151752925Y-52585097D01*
X151801000Y-52826787D01*
X151801000Y-53073213D01*
X151752925Y-53314903D01*
X151658622Y-53542571D01*
X151521715Y-53747466D01*
X151347466Y-53921715D01*
X151142571Y-54058622D01*
X151142570Y-54058623D01*
X151142569Y-54058623D01*
X150914903Y-54152925D01*
X150673214Y-54201000D01*
X150426786Y-54201000D01*
X150185097Y-54152925D01*
X149957431Y-54058623D01*
X149957430Y-54058623D01*
X149957429Y-54058622D01*
X149752534Y-53921715D01*
X149578285Y-53747466D01*
X149441378Y-53542571D01*
X149347075Y-53314903D01*
X149299000Y-53073213D01*
X149299000Y-52826787D01*
X149347075Y-52585097D01*
X149441378Y-52357429D01*
X149578285Y-52152534D01*
X149752534Y-51978285D01*
X149957429Y-51841378D01*
X150185097Y-51747075D01*
X150426786Y-51699000D01*
X150673214Y-51699000D01*
X150914903Y-51747075D01*
X150914903Y-51747075D01*
G37*
G36*
X144861808Y-52356648D02*
G01*
X145013551Y-52402678D01*
X145153398Y-52477428D01*
X145275975Y-52578025D01*
X145376572Y-52700602D01*
X145451322Y-52840449D01*
X145497352Y-52992192D01*
X145512895Y-53150000D01*
X145497352Y-53307808D01*
X145451322Y-53459551D01*
X145376572Y-53599398D01*
X145275975Y-53721975D01*
X145153398Y-53822572D01*
X145013551Y-53897322D01*
X144861808Y-53943352D01*
X144743546Y-53955000D01*
X143156454Y-53955000D01*
X143038192Y-53943352D01*
X142886449Y-53897322D01*
X142746602Y-53822572D01*
X142624025Y-53721975D01*
X142523428Y-53599398D01*
X142448678Y-53459551D01*
X142402648Y-53307808D01*
X142387105Y-53150000D01*
X142402648Y-52992192D01*
X142448678Y-52840449D01*
X142523428Y-52700602D01*
X142624025Y-52578025D01*
X142746602Y-52477428D01*
X142886449Y-52402678D01*
X143038192Y-52356648D01*
X143156454Y-52345000D01*
X144743546Y-52345000D01*
X144861808Y-52356648D01*
X144861808Y-52356648D01*
G37*
G36*
X142861808Y-49856648D02*
G01*
X143013551Y-49902678D01*
X143153398Y-49977428D01*
X143275975Y-50078025D01*
X143376572Y-50200602D01*
X143451322Y-50340449D01*
X143497352Y-50492192D01*
X143512895Y-50650000D01*
X143497352Y-50807808D01*
X143451322Y-50959551D01*
X143376572Y-51099398D01*
X143275975Y-51221975D01*
X143153398Y-51322572D01*
X143013551Y-51397322D01*
X142861808Y-51443352D01*
X142743546Y-51455000D01*
X141156454Y-51455000D01*
X141038192Y-51443352D01*
X140886449Y-51397322D01*
X140746602Y-51322572D01*
X140624025Y-51221975D01*
X140523428Y-51099398D01*
X140448678Y-50959551D01*
X140402648Y-50807808D01*
X140387105Y-50650000D01*
X140402648Y-50492192D01*
X140448678Y-50340449D01*
X140523428Y-50200602D01*
X140624025Y-50078025D01*
X140746602Y-49977428D01*
X140886449Y-49902678D01*
X141038192Y-49856648D01*
X141156454Y-49845000D01*
X142743546Y-49845000D01*
X142861808Y-49856648D01*
X142861808Y-49856648D01*
G37*
G36*
X176138254Y-46842818D02*
G01*
X176511511Y-46997426D01*
X176511513Y-46997427D01*
X176715362Y-47133635D01*
X176847436Y-47221884D01*
X177133116Y-47507564D01*
X177357574Y-47843489D01*
X177512182Y-48216746D01*
X177591000Y-48612993D01*
X177591000Y-49017007D01*
X177512182Y-49413254D01*
X177357574Y-49786511D01*
X177357573Y-49786513D01*
X177133116Y-50122436D01*
X176847436Y-50408116D01*
X176511513Y-50632573D01*
X176511512Y-50632574D01*
X176511511Y-50632574D01*
X176138254Y-50787182D01*
X175742007Y-50866000D01*
X175337993Y-50866000D01*
X174941746Y-50787182D01*
X174568489Y-50632574D01*
X174568488Y-50632574D01*
X174568487Y-50632573D01*
X174232564Y-50408116D01*
X173946884Y-50122436D01*
X173722427Y-49786513D01*
X173722426Y-49786511D01*
X173567818Y-49413254D01*
X173489000Y-49017007D01*
X173489000Y-48612993D01*
X173567818Y-48216746D01*
X173722426Y-47843489D01*
X173946884Y-47507564D01*
X174232564Y-47221884D01*
X174364638Y-47133635D01*
X174568487Y-46997427D01*
X174568489Y-46997426D01*
X174941746Y-46842818D01*
X175337993Y-46764000D01*
X175742007Y-46764000D01*
X176138254Y-46842818D01*
X176138254Y-46842818D01*
G37*
G36*
X155856564Y-46939389D02*
G01*
X156047833Y-47018615D01*
X156047835Y-47018616D01*
X156219973Y-47133635D01*
X156366365Y-47280027D01*
X156481385Y-47452167D01*
X156560611Y-47643436D01*
X156601000Y-47846484D01*
X156601000Y-48053516D01*
X156560611Y-48256564D01*
X156481385Y-48447833D01*
X156481384Y-48447835D01*
X156366365Y-48619973D01*
X156219973Y-48766365D01*
X156047835Y-48881384D01*
X156047834Y-48881385D01*
X156047833Y-48881385D01*
X155856564Y-48960611D01*
X155653516Y-49001000D01*
X155446484Y-49001000D01*
X155243436Y-48960611D01*
X155052167Y-48881385D01*
X155052166Y-48881385D01*
X155052165Y-48881384D01*
X154880027Y-48766365D01*
X154733635Y-48619973D01*
X154618616Y-48447835D01*
X154618615Y-48447833D01*
X154539389Y-48256564D01*
X154499000Y-48053516D01*
X154499000Y-47846484D01*
X154539389Y-47643436D01*
X154618615Y-47452167D01*
X154733635Y-47280027D01*
X154880027Y-47133635D01*
X155052165Y-47018616D01*
X155052167Y-47018615D01*
X155243436Y-46939389D01*
X155446484Y-46899000D01*
X155653516Y-46899000D01*
X155856564Y-46939389D01*
X155856564Y-46939389D01*
G37*
G36*
X160856564Y-46939389D02*
G01*
X161047833Y-47018615D01*
X161047835Y-47018616D01*
X161219973Y-47133635D01*
X161366365Y-47280027D01*
X161481385Y-47452167D01*
X161560611Y-47643436D01*
X161601000Y-47846484D01*
X161601000Y-48053516D01*
X161560611Y-48256564D01*
X161481385Y-48447833D01*
X161481384Y-48447835D01*
X161366365Y-48619973D01*
X161219973Y-48766365D01*
X161047835Y-48881384D01*
X161047834Y-48881385D01*
X161047833Y-48881385D01*
X160856564Y-48960611D01*
X160653516Y-49001000D01*
X160446484Y-49001000D01*
X160243436Y-48960611D01*
X160052167Y-48881385D01*
X160052166Y-48881385D01*
X160052165Y-48881384D01*
X159880027Y-48766365D01*
X159733635Y-48619973D01*
X159618616Y-48447835D01*
X159618615Y-48447833D01*
X159539389Y-48256564D01*
X159499000Y-48053516D01*
X159499000Y-47846484D01*
X159539389Y-47643436D01*
X159618615Y-47452167D01*
X159733635Y-47280027D01*
X159880027Y-47133635D01*
X160052165Y-47018616D01*
X160052167Y-47018615D01*
X160243436Y-46939389D01*
X160446484Y-46899000D01*
X160653516Y-46899000D01*
X160856564Y-46939389D01*
X160856564Y-46939389D01*
G37*
M02*
