G04 #@! TF.GenerationSoftware,KiCad,Pcbnew,(5.1.0)-1*
G04 #@! TF.CreationDate,2019-07-12T21:05:45-04:00*
G04 #@! TF.ProjectId,Genesis_SMS Breakout,47656e65-7369-4735-9f53-4d5320427265,rev?*
G04 #@! TF.SameCoordinates,Original*
G04 #@! TF.FileFunction,Copper,L2,Bot*
G04 #@! TF.FilePolarity,Positive*
%FSLAX46Y46*%
G04 Gerber Fmt 4.6, Leading zero omitted, Abs format (unit mm)*
G04 Created by KiCad (PCBNEW (5.1.0)-1) date 2019-07-12 21:05:45*
%MOMM*%
%LPD*%
G04 APERTURE LIST*
%ADD10O,3.016000X1.508000*%
%ADD11O,1.700000X3.400000*%
%ADD12C,1.408000*%
%ADD13R,1.408000X1.408000*%
%ADD14C,3.200000*%
%ADD15C,2.000000*%
%ADD16O,2.000000X4.000000*%
%ADD17O,2.200000X4.000000*%
%ADD18R,1.600000X1.600000*%
%ADD19C,1.600000*%
%ADD20C,4.000000*%
%ADD21C,0.800000*%
%ADD22C,0.250000*%
%ADD23C,0.254000*%
G04 APERTURE END LIST*
D10*
X183300000Y-78600000D03*
X183300000Y-84100000D03*
X183300000Y-90200000D03*
X181300000Y-87700000D03*
X181300000Y-82200000D03*
X143950000Y-58650000D03*
X143950000Y-53150000D03*
X141950000Y-50650000D03*
X141950000Y-56750000D03*
X141950000Y-62250000D03*
D11*
X142090000Y-72610000D03*
D12*
X145900000Y-76600000D03*
D13*
X145900000Y-73900000D03*
D12*
X145900000Y-71900000D03*
X145900000Y-68600000D03*
X148400000Y-76600000D03*
X148400000Y-68600000D03*
X148400000Y-70600000D03*
X148400000Y-74600000D03*
X148400000Y-72600000D03*
D14*
X142900000Y-65350000D03*
X142900000Y-79850000D03*
D15*
X153050000Y-57950000D03*
X158050000Y-57950000D03*
X163050000Y-57950000D03*
X155550000Y-60450000D03*
X160550000Y-60450000D03*
X158050000Y-62950000D03*
X150550000Y-60450000D03*
X165550000Y-60450000D03*
X155550000Y-47950000D03*
X160550000Y-47950000D03*
D16*
X160450000Y-82900000D03*
X152950000Y-82900000D03*
X146450000Y-82900000D03*
X138950000Y-82900000D03*
X166950000Y-82900000D03*
X174450000Y-82900000D03*
D17*
X146450000Y-90150000D03*
X160450000Y-90150000D03*
X174450000Y-90150000D03*
D18*
X173000000Y-57000000D03*
D19*
X173000000Y-59290000D03*
X173000000Y-61580000D03*
X173000000Y-63870000D03*
X173000000Y-66160000D03*
X175540000Y-55855000D03*
X175540000Y-58145000D03*
X175540000Y-60435000D03*
X175540000Y-62725000D03*
X175540000Y-65015000D03*
X178080000Y-57000000D03*
X178080000Y-59290000D03*
X178080000Y-61580000D03*
X178080000Y-63870000D03*
X178080000Y-66160000D03*
D20*
X175540000Y-73815000D03*
X175540000Y-48815000D03*
D21*
X158100000Y-77700000D03*
X172900000Y-79800000D03*
X149900000Y-81800000D03*
X157200000Y-82600000D03*
X169700000Y-82000000D03*
X150700000Y-63800000D03*
X150000000Y-66300000D03*
X165700000Y-62900000D03*
X164400000Y-71200000D03*
X151200000Y-75200000D03*
X149900000Y-73700000D03*
X150100000Y-68300000D03*
X140000000Y-93000000D03*
X143000000Y-93000000D03*
X151000000Y-93000000D03*
X156000000Y-93000000D03*
X164000000Y-93000000D03*
X169000000Y-93000000D03*
X177000000Y-93000000D03*
X186000000Y-90000000D03*
X186000000Y-88000000D03*
X186000000Y-83000000D03*
X186000000Y-80000000D03*
X186000000Y-75000000D03*
X186000000Y-73000000D03*
X186000000Y-70000000D03*
X186000000Y-66000000D03*
X186000000Y-64000000D03*
X186000000Y-60000000D03*
X186000000Y-55000000D03*
X186000000Y-51000000D03*
X186000000Y-50000000D03*
X186000000Y-47000000D03*
X181000000Y-47000000D03*
X171000000Y-47000000D03*
X166000000Y-47000000D03*
X158000000Y-47000000D03*
X151000000Y-47000000D03*
X145000000Y-47000000D03*
D22*
X144029001Y-75570999D02*
X138950000Y-80650000D01*
X146433395Y-75570999D02*
X144029001Y-75570999D01*
X147404394Y-74600000D02*
X146433395Y-75570999D01*
X148400000Y-74600000D02*
X147404394Y-74600000D01*
X138950000Y-80650000D02*
X138950000Y-82900000D01*
X138950000Y-51370050D02*
X138950000Y-80650000D01*
X140749060Y-49570990D02*
X138950000Y-51370050D01*
X154670990Y-49570990D02*
X140749060Y-49570990D01*
X163050000Y-57950000D02*
X154670990Y-49570990D01*
X143950000Y-59654000D02*
X143950000Y-58650000D01*
X146929001Y-62633001D02*
X143950000Y-59654000D01*
X146929001Y-69129001D02*
X146929001Y-62633001D01*
X148400000Y-70600000D02*
X146929001Y-69129001D01*
X152950000Y-75150000D02*
X152950000Y-82900000D01*
X148400000Y-70600000D02*
X152950000Y-75150000D01*
X177916990Y-80574990D02*
X179542000Y-82200000D01*
X173901163Y-80574990D02*
X177916990Y-80574990D01*
X179542000Y-82200000D02*
X181300000Y-82200000D01*
X169251143Y-85225010D02*
X173901163Y-80574990D01*
X153025010Y-85225010D02*
X169251143Y-85225010D01*
X152950000Y-85150000D02*
X153025010Y-85225010D01*
X152950000Y-82900000D02*
X152950000Y-85150000D01*
X144704000Y-53150000D02*
X143950000Y-53150000D01*
X148400000Y-56846000D02*
X144704000Y-53150000D01*
X148400000Y-68600000D02*
X148400000Y-56846000D01*
X165700000Y-82900000D02*
X166950000Y-82900000D01*
X152103999Y-69303999D02*
X165700000Y-82900000D01*
X149103999Y-69303999D02*
X152103999Y-69303999D01*
X148400000Y-68600000D02*
X149103999Y-69303999D01*
X166950000Y-81900000D02*
X169950000Y-78900000D01*
X166950000Y-82900000D02*
X166950000Y-81900000D01*
X169950000Y-78900000D02*
X180379950Y-78900000D01*
X182054000Y-87700000D02*
X181300000Y-87700000D01*
X180379950Y-78900000D02*
X185133010Y-83653060D01*
X185133010Y-83653060D02*
X185133010Y-84620990D01*
X185133010Y-84620990D02*
X182054000Y-87700000D01*
D23*
G36*
X186740001Y-94740000D02*
G01*
X138060000Y-94740000D01*
X138060000Y-90277000D01*
X144715000Y-90277000D01*
X144715000Y-91177000D01*
X144773114Y-91513041D01*
X144895670Y-91831288D01*
X145077958Y-92119511D01*
X145312973Y-92366633D01*
X145591683Y-92563157D01*
X145903378Y-92701531D01*
X146053878Y-92739175D01*
X146323000Y-92621125D01*
X146323000Y-90277000D01*
X146577000Y-90277000D01*
X146577000Y-92621125D01*
X146846122Y-92739175D01*
X146996622Y-92701531D01*
X147308317Y-92563157D01*
X147587027Y-92366633D01*
X147822042Y-92119511D01*
X148004330Y-91831288D01*
X148126886Y-91513041D01*
X148185000Y-91177000D01*
X148185000Y-90277000D01*
X158715000Y-90277000D01*
X158715000Y-91177000D01*
X158773114Y-91513041D01*
X158895670Y-91831288D01*
X159077958Y-92119511D01*
X159312973Y-92366633D01*
X159591683Y-92563157D01*
X159903378Y-92701531D01*
X160053878Y-92739175D01*
X160323000Y-92621125D01*
X160323000Y-90277000D01*
X160577000Y-90277000D01*
X160577000Y-92621125D01*
X160846122Y-92739175D01*
X160996622Y-92701531D01*
X161308317Y-92563157D01*
X161587027Y-92366633D01*
X161822042Y-92119511D01*
X162004330Y-91831288D01*
X162126886Y-91513041D01*
X162185000Y-91177000D01*
X162185000Y-90277000D01*
X172715000Y-90277000D01*
X172715000Y-91177000D01*
X172773114Y-91513041D01*
X172895670Y-91831288D01*
X173077958Y-92119511D01*
X173312973Y-92366633D01*
X173591683Y-92563157D01*
X173903378Y-92701531D01*
X174053878Y-92739175D01*
X174323000Y-92621125D01*
X174323000Y-90277000D01*
X174577000Y-90277000D01*
X174577000Y-92621125D01*
X174846122Y-92739175D01*
X174996622Y-92701531D01*
X175308317Y-92563157D01*
X175587027Y-92366633D01*
X175822042Y-92119511D01*
X176004330Y-91831288D01*
X176126886Y-91513041D01*
X176185000Y-91177000D01*
X176185000Y-90541814D01*
X181199714Y-90541814D01*
X181214130Y-90614215D01*
X181320531Y-90866091D01*
X181474026Y-91092369D01*
X181668716Y-91284354D01*
X181897120Y-91434668D01*
X182150460Y-91537534D01*
X182419000Y-91589000D01*
X183173000Y-91589000D01*
X183173000Y-90327000D01*
X183427000Y-90327000D01*
X183427000Y-91589000D01*
X184181000Y-91589000D01*
X184449540Y-91537534D01*
X184702880Y-91434668D01*
X184931284Y-91284354D01*
X185125974Y-91092369D01*
X185279469Y-90866091D01*
X185385870Y-90614215D01*
X185400286Y-90541814D01*
X185277677Y-90327000D01*
X183427000Y-90327000D01*
X183173000Y-90327000D01*
X181322323Y-90327000D01*
X181199714Y-90541814D01*
X176185000Y-90541814D01*
X176185000Y-90277000D01*
X174577000Y-90277000D01*
X174323000Y-90277000D01*
X172715000Y-90277000D01*
X162185000Y-90277000D01*
X160577000Y-90277000D01*
X160323000Y-90277000D01*
X158715000Y-90277000D01*
X148185000Y-90277000D01*
X146577000Y-90277000D01*
X146323000Y-90277000D01*
X144715000Y-90277000D01*
X138060000Y-90277000D01*
X138060000Y-89123000D01*
X144715000Y-89123000D01*
X144715000Y-90023000D01*
X146323000Y-90023000D01*
X146323000Y-87678875D01*
X146577000Y-87678875D01*
X146577000Y-90023000D01*
X148185000Y-90023000D01*
X148185000Y-89123000D01*
X158715000Y-89123000D01*
X158715000Y-90023000D01*
X160323000Y-90023000D01*
X160323000Y-87678875D01*
X160577000Y-87678875D01*
X160577000Y-90023000D01*
X162185000Y-90023000D01*
X162185000Y-89123000D01*
X172715000Y-89123000D01*
X172715000Y-90023000D01*
X174323000Y-90023000D01*
X174323000Y-87678875D01*
X174053878Y-87560825D01*
X173903378Y-87598469D01*
X173591683Y-87736843D01*
X173312973Y-87933367D01*
X173077958Y-88180489D01*
X172895670Y-88468712D01*
X172773114Y-88786959D01*
X172715000Y-89123000D01*
X162185000Y-89123000D01*
X162126886Y-88786959D01*
X162004330Y-88468712D01*
X161822042Y-88180489D01*
X161587027Y-87933367D01*
X161308317Y-87736843D01*
X160996622Y-87598469D01*
X160846122Y-87560825D01*
X160577000Y-87678875D01*
X160323000Y-87678875D01*
X160053878Y-87560825D01*
X159903378Y-87598469D01*
X159591683Y-87736843D01*
X159312973Y-87933367D01*
X159077958Y-88180489D01*
X158895670Y-88468712D01*
X158773114Y-88786959D01*
X158715000Y-89123000D01*
X148185000Y-89123000D01*
X148126886Y-88786959D01*
X148004330Y-88468712D01*
X147822042Y-88180489D01*
X147587027Y-87933367D01*
X147308317Y-87736843D01*
X146996622Y-87598469D01*
X146846122Y-87560825D01*
X146577000Y-87678875D01*
X146323000Y-87678875D01*
X146053878Y-87560825D01*
X145903378Y-87598469D01*
X145591683Y-87736843D01*
X145312973Y-87933367D01*
X145077958Y-88180489D01*
X144895670Y-88468712D01*
X144773114Y-88786959D01*
X144715000Y-89123000D01*
X138060000Y-89123000D01*
X138060000Y-85278192D01*
X138321286Y-85417852D01*
X138629485Y-85511343D01*
X138950000Y-85542911D01*
X139270516Y-85511343D01*
X139578715Y-85417852D01*
X139862752Y-85266031D01*
X140111714Y-85061714D01*
X140316031Y-84812752D01*
X140467852Y-84528715D01*
X140561343Y-84220516D01*
X140585000Y-83980322D01*
X140585000Y-81819678D01*
X140561343Y-81579484D01*
X140510794Y-81412845D01*
X141516761Y-81412845D01*
X141684802Y-81738643D01*
X142076607Y-81939426D01*
X142500055Y-82059914D01*
X142938873Y-82095476D01*
X143376197Y-82044746D01*
X143795221Y-81909674D01*
X143963590Y-81819679D01*
X144815000Y-81819679D01*
X144815001Y-83980322D01*
X144838658Y-84220516D01*
X144932149Y-84528715D01*
X145083970Y-84812752D01*
X145288287Y-85061714D01*
X145537249Y-85266031D01*
X145821286Y-85417852D01*
X146129485Y-85511343D01*
X146450000Y-85542911D01*
X146770516Y-85511343D01*
X147078715Y-85417852D01*
X147362752Y-85266031D01*
X147611714Y-85061714D01*
X147816031Y-84812752D01*
X147967852Y-84528715D01*
X148061343Y-84220516D01*
X148085000Y-83980322D01*
X148085000Y-81819678D01*
X148061343Y-81579484D01*
X147967852Y-81271285D01*
X147816031Y-80987248D01*
X147611714Y-80738286D01*
X147362751Y-80533969D01*
X147078714Y-80382148D01*
X146770515Y-80288657D01*
X146450000Y-80257089D01*
X146129484Y-80288657D01*
X145821285Y-80382148D01*
X145537248Y-80533969D01*
X145288286Y-80738286D01*
X145083969Y-80987249D01*
X144932148Y-81271286D01*
X144838657Y-81579485D01*
X144815000Y-81819679D01*
X143963590Y-81819679D01*
X144115198Y-81738643D01*
X144283239Y-81412845D01*
X142900000Y-80029605D01*
X141516761Y-81412845D01*
X140510794Y-81412845D01*
X140467852Y-81271285D01*
X140316031Y-80987248D01*
X140111714Y-80738286D01*
X140015486Y-80659315D01*
X140668183Y-80006619D01*
X140705254Y-80326197D01*
X140840326Y-80745221D01*
X141011357Y-81065198D01*
X141337155Y-81233239D01*
X142720395Y-79850000D01*
X143079605Y-79850000D01*
X144462845Y-81233239D01*
X144788643Y-81065198D01*
X144989426Y-80673393D01*
X145109914Y-80249945D01*
X145145476Y-79811127D01*
X145094746Y-79373803D01*
X144959674Y-78954779D01*
X144788643Y-78634802D01*
X144462845Y-78466761D01*
X143079605Y-79850000D01*
X142720395Y-79850000D01*
X142706252Y-79835858D01*
X142885858Y-79656252D01*
X142900000Y-79670395D01*
X144283239Y-78287155D01*
X144115198Y-77961357D01*
X143723393Y-77760574D01*
X143299945Y-77640086D01*
X143054599Y-77620203D01*
X144343803Y-76330999D01*
X144588275Y-76330999D01*
X144561000Y-76468120D01*
X144561000Y-76731880D01*
X144612457Y-76990572D01*
X144713393Y-77234254D01*
X144859931Y-77453563D01*
X145046437Y-77640069D01*
X145265746Y-77786607D01*
X145509428Y-77887543D01*
X145768120Y-77939000D01*
X146031880Y-77939000D01*
X146290572Y-77887543D01*
X146534254Y-77786607D01*
X146753563Y-77640069D01*
X146940069Y-77453563D01*
X147086607Y-77234254D01*
X147150000Y-77081209D01*
X147213393Y-77234254D01*
X147359931Y-77453563D01*
X147546437Y-77640069D01*
X147765746Y-77786607D01*
X148009428Y-77887543D01*
X148268120Y-77939000D01*
X148531880Y-77939000D01*
X148790572Y-77887543D01*
X149034254Y-77786607D01*
X149253563Y-77640069D01*
X149440069Y-77453563D01*
X149586607Y-77234254D01*
X149687543Y-76990572D01*
X149739000Y-76731880D01*
X149739000Y-76468120D01*
X149687543Y-76209428D01*
X149586607Y-75965746D01*
X149440069Y-75746437D01*
X149293632Y-75600000D01*
X149440069Y-75453563D01*
X149586607Y-75234254D01*
X149687543Y-74990572D01*
X149739000Y-74731880D01*
X149739000Y-74468120D01*
X149687543Y-74209428D01*
X149586607Y-73965746D01*
X149440069Y-73746437D01*
X149293632Y-73600000D01*
X149440069Y-73453563D01*
X149586607Y-73234254D01*
X149687543Y-72990572D01*
X149692226Y-72967028D01*
X152190000Y-75464802D01*
X152190001Y-80452321D01*
X152037248Y-80533969D01*
X151788286Y-80738286D01*
X151583969Y-80987249D01*
X151432148Y-81271286D01*
X151338657Y-81579485D01*
X151315000Y-81819679D01*
X151315001Y-83980322D01*
X151338658Y-84220516D01*
X151432149Y-84528715D01*
X151583970Y-84812752D01*
X151788287Y-85061714D01*
X152037249Y-85266031D01*
X152220755Y-85364117D01*
X152244454Y-85442246D01*
X152315026Y-85574276D01*
X152376585Y-85649285D01*
X152410000Y-85690001D01*
X152438998Y-85713799D01*
X152461206Y-85736007D01*
X152485009Y-85765011D01*
X152600734Y-85859984D01*
X152732763Y-85930556D01*
X152876024Y-85974013D01*
X152987677Y-85985010D01*
X152987687Y-85985010D01*
X153025009Y-85988686D01*
X153062332Y-85985010D01*
X169213821Y-85985010D01*
X169251143Y-85988686D01*
X169288465Y-85985010D01*
X169288476Y-85985010D01*
X169400129Y-85974013D01*
X169543390Y-85930556D01*
X169675419Y-85859984D01*
X169791144Y-85765011D01*
X169814947Y-85736007D01*
X172815000Y-82735954D01*
X172815001Y-83980322D01*
X172838658Y-84220516D01*
X172932149Y-84528715D01*
X173083970Y-84812752D01*
X173288287Y-85061714D01*
X173537249Y-85266031D01*
X173821286Y-85417852D01*
X174129485Y-85511343D01*
X174450000Y-85542911D01*
X174770516Y-85511343D01*
X175078715Y-85417852D01*
X175362752Y-85266031D01*
X175365000Y-85264186D01*
X175365001Y-87776812D01*
X175308317Y-87736843D01*
X174996622Y-87598469D01*
X174846122Y-87560825D01*
X174577000Y-87678875D01*
X174577000Y-90023000D01*
X176185000Y-90023000D01*
X176185000Y-89478373D01*
X176278967Y-89528599D01*
X176558890Y-89613513D01*
X176850000Y-89642185D01*
X177141111Y-89613513D01*
X177421034Y-89528599D01*
X177679014Y-89390706D01*
X177905134Y-89205134D01*
X178090706Y-88979014D01*
X178228599Y-88721034D01*
X178313513Y-88441111D01*
X178335000Y-88222950D01*
X178335000Y-85077050D01*
X178313513Y-84858889D01*
X178228599Y-84578966D01*
X178090706Y-84320986D01*
X177905134Y-84094866D01*
X177679013Y-83909294D01*
X177421033Y-83771401D01*
X177141110Y-83686487D01*
X176850000Y-83657815D01*
X176558889Y-83686487D01*
X176278966Y-83771401D01*
X176085000Y-83875078D01*
X176085000Y-81819678D01*
X176061343Y-81579484D01*
X175987177Y-81334990D01*
X177602189Y-81334990D01*
X178978201Y-82711003D01*
X179001999Y-82740001D01*
X179117724Y-82834974D01*
X179249753Y-82905546D01*
X179367194Y-82941171D01*
X179385501Y-82975420D01*
X179559077Y-83186923D01*
X179770580Y-83360499D01*
X180011881Y-83489477D01*
X180273709Y-83568902D01*
X180477770Y-83589000D01*
X181249510Y-83589000D01*
X181177098Y-83827709D01*
X181150280Y-84100000D01*
X181177098Y-84372291D01*
X181256523Y-84634119D01*
X181385501Y-84875420D01*
X181559077Y-85086923D01*
X181770580Y-85260499D01*
X182011881Y-85389477D01*
X182273709Y-85468902D01*
X182477770Y-85489000D01*
X183190198Y-85489000D01*
X182343025Y-86336174D01*
X182326291Y-86331098D01*
X182122230Y-86311000D01*
X180477770Y-86311000D01*
X180273709Y-86331098D01*
X180011881Y-86410523D01*
X179770580Y-86539501D01*
X179559077Y-86713077D01*
X179385501Y-86924580D01*
X179256523Y-87165881D01*
X179177098Y-87427709D01*
X179150280Y-87700000D01*
X179177098Y-87972291D01*
X179256523Y-88234119D01*
X179385501Y-88475420D01*
X179559077Y-88686923D01*
X179770580Y-88860499D01*
X180011881Y-88989477D01*
X180273709Y-89068902D01*
X180477770Y-89089000D01*
X181709205Y-89089000D01*
X181668716Y-89115646D01*
X181474026Y-89307631D01*
X181320531Y-89533909D01*
X181214130Y-89785785D01*
X181199714Y-89858186D01*
X181322323Y-90073000D01*
X183173000Y-90073000D01*
X183173000Y-90053000D01*
X183427000Y-90053000D01*
X183427000Y-90073000D01*
X185277677Y-90073000D01*
X185400286Y-89858186D01*
X185385870Y-89785785D01*
X185279469Y-89533909D01*
X185125974Y-89307631D01*
X184931284Y-89115646D01*
X184702880Y-88965332D01*
X184449540Y-88862466D01*
X184181000Y-88811000D01*
X182889735Y-88811000D01*
X183040923Y-88686923D01*
X183214499Y-88475420D01*
X183343477Y-88234119D01*
X183422902Y-87972291D01*
X183449720Y-87700000D01*
X183422902Y-87427709D01*
X183417826Y-87410975D01*
X185644013Y-85184789D01*
X185673011Y-85160991D01*
X185767984Y-85045266D01*
X185838556Y-84913237D01*
X185882013Y-84769976D01*
X185893010Y-84658323D01*
X185893010Y-84658315D01*
X185896686Y-84620990D01*
X185893010Y-84583665D01*
X185893010Y-83690383D01*
X185896686Y-83653060D01*
X185893010Y-83615737D01*
X185893010Y-83615727D01*
X185882013Y-83504074D01*
X185838556Y-83360813D01*
X185767985Y-83228785D01*
X185767984Y-83228783D01*
X185696809Y-83142057D01*
X185673011Y-83113059D01*
X185644014Y-83089262D01*
X182543751Y-79989000D01*
X184122230Y-79989000D01*
X184326291Y-79968902D01*
X184588119Y-79889477D01*
X184829420Y-79760499D01*
X185040923Y-79586923D01*
X185214499Y-79375420D01*
X185343477Y-79134119D01*
X185422902Y-78872291D01*
X185449720Y-78600000D01*
X185422902Y-78327709D01*
X185343477Y-78065881D01*
X185214499Y-77824580D01*
X185040923Y-77613077D01*
X184829420Y-77439501D01*
X184588119Y-77310523D01*
X184326291Y-77231098D01*
X184122230Y-77211000D01*
X182477770Y-77211000D01*
X182273709Y-77231098D01*
X182011881Y-77310523D01*
X181770580Y-77439501D01*
X181559077Y-77613077D01*
X181385501Y-77824580D01*
X181256523Y-78065881D01*
X181177098Y-78327709D01*
X181150681Y-78595930D01*
X180943754Y-78389003D01*
X180919951Y-78359999D01*
X180804226Y-78265026D01*
X180672197Y-78194454D01*
X180528936Y-78150997D01*
X180417283Y-78140000D01*
X180417272Y-78140000D01*
X180379950Y-78136324D01*
X180342628Y-78140000D01*
X169987325Y-78140000D01*
X169950000Y-78136324D01*
X169912675Y-78140000D01*
X169912667Y-78140000D01*
X169801014Y-78150997D01*
X169657753Y-78194454D01*
X169525724Y-78265026D01*
X169409999Y-78359999D01*
X169386201Y-78388997D01*
X167436263Y-80338936D01*
X167270515Y-80288657D01*
X166950000Y-80257089D01*
X166629484Y-80288657D01*
X166321285Y-80382148D01*
X166037248Y-80533969D01*
X165788286Y-80738286D01*
X165583969Y-80987249D01*
X165432148Y-81271286D01*
X165365569Y-81490767D01*
X159537301Y-75662499D01*
X173872106Y-75662499D01*
X174088228Y-76029258D01*
X174548105Y-76269938D01*
X175046098Y-76416275D01*
X175563071Y-76462648D01*
X176079159Y-76407273D01*
X176574526Y-76252279D01*
X176991772Y-76029258D01*
X177207894Y-75662499D01*
X175540000Y-73994605D01*
X173872106Y-75662499D01*
X159537301Y-75662499D01*
X157712873Y-73838071D01*
X172892352Y-73838071D01*
X172947727Y-74354159D01*
X173102721Y-74849526D01*
X173325742Y-75266772D01*
X173692501Y-75482894D01*
X175360395Y-73815000D01*
X175719605Y-73815000D01*
X177387499Y-75482894D01*
X177754258Y-75266772D01*
X177994938Y-74806895D01*
X178141275Y-74308902D01*
X178187648Y-73791929D01*
X178132273Y-73275841D01*
X177977279Y-72780474D01*
X177754258Y-72363228D01*
X177387499Y-72147106D01*
X175719605Y-73815000D01*
X175360395Y-73815000D01*
X173692501Y-72147106D01*
X173325742Y-72363228D01*
X173085062Y-72823105D01*
X172938725Y-73321098D01*
X172892352Y-73838071D01*
X157712873Y-73838071D01*
X155842303Y-71967501D01*
X173872106Y-71967501D01*
X175540000Y-73635395D01*
X177207894Y-71967501D01*
X176991772Y-71600742D01*
X176531895Y-71360062D01*
X176033902Y-71213725D01*
X175516929Y-71167352D01*
X175000841Y-71222727D01*
X174505474Y-71377721D01*
X174088228Y-71600742D01*
X173872106Y-71967501D01*
X155842303Y-71967501D01*
X152667803Y-68793002D01*
X152644000Y-68763998D01*
X152528275Y-68669025D01*
X152396246Y-68598453D01*
X152252985Y-68554996D01*
X152141332Y-68543999D01*
X152141321Y-68543999D01*
X152103999Y-68540323D01*
X152066677Y-68543999D01*
X149739000Y-68543999D01*
X149739000Y-68468120D01*
X149687543Y-68209428D01*
X149586607Y-67965746D01*
X149440069Y-67746437D01*
X149253563Y-67559931D01*
X149160000Y-67497414D01*
X149160000Y-67152702D01*
X172186903Y-67152702D01*
X172258486Y-67396671D01*
X172513996Y-67517571D01*
X172788184Y-67586300D01*
X173070512Y-67600217D01*
X173350130Y-67558787D01*
X173616292Y-67463603D01*
X173741514Y-67396671D01*
X173813097Y-67152702D01*
X173000000Y-66339605D01*
X172186903Y-67152702D01*
X149160000Y-67152702D01*
X149160000Y-66230512D01*
X171559783Y-66230512D01*
X171601213Y-66510130D01*
X171696397Y-66776292D01*
X171763329Y-66901514D01*
X172007298Y-66973097D01*
X172820395Y-66160000D01*
X172007298Y-65346903D01*
X171763329Y-65418486D01*
X171642429Y-65673996D01*
X171573700Y-65948184D01*
X171559783Y-66230512D01*
X149160000Y-66230512D01*
X149160000Y-62788967D01*
X156415000Y-62788967D01*
X156415000Y-63111033D01*
X156477832Y-63426912D01*
X156601082Y-63724463D01*
X156780013Y-63992252D01*
X157007748Y-64219987D01*
X157275537Y-64398918D01*
X157573088Y-64522168D01*
X157888967Y-64585000D01*
X158211033Y-64585000D01*
X158526912Y-64522168D01*
X158824463Y-64398918D01*
X159092252Y-64219987D01*
X159319987Y-63992252D01*
X159498918Y-63724463D01*
X159622168Y-63426912D01*
X159685000Y-63111033D01*
X159685000Y-62788967D01*
X159622168Y-62473088D01*
X159498918Y-62175537D01*
X159319987Y-61907748D01*
X159092252Y-61680013D01*
X158824463Y-61501082D01*
X158526912Y-61377832D01*
X158211033Y-61315000D01*
X157888967Y-61315000D01*
X157573088Y-61377832D01*
X157275537Y-61501082D01*
X157007748Y-61680013D01*
X156780013Y-61907748D01*
X156601082Y-62175537D01*
X156477832Y-62473088D01*
X156415000Y-62788967D01*
X149160000Y-62788967D01*
X149160000Y-61312640D01*
X149280013Y-61492252D01*
X149507748Y-61719987D01*
X149775537Y-61898918D01*
X150073088Y-62022168D01*
X150388967Y-62085000D01*
X150711033Y-62085000D01*
X151026912Y-62022168D01*
X151324463Y-61898918D01*
X151592252Y-61719987D01*
X151819987Y-61492252D01*
X151998918Y-61224463D01*
X152122168Y-60926912D01*
X152185000Y-60611033D01*
X152185000Y-60288967D01*
X153915000Y-60288967D01*
X153915000Y-60611033D01*
X153977832Y-60926912D01*
X154101082Y-61224463D01*
X154280013Y-61492252D01*
X154507748Y-61719987D01*
X154775537Y-61898918D01*
X155073088Y-62022168D01*
X155388967Y-62085000D01*
X155711033Y-62085000D01*
X156026912Y-62022168D01*
X156324463Y-61898918D01*
X156592252Y-61719987D01*
X156819987Y-61492252D01*
X156998918Y-61224463D01*
X157122168Y-60926912D01*
X157185000Y-60611033D01*
X157185000Y-60288967D01*
X158915000Y-60288967D01*
X158915000Y-60611033D01*
X158977832Y-60926912D01*
X159101082Y-61224463D01*
X159280013Y-61492252D01*
X159507748Y-61719987D01*
X159775537Y-61898918D01*
X160073088Y-62022168D01*
X160388967Y-62085000D01*
X160711033Y-62085000D01*
X161026912Y-62022168D01*
X161324463Y-61898918D01*
X161592252Y-61719987D01*
X161819987Y-61492252D01*
X161998918Y-61224463D01*
X162122168Y-60926912D01*
X162185000Y-60611033D01*
X162185000Y-60288967D01*
X163915000Y-60288967D01*
X163915000Y-60611033D01*
X163977832Y-60926912D01*
X164101082Y-61224463D01*
X164280013Y-61492252D01*
X164507748Y-61719987D01*
X164775537Y-61898918D01*
X165073088Y-62022168D01*
X165388967Y-62085000D01*
X165711033Y-62085000D01*
X166026912Y-62022168D01*
X166324463Y-61898918D01*
X166592252Y-61719987D01*
X166819987Y-61492252D01*
X166998918Y-61224463D01*
X167122168Y-60926912D01*
X167185000Y-60611033D01*
X167185000Y-60288967D01*
X167122168Y-59973088D01*
X166998918Y-59675537D01*
X166819987Y-59407748D01*
X166592252Y-59180013D01*
X166324463Y-59001082D01*
X166026912Y-58877832D01*
X165711033Y-58815000D01*
X165388967Y-58815000D01*
X165073088Y-58877832D01*
X164775537Y-59001082D01*
X164507748Y-59180013D01*
X164280013Y-59407748D01*
X164101082Y-59675537D01*
X163977832Y-59973088D01*
X163915000Y-60288967D01*
X162185000Y-60288967D01*
X162122168Y-59973088D01*
X161998918Y-59675537D01*
X161819987Y-59407748D01*
X161592252Y-59180013D01*
X161324463Y-59001082D01*
X161026912Y-58877832D01*
X160711033Y-58815000D01*
X160388967Y-58815000D01*
X160073088Y-58877832D01*
X159775537Y-59001082D01*
X159507748Y-59180013D01*
X159280013Y-59407748D01*
X159101082Y-59675537D01*
X158977832Y-59973088D01*
X158915000Y-60288967D01*
X157185000Y-60288967D01*
X157122168Y-59973088D01*
X156998918Y-59675537D01*
X156819987Y-59407748D01*
X156592252Y-59180013D01*
X156450674Y-59085413D01*
X157094192Y-59085413D01*
X157189956Y-59349814D01*
X157479571Y-59490704D01*
X157791108Y-59572384D01*
X158112595Y-59591718D01*
X158431675Y-59547961D01*
X158736088Y-59442795D01*
X158910044Y-59349814D01*
X159005808Y-59085413D01*
X158050000Y-58129605D01*
X157094192Y-59085413D01*
X156450674Y-59085413D01*
X156324463Y-59001082D01*
X156026912Y-58877832D01*
X155711033Y-58815000D01*
X155388967Y-58815000D01*
X155073088Y-58877832D01*
X154775537Y-59001082D01*
X154507748Y-59180013D01*
X154280013Y-59407748D01*
X154101082Y-59675537D01*
X153977832Y-59973088D01*
X153915000Y-60288967D01*
X152185000Y-60288967D01*
X152122168Y-59973088D01*
X151998918Y-59675537D01*
X151819987Y-59407748D01*
X151592252Y-59180013D01*
X151324463Y-59001082D01*
X151026912Y-58877832D01*
X150711033Y-58815000D01*
X150388967Y-58815000D01*
X150073088Y-58877832D01*
X149775537Y-59001082D01*
X149507748Y-59180013D01*
X149280013Y-59407748D01*
X149160000Y-59587360D01*
X149160000Y-57788967D01*
X151415000Y-57788967D01*
X151415000Y-58111033D01*
X151477832Y-58426912D01*
X151601082Y-58724463D01*
X151780013Y-58992252D01*
X152007748Y-59219987D01*
X152275537Y-59398918D01*
X152573088Y-59522168D01*
X152888967Y-59585000D01*
X153211033Y-59585000D01*
X153526912Y-59522168D01*
X153824463Y-59398918D01*
X154092252Y-59219987D01*
X154319987Y-58992252D01*
X154498918Y-58724463D01*
X154622168Y-58426912D01*
X154685000Y-58111033D01*
X154685000Y-58012595D01*
X156408282Y-58012595D01*
X156452039Y-58331675D01*
X156557205Y-58636088D01*
X156650186Y-58810044D01*
X156914587Y-58905808D01*
X157870395Y-57950000D01*
X158229605Y-57950000D01*
X159185413Y-58905808D01*
X159449814Y-58810044D01*
X159590704Y-58520429D01*
X159672384Y-58208892D01*
X159691718Y-57887405D01*
X159647961Y-57568325D01*
X159542795Y-57263912D01*
X159449814Y-57089956D01*
X159185413Y-56994192D01*
X158229605Y-57950000D01*
X157870395Y-57950000D01*
X156914587Y-56994192D01*
X156650186Y-57089956D01*
X156509296Y-57379571D01*
X156427616Y-57691108D01*
X156408282Y-58012595D01*
X154685000Y-58012595D01*
X154685000Y-57788967D01*
X154622168Y-57473088D01*
X154498918Y-57175537D01*
X154319987Y-56907748D01*
X154226826Y-56814587D01*
X157094192Y-56814587D01*
X158050000Y-57770395D01*
X159005808Y-56814587D01*
X158910044Y-56550186D01*
X158620429Y-56409296D01*
X158308892Y-56327616D01*
X157987405Y-56308282D01*
X157668325Y-56352039D01*
X157363912Y-56457205D01*
X157189956Y-56550186D01*
X157094192Y-56814587D01*
X154226826Y-56814587D01*
X154092252Y-56680013D01*
X153824463Y-56501082D01*
X153526912Y-56377832D01*
X153211033Y-56315000D01*
X152888967Y-56315000D01*
X152573088Y-56377832D01*
X152275537Y-56501082D01*
X152007748Y-56680013D01*
X151780013Y-56907748D01*
X151601082Y-57175537D01*
X151477832Y-57473088D01*
X151415000Y-57788967D01*
X149160000Y-57788967D01*
X149160000Y-56883322D01*
X149163676Y-56845999D01*
X149160000Y-56808676D01*
X149160000Y-56808667D01*
X149149003Y-56697014D01*
X149105546Y-56553753D01*
X149034974Y-56421724D01*
X148940001Y-56305999D01*
X148911003Y-56282201D01*
X146067826Y-53439025D01*
X146072902Y-53422291D01*
X146099720Y-53150000D01*
X146072902Y-52877709D01*
X146040007Y-52769268D01*
X148715000Y-52769268D01*
X148715000Y-53130732D01*
X148785518Y-53485250D01*
X148923844Y-53819199D01*
X149124662Y-54119744D01*
X149380256Y-54375338D01*
X149680801Y-54576156D01*
X150014750Y-54714482D01*
X150369268Y-54785000D01*
X150730732Y-54785000D01*
X151085250Y-54714482D01*
X151419199Y-54576156D01*
X151719744Y-54375338D01*
X151975338Y-54119744D01*
X152176156Y-53819199D01*
X152314482Y-53485250D01*
X152385000Y-53130732D01*
X152385000Y-52769268D01*
X152314482Y-52414750D01*
X152176156Y-52080801D01*
X151975338Y-51780256D01*
X151719744Y-51524662D01*
X151419199Y-51323844D01*
X151085250Y-51185518D01*
X150730732Y-51115000D01*
X150369268Y-51115000D01*
X150014750Y-51185518D01*
X149680801Y-51323844D01*
X149380256Y-51524662D01*
X149124662Y-51780256D01*
X148923844Y-52080801D01*
X148785518Y-52414750D01*
X148715000Y-52769268D01*
X146040007Y-52769268D01*
X145993477Y-52615881D01*
X145864499Y-52374580D01*
X145690923Y-52163077D01*
X145479420Y-51989501D01*
X145238119Y-51860523D01*
X144976291Y-51781098D01*
X144772230Y-51761000D01*
X143540795Y-51761000D01*
X143581284Y-51734354D01*
X143775974Y-51542369D01*
X143929469Y-51316091D01*
X144035870Y-51064215D01*
X144050286Y-50991814D01*
X143927677Y-50777000D01*
X142077000Y-50777000D01*
X142077000Y-52039000D01*
X142360265Y-52039000D01*
X142209077Y-52163077D01*
X142035501Y-52374580D01*
X141906523Y-52615881D01*
X141827098Y-52877709D01*
X141800280Y-53150000D01*
X141827098Y-53422291D01*
X141906523Y-53684119D01*
X142035501Y-53925420D01*
X142209077Y-54136923D01*
X142420580Y-54310499D01*
X142661881Y-54439477D01*
X142923709Y-54518902D01*
X143127770Y-54539000D01*
X144772230Y-54539000D01*
X144976291Y-54518902D01*
X144993025Y-54513826D01*
X147640001Y-57160803D01*
X147640001Y-62358732D01*
X147634547Y-62340754D01*
X147563975Y-62208725D01*
X147492800Y-62121998D01*
X147469002Y-62093000D01*
X147440004Y-62069202D01*
X145285143Y-59914342D01*
X145479420Y-59810499D01*
X145690923Y-59636923D01*
X145864499Y-59425420D01*
X145993477Y-59184119D01*
X146072902Y-58922291D01*
X146099720Y-58650000D01*
X146072902Y-58377709D01*
X145993477Y-58115881D01*
X145864499Y-57874580D01*
X145690923Y-57663077D01*
X145479420Y-57489501D01*
X145238119Y-57360523D01*
X144976291Y-57281098D01*
X144772230Y-57261000D01*
X144000490Y-57261000D01*
X144072902Y-57022291D01*
X144099720Y-56750000D01*
X144072902Y-56477709D01*
X143993477Y-56215881D01*
X143864499Y-55974580D01*
X143690923Y-55763077D01*
X143479420Y-55589501D01*
X143238119Y-55460523D01*
X142976291Y-55381098D01*
X142772230Y-55361000D01*
X141127770Y-55361000D01*
X140923709Y-55381098D01*
X140661881Y-55460523D01*
X140420580Y-55589501D01*
X140209077Y-55763077D01*
X140035501Y-55974580D01*
X139906523Y-56215881D01*
X139827098Y-56477709D01*
X139800280Y-56750000D01*
X139827098Y-57022291D01*
X139906523Y-57284119D01*
X140035501Y-57525420D01*
X140209077Y-57736923D01*
X140420580Y-57910499D01*
X140661881Y-58039477D01*
X140923709Y-58118902D01*
X141127770Y-58139000D01*
X141899510Y-58139000D01*
X141827098Y-58377709D01*
X141800280Y-58650000D01*
X141827098Y-58922291D01*
X141906523Y-59184119D01*
X142035501Y-59425420D01*
X142209077Y-59636923D01*
X142420580Y-59810499D01*
X142661881Y-59939477D01*
X142923709Y-60018902D01*
X143127770Y-60039000D01*
X143294032Y-60039000D01*
X143315026Y-60078276D01*
X143320438Y-60084870D01*
X143409999Y-60194001D01*
X143439003Y-60217804D01*
X146169002Y-62947804D01*
X146169001Y-67288275D01*
X146031880Y-67261000D01*
X145768120Y-67261000D01*
X145509428Y-67312457D01*
X145265746Y-67413393D01*
X145046437Y-67559931D01*
X144859931Y-67746437D01*
X144713393Y-67965746D01*
X144612457Y-68209428D01*
X144561000Y-68468120D01*
X144561000Y-68731880D01*
X144612457Y-68990572D01*
X144713393Y-69234254D01*
X144859931Y-69453563D01*
X145046437Y-69640069D01*
X145265746Y-69786607D01*
X145509428Y-69887543D01*
X145768120Y-69939000D01*
X146031880Y-69939000D01*
X146290572Y-69887543D01*
X146518381Y-69793182D01*
X147082953Y-70357755D01*
X147061000Y-70468120D01*
X147061000Y-70731880D01*
X147112457Y-70990572D01*
X147213393Y-71234254D01*
X147359931Y-71453563D01*
X147506368Y-71600000D01*
X147359931Y-71746437D01*
X147239000Y-71927423D01*
X147239000Y-71768120D01*
X147187543Y-71509428D01*
X147086607Y-71265746D01*
X146940069Y-71046437D01*
X146753563Y-70859931D01*
X146534254Y-70713393D01*
X146290572Y-70612457D01*
X146031880Y-70561000D01*
X145768120Y-70561000D01*
X145509428Y-70612457D01*
X145265746Y-70713393D01*
X145046437Y-70859931D01*
X144859931Y-71046437D01*
X144713393Y-71265746D01*
X144612457Y-71509428D01*
X144561000Y-71768120D01*
X144561000Y-72031880D01*
X144612457Y-72290572D01*
X144713393Y-72534254D01*
X144815387Y-72686898D01*
X144744815Y-72744815D01*
X144665463Y-72841506D01*
X144606498Y-72951820D01*
X144570188Y-73071518D01*
X144557928Y-73196000D01*
X144557928Y-74604000D01*
X144570188Y-74728482D01*
X144595219Y-74810999D01*
X144066323Y-74810999D01*
X144029000Y-74807323D01*
X143991677Y-74810999D01*
X143991668Y-74810999D01*
X143880015Y-74821996D01*
X143762138Y-74857753D01*
X143736754Y-74865453D01*
X143604724Y-74936025D01*
X143577346Y-74958494D01*
X143489000Y-75030998D01*
X143465202Y-75059996D01*
X139710000Y-78815199D01*
X139710000Y-72737000D01*
X140605000Y-72737000D01*
X140605000Y-73587000D01*
X140658310Y-73874269D01*
X140766639Y-74145618D01*
X140925824Y-74390619D01*
X141129748Y-74599857D01*
X141370574Y-74765291D01*
X141639047Y-74880563D01*
X141733110Y-74901476D01*
X141963000Y-74780155D01*
X141963000Y-72737000D01*
X142217000Y-72737000D01*
X142217000Y-74780155D01*
X142446890Y-74901476D01*
X142540953Y-74880563D01*
X142809426Y-74765291D01*
X143050252Y-74599857D01*
X143254176Y-74390619D01*
X143413361Y-74145618D01*
X143521690Y-73874269D01*
X143575000Y-73587000D01*
X143575000Y-72737000D01*
X142217000Y-72737000D01*
X141963000Y-72737000D01*
X140605000Y-72737000D01*
X139710000Y-72737000D01*
X139710000Y-71633000D01*
X140605000Y-71633000D01*
X140605000Y-72483000D01*
X141963000Y-72483000D01*
X141963000Y-70439845D01*
X142217000Y-70439845D01*
X142217000Y-72483000D01*
X143575000Y-72483000D01*
X143575000Y-71633000D01*
X143521690Y-71345731D01*
X143413361Y-71074382D01*
X143254176Y-70829381D01*
X143050252Y-70620143D01*
X142809426Y-70454709D01*
X142540953Y-70339437D01*
X142446890Y-70318524D01*
X142217000Y-70439845D01*
X141963000Y-70439845D01*
X141733110Y-70318524D01*
X141639047Y-70339437D01*
X141370574Y-70454709D01*
X141129748Y-70620143D01*
X140925824Y-70829381D01*
X140766639Y-71074382D01*
X140658310Y-71345731D01*
X140605000Y-71633000D01*
X139710000Y-71633000D01*
X139710000Y-66912845D01*
X141516761Y-66912845D01*
X141684802Y-67238643D01*
X142076607Y-67439426D01*
X142500055Y-67559914D01*
X142938873Y-67595476D01*
X143376197Y-67544746D01*
X143795221Y-67409674D01*
X144115198Y-67238643D01*
X144283239Y-66912845D01*
X142900000Y-65529605D01*
X141516761Y-66912845D01*
X139710000Y-66912845D01*
X139710000Y-65388873D01*
X140654524Y-65388873D01*
X140705254Y-65826197D01*
X140840326Y-66245221D01*
X141011357Y-66565198D01*
X141337155Y-66733239D01*
X142720395Y-65350000D01*
X143079605Y-65350000D01*
X144462845Y-66733239D01*
X144788643Y-66565198D01*
X144989426Y-66173393D01*
X145109914Y-65749945D01*
X145145476Y-65311127D01*
X145094746Y-64873803D01*
X144959674Y-64454779D01*
X144788643Y-64134802D01*
X144462845Y-63966761D01*
X143079605Y-65350000D01*
X142720395Y-65350000D01*
X141337155Y-63966761D01*
X141011357Y-64134802D01*
X140810574Y-64526607D01*
X140690086Y-64950055D01*
X140654524Y-65388873D01*
X139710000Y-65388873D01*
X139710000Y-62250000D01*
X139800280Y-62250000D01*
X139827098Y-62522291D01*
X139906523Y-62784119D01*
X140035501Y-63025420D01*
X140209077Y-63236923D01*
X140420580Y-63410499D01*
X140661881Y-63539477D01*
X140923709Y-63618902D01*
X141127770Y-63639000D01*
X141593177Y-63639000D01*
X141516761Y-63787155D01*
X142900000Y-65170395D01*
X144283239Y-63787155D01*
X144115198Y-63461357D01*
X143723393Y-63260574D01*
X143677883Y-63247625D01*
X143690923Y-63236923D01*
X143864499Y-63025420D01*
X143993477Y-62784119D01*
X144072902Y-62522291D01*
X144099720Y-62250000D01*
X144072902Y-61977709D01*
X143993477Y-61715881D01*
X143864499Y-61474580D01*
X143690923Y-61263077D01*
X143479420Y-61089501D01*
X143238119Y-60960523D01*
X142976291Y-60881098D01*
X142772230Y-60861000D01*
X141127770Y-60861000D01*
X140923709Y-60881098D01*
X140661881Y-60960523D01*
X140420580Y-61089501D01*
X140209077Y-61263077D01*
X140035501Y-61474580D01*
X139906523Y-61715881D01*
X139827098Y-61977709D01*
X139800280Y-62250000D01*
X139710000Y-62250000D01*
X139710000Y-51684851D01*
X140014275Y-51380577D01*
X140124026Y-51542369D01*
X140318716Y-51734354D01*
X140547120Y-51884668D01*
X140800460Y-51987534D01*
X141069000Y-52039000D01*
X141823000Y-52039000D01*
X141823000Y-50777000D01*
X141803000Y-50777000D01*
X141803000Y-50523000D01*
X141823000Y-50523000D01*
X141823000Y-50503000D01*
X142077000Y-50503000D01*
X142077000Y-50523000D01*
X143927677Y-50523000D01*
X144037270Y-50330990D01*
X154356189Y-50330990D01*
X161483823Y-57458625D01*
X161477832Y-57473088D01*
X161415000Y-57788967D01*
X161415000Y-58111033D01*
X161477832Y-58426912D01*
X161601082Y-58724463D01*
X161780013Y-58992252D01*
X162007748Y-59219987D01*
X162275537Y-59398918D01*
X162573088Y-59522168D01*
X162888967Y-59585000D01*
X163211033Y-59585000D01*
X163526912Y-59522168D01*
X163824463Y-59398918D01*
X164092252Y-59219987D01*
X164319987Y-58992252D01*
X164498918Y-58724463D01*
X164622168Y-58426912D01*
X164685000Y-58111033D01*
X164685000Y-57788967D01*
X164622168Y-57473088D01*
X164498918Y-57175537D01*
X164319987Y-56907748D01*
X164092252Y-56680013D01*
X163824463Y-56501082D01*
X163526912Y-56377832D01*
X163211033Y-56315000D01*
X162888967Y-56315000D01*
X162573088Y-56377832D01*
X162558625Y-56383823D01*
X162374802Y-56200000D01*
X171561928Y-56200000D01*
X171561928Y-57800000D01*
X171574188Y-57924482D01*
X171610498Y-58044180D01*
X171669463Y-58154494D01*
X171748815Y-58251185D01*
X171845506Y-58330537D01*
X171900612Y-58359992D01*
X171885363Y-58375241D01*
X171728320Y-58610273D01*
X171620147Y-58871426D01*
X171565000Y-59148665D01*
X171565000Y-59431335D01*
X171620147Y-59708574D01*
X171728320Y-59969727D01*
X171885363Y-60204759D01*
X172085241Y-60404637D01*
X172130683Y-60435000D01*
X172085241Y-60465363D01*
X171885363Y-60665241D01*
X171728320Y-60900273D01*
X171620147Y-61161426D01*
X171565000Y-61438665D01*
X171565000Y-61721335D01*
X171620147Y-61998574D01*
X171728320Y-62259727D01*
X171885363Y-62494759D01*
X172085241Y-62694637D01*
X172130683Y-62725000D01*
X172085241Y-62755363D01*
X171885363Y-62955241D01*
X171728320Y-63190273D01*
X171620147Y-63451426D01*
X171565000Y-63728665D01*
X171565000Y-64011335D01*
X171620147Y-64288574D01*
X171728320Y-64549727D01*
X171885363Y-64784759D01*
X172085241Y-64984637D01*
X172215049Y-65071372D01*
X172186903Y-65167298D01*
X173000000Y-65980395D01*
X173813097Y-65167298D01*
X173784951Y-65071372D01*
X173914759Y-64984637D01*
X174114637Y-64784759D01*
X174120529Y-64775941D01*
X174113700Y-64803184D01*
X174099783Y-65085512D01*
X174141213Y-65365130D01*
X174151340Y-65393449D01*
X173992702Y-65346903D01*
X173179605Y-66160000D01*
X173992702Y-66973097D01*
X174236671Y-66901514D01*
X174357571Y-66646004D01*
X174426300Y-66371816D01*
X174440217Y-66089488D01*
X174428100Y-66007702D01*
X174726903Y-66007702D01*
X174798486Y-66251671D01*
X175053996Y-66372571D01*
X175328184Y-66441300D01*
X175610512Y-66455217D01*
X175890130Y-66413787D01*
X176156292Y-66318603D01*
X176281514Y-66251671D01*
X176353097Y-66007702D01*
X175540000Y-65194605D01*
X174726903Y-66007702D01*
X174428100Y-66007702D01*
X174398787Y-65809870D01*
X174388660Y-65781551D01*
X174547298Y-65828097D01*
X175360395Y-65015000D01*
X174547298Y-64201903D01*
X174387783Y-64248706D01*
X174435000Y-64011335D01*
X174435000Y-63728665D01*
X174413904Y-63622609D01*
X174425363Y-63639759D01*
X174625241Y-63839637D01*
X174755049Y-63926372D01*
X174726903Y-64022298D01*
X175540000Y-64835395D01*
X176353097Y-64022298D01*
X176324951Y-63926372D01*
X176454759Y-63839637D01*
X176654637Y-63639759D01*
X176666096Y-63622609D01*
X176645000Y-63728665D01*
X176645000Y-64011335D01*
X176692217Y-64248706D01*
X176532702Y-64201903D01*
X175719605Y-65015000D01*
X176532702Y-65828097D01*
X176692217Y-65781294D01*
X176645000Y-66018665D01*
X176645000Y-66301335D01*
X176700147Y-66578574D01*
X176808320Y-66839727D01*
X176965363Y-67074759D01*
X177165241Y-67274637D01*
X177400273Y-67431680D01*
X177661426Y-67539853D01*
X177938665Y-67595000D01*
X178221335Y-67595000D01*
X178498574Y-67539853D01*
X178759727Y-67431680D01*
X178994759Y-67274637D01*
X179194637Y-67074759D01*
X179351680Y-66839727D01*
X179459853Y-66578574D01*
X179515000Y-66301335D01*
X179515000Y-66018665D01*
X179459853Y-65741426D01*
X179351680Y-65480273D01*
X179194637Y-65245241D01*
X178994759Y-65045363D01*
X178949317Y-65015000D01*
X178994759Y-64984637D01*
X179194637Y-64784759D01*
X179351680Y-64549727D01*
X179459853Y-64288574D01*
X179515000Y-64011335D01*
X179515000Y-63728665D01*
X179459853Y-63451426D01*
X179351680Y-63190273D01*
X179194637Y-62955241D01*
X178994759Y-62755363D01*
X178949317Y-62725000D01*
X178994759Y-62694637D01*
X179194637Y-62494759D01*
X179351680Y-62259727D01*
X179459853Y-61998574D01*
X179515000Y-61721335D01*
X179515000Y-61438665D01*
X179459853Y-61161426D01*
X179351680Y-60900273D01*
X179194637Y-60665241D01*
X178994759Y-60465363D01*
X178949317Y-60435000D01*
X178994759Y-60404637D01*
X179194637Y-60204759D01*
X179351680Y-59969727D01*
X179459853Y-59708574D01*
X179515000Y-59431335D01*
X179515000Y-59148665D01*
X179459853Y-58871426D01*
X179351680Y-58610273D01*
X179194637Y-58375241D01*
X178994759Y-58175363D01*
X178949317Y-58145000D01*
X178994759Y-58114637D01*
X179194637Y-57914759D01*
X179351680Y-57679727D01*
X179459853Y-57418574D01*
X179515000Y-57141335D01*
X179515000Y-56858665D01*
X179459853Y-56581426D01*
X179351680Y-56320273D01*
X179194637Y-56085241D01*
X178994759Y-55885363D01*
X178759727Y-55728320D01*
X178498574Y-55620147D01*
X178221335Y-55565000D01*
X177938665Y-55565000D01*
X177661426Y-55620147D01*
X177400273Y-55728320D01*
X177165241Y-55885363D01*
X176965363Y-56085241D01*
X176959471Y-56094059D01*
X176966300Y-56066816D01*
X176980217Y-55784488D01*
X176938787Y-55504870D01*
X176843603Y-55238708D01*
X176776671Y-55113486D01*
X176532702Y-55041903D01*
X175719605Y-55855000D01*
X176532702Y-56668097D01*
X176692217Y-56621294D01*
X176645000Y-56858665D01*
X176645000Y-57141335D01*
X176692217Y-57378706D01*
X176532702Y-57331903D01*
X175719605Y-58145000D01*
X176532702Y-58958097D01*
X176692217Y-58911294D01*
X176645000Y-59148665D01*
X176645000Y-59431335D01*
X176692217Y-59668706D01*
X176532702Y-59621903D01*
X175719605Y-60435000D01*
X176532702Y-61248097D01*
X176692217Y-61201294D01*
X176645000Y-61438665D01*
X176645000Y-61721335D01*
X176666096Y-61827391D01*
X176654637Y-61810241D01*
X176454759Y-61610363D01*
X176324951Y-61523628D01*
X176353097Y-61427702D01*
X175540000Y-60614605D01*
X174726903Y-61427702D01*
X174755049Y-61523628D01*
X174625241Y-61610363D01*
X174425363Y-61810241D01*
X174413904Y-61827391D01*
X174435000Y-61721335D01*
X174435000Y-61438665D01*
X174387783Y-61201294D01*
X174547298Y-61248097D01*
X175360395Y-60435000D01*
X174547298Y-59621903D01*
X174387783Y-59668706D01*
X174435000Y-59431335D01*
X174435000Y-59148665D01*
X174432820Y-59137702D01*
X174726903Y-59137702D01*
X174771589Y-59290000D01*
X174726903Y-59442298D01*
X175540000Y-60255395D01*
X176353097Y-59442298D01*
X176308411Y-59290000D01*
X176353097Y-59137702D01*
X175540000Y-58324605D01*
X174726903Y-59137702D01*
X174432820Y-59137702D01*
X174387783Y-58911294D01*
X174547298Y-58958097D01*
X175360395Y-58145000D01*
X174547298Y-57331903D01*
X174438072Y-57363951D01*
X174438072Y-56847702D01*
X174726903Y-56847702D01*
X174771589Y-57000000D01*
X174726903Y-57152298D01*
X175540000Y-57965395D01*
X176353097Y-57152298D01*
X176308411Y-57000000D01*
X176353097Y-56847702D01*
X175540000Y-56034605D01*
X174726903Y-56847702D01*
X174438072Y-56847702D01*
X174438072Y-56636049D01*
X174547298Y-56668097D01*
X175360395Y-55855000D01*
X174547298Y-55041903D01*
X174303329Y-55113486D01*
X174182429Y-55368996D01*
X174113700Y-55643184D01*
X174113485Y-55647543D01*
X174044180Y-55610498D01*
X173924482Y-55574188D01*
X173800000Y-55561928D01*
X172200000Y-55561928D01*
X172075518Y-55574188D01*
X171955820Y-55610498D01*
X171845506Y-55669463D01*
X171748815Y-55748815D01*
X171669463Y-55845506D01*
X171610498Y-55955820D01*
X171574188Y-56075518D01*
X171561928Y-56200000D01*
X162374802Y-56200000D01*
X161037100Y-54862298D01*
X174726903Y-54862298D01*
X175540000Y-55675395D01*
X176353097Y-54862298D01*
X176281514Y-54618329D01*
X176026004Y-54497429D01*
X175751816Y-54428700D01*
X175469488Y-54414783D01*
X175189870Y-54456213D01*
X174923708Y-54551397D01*
X174798486Y-54618329D01*
X174726903Y-54862298D01*
X161037100Y-54862298D01*
X158944070Y-52769268D01*
X163715000Y-52769268D01*
X163715000Y-53130732D01*
X163785518Y-53485250D01*
X163923844Y-53819199D01*
X164124662Y-54119744D01*
X164380256Y-54375338D01*
X164680801Y-54576156D01*
X165014750Y-54714482D01*
X165369268Y-54785000D01*
X165730732Y-54785000D01*
X166085250Y-54714482D01*
X166419199Y-54576156D01*
X166719744Y-54375338D01*
X166975338Y-54119744D01*
X167176156Y-53819199D01*
X167314482Y-53485250D01*
X167385000Y-53130732D01*
X167385000Y-52769268D01*
X167314482Y-52414750D01*
X167176156Y-52080801D01*
X166975338Y-51780256D01*
X166719744Y-51524662D01*
X166419199Y-51323844D01*
X166085250Y-51185518D01*
X165730732Y-51115000D01*
X165369268Y-51115000D01*
X165014750Y-51185518D01*
X164680801Y-51323844D01*
X164380256Y-51524662D01*
X164124662Y-51780256D01*
X163923844Y-52080801D01*
X163785518Y-52414750D01*
X163715000Y-52769268D01*
X158944070Y-52769268D01*
X156837301Y-50662499D01*
X173872106Y-50662499D01*
X174088228Y-51029258D01*
X174548105Y-51269938D01*
X175046098Y-51416275D01*
X175563071Y-51462648D01*
X176079159Y-51407273D01*
X176574526Y-51252279D01*
X176991772Y-51029258D01*
X177207894Y-50662499D01*
X175540000Y-48994605D01*
X173872106Y-50662499D01*
X156837301Y-50662499D01*
X155747956Y-49573155D01*
X155931675Y-49547961D01*
X156236088Y-49442795D01*
X156410044Y-49349814D01*
X156505808Y-49085413D01*
X159594192Y-49085413D01*
X159689956Y-49349814D01*
X159979571Y-49490704D01*
X160291108Y-49572384D01*
X160612595Y-49591718D01*
X160931675Y-49547961D01*
X161236088Y-49442795D01*
X161410044Y-49349814D01*
X161505808Y-49085413D01*
X160550000Y-48129605D01*
X159594192Y-49085413D01*
X156505808Y-49085413D01*
X155550000Y-48129605D01*
X155535858Y-48143748D01*
X155356253Y-47964143D01*
X155370395Y-47950000D01*
X155729605Y-47950000D01*
X156685413Y-48905808D01*
X156949814Y-48810044D01*
X157090704Y-48520429D01*
X157172384Y-48208892D01*
X157184189Y-48012595D01*
X158908282Y-48012595D01*
X158952039Y-48331675D01*
X159057205Y-48636088D01*
X159150186Y-48810044D01*
X159414587Y-48905808D01*
X160370395Y-47950000D01*
X160729605Y-47950000D01*
X161685413Y-48905808D01*
X161872432Y-48838071D01*
X172892352Y-48838071D01*
X172947727Y-49354159D01*
X173102721Y-49849526D01*
X173325742Y-50266772D01*
X173692501Y-50482894D01*
X175360395Y-48815000D01*
X175719605Y-48815000D01*
X177387499Y-50482894D01*
X177754258Y-50266772D01*
X177994938Y-49806895D01*
X178141275Y-49308902D01*
X178187648Y-48791929D01*
X178132273Y-48275841D01*
X177977279Y-47780474D01*
X177754258Y-47363228D01*
X177387499Y-47147106D01*
X175719605Y-48815000D01*
X175360395Y-48815000D01*
X173692501Y-47147106D01*
X173325742Y-47363228D01*
X173085062Y-47823105D01*
X172938725Y-48321098D01*
X172892352Y-48838071D01*
X161872432Y-48838071D01*
X161949814Y-48810044D01*
X162090704Y-48520429D01*
X162172384Y-48208892D01*
X162191718Y-47887405D01*
X162147961Y-47568325D01*
X162042795Y-47263912D01*
X161949814Y-47089956D01*
X161685413Y-46994192D01*
X160729605Y-47950000D01*
X160370395Y-47950000D01*
X159414587Y-46994192D01*
X159150186Y-47089956D01*
X159009296Y-47379571D01*
X158927616Y-47691108D01*
X158908282Y-48012595D01*
X157184189Y-48012595D01*
X157191718Y-47887405D01*
X157147961Y-47568325D01*
X157042795Y-47263912D01*
X156949814Y-47089956D01*
X156685413Y-46994192D01*
X155729605Y-47950000D01*
X155370395Y-47950000D01*
X154414587Y-46994192D01*
X154150186Y-47089956D01*
X154009296Y-47379571D01*
X153927616Y-47691108D01*
X153908282Y-48012595D01*
X153952039Y-48331675D01*
X154057205Y-48636088D01*
X154150186Y-48810044D01*
X154152798Y-48810990D01*
X140786382Y-48810990D01*
X140749059Y-48807314D01*
X140711736Y-48810990D01*
X140711727Y-48810990D01*
X140600074Y-48821987D01*
X140456813Y-48865444D01*
X140324783Y-48936016D01*
X140253393Y-48994605D01*
X140209059Y-49030989D01*
X140185261Y-49059987D01*
X138439003Y-50806246D01*
X138409999Y-50830049D01*
X138354871Y-50897224D01*
X138315026Y-50945774D01*
X138290417Y-50991814D01*
X138244454Y-51077804D01*
X138200997Y-51221065D01*
X138190000Y-51332718D01*
X138190000Y-51332728D01*
X138186324Y-51370050D01*
X138190000Y-51407372D01*
X138190001Y-80452321D01*
X138060000Y-80521808D01*
X138060000Y-46814587D01*
X154594192Y-46814587D01*
X155550000Y-47770395D01*
X156505808Y-46814587D01*
X159594192Y-46814587D01*
X160550000Y-47770395D01*
X161352894Y-46967501D01*
X173872106Y-46967501D01*
X175540000Y-48635395D01*
X177207894Y-46967501D01*
X176991772Y-46600742D01*
X176531895Y-46360062D01*
X176033902Y-46213725D01*
X175516929Y-46167352D01*
X175000841Y-46222727D01*
X174505474Y-46377721D01*
X174088228Y-46600742D01*
X173872106Y-46967501D01*
X161352894Y-46967501D01*
X161505808Y-46814587D01*
X161410044Y-46550186D01*
X161120429Y-46409296D01*
X160808892Y-46327616D01*
X160487405Y-46308282D01*
X160168325Y-46352039D01*
X159863912Y-46457205D01*
X159689956Y-46550186D01*
X159594192Y-46814587D01*
X156505808Y-46814587D01*
X156410044Y-46550186D01*
X156120429Y-46409296D01*
X155808892Y-46327616D01*
X155487405Y-46308282D01*
X155168325Y-46352039D01*
X154863912Y-46457205D01*
X154689956Y-46550186D01*
X154594192Y-46814587D01*
X138060000Y-46814587D01*
X138060000Y-46060000D01*
X186740000Y-46060000D01*
X186740001Y-94740000D01*
X186740001Y-94740000D01*
G37*
X186740001Y-94740000D02*
X138060000Y-94740000D01*
X138060000Y-90277000D01*
X144715000Y-90277000D01*
X144715000Y-91177000D01*
X144773114Y-91513041D01*
X144895670Y-91831288D01*
X145077958Y-92119511D01*
X145312973Y-92366633D01*
X145591683Y-92563157D01*
X145903378Y-92701531D01*
X146053878Y-92739175D01*
X146323000Y-92621125D01*
X146323000Y-90277000D01*
X146577000Y-90277000D01*
X146577000Y-92621125D01*
X146846122Y-92739175D01*
X146996622Y-92701531D01*
X147308317Y-92563157D01*
X147587027Y-92366633D01*
X147822042Y-92119511D01*
X148004330Y-91831288D01*
X148126886Y-91513041D01*
X148185000Y-91177000D01*
X148185000Y-90277000D01*
X158715000Y-90277000D01*
X158715000Y-91177000D01*
X158773114Y-91513041D01*
X158895670Y-91831288D01*
X159077958Y-92119511D01*
X159312973Y-92366633D01*
X159591683Y-92563157D01*
X159903378Y-92701531D01*
X160053878Y-92739175D01*
X160323000Y-92621125D01*
X160323000Y-90277000D01*
X160577000Y-90277000D01*
X160577000Y-92621125D01*
X160846122Y-92739175D01*
X160996622Y-92701531D01*
X161308317Y-92563157D01*
X161587027Y-92366633D01*
X161822042Y-92119511D01*
X162004330Y-91831288D01*
X162126886Y-91513041D01*
X162185000Y-91177000D01*
X162185000Y-90277000D01*
X172715000Y-90277000D01*
X172715000Y-91177000D01*
X172773114Y-91513041D01*
X172895670Y-91831288D01*
X173077958Y-92119511D01*
X173312973Y-92366633D01*
X173591683Y-92563157D01*
X173903378Y-92701531D01*
X174053878Y-92739175D01*
X174323000Y-92621125D01*
X174323000Y-90277000D01*
X174577000Y-90277000D01*
X174577000Y-92621125D01*
X174846122Y-92739175D01*
X174996622Y-92701531D01*
X175308317Y-92563157D01*
X175587027Y-92366633D01*
X175822042Y-92119511D01*
X176004330Y-91831288D01*
X176126886Y-91513041D01*
X176185000Y-91177000D01*
X176185000Y-90541814D01*
X181199714Y-90541814D01*
X181214130Y-90614215D01*
X181320531Y-90866091D01*
X181474026Y-91092369D01*
X181668716Y-91284354D01*
X181897120Y-91434668D01*
X182150460Y-91537534D01*
X182419000Y-91589000D01*
X183173000Y-91589000D01*
X183173000Y-90327000D01*
X183427000Y-90327000D01*
X183427000Y-91589000D01*
X184181000Y-91589000D01*
X184449540Y-91537534D01*
X184702880Y-91434668D01*
X184931284Y-91284354D01*
X185125974Y-91092369D01*
X185279469Y-90866091D01*
X185385870Y-90614215D01*
X185400286Y-90541814D01*
X185277677Y-90327000D01*
X183427000Y-90327000D01*
X183173000Y-90327000D01*
X181322323Y-90327000D01*
X181199714Y-90541814D01*
X176185000Y-90541814D01*
X176185000Y-90277000D01*
X174577000Y-90277000D01*
X174323000Y-90277000D01*
X172715000Y-90277000D01*
X162185000Y-90277000D01*
X160577000Y-90277000D01*
X160323000Y-90277000D01*
X158715000Y-90277000D01*
X148185000Y-90277000D01*
X146577000Y-90277000D01*
X146323000Y-90277000D01*
X144715000Y-90277000D01*
X138060000Y-90277000D01*
X138060000Y-89123000D01*
X144715000Y-89123000D01*
X144715000Y-90023000D01*
X146323000Y-90023000D01*
X146323000Y-87678875D01*
X146577000Y-87678875D01*
X146577000Y-90023000D01*
X148185000Y-90023000D01*
X148185000Y-89123000D01*
X158715000Y-89123000D01*
X158715000Y-90023000D01*
X160323000Y-90023000D01*
X160323000Y-87678875D01*
X160577000Y-87678875D01*
X160577000Y-90023000D01*
X162185000Y-90023000D01*
X162185000Y-89123000D01*
X172715000Y-89123000D01*
X172715000Y-90023000D01*
X174323000Y-90023000D01*
X174323000Y-87678875D01*
X174053878Y-87560825D01*
X173903378Y-87598469D01*
X173591683Y-87736843D01*
X173312973Y-87933367D01*
X173077958Y-88180489D01*
X172895670Y-88468712D01*
X172773114Y-88786959D01*
X172715000Y-89123000D01*
X162185000Y-89123000D01*
X162126886Y-88786959D01*
X162004330Y-88468712D01*
X161822042Y-88180489D01*
X161587027Y-87933367D01*
X161308317Y-87736843D01*
X160996622Y-87598469D01*
X160846122Y-87560825D01*
X160577000Y-87678875D01*
X160323000Y-87678875D01*
X160053878Y-87560825D01*
X159903378Y-87598469D01*
X159591683Y-87736843D01*
X159312973Y-87933367D01*
X159077958Y-88180489D01*
X158895670Y-88468712D01*
X158773114Y-88786959D01*
X158715000Y-89123000D01*
X148185000Y-89123000D01*
X148126886Y-88786959D01*
X148004330Y-88468712D01*
X147822042Y-88180489D01*
X147587027Y-87933367D01*
X147308317Y-87736843D01*
X146996622Y-87598469D01*
X146846122Y-87560825D01*
X146577000Y-87678875D01*
X146323000Y-87678875D01*
X146053878Y-87560825D01*
X145903378Y-87598469D01*
X145591683Y-87736843D01*
X145312973Y-87933367D01*
X145077958Y-88180489D01*
X144895670Y-88468712D01*
X144773114Y-88786959D01*
X144715000Y-89123000D01*
X138060000Y-89123000D01*
X138060000Y-85278192D01*
X138321286Y-85417852D01*
X138629485Y-85511343D01*
X138950000Y-85542911D01*
X139270516Y-85511343D01*
X139578715Y-85417852D01*
X139862752Y-85266031D01*
X140111714Y-85061714D01*
X140316031Y-84812752D01*
X140467852Y-84528715D01*
X140561343Y-84220516D01*
X140585000Y-83980322D01*
X140585000Y-81819678D01*
X140561343Y-81579484D01*
X140510794Y-81412845D01*
X141516761Y-81412845D01*
X141684802Y-81738643D01*
X142076607Y-81939426D01*
X142500055Y-82059914D01*
X142938873Y-82095476D01*
X143376197Y-82044746D01*
X143795221Y-81909674D01*
X143963590Y-81819679D01*
X144815000Y-81819679D01*
X144815001Y-83980322D01*
X144838658Y-84220516D01*
X144932149Y-84528715D01*
X145083970Y-84812752D01*
X145288287Y-85061714D01*
X145537249Y-85266031D01*
X145821286Y-85417852D01*
X146129485Y-85511343D01*
X146450000Y-85542911D01*
X146770516Y-85511343D01*
X147078715Y-85417852D01*
X147362752Y-85266031D01*
X147611714Y-85061714D01*
X147816031Y-84812752D01*
X147967852Y-84528715D01*
X148061343Y-84220516D01*
X148085000Y-83980322D01*
X148085000Y-81819678D01*
X148061343Y-81579484D01*
X147967852Y-81271285D01*
X147816031Y-80987248D01*
X147611714Y-80738286D01*
X147362751Y-80533969D01*
X147078714Y-80382148D01*
X146770515Y-80288657D01*
X146450000Y-80257089D01*
X146129484Y-80288657D01*
X145821285Y-80382148D01*
X145537248Y-80533969D01*
X145288286Y-80738286D01*
X145083969Y-80987249D01*
X144932148Y-81271286D01*
X144838657Y-81579485D01*
X144815000Y-81819679D01*
X143963590Y-81819679D01*
X144115198Y-81738643D01*
X144283239Y-81412845D01*
X142900000Y-80029605D01*
X141516761Y-81412845D01*
X140510794Y-81412845D01*
X140467852Y-81271285D01*
X140316031Y-80987248D01*
X140111714Y-80738286D01*
X140015486Y-80659315D01*
X140668183Y-80006619D01*
X140705254Y-80326197D01*
X140840326Y-80745221D01*
X141011357Y-81065198D01*
X141337155Y-81233239D01*
X142720395Y-79850000D01*
X143079605Y-79850000D01*
X144462845Y-81233239D01*
X144788643Y-81065198D01*
X144989426Y-80673393D01*
X145109914Y-80249945D01*
X145145476Y-79811127D01*
X145094746Y-79373803D01*
X144959674Y-78954779D01*
X144788643Y-78634802D01*
X144462845Y-78466761D01*
X143079605Y-79850000D01*
X142720395Y-79850000D01*
X142706252Y-79835858D01*
X142885858Y-79656252D01*
X142900000Y-79670395D01*
X144283239Y-78287155D01*
X144115198Y-77961357D01*
X143723393Y-77760574D01*
X143299945Y-77640086D01*
X143054599Y-77620203D01*
X144343803Y-76330999D01*
X144588275Y-76330999D01*
X144561000Y-76468120D01*
X144561000Y-76731880D01*
X144612457Y-76990572D01*
X144713393Y-77234254D01*
X144859931Y-77453563D01*
X145046437Y-77640069D01*
X145265746Y-77786607D01*
X145509428Y-77887543D01*
X145768120Y-77939000D01*
X146031880Y-77939000D01*
X146290572Y-77887543D01*
X146534254Y-77786607D01*
X146753563Y-77640069D01*
X146940069Y-77453563D01*
X147086607Y-77234254D01*
X147150000Y-77081209D01*
X147213393Y-77234254D01*
X147359931Y-77453563D01*
X147546437Y-77640069D01*
X147765746Y-77786607D01*
X148009428Y-77887543D01*
X148268120Y-77939000D01*
X148531880Y-77939000D01*
X148790572Y-77887543D01*
X149034254Y-77786607D01*
X149253563Y-77640069D01*
X149440069Y-77453563D01*
X149586607Y-77234254D01*
X149687543Y-76990572D01*
X149739000Y-76731880D01*
X149739000Y-76468120D01*
X149687543Y-76209428D01*
X149586607Y-75965746D01*
X149440069Y-75746437D01*
X149293632Y-75600000D01*
X149440069Y-75453563D01*
X149586607Y-75234254D01*
X149687543Y-74990572D01*
X149739000Y-74731880D01*
X149739000Y-74468120D01*
X149687543Y-74209428D01*
X149586607Y-73965746D01*
X149440069Y-73746437D01*
X149293632Y-73600000D01*
X149440069Y-73453563D01*
X149586607Y-73234254D01*
X149687543Y-72990572D01*
X149692226Y-72967028D01*
X152190000Y-75464802D01*
X152190001Y-80452321D01*
X152037248Y-80533969D01*
X151788286Y-80738286D01*
X151583969Y-80987249D01*
X151432148Y-81271286D01*
X151338657Y-81579485D01*
X151315000Y-81819679D01*
X151315001Y-83980322D01*
X151338658Y-84220516D01*
X151432149Y-84528715D01*
X151583970Y-84812752D01*
X151788287Y-85061714D01*
X152037249Y-85266031D01*
X152220755Y-85364117D01*
X152244454Y-85442246D01*
X152315026Y-85574276D01*
X152376585Y-85649285D01*
X152410000Y-85690001D01*
X152438998Y-85713799D01*
X152461206Y-85736007D01*
X152485009Y-85765011D01*
X152600734Y-85859984D01*
X152732763Y-85930556D01*
X152876024Y-85974013D01*
X152987677Y-85985010D01*
X152987687Y-85985010D01*
X153025009Y-85988686D01*
X153062332Y-85985010D01*
X169213821Y-85985010D01*
X169251143Y-85988686D01*
X169288465Y-85985010D01*
X169288476Y-85985010D01*
X169400129Y-85974013D01*
X169543390Y-85930556D01*
X169675419Y-85859984D01*
X169791144Y-85765011D01*
X169814947Y-85736007D01*
X172815000Y-82735954D01*
X172815001Y-83980322D01*
X172838658Y-84220516D01*
X172932149Y-84528715D01*
X173083970Y-84812752D01*
X173288287Y-85061714D01*
X173537249Y-85266031D01*
X173821286Y-85417852D01*
X174129485Y-85511343D01*
X174450000Y-85542911D01*
X174770516Y-85511343D01*
X175078715Y-85417852D01*
X175362752Y-85266031D01*
X175365000Y-85264186D01*
X175365001Y-87776812D01*
X175308317Y-87736843D01*
X174996622Y-87598469D01*
X174846122Y-87560825D01*
X174577000Y-87678875D01*
X174577000Y-90023000D01*
X176185000Y-90023000D01*
X176185000Y-89478373D01*
X176278967Y-89528599D01*
X176558890Y-89613513D01*
X176850000Y-89642185D01*
X177141111Y-89613513D01*
X177421034Y-89528599D01*
X177679014Y-89390706D01*
X177905134Y-89205134D01*
X178090706Y-88979014D01*
X178228599Y-88721034D01*
X178313513Y-88441111D01*
X178335000Y-88222950D01*
X178335000Y-85077050D01*
X178313513Y-84858889D01*
X178228599Y-84578966D01*
X178090706Y-84320986D01*
X177905134Y-84094866D01*
X177679013Y-83909294D01*
X177421033Y-83771401D01*
X177141110Y-83686487D01*
X176850000Y-83657815D01*
X176558889Y-83686487D01*
X176278966Y-83771401D01*
X176085000Y-83875078D01*
X176085000Y-81819678D01*
X176061343Y-81579484D01*
X175987177Y-81334990D01*
X177602189Y-81334990D01*
X178978201Y-82711003D01*
X179001999Y-82740001D01*
X179117724Y-82834974D01*
X179249753Y-82905546D01*
X179367194Y-82941171D01*
X179385501Y-82975420D01*
X179559077Y-83186923D01*
X179770580Y-83360499D01*
X180011881Y-83489477D01*
X180273709Y-83568902D01*
X180477770Y-83589000D01*
X181249510Y-83589000D01*
X181177098Y-83827709D01*
X181150280Y-84100000D01*
X181177098Y-84372291D01*
X181256523Y-84634119D01*
X181385501Y-84875420D01*
X181559077Y-85086923D01*
X181770580Y-85260499D01*
X182011881Y-85389477D01*
X182273709Y-85468902D01*
X182477770Y-85489000D01*
X183190198Y-85489000D01*
X182343025Y-86336174D01*
X182326291Y-86331098D01*
X182122230Y-86311000D01*
X180477770Y-86311000D01*
X180273709Y-86331098D01*
X180011881Y-86410523D01*
X179770580Y-86539501D01*
X179559077Y-86713077D01*
X179385501Y-86924580D01*
X179256523Y-87165881D01*
X179177098Y-87427709D01*
X179150280Y-87700000D01*
X179177098Y-87972291D01*
X179256523Y-88234119D01*
X179385501Y-88475420D01*
X179559077Y-88686923D01*
X179770580Y-88860499D01*
X180011881Y-88989477D01*
X180273709Y-89068902D01*
X180477770Y-89089000D01*
X181709205Y-89089000D01*
X181668716Y-89115646D01*
X181474026Y-89307631D01*
X181320531Y-89533909D01*
X181214130Y-89785785D01*
X181199714Y-89858186D01*
X181322323Y-90073000D01*
X183173000Y-90073000D01*
X183173000Y-90053000D01*
X183427000Y-90053000D01*
X183427000Y-90073000D01*
X185277677Y-90073000D01*
X185400286Y-89858186D01*
X185385870Y-89785785D01*
X185279469Y-89533909D01*
X185125974Y-89307631D01*
X184931284Y-89115646D01*
X184702880Y-88965332D01*
X184449540Y-88862466D01*
X184181000Y-88811000D01*
X182889735Y-88811000D01*
X183040923Y-88686923D01*
X183214499Y-88475420D01*
X183343477Y-88234119D01*
X183422902Y-87972291D01*
X183449720Y-87700000D01*
X183422902Y-87427709D01*
X183417826Y-87410975D01*
X185644013Y-85184789D01*
X185673011Y-85160991D01*
X185767984Y-85045266D01*
X185838556Y-84913237D01*
X185882013Y-84769976D01*
X185893010Y-84658323D01*
X185893010Y-84658315D01*
X185896686Y-84620990D01*
X185893010Y-84583665D01*
X185893010Y-83690383D01*
X185896686Y-83653060D01*
X185893010Y-83615737D01*
X185893010Y-83615727D01*
X185882013Y-83504074D01*
X185838556Y-83360813D01*
X185767985Y-83228785D01*
X185767984Y-83228783D01*
X185696809Y-83142057D01*
X185673011Y-83113059D01*
X185644014Y-83089262D01*
X182543751Y-79989000D01*
X184122230Y-79989000D01*
X184326291Y-79968902D01*
X184588119Y-79889477D01*
X184829420Y-79760499D01*
X185040923Y-79586923D01*
X185214499Y-79375420D01*
X185343477Y-79134119D01*
X185422902Y-78872291D01*
X185449720Y-78600000D01*
X185422902Y-78327709D01*
X185343477Y-78065881D01*
X185214499Y-77824580D01*
X185040923Y-77613077D01*
X184829420Y-77439501D01*
X184588119Y-77310523D01*
X184326291Y-77231098D01*
X184122230Y-77211000D01*
X182477770Y-77211000D01*
X182273709Y-77231098D01*
X182011881Y-77310523D01*
X181770580Y-77439501D01*
X181559077Y-77613077D01*
X181385501Y-77824580D01*
X181256523Y-78065881D01*
X181177098Y-78327709D01*
X181150681Y-78595930D01*
X180943754Y-78389003D01*
X180919951Y-78359999D01*
X180804226Y-78265026D01*
X180672197Y-78194454D01*
X180528936Y-78150997D01*
X180417283Y-78140000D01*
X180417272Y-78140000D01*
X180379950Y-78136324D01*
X180342628Y-78140000D01*
X169987325Y-78140000D01*
X169950000Y-78136324D01*
X169912675Y-78140000D01*
X169912667Y-78140000D01*
X169801014Y-78150997D01*
X169657753Y-78194454D01*
X169525724Y-78265026D01*
X169409999Y-78359999D01*
X169386201Y-78388997D01*
X167436263Y-80338936D01*
X167270515Y-80288657D01*
X166950000Y-80257089D01*
X166629484Y-80288657D01*
X166321285Y-80382148D01*
X166037248Y-80533969D01*
X165788286Y-80738286D01*
X165583969Y-80987249D01*
X165432148Y-81271286D01*
X165365569Y-81490767D01*
X159537301Y-75662499D01*
X173872106Y-75662499D01*
X174088228Y-76029258D01*
X174548105Y-76269938D01*
X175046098Y-76416275D01*
X175563071Y-76462648D01*
X176079159Y-76407273D01*
X176574526Y-76252279D01*
X176991772Y-76029258D01*
X177207894Y-75662499D01*
X175540000Y-73994605D01*
X173872106Y-75662499D01*
X159537301Y-75662499D01*
X157712873Y-73838071D01*
X172892352Y-73838071D01*
X172947727Y-74354159D01*
X173102721Y-74849526D01*
X173325742Y-75266772D01*
X173692501Y-75482894D01*
X175360395Y-73815000D01*
X175719605Y-73815000D01*
X177387499Y-75482894D01*
X177754258Y-75266772D01*
X177994938Y-74806895D01*
X178141275Y-74308902D01*
X178187648Y-73791929D01*
X178132273Y-73275841D01*
X177977279Y-72780474D01*
X177754258Y-72363228D01*
X177387499Y-72147106D01*
X175719605Y-73815000D01*
X175360395Y-73815000D01*
X173692501Y-72147106D01*
X173325742Y-72363228D01*
X173085062Y-72823105D01*
X172938725Y-73321098D01*
X172892352Y-73838071D01*
X157712873Y-73838071D01*
X155842303Y-71967501D01*
X173872106Y-71967501D01*
X175540000Y-73635395D01*
X177207894Y-71967501D01*
X176991772Y-71600742D01*
X176531895Y-71360062D01*
X176033902Y-71213725D01*
X175516929Y-71167352D01*
X175000841Y-71222727D01*
X174505474Y-71377721D01*
X174088228Y-71600742D01*
X173872106Y-71967501D01*
X155842303Y-71967501D01*
X152667803Y-68793002D01*
X152644000Y-68763998D01*
X152528275Y-68669025D01*
X152396246Y-68598453D01*
X152252985Y-68554996D01*
X152141332Y-68543999D01*
X152141321Y-68543999D01*
X152103999Y-68540323D01*
X152066677Y-68543999D01*
X149739000Y-68543999D01*
X149739000Y-68468120D01*
X149687543Y-68209428D01*
X149586607Y-67965746D01*
X149440069Y-67746437D01*
X149253563Y-67559931D01*
X149160000Y-67497414D01*
X149160000Y-67152702D01*
X172186903Y-67152702D01*
X172258486Y-67396671D01*
X172513996Y-67517571D01*
X172788184Y-67586300D01*
X173070512Y-67600217D01*
X173350130Y-67558787D01*
X173616292Y-67463603D01*
X173741514Y-67396671D01*
X173813097Y-67152702D01*
X173000000Y-66339605D01*
X172186903Y-67152702D01*
X149160000Y-67152702D01*
X149160000Y-66230512D01*
X171559783Y-66230512D01*
X171601213Y-66510130D01*
X171696397Y-66776292D01*
X171763329Y-66901514D01*
X172007298Y-66973097D01*
X172820395Y-66160000D01*
X172007298Y-65346903D01*
X171763329Y-65418486D01*
X171642429Y-65673996D01*
X171573700Y-65948184D01*
X171559783Y-66230512D01*
X149160000Y-66230512D01*
X149160000Y-62788967D01*
X156415000Y-62788967D01*
X156415000Y-63111033D01*
X156477832Y-63426912D01*
X156601082Y-63724463D01*
X156780013Y-63992252D01*
X157007748Y-64219987D01*
X157275537Y-64398918D01*
X157573088Y-64522168D01*
X157888967Y-64585000D01*
X158211033Y-64585000D01*
X158526912Y-64522168D01*
X158824463Y-64398918D01*
X159092252Y-64219987D01*
X159319987Y-63992252D01*
X159498918Y-63724463D01*
X159622168Y-63426912D01*
X159685000Y-63111033D01*
X159685000Y-62788967D01*
X159622168Y-62473088D01*
X159498918Y-62175537D01*
X159319987Y-61907748D01*
X159092252Y-61680013D01*
X158824463Y-61501082D01*
X158526912Y-61377832D01*
X158211033Y-61315000D01*
X157888967Y-61315000D01*
X157573088Y-61377832D01*
X157275537Y-61501082D01*
X157007748Y-61680013D01*
X156780013Y-61907748D01*
X156601082Y-62175537D01*
X156477832Y-62473088D01*
X156415000Y-62788967D01*
X149160000Y-62788967D01*
X149160000Y-61312640D01*
X149280013Y-61492252D01*
X149507748Y-61719987D01*
X149775537Y-61898918D01*
X150073088Y-62022168D01*
X150388967Y-62085000D01*
X150711033Y-62085000D01*
X151026912Y-62022168D01*
X151324463Y-61898918D01*
X151592252Y-61719987D01*
X151819987Y-61492252D01*
X151998918Y-61224463D01*
X152122168Y-60926912D01*
X152185000Y-60611033D01*
X152185000Y-60288967D01*
X153915000Y-60288967D01*
X153915000Y-60611033D01*
X153977832Y-60926912D01*
X154101082Y-61224463D01*
X154280013Y-61492252D01*
X154507748Y-61719987D01*
X154775537Y-61898918D01*
X155073088Y-62022168D01*
X155388967Y-62085000D01*
X155711033Y-62085000D01*
X156026912Y-62022168D01*
X156324463Y-61898918D01*
X156592252Y-61719987D01*
X156819987Y-61492252D01*
X156998918Y-61224463D01*
X157122168Y-60926912D01*
X157185000Y-60611033D01*
X157185000Y-60288967D01*
X158915000Y-60288967D01*
X158915000Y-60611033D01*
X158977832Y-60926912D01*
X159101082Y-61224463D01*
X159280013Y-61492252D01*
X159507748Y-61719987D01*
X159775537Y-61898918D01*
X160073088Y-62022168D01*
X160388967Y-62085000D01*
X160711033Y-62085000D01*
X161026912Y-62022168D01*
X161324463Y-61898918D01*
X161592252Y-61719987D01*
X161819987Y-61492252D01*
X161998918Y-61224463D01*
X162122168Y-60926912D01*
X162185000Y-60611033D01*
X162185000Y-60288967D01*
X163915000Y-60288967D01*
X163915000Y-60611033D01*
X163977832Y-60926912D01*
X164101082Y-61224463D01*
X164280013Y-61492252D01*
X164507748Y-61719987D01*
X164775537Y-61898918D01*
X165073088Y-62022168D01*
X165388967Y-62085000D01*
X165711033Y-62085000D01*
X166026912Y-62022168D01*
X166324463Y-61898918D01*
X166592252Y-61719987D01*
X166819987Y-61492252D01*
X166998918Y-61224463D01*
X167122168Y-60926912D01*
X167185000Y-60611033D01*
X167185000Y-60288967D01*
X167122168Y-59973088D01*
X166998918Y-59675537D01*
X166819987Y-59407748D01*
X166592252Y-59180013D01*
X166324463Y-59001082D01*
X166026912Y-58877832D01*
X165711033Y-58815000D01*
X165388967Y-58815000D01*
X165073088Y-58877832D01*
X164775537Y-59001082D01*
X164507748Y-59180013D01*
X164280013Y-59407748D01*
X164101082Y-59675537D01*
X163977832Y-59973088D01*
X163915000Y-60288967D01*
X162185000Y-60288967D01*
X162122168Y-59973088D01*
X161998918Y-59675537D01*
X161819987Y-59407748D01*
X161592252Y-59180013D01*
X161324463Y-59001082D01*
X161026912Y-58877832D01*
X160711033Y-58815000D01*
X160388967Y-58815000D01*
X160073088Y-58877832D01*
X159775537Y-59001082D01*
X159507748Y-59180013D01*
X159280013Y-59407748D01*
X159101082Y-59675537D01*
X158977832Y-59973088D01*
X158915000Y-60288967D01*
X157185000Y-60288967D01*
X157122168Y-59973088D01*
X156998918Y-59675537D01*
X156819987Y-59407748D01*
X156592252Y-59180013D01*
X156450674Y-59085413D01*
X157094192Y-59085413D01*
X157189956Y-59349814D01*
X157479571Y-59490704D01*
X157791108Y-59572384D01*
X158112595Y-59591718D01*
X158431675Y-59547961D01*
X158736088Y-59442795D01*
X158910044Y-59349814D01*
X159005808Y-59085413D01*
X158050000Y-58129605D01*
X157094192Y-59085413D01*
X156450674Y-59085413D01*
X156324463Y-59001082D01*
X156026912Y-58877832D01*
X155711033Y-58815000D01*
X155388967Y-58815000D01*
X155073088Y-58877832D01*
X154775537Y-59001082D01*
X154507748Y-59180013D01*
X154280013Y-59407748D01*
X154101082Y-59675537D01*
X153977832Y-59973088D01*
X153915000Y-60288967D01*
X152185000Y-60288967D01*
X152122168Y-59973088D01*
X151998918Y-59675537D01*
X151819987Y-59407748D01*
X151592252Y-59180013D01*
X151324463Y-59001082D01*
X151026912Y-58877832D01*
X150711033Y-58815000D01*
X150388967Y-58815000D01*
X150073088Y-58877832D01*
X149775537Y-59001082D01*
X149507748Y-59180013D01*
X149280013Y-59407748D01*
X149160000Y-59587360D01*
X149160000Y-57788967D01*
X151415000Y-57788967D01*
X151415000Y-58111033D01*
X151477832Y-58426912D01*
X151601082Y-58724463D01*
X151780013Y-58992252D01*
X152007748Y-59219987D01*
X152275537Y-59398918D01*
X152573088Y-59522168D01*
X152888967Y-59585000D01*
X153211033Y-59585000D01*
X153526912Y-59522168D01*
X153824463Y-59398918D01*
X154092252Y-59219987D01*
X154319987Y-58992252D01*
X154498918Y-58724463D01*
X154622168Y-58426912D01*
X154685000Y-58111033D01*
X154685000Y-58012595D01*
X156408282Y-58012595D01*
X156452039Y-58331675D01*
X156557205Y-58636088D01*
X156650186Y-58810044D01*
X156914587Y-58905808D01*
X157870395Y-57950000D01*
X158229605Y-57950000D01*
X159185413Y-58905808D01*
X159449814Y-58810044D01*
X159590704Y-58520429D01*
X159672384Y-58208892D01*
X159691718Y-57887405D01*
X159647961Y-57568325D01*
X159542795Y-57263912D01*
X159449814Y-57089956D01*
X159185413Y-56994192D01*
X158229605Y-57950000D01*
X157870395Y-57950000D01*
X156914587Y-56994192D01*
X156650186Y-57089956D01*
X156509296Y-57379571D01*
X156427616Y-57691108D01*
X156408282Y-58012595D01*
X154685000Y-58012595D01*
X154685000Y-57788967D01*
X154622168Y-57473088D01*
X154498918Y-57175537D01*
X154319987Y-56907748D01*
X154226826Y-56814587D01*
X157094192Y-56814587D01*
X158050000Y-57770395D01*
X159005808Y-56814587D01*
X158910044Y-56550186D01*
X158620429Y-56409296D01*
X158308892Y-56327616D01*
X157987405Y-56308282D01*
X157668325Y-56352039D01*
X157363912Y-56457205D01*
X157189956Y-56550186D01*
X157094192Y-56814587D01*
X154226826Y-56814587D01*
X154092252Y-56680013D01*
X153824463Y-56501082D01*
X153526912Y-56377832D01*
X153211033Y-56315000D01*
X152888967Y-56315000D01*
X152573088Y-56377832D01*
X152275537Y-56501082D01*
X152007748Y-56680013D01*
X151780013Y-56907748D01*
X151601082Y-57175537D01*
X151477832Y-57473088D01*
X151415000Y-57788967D01*
X149160000Y-57788967D01*
X149160000Y-56883322D01*
X149163676Y-56845999D01*
X149160000Y-56808676D01*
X149160000Y-56808667D01*
X149149003Y-56697014D01*
X149105546Y-56553753D01*
X149034974Y-56421724D01*
X148940001Y-56305999D01*
X148911003Y-56282201D01*
X146067826Y-53439025D01*
X146072902Y-53422291D01*
X146099720Y-53150000D01*
X146072902Y-52877709D01*
X146040007Y-52769268D01*
X148715000Y-52769268D01*
X148715000Y-53130732D01*
X148785518Y-53485250D01*
X148923844Y-53819199D01*
X149124662Y-54119744D01*
X149380256Y-54375338D01*
X149680801Y-54576156D01*
X150014750Y-54714482D01*
X150369268Y-54785000D01*
X150730732Y-54785000D01*
X151085250Y-54714482D01*
X151419199Y-54576156D01*
X151719744Y-54375338D01*
X151975338Y-54119744D01*
X152176156Y-53819199D01*
X152314482Y-53485250D01*
X152385000Y-53130732D01*
X152385000Y-52769268D01*
X152314482Y-52414750D01*
X152176156Y-52080801D01*
X151975338Y-51780256D01*
X151719744Y-51524662D01*
X151419199Y-51323844D01*
X151085250Y-51185518D01*
X150730732Y-51115000D01*
X150369268Y-51115000D01*
X150014750Y-51185518D01*
X149680801Y-51323844D01*
X149380256Y-51524662D01*
X149124662Y-51780256D01*
X148923844Y-52080801D01*
X148785518Y-52414750D01*
X148715000Y-52769268D01*
X146040007Y-52769268D01*
X145993477Y-52615881D01*
X145864499Y-52374580D01*
X145690923Y-52163077D01*
X145479420Y-51989501D01*
X145238119Y-51860523D01*
X144976291Y-51781098D01*
X144772230Y-51761000D01*
X143540795Y-51761000D01*
X143581284Y-51734354D01*
X143775974Y-51542369D01*
X143929469Y-51316091D01*
X144035870Y-51064215D01*
X144050286Y-50991814D01*
X143927677Y-50777000D01*
X142077000Y-50777000D01*
X142077000Y-52039000D01*
X142360265Y-52039000D01*
X142209077Y-52163077D01*
X142035501Y-52374580D01*
X141906523Y-52615881D01*
X141827098Y-52877709D01*
X141800280Y-53150000D01*
X141827098Y-53422291D01*
X141906523Y-53684119D01*
X142035501Y-53925420D01*
X142209077Y-54136923D01*
X142420580Y-54310499D01*
X142661881Y-54439477D01*
X142923709Y-54518902D01*
X143127770Y-54539000D01*
X144772230Y-54539000D01*
X144976291Y-54518902D01*
X144993025Y-54513826D01*
X147640001Y-57160803D01*
X147640001Y-62358732D01*
X147634547Y-62340754D01*
X147563975Y-62208725D01*
X147492800Y-62121998D01*
X147469002Y-62093000D01*
X147440004Y-62069202D01*
X145285143Y-59914342D01*
X145479420Y-59810499D01*
X145690923Y-59636923D01*
X145864499Y-59425420D01*
X145993477Y-59184119D01*
X146072902Y-58922291D01*
X146099720Y-58650000D01*
X146072902Y-58377709D01*
X145993477Y-58115881D01*
X145864499Y-57874580D01*
X145690923Y-57663077D01*
X145479420Y-57489501D01*
X145238119Y-57360523D01*
X144976291Y-57281098D01*
X144772230Y-57261000D01*
X144000490Y-57261000D01*
X144072902Y-57022291D01*
X144099720Y-56750000D01*
X144072902Y-56477709D01*
X143993477Y-56215881D01*
X143864499Y-55974580D01*
X143690923Y-55763077D01*
X143479420Y-55589501D01*
X143238119Y-55460523D01*
X142976291Y-55381098D01*
X142772230Y-55361000D01*
X141127770Y-55361000D01*
X140923709Y-55381098D01*
X140661881Y-55460523D01*
X140420580Y-55589501D01*
X140209077Y-55763077D01*
X140035501Y-55974580D01*
X139906523Y-56215881D01*
X139827098Y-56477709D01*
X139800280Y-56750000D01*
X139827098Y-57022291D01*
X139906523Y-57284119D01*
X140035501Y-57525420D01*
X140209077Y-57736923D01*
X140420580Y-57910499D01*
X140661881Y-58039477D01*
X140923709Y-58118902D01*
X141127770Y-58139000D01*
X141899510Y-58139000D01*
X141827098Y-58377709D01*
X141800280Y-58650000D01*
X141827098Y-58922291D01*
X141906523Y-59184119D01*
X142035501Y-59425420D01*
X142209077Y-59636923D01*
X142420580Y-59810499D01*
X142661881Y-59939477D01*
X142923709Y-60018902D01*
X143127770Y-60039000D01*
X143294032Y-60039000D01*
X143315026Y-60078276D01*
X143320438Y-60084870D01*
X143409999Y-60194001D01*
X143439003Y-60217804D01*
X146169002Y-62947804D01*
X146169001Y-67288275D01*
X146031880Y-67261000D01*
X145768120Y-67261000D01*
X145509428Y-67312457D01*
X145265746Y-67413393D01*
X145046437Y-67559931D01*
X144859931Y-67746437D01*
X144713393Y-67965746D01*
X144612457Y-68209428D01*
X144561000Y-68468120D01*
X144561000Y-68731880D01*
X144612457Y-68990572D01*
X144713393Y-69234254D01*
X144859931Y-69453563D01*
X145046437Y-69640069D01*
X145265746Y-69786607D01*
X145509428Y-69887543D01*
X145768120Y-69939000D01*
X146031880Y-69939000D01*
X146290572Y-69887543D01*
X146518381Y-69793182D01*
X147082953Y-70357755D01*
X147061000Y-70468120D01*
X147061000Y-70731880D01*
X147112457Y-70990572D01*
X147213393Y-71234254D01*
X147359931Y-71453563D01*
X147506368Y-71600000D01*
X147359931Y-71746437D01*
X147239000Y-71927423D01*
X147239000Y-71768120D01*
X147187543Y-71509428D01*
X147086607Y-71265746D01*
X146940069Y-71046437D01*
X146753563Y-70859931D01*
X146534254Y-70713393D01*
X146290572Y-70612457D01*
X146031880Y-70561000D01*
X145768120Y-70561000D01*
X145509428Y-70612457D01*
X145265746Y-70713393D01*
X145046437Y-70859931D01*
X144859931Y-71046437D01*
X144713393Y-71265746D01*
X144612457Y-71509428D01*
X144561000Y-71768120D01*
X144561000Y-72031880D01*
X144612457Y-72290572D01*
X144713393Y-72534254D01*
X144815387Y-72686898D01*
X144744815Y-72744815D01*
X144665463Y-72841506D01*
X144606498Y-72951820D01*
X144570188Y-73071518D01*
X144557928Y-73196000D01*
X144557928Y-74604000D01*
X144570188Y-74728482D01*
X144595219Y-74810999D01*
X144066323Y-74810999D01*
X144029000Y-74807323D01*
X143991677Y-74810999D01*
X143991668Y-74810999D01*
X143880015Y-74821996D01*
X143762138Y-74857753D01*
X143736754Y-74865453D01*
X143604724Y-74936025D01*
X143577346Y-74958494D01*
X143489000Y-75030998D01*
X143465202Y-75059996D01*
X139710000Y-78815199D01*
X139710000Y-72737000D01*
X140605000Y-72737000D01*
X140605000Y-73587000D01*
X140658310Y-73874269D01*
X140766639Y-74145618D01*
X140925824Y-74390619D01*
X141129748Y-74599857D01*
X141370574Y-74765291D01*
X141639047Y-74880563D01*
X141733110Y-74901476D01*
X141963000Y-74780155D01*
X141963000Y-72737000D01*
X142217000Y-72737000D01*
X142217000Y-74780155D01*
X142446890Y-74901476D01*
X142540953Y-74880563D01*
X142809426Y-74765291D01*
X143050252Y-74599857D01*
X143254176Y-74390619D01*
X143413361Y-74145618D01*
X143521690Y-73874269D01*
X143575000Y-73587000D01*
X143575000Y-72737000D01*
X142217000Y-72737000D01*
X141963000Y-72737000D01*
X140605000Y-72737000D01*
X139710000Y-72737000D01*
X139710000Y-71633000D01*
X140605000Y-71633000D01*
X140605000Y-72483000D01*
X141963000Y-72483000D01*
X141963000Y-70439845D01*
X142217000Y-70439845D01*
X142217000Y-72483000D01*
X143575000Y-72483000D01*
X143575000Y-71633000D01*
X143521690Y-71345731D01*
X143413361Y-71074382D01*
X143254176Y-70829381D01*
X143050252Y-70620143D01*
X142809426Y-70454709D01*
X142540953Y-70339437D01*
X142446890Y-70318524D01*
X142217000Y-70439845D01*
X141963000Y-70439845D01*
X141733110Y-70318524D01*
X141639047Y-70339437D01*
X141370574Y-70454709D01*
X141129748Y-70620143D01*
X140925824Y-70829381D01*
X140766639Y-71074382D01*
X140658310Y-71345731D01*
X140605000Y-71633000D01*
X139710000Y-71633000D01*
X139710000Y-66912845D01*
X141516761Y-66912845D01*
X141684802Y-67238643D01*
X142076607Y-67439426D01*
X142500055Y-67559914D01*
X142938873Y-67595476D01*
X143376197Y-67544746D01*
X143795221Y-67409674D01*
X144115198Y-67238643D01*
X144283239Y-66912845D01*
X142900000Y-65529605D01*
X141516761Y-66912845D01*
X139710000Y-66912845D01*
X139710000Y-65388873D01*
X140654524Y-65388873D01*
X140705254Y-65826197D01*
X140840326Y-66245221D01*
X141011357Y-66565198D01*
X141337155Y-66733239D01*
X142720395Y-65350000D01*
X143079605Y-65350000D01*
X144462845Y-66733239D01*
X144788643Y-66565198D01*
X144989426Y-66173393D01*
X145109914Y-65749945D01*
X145145476Y-65311127D01*
X145094746Y-64873803D01*
X144959674Y-64454779D01*
X144788643Y-64134802D01*
X144462845Y-63966761D01*
X143079605Y-65350000D01*
X142720395Y-65350000D01*
X141337155Y-63966761D01*
X141011357Y-64134802D01*
X140810574Y-64526607D01*
X140690086Y-64950055D01*
X140654524Y-65388873D01*
X139710000Y-65388873D01*
X139710000Y-62250000D01*
X139800280Y-62250000D01*
X139827098Y-62522291D01*
X139906523Y-62784119D01*
X140035501Y-63025420D01*
X140209077Y-63236923D01*
X140420580Y-63410499D01*
X140661881Y-63539477D01*
X140923709Y-63618902D01*
X141127770Y-63639000D01*
X141593177Y-63639000D01*
X141516761Y-63787155D01*
X142900000Y-65170395D01*
X144283239Y-63787155D01*
X144115198Y-63461357D01*
X143723393Y-63260574D01*
X143677883Y-63247625D01*
X143690923Y-63236923D01*
X143864499Y-63025420D01*
X143993477Y-62784119D01*
X144072902Y-62522291D01*
X144099720Y-62250000D01*
X144072902Y-61977709D01*
X143993477Y-61715881D01*
X143864499Y-61474580D01*
X143690923Y-61263077D01*
X143479420Y-61089501D01*
X143238119Y-60960523D01*
X142976291Y-60881098D01*
X142772230Y-60861000D01*
X141127770Y-60861000D01*
X140923709Y-60881098D01*
X140661881Y-60960523D01*
X140420580Y-61089501D01*
X140209077Y-61263077D01*
X140035501Y-61474580D01*
X139906523Y-61715881D01*
X139827098Y-61977709D01*
X139800280Y-62250000D01*
X139710000Y-62250000D01*
X139710000Y-51684851D01*
X140014275Y-51380577D01*
X140124026Y-51542369D01*
X140318716Y-51734354D01*
X140547120Y-51884668D01*
X140800460Y-51987534D01*
X141069000Y-52039000D01*
X141823000Y-52039000D01*
X141823000Y-50777000D01*
X141803000Y-50777000D01*
X141803000Y-50523000D01*
X141823000Y-50523000D01*
X141823000Y-50503000D01*
X142077000Y-50503000D01*
X142077000Y-50523000D01*
X143927677Y-50523000D01*
X144037270Y-50330990D01*
X154356189Y-50330990D01*
X161483823Y-57458625D01*
X161477832Y-57473088D01*
X161415000Y-57788967D01*
X161415000Y-58111033D01*
X161477832Y-58426912D01*
X161601082Y-58724463D01*
X161780013Y-58992252D01*
X162007748Y-59219987D01*
X162275537Y-59398918D01*
X162573088Y-59522168D01*
X162888967Y-59585000D01*
X163211033Y-59585000D01*
X163526912Y-59522168D01*
X163824463Y-59398918D01*
X164092252Y-59219987D01*
X164319987Y-58992252D01*
X164498918Y-58724463D01*
X164622168Y-58426912D01*
X164685000Y-58111033D01*
X164685000Y-57788967D01*
X164622168Y-57473088D01*
X164498918Y-57175537D01*
X164319987Y-56907748D01*
X164092252Y-56680013D01*
X163824463Y-56501082D01*
X163526912Y-56377832D01*
X163211033Y-56315000D01*
X162888967Y-56315000D01*
X162573088Y-56377832D01*
X162558625Y-56383823D01*
X162374802Y-56200000D01*
X171561928Y-56200000D01*
X171561928Y-57800000D01*
X171574188Y-57924482D01*
X171610498Y-58044180D01*
X171669463Y-58154494D01*
X171748815Y-58251185D01*
X171845506Y-58330537D01*
X171900612Y-58359992D01*
X171885363Y-58375241D01*
X171728320Y-58610273D01*
X171620147Y-58871426D01*
X171565000Y-59148665D01*
X171565000Y-59431335D01*
X171620147Y-59708574D01*
X171728320Y-59969727D01*
X171885363Y-60204759D01*
X172085241Y-60404637D01*
X172130683Y-60435000D01*
X172085241Y-60465363D01*
X171885363Y-60665241D01*
X171728320Y-60900273D01*
X171620147Y-61161426D01*
X171565000Y-61438665D01*
X171565000Y-61721335D01*
X171620147Y-61998574D01*
X171728320Y-62259727D01*
X171885363Y-62494759D01*
X172085241Y-62694637D01*
X172130683Y-62725000D01*
X172085241Y-62755363D01*
X171885363Y-62955241D01*
X171728320Y-63190273D01*
X171620147Y-63451426D01*
X171565000Y-63728665D01*
X171565000Y-64011335D01*
X171620147Y-64288574D01*
X171728320Y-64549727D01*
X171885363Y-64784759D01*
X172085241Y-64984637D01*
X172215049Y-65071372D01*
X172186903Y-65167298D01*
X173000000Y-65980395D01*
X173813097Y-65167298D01*
X173784951Y-65071372D01*
X173914759Y-64984637D01*
X174114637Y-64784759D01*
X174120529Y-64775941D01*
X174113700Y-64803184D01*
X174099783Y-65085512D01*
X174141213Y-65365130D01*
X174151340Y-65393449D01*
X173992702Y-65346903D01*
X173179605Y-66160000D01*
X173992702Y-66973097D01*
X174236671Y-66901514D01*
X174357571Y-66646004D01*
X174426300Y-66371816D01*
X174440217Y-66089488D01*
X174428100Y-66007702D01*
X174726903Y-66007702D01*
X174798486Y-66251671D01*
X175053996Y-66372571D01*
X175328184Y-66441300D01*
X175610512Y-66455217D01*
X175890130Y-66413787D01*
X176156292Y-66318603D01*
X176281514Y-66251671D01*
X176353097Y-66007702D01*
X175540000Y-65194605D01*
X174726903Y-66007702D01*
X174428100Y-66007702D01*
X174398787Y-65809870D01*
X174388660Y-65781551D01*
X174547298Y-65828097D01*
X175360395Y-65015000D01*
X174547298Y-64201903D01*
X174387783Y-64248706D01*
X174435000Y-64011335D01*
X174435000Y-63728665D01*
X174413904Y-63622609D01*
X174425363Y-63639759D01*
X174625241Y-63839637D01*
X174755049Y-63926372D01*
X174726903Y-64022298D01*
X175540000Y-64835395D01*
X176353097Y-64022298D01*
X176324951Y-63926372D01*
X176454759Y-63839637D01*
X176654637Y-63639759D01*
X176666096Y-63622609D01*
X176645000Y-63728665D01*
X176645000Y-64011335D01*
X176692217Y-64248706D01*
X176532702Y-64201903D01*
X175719605Y-65015000D01*
X176532702Y-65828097D01*
X176692217Y-65781294D01*
X176645000Y-66018665D01*
X176645000Y-66301335D01*
X176700147Y-66578574D01*
X176808320Y-66839727D01*
X176965363Y-67074759D01*
X177165241Y-67274637D01*
X177400273Y-67431680D01*
X177661426Y-67539853D01*
X177938665Y-67595000D01*
X178221335Y-67595000D01*
X178498574Y-67539853D01*
X178759727Y-67431680D01*
X178994759Y-67274637D01*
X179194637Y-67074759D01*
X179351680Y-66839727D01*
X179459853Y-66578574D01*
X179515000Y-66301335D01*
X179515000Y-66018665D01*
X179459853Y-65741426D01*
X179351680Y-65480273D01*
X179194637Y-65245241D01*
X178994759Y-65045363D01*
X178949317Y-65015000D01*
X178994759Y-64984637D01*
X179194637Y-64784759D01*
X179351680Y-64549727D01*
X179459853Y-64288574D01*
X179515000Y-64011335D01*
X179515000Y-63728665D01*
X179459853Y-63451426D01*
X179351680Y-63190273D01*
X179194637Y-62955241D01*
X178994759Y-62755363D01*
X178949317Y-62725000D01*
X178994759Y-62694637D01*
X179194637Y-62494759D01*
X179351680Y-62259727D01*
X179459853Y-61998574D01*
X179515000Y-61721335D01*
X179515000Y-61438665D01*
X179459853Y-61161426D01*
X179351680Y-60900273D01*
X179194637Y-60665241D01*
X178994759Y-60465363D01*
X178949317Y-60435000D01*
X178994759Y-60404637D01*
X179194637Y-60204759D01*
X179351680Y-59969727D01*
X179459853Y-59708574D01*
X179515000Y-59431335D01*
X179515000Y-59148665D01*
X179459853Y-58871426D01*
X179351680Y-58610273D01*
X179194637Y-58375241D01*
X178994759Y-58175363D01*
X178949317Y-58145000D01*
X178994759Y-58114637D01*
X179194637Y-57914759D01*
X179351680Y-57679727D01*
X179459853Y-57418574D01*
X179515000Y-57141335D01*
X179515000Y-56858665D01*
X179459853Y-56581426D01*
X179351680Y-56320273D01*
X179194637Y-56085241D01*
X178994759Y-55885363D01*
X178759727Y-55728320D01*
X178498574Y-55620147D01*
X178221335Y-55565000D01*
X177938665Y-55565000D01*
X177661426Y-55620147D01*
X177400273Y-55728320D01*
X177165241Y-55885363D01*
X176965363Y-56085241D01*
X176959471Y-56094059D01*
X176966300Y-56066816D01*
X176980217Y-55784488D01*
X176938787Y-55504870D01*
X176843603Y-55238708D01*
X176776671Y-55113486D01*
X176532702Y-55041903D01*
X175719605Y-55855000D01*
X176532702Y-56668097D01*
X176692217Y-56621294D01*
X176645000Y-56858665D01*
X176645000Y-57141335D01*
X176692217Y-57378706D01*
X176532702Y-57331903D01*
X175719605Y-58145000D01*
X176532702Y-58958097D01*
X176692217Y-58911294D01*
X176645000Y-59148665D01*
X176645000Y-59431335D01*
X176692217Y-59668706D01*
X176532702Y-59621903D01*
X175719605Y-60435000D01*
X176532702Y-61248097D01*
X176692217Y-61201294D01*
X176645000Y-61438665D01*
X176645000Y-61721335D01*
X176666096Y-61827391D01*
X176654637Y-61810241D01*
X176454759Y-61610363D01*
X176324951Y-61523628D01*
X176353097Y-61427702D01*
X175540000Y-60614605D01*
X174726903Y-61427702D01*
X174755049Y-61523628D01*
X174625241Y-61610363D01*
X174425363Y-61810241D01*
X174413904Y-61827391D01*
X174435000Y-61721335D01*
X174435000Y-61438665D01*
X174387783Y-61201294D01*
X174547298Y-61248097D01*
X175360395Y-60435000D01*
X174547298Y-59621903D01*
X174387783Y-59668706D01*
X174435000Y-59431335D01*
X174435000Y-59148665D01*
X174432820Y-59137702D01*
X174726903Y-59137702D01*
X174771589Y-59290000D01*
X174726903Y-59442298D01*
X175540000Y-60255395D01*
X176353097Y-59442298D01*
X176308411Y-59290000D01*
X176353097Y-59137702D01*
X175540000Y-58324605D01*
X174726903Y-59137702D01*
X174432820Y-59137702D01*
X174387783Y-58911294D01*
X174547298Y-58958097D01*
X175360395Y-58145000D01*
X174547298Y-57331903D01*
X174438072Y-57363951D01*
X174438072Y-56847702D01*
X174726903Y-56847702D01*
X174771589Y-57000000D01*
X174726903Y-57152298D01*
X175540000Y-57965395D01*
X176353097Y-57152298D01*
X176308411Y-57000000D01*
X176353097Y-56847702D01*
X175540000Y-56034605D01*
X174726903Y-56847702D01*
X174438072Y-56847702D01*
X174438072Y-56636049D01*
X174547298Y-56668097D01*
X175360395Y-55855000D01*
X174547298Y-55041903D01*
X174303329Y-55113486D01*
X174182429Y-55368996D01*
X174113700Y-55643184D01*
X174113485Y-55647543D01*
X174044180Y-55610498D01*
X173924482Y-55574188D01*
X173800000Y-55561928D01*
X172200000Y-55561928D01*
X172075518Y-55574188D01*
X171955820Y-55610498D01*
X171845506Y-55669463D01*
X171748815Y-55748815D01*
X171669463Y-55845506D01*
X171610498Y-55955820D01*
X171574188Y-56075518D01*
X171561928Y-56200000D01*
X162374802Y-56200000D01*
X161037100Y-54862298D01*
X174726903Y-54862298D01*
X175540000Y-55675395D01*
X176353097Y-54862298D01*
X176281514Y-54618329D01*
X176026004Y-54497429D01*
X175751816Y-54428700D01*
X175469488Y-54414783D01*
X175189870Y-54456213D01*
X174923708Y-54551397D01*
X174798486Y-54618329D01*
X174726903Y-54862298D01*
X161037100Y-54862298D01*
X158944070Y-52769268D01*
X163715000Y-52769268D01*
X163715000Y-53130732D01*
X163785518Y-53485250D01*
X163923844Y-53819199D01*
X164124662Y-54119744D01*
X164380256Y-54375338D01*
X164680801Y-54576156D01*
X165014750Y-54714482D01*
X165369268Y-54785000D01*
X165730732Y-54785000D01*
X166085250Y-54714482D01*
X166419199Y-54576156D01*
X166719744Y-54375338D01*
X166975338Y-54119744D01*
X167176156Y-53819199D01*
X167314482Y-53485250D01*
X167385000Y-53130732D01*
X167385000Y-52769268D01*
X167314482Y-52414750D01*
X167176156Y-52080801D01*
X166975338Y-51780256D01*
X166719744Y-51524662D01*
X166419199Y-51323844D01*
X166085250Y-51185518D01*
X165730732Y-51115000D01*
X165369268Y-51115000D01*
X165014750Y-51185518D01*
X164680801Y-51323844D01*
X164380256Y-51524662D01*
X164124662Y-51780256D01*
X163923844Y-52080801D01*
X163785518Y-52414750D01*
X163715000Y-52769268D01*
X158944070Y-52769268D01*
X156837301Y-50662499D01*
X173872106Y-50662499D01*
X174088228Y-51029258D01*
X174548105Y-51269938D01*
X175046098Y-51416275D01*
X175563071Y-51462648D01*
X176079159Y-51407273D01*
X176574526Y-51252279D01*
X176991772Y-51029258D01*
X177207894Y-50662499D01*
X175540000Y-48994605D01*
X173872106Y-50662499D01*
X156837301Y-50662499D01*
X155747956Y-49573155D01*
X155931675Y-49547961D01*
X156236088Y-49442795D01*
X156410044Y-49349814D01*
X156505808Y-49085413D01*
X159594192Y-49085413D01*
X159689956Y-49349814D01*
X159979571Y-49490704D01*
X160291108Y-49572384D01*
X160612595Y-49591718D01*
X160931675Y-49547961D01*
X161236088Y-49442795D01*
X161410044Y-49349814D01*
X161505808Y-49085413D01*
X160550000Y-48129605D01*
X159594192Y-49085413D01*
X156505808Y-49085413D01*
X155550000Y-48129605D01*
X155535858Y-48143748D01*
X155356253Y-47964143D01*
X155370395Y-47950000D01*
X155729605Y-47950000D01*
X156685413Y-48905808D01*
X156949814Y-48810044D01*
X157090704Y-48520429D01*
X157172384Y-48208892D01*
X157184189Y-48012595D01*
X158908282Y-48012595D01*
X158952039Y-48331675D01*
X159057205Y-48636088D01*
X159150186Y-48810044D01*
X159414587Y-48905808D01*
X160370395Y-47950000D01*
X160729605Y-47950000D01*
X161685413Y-48905808D01*
X161872432Y-48838071D01*
X172892352Y-48838071D01*
X172947727Y-49354159D01*
X173102721Y-49849526D01*
X173325742Y-50266772D01*
X173692501Y-50482894D01*
X175360395Y-48815000D01*
X175719605Y-48815000D01*
X177387499Y-50482894D01*
X177754258Y-50266772D01*
X177994938Y-49806895D01*
X178141275Y-49308902D01*
X178187648Y-48791929D01*
X178132273Y-48275841D01*
X177977279Y-47780474D01*
X177754258Y-47363228D01*
X177387499Y-47147106D01*
X175719605Y-48815000D01*
X175360395Y-48815000D01*
X173692501Y-47147106D01*
X173325742Y-47363228D01*
X173085062Y-47823105D01*
X172938725Y-48321098D01*
X172892352Y-48838071D01*
X161872432Y-48838071D01*
X161949814Y-48810044D01*
X162090704Y-48520429D01*
X162172384Y-48208892D01*
X162191718Y-47887405D01*
X162147961Y-47568325D01*
X162042795Y-47263912D01*
X161949814Y-47089956D01*
X161685413Y-46994192D01*
X160729605Y-47950000D01*
X160370395Y-47950000D01*
X159414587Y-46994192D01*
X159150186Y-47089956D01*
X159009296Y-47379571D01*
X158927616Y-47691108D01*
X158908282Y-48012595D01*
X157184189Y-48012595D01*
X157191718Y-47887405D01*
X157147961Y-47568325D01*
X157042795Y-47263912D01*
X156949814Y-47089956D01*
X156685413Y-46994192D01*
X155729605Y-47950000D01*
X155370395Y-47950000D01*
X154414587Y-46994192D01*
X154150186Y-47089956D01*
X154009296Y-47379571D01*
X153927616Y-47691108D01*
X153908282Y-48012595D01*
X153952039Y-48331675D01*
X154057205Y-48636088D01*
X154150186Y-48810044D01*
X154152798Y-48810990D01*
X140786382Y-48810990D01*
X140749059Y-48807314D01*
X140711736Y-48810990D01*
X140711727Y-48810990D01*
X140600074Y-48821987D01*
X140456813Y-48865444D01*
X140324783Y-48936016D01*
X140253393Y-48994605D01*
X140209059Y-49030989D01*
X140185261Y-49059987D01*
X138439003Y-50806246D01*
X138409999Y-50830049D01*
X138354871Y-50897224D01*
X138315026Y-50945774D01*
X138290417Y-50991814D01*
X138244454Y-51077804D01*
X138200997Y-51221065D01*
X138190000Y-51332718D01*
X138190000Y-51332728D01*
X138186324Y-51370050D01*
X138190000Y-51407372D01*
X138190001Y-80452321D01*
X138060000Y-80521808D01*
X138060000Y-46814587D01*
X154594192Y-46814587D01*
X155550000Y-47770395D01*
X156505808Y-46814587D01*
X159594192Y-46814587D01*
X160550000Y-47770395D01*
X161352894Y-46967501D01*
X173872106Y-46967501D01*
X175540000Y-48635395D01*
X177207894Y-46967501D01*
X176991772Y-46600742D01*
X176531895Y-46360062D01*
X176033902Y-46213725D01*
X175516929Y-46167352D01*
X175000841Y-46222727D01*
X174505474Y-46377721D01*
X174088228Y-46600742D01*
X173872106Y-46967501D01*
X161352894Y-46967501D01*
X161505808Y-46814587D01*
X161410044Y-46550186D01*
X161120429Y-46409296D01*
X160808892Y-46327616D01*
X160487405Y-46308282D01*
X160168325Y-46352039D01*
X159863912Y-46457205D01*
X159689956Y-46550186D01*
X159594192Y-46814587D01*
X156505808Y-46814587D01*
X156410044Y-46550186D01*
X156120429Y-46409296D01*
X155808892Y-46327616D01*
X155487405Y-46308282D01*
X155168325Y-46352039D01*
X154863912Y-46457205D01*
X154689956Y-46550186D01*
X154594192Y-46814587D01*
X138060000Y-46814587D01*
X138060000Y-46060000D01*
X186740000Y-46060000D01*
X186740001Y-94740000D01*
G36*
X165136201Y-83411003D02*
G01*
X165159999Y-83440001D01*
X165188997Y-83463799D01*
X165275723Y-83534974D01*
X165315001Y-83555969D01*
X165315001Y-83980322D01*
X165338658Y-84220516D01*
X165412824Y-84465010D01*
X161987177Y-84465010D01*
X162061343Y-84220516D01*
X162085000Y-83980322D01*
X162085000Y-81819678D01*
X162061343Y-81579484D01*
X161967852Y-81271285D01*
X161816031Y-80987248D01*
X161611714Y-80738286D01*
X161362751Y-80533969D01*
X161078714Y-80382148D01*
X160770515Y-80288657D01*
X160450000Y-80257089D01*
X160129484Y-80288657D01*
X159821285Y-80382148D01*
X159537248Y-80533969D01*
X159288286Y-80738286D01*
X159083969Y-80987249D01*
X158932148Y-81271286D01*
X158838657Y-81579485D01*
X158815000Y-81819679D01*
X158815001Y-83980322D01*
X158838658Y-84220516D01*
X158912824Y-84465010D01*
X154487177Y-84465010D01*
X154561343Y-84220516D01*
X154585000Y-83980322D01*
X154585000Y-81819678D01*
X154561343Y-81579484D01*
X154467852Y-81271285D01*
X154316031Y-80987248D01*
X154111714Y-80738286D01*
X153862751Y-80533969D01*
X153710000Y-80452322D01*
X153710000Y-75187325D01*
X153713676Y-75150000D01*
X153710000Y-75112675D01*
X153710000Y-75112667D01*
X153699003Y-75001014D01*
X153655546Y-74857753D01*
X153584974Y-74725724D01*
X153490001Y-74609999D01*
X153461004Y-74586202D01*
X149717047Y-70842246D01*
X149739000Y-70731880D01*
X149739000Y-70468120D01*
X149687543Y-70209428D01*
X149627305Y-70063999D01*
X151789198Y-70063999D01*
X165136201Y-83411003D01*
X165136201Y-83411003D01*
G37*
X165136201Y-83411003D02*
X165159999Y-83440001D01*
X165188997Y-83463799D01*
X165275723Y-83534974D01*
X165315001Y-83555969D01*
X165315001Y-83980322D01*
X165338658Y-84220516D01*
X165412824Y-84465010D01*
X161987177Y-84465010D01*
X162061343Y-84220516D01*
X162085000Y-83980322D01*
X162085000Y-81819678D01*
X162061343Y-81579484D01*
X161967852Y-81271285D01*
X161816031Y-80987248D01*
X161611714Y-80738286D01*
X161362751Y-80533969D01*
X161078714Y-80382148D01*
X160770515Y-80288657D01*
X160450000Y-80257089D01*
X160129484Y-80288657D01*
X159821285Y-80382148D01*
X159537248Y-80533969D01*
X159288286Y-80738286D01*
X159083969Y-80987249D01*
X158932148Y-81271286D01*
X158838657Y-81579485D01*
X158815000Y-81819679D01*
X158815001Y-83980322D01*
X158838658Y-84220516D01*
X158912824Y-84465010D01*
X154487177Y-84465010D01*
X154561343Y-84220516D01*
X154585000Y-83980322D01*
X154585000Y-81819678D01*
X154561343Y-81579484D01*
X154467852Y-81271285D01*
X154316031Y-80987248D01*
X154111714Y-80738286D01*
X153862751Y-80533969D01*
X153710000Y-80452322D01*
X153710000Y-75187325D01*
X153713676Y-75150000D01*
X153710000Y-75112675D01*
X153710000Y-75112667D01*
X153699003Y-75001014D01*
X153655546Y-74857753D01*
X153584974Y-74725724D01*
X153490001Y-74609999D01*
X153461004Y-74586202D01*
X149717047Y-70842246D01*
X149739000Y-70731880D01*
X149739000Y-70468120D01*
X149687543Y-70209428D01*
X149627305Y-70063999D01*
X151789198Y-70063999D01*
X165136201Y-83411003D01*
G36*
X181216149Y-80811000D02*
G01*
X180477770Y-80811000D01*
X180273709Y-80831098D01*
X180011881Y-80910523D01*
X179770580Y-81039501D01*
X179597965Y-81181163D01*
X178480794Y-80063993D01*
X178456991Y-80034989D01*
X178341266Y-79940016D01*
X178209237Y-79869444D01*
X178065976Y-79825987D01*
X177954323Y-79814990D01*
X177954312Y-79814990D01*
X177916990Y-79811314D01*
X177879668Y-79814990D01*
X173938485Y-79814990D01*
X173901162Y-79811314D01*
X173863839Y-79814990D01*
X173863830Y-79814990D01*
X173752177Y-79825987D01*
X173608916Y-79869444D01*
X173476887Y-79940016D01*
X173361162Y-80034989D01*
X173337364Y-80063987D01*
X168936342Y-84465010D01*
X168487177Y-84465010D01*
X168561343Y-84220516D01*
X168585000Y-83980322D01*
X168585000Y-81819678D01*
X168561343Y-81579484D01*
X168511064Y-81413737D01*
X170264802Y-79660000D01*
X180065149Y-79660000D01*
X181216149Y-80811000D01*
X181216149Y-80811000D01*
G37*
X181216149Y-80811000D02*
X180477770Y-80811000D01*
X180273709Y-80831098D01*
X180011881Y-80910523D01*
X179770580Y-81039501D01*
X179597965Y-81181163D01*
X178480794Y-80063993D01*
X178456991Y-80034989D01*
X178341266Y-79940016D01*
X178209237Y-79869444D01*
X178065976Y-79825987D01*
X177954323Y-79814990D01*
X177954312Y-79814990D01*
X177916990Y-79811314D01*
X177879668Y-79814990D01*
X173938485Y-79814990D01*
X173901162Y-79811314D01*
X173863839Y-79814990D01*
X173863830Y-79814990D01*
X173752177Y-79825987D01*
X173608916Y-79869444D01*
X173476887Y-79940016D01*
X173361162Y-80034989D01*
X173337364Y-80063987D01*
X168936342Y-84465010D01*
X168487177Y-84465010D01*
X168561343Y-84220516D01*
X168585000Y-83980322D01*
X168585000Y-81819678D01*
X168561343Y-81579484D01*
X168511064Y-81413737D01*
X170264802Y-79660000D01*
X180065149Y-79660000D01*
X181216149Y-80811000D01*
M02*
