G04 #@! TF.GenerationSoftware,KiCad,Pcbnew,(5.1.0)-1*
G04 #@! TF.CreationDate,2019-07-12T21:05:45-04:00*
G04 #@! TF.ProjectId,Genesis_SMS Breakout,47656e65-7369-4735-9f53-4d5320427265,rev?*
G04 #@! TF.SameCoordinates,Original*
G04 #@! TF.FileFunction,Legend,Top*
G04 #@! TF.FilePolarity,Positive*
%FSLAX46Y46*%
G04 Gerber Fmt 4.6, Leading zero omitted, Abs format (unit mm)*
G04 Created by KiCad (PCBNEW (5.1.0)-1) date 2019-07-12 21:05:45*
%MOMM*%
%LPD*%
G04 APERTURE LIST*
%ADD10C,0.127000*%
%ADD11C,0.340000*%
%ADD12C,0.120000*%
%ADD13C,0.150000*%
%ADD14C,0.050000*%
G04 APERTURE END LIST*
D10*
X179100000Y-91400000D02*
X179100000Y-77400000D01*
X179100000Y-77400000D02*
X187300000Y-77400000D01*
X187300000Y-77400000D02*
X187300000Y-91400000D01*
X187300000Y-91400000D02*
X185400000Y-91400000D01*
X185400000Y-91400000D02*
X185400000Y-95400000D01*
X185400000Y-95400000D02*
X179400000Y-95400000D01*
X179400000Y-95400000D02*
X179400000Y-91400000D01*
X179400000Y-91400000D02*
X179100000Y-91400000D01*
D11*
X178670000Y-90200000D02*
G75*
G03X178670000Y-90200000I-170000J0D01*
G01*
X146920000Y-50650000D02*
G75*
G03X146920000Y-50650000I-170000J0D01*
G01*
D10*
X145850000Y-49450000D02*
X146150000Y-49450000D01*
X145850000Y-45450000D02*
X145850000Y-49450000D01*
X139850000Y-45450000D02*
X145850000Y-45450000D01*
X139850000Y-49450000D02*
X139850000Y-45450000D01*
X137950000Y-49450000D02*
X139850000Y-49450000D01*
X137950000Y-63450000D02*
X137950000Y-49450000D01*
X146150000Y-63450000D02*
X137950000Y-63450000D01*
X146150000Y-49450000D02*
X146150000Y-63450000D01*
X137390000Y-80000000D02*
X137390000Y-65200000D01*
X150600000Y-65200000D02*
X150600000Y-80000000D01*
X137400000Y-80000000D02*
X141100000Y-80000000D01*
X150600000Y-80000000D02*
X141100000Y-80000000D01*
X137400000Y-65200000D02*
X141100000Y-65200000D01*
X150600000Y-65200000D02*
X141100000Y-65200000D01*
D12*
X160390000Y-80410000D02*
X162740000Y-80410000D01*
X167210000Y-80410000D02*
X164860000Y-80410000D01*
X167210000Y-74654437D02*
X167210000Y-80410000D01*
X160390000Y-74654437D02*
X160390000Y-80410000D01*
X161454437Y-73590000D02*
X162740000Y-73590000D01*
X166145563Y-73590000D02*
X164860000Y-73590000D01*
X166145563Y-73590000D02*
X167210000Y-74654437D01*
X161454437Y-73590000D02*
X160390000Y-74654437D01*
X165647500Y-72562500D02*
X165647500Y-73350000D01*
X166041250Y-72956250D02*
X165253750Y-72956250D01*
X157541250Y-72956250D02*
X156753750Y-72956250D01*
X157147500Y-72562500D02*
X157147500Y-73350000D01*
X152954437Y-73590000D02*
X151890000Y-74654437D01*
X157645563Y-73590000D02*
X158710000Y-74654437D01*
X157645563Y-73590000D02*
X156360000Y-73590000D01*
X152954437Y-73590000D02*
X154240000Y-73590000D01*
X151890000Y-74654437D02*
X151890000Y-80410000D01*
X158710000Y-74654437D02*
X158710000Y-80410000D01*
X158710000Y-80410000D02*
X156360000Y-80410000D01*
X151890000Y-80410000D02*
X154240000Y-80410000D01*
X156590000Y-72010000D02*
X158940000Y-72010000D01*
X163410000Y-72010000D02*
X161060000Y-72010000D01*
X163410000Y-66254437D02*
X163410000Y-72010000D01*
X156590000Y-66254437D02*
X156590000Y-72010000D01*
X157654437Y-65190000D02*
X158940000Y-65190000D01*
X162345563Y-65190000D02*
X161060000Y-65190000D01*
X162345563Y-65190000D02*
X163410000Y-66254437D01*
X157654437Y-65190000D02*
X156590000Y-66254437D01*
X161847500Y-64162500D02*
X161847500Y-64950000D01*
X162241250Y-64556250D02*
X161453750Y-64556250D01*
X169341250Y-64556250D02*
X168553750Y-64556250D01*
X168947500Y-64162500D02*
X168947500Y-64950000D01*
X164754437Y-65190000D02*
X163690000Y-66254437D01*
X169445563Y-65190000D02*
X170510000Y-66254437D01*
X169445563Y-65190000D02*
X168160000Y-65190000D01*
X164754437Y-65190000D02*
X166040000Y-65190000D01*
X163690000Y-66254437D02*
X163690000Y-72010000D01*
X170510000Y-66254437D02*
X170510000Y-72010000D01*
X170510000Y-72010000D02*
X168160000Y-72010000D01*
X163690000Y-72010000D02*
X166040000Y-72010000D01*
X158050000Y-45450000D02*
X147450000Y-45450000D01*
X147450000Y-45450000D02*
X147450000Y-62950000D01*
X147450000Y-62950000D02*
X168650000Y-62950000D01*
X168650000Y-62950000D02*
X168650000Y-45450000D01*
X168650000Y-45450000D02*
X158050000Y-45450000D01*
D13*
X135700000Y-95400000D02*
X177700000Y-95400000D01*
D12*
X186970000Y-76800000D02*
X171360000Y-76800000D01*
X171360000Y-76800000D02*
X171360000Y-45830000D01*
X171360000Y-45830000D02*
X186970000Y-45830000D01*
X170465662Y-57250000D02*
X170465662Y-56750000D01*
X170465662Y-56750000D02*
X170898675Y-57000000D01*
X170898675Y-57000000D02*
X170465662Y-57250000D01*
X168000000Y-75425000D02*
X170000000Y-75425000D01*
X168000000Y-78225000D02*
X168000000Y-75425000D01*
X170000000Y-78225000D02*
X168000000Y-78225000D01*
X170000000Y-75425000D02*
X170000000Y-78225000D01*
X154290000Y-70246267D02*
X154290000Y-69903733D01*
X155310000Y-70246267D02*
X155310000Y-69903733D01*
X152610000Y-70246267D02*
X152610000Y-69903733D01*
X151590000Y-70246267D02*
X151590000Y-69903733D01*
X151590000Y-66046267D02*
X151590000Y-65703733D01*
X152610000Y-66046267D02*
X152610000Y-65703733D01*
X155310000Y-66071267D02*
X155310000Y-65728733D01*
X154290000Y-66071267D02*
X154290000Y-65728733D01*
D13*
X184230103Y-80542955D02*
X184230103Y-81543448D01*
X184163403Y-81743546D01*
X184030004Y-81876945D01*
X183829906Y-81943645D01*
X183696507Y-81943645D01*
X185497394Y-81009852D02*
X185497394Y-81943645D01*
X185163896Y-80476255D02*
X184830399Y-81476748D01*
X185697492Y-81476748D01*
X140086103Y-58772955D02*
X140086103Y-59773448D01*
X140019403Y-59973546D01*
X139886004Y-60106945D01*
X139685906Y-60173645D01*
X139552507Y-60173645D01*
X140619699Y-58772955D02*
X141486793Y-58772955D01*
X141019896Y-59306551D01*
X141219995Y-59306551D01*
X141353394Y-59373251D01*
X141420093Y-59439950D01*
X141486793Y-59573349D01*
X141486793Y-59906847D01*
X141420093Y-60040246D01*
X141353394Y-60106945D01*
X141219995Y-60173645D01*
X140819798Y-60173645D01*
X140686399Y-60106945D01*
X140619699Y-60040246D01*
D14*
X138052008Y-78733560D02*
X138766780Y-78733560D01*
X138909734Y-78781211D01*
X139005037Y-78876514D01*
X139052688Y-79019468D01*
X139052688Y-79114771D01*
X139052688Y-77732880D02*
X139052688Y-78304697D01*
X139052688Y-78018788D02*
X138052008Y-78018788D01*
X138194962Y-78114091D01*
X138290265Y-78209394D01*
X138337917Y-78304697D01*
D13*
X168557142Y-79566666D02*
X168604761Y-79614285D01*
X168652380Y-79757142D01*
X168652380Y-79852380D01*
X168604761Y-79995238D01*
X168509523Y-80090476D01*
X168414285Y-80138095D01*
X168223809Y-80185714D01*
X168080952Y-80185714D01*
X167890476Y-80138095D01*
X167795238Y-80090476D01*
X167700000Y-79995238D01*
X167652380Y-79852380D01*
X167652380Y-79757142D01*
X167700000Y-79614285D01*
X167747619Y-79566666D01*
X168652380Y-78614285D02*
X168652380Y-79185714D01*
X168652380Y-78900000D02*
X167652380Y-78900000D01*
X167795238Y-78995238D01*
X167890476Y-79090476D01*
X167938095Y-79185714D01*
X160007142Y-77166666D02*
X160054761Y-77214285D01*
X160102380Y-77357142D01*
X160102380Y-77452380D01*
X160054761Y-77595238D01*
X159959523Y-77690476D01*
X159864285Y-77738095D01*
X159673809Y-77785714D01*
X159530952Y-77785714D01*
X159340476Y-77738095D01*
X159245238Y-77690476D01*
X159150000Y-77595238D01*
X159102380Y-77452380D01*
X159102380Y-77357142D01*
X159150000Y-77214285D01*
X159197619Y-77166666D01*
X159197619Y-76785714D02*
X159150000Y-76738095D01*
X159102380Y-76642857D01*
X159102380Y-76404761D01*
X159150000Y-76309523D01*
X159197619Y-76261904D01*
X159292857Y-76214285D01*
X159388095Y-76214285D01*
X159530952Y-76261904D01*
X160102380Y-76833333D01*
X160102380Y-76214285D01*
X163457142Y-64366666D02*
X163504761Y-64414285D01*
X163552380Y-64557142D01*
X163552380Y-64652380D01*
X163504761Y-64795238D01*
X163409523Y-64890476D01*
X163314285Y-64938095D01*
X163123809Y-64985714D01*
X162980952Y-64985714D01*
X162790476Y-64938095D01*
X162695238Y-64890476D01*
X162600000Y-64795238D01*
X162552380Y-64652380D01*
X162552380Y-64557142D01*
X162600000Y-64414285D01*
X162647619Y-64366666D01*
X162552380Y-64033333D02*
X162552380Y-63414285D01*
X162933333Y-63747619D01*
X162933333Y-63604761D01*
X162980952Y-63509523D01*
X163028571Y-63461904D01*
X163123809Y-63414285D01*
X163361904Y-63414285D01*
X163457142Y-63461904D01*
X163504761Y-63509523D01*
X163552380Y-63604761D01*
X163552380Y-63890476D01*
X163504761Y-63985714D01*
X163457142Y-64033333D01*
X170357142Y-73366666D02*
X170404761Y-73414285D01*
X170452380Y-73557142D01*
X170452380Y-73652380D01*
X170404761Y-73795238D01*
X170309523Y-73890476D01*
X170214285Y-73938095D01*
X170023809Y-73985714D01*
X169880952Y-73985714D01*
X169690476Y-73938095D01*
X169595238Y-73890476D01*
X169500000Y-73795238D01*
X169452380Y-73652380D01*
X169452380Y-73557142D01*
X169500000Y-73414285D01*
X169547619Y-73366666D01*
X169785714Y-72509523D02*
X170452380Y-72509523D01*
X169404761Y-72747619D02*
X170119047Y-72985714D01*
X170119047Y-72366666D01*
X154066666Y-51752380D02*
X154066666Y-52466666D01*
X154019047Y-52609523D01*
X153923809Y-52704761D01*
X153780952Y-52752380D01*
X153685714Y-52752380D01*
X154495238Y-51847619D02*
X154542857Y-51800000D01*
X154638095Y-51752380D01*
X154876190Y-51752380D01*
X154971428Y-51800000D01*
X155019047Y-51847619D01*
X155066666Y-51942857D01*
X155066666Y-52038095D01*
X155019047Y-52180952D01*
X154447619Y-52752380D01*
X155066666Y-52752380D01*
X144936666Y-85962380D02*
X144936666Y-86676666D01*
X144889047Y-86819523D01*
X144793809Y-86914761D01*
X144650952Y-86962380D01*
X144555714Y-86962380D01*
X145889047Y-85962380D02*
X145412857Y-85962380D01*
X145365238Y-86438571D01*
X145412857Y-86390952D01*
X145508095Y-86343333D01*
X145746190Y-86343333D01*
X145841428Y-86390952D01*
X145889047Y-86438571D01*
X145936666Y-86533809D01*
X145936666Y-86771904D01*
X145889047Y-86867142D01*
X145841428Y-86914761D01*
X145746190Y-86962380D01*
X145508095Y-86962380D01*
X145412857Y-86914761D01*
X145365238Y-86867142D01*
X173849380Y-69634833D02*
X174563666Y-69634833D01*
X174706523Y-69682452D01*
X174801761Y-69777690D01*
X174849380Y-69920547D01*
X174849380Y-70015785D01*
X173849380Y-68730071D02*
X173849380Y-68920547D01*
X173897000Y-69015785D01*
X173944619Y-69063404D01*
X174087476Y-69158642D01*
X174277952Y-69206261D01*
X174658904Y-69206261D01*
X174754142Y-69158642D01*
X174801761Y-69111023D01*
X174849380Y-69015785D01*
X174849380Y-68825309D01*
X174801761Y-68730071D01*
X174754142Y-68682452D01*
X174658904Y-68634833D01*
X174420809Y-68634833D01*
X174325571Y-68682452D01*
X174277952Y-68730071D01*
X174230333Y-68825309D01*
X174230333Y-69015785D01*
X174277952Y-69111023D01*
X174325571Y-69158642D01*
X174420809Y-69206261D01*
X170252380Y-79333333D02*
X170966666Y-79333333D01*
X171109523Y-79380952D01*
X171204761Y-79476190D01*
X171252380Y-79619047D01*
X171252380Y-79714285D01*
X171252380Y-78857142D02*
X170252380Y-78857142D01*
X170252380Y-78476190D01*
X170300000Y-78380952D01*
X170347619Y-78333333D01*
X170442857Y-78285714D01*
X170585714Y-78285714D01*
X170680952Y-78333333D01*
X170728571Y-78380952D01*
X170776190Y-78476190D01*
X170776190Y-78857142D01*
X171252380Y-77333333D02*
X171252380Y-77904761D01*
X171252380Y-77619047D02*
X170252380Y-77619047D01*
X170395238Y-77714285D01*
X170490476Y-77809523D01*
X170538095Y-77904761D01*
X154152380Y-72666666D02*
X153676190Y-73000000D01*
X154152380Y-73238095D02*
X153152380Y-73238095D01*
X153152380Y-72857142D01*
X153200000Y-72761904D01*
X153247619Y-72714285D01*
X153342857Y-72666666D01*
X153485714Y-72666666D01*
X153580952Y-72714285D01*
X153628571Y-72761904D01*
X153676190Y-72857142D01*
X153676190Y-73238095D01*
X154152380Y-71714285D02*
X154152380Y-72285714D01*
X154152380Y-72000000D02*
X153152380Y-72000000D01*
X153295238Y-72095238D01*
X153390476Y-72190476D01*
X153438095Y-72285714D01*
X152552380Y-72866666D02*
X152076190Y-73200000D01*
X152552380Y-73438095D02*
X151552380Y-73438095D01*
X151552380Y-73057142D01*
X151600000Y-72961904D01*
X151647619Y-72914285D01*
X151742857Y-72866666D01*
X151885714Y-72866666D01*
X151980952Y-72914285D01*
X152028571Y-72961904D01*
X152076190Y-73057142D01*
X152076190Y-73438095D01*
X151647619Y-72485714D02*
X151600000Y-72438095D01*
X151552380Y-72342857D01*
X151552380Y-72104761D01*
X151600000Y-72009523D01*
X151647619Y-71961904D01*
X151742857Y-71914285D01*
X151838095Y-71914285D01*
X151980952Y-71961904D01*
X152552380Y-72533333D01*
X152552380Y-71914285D01*
X151933333Y-64152380D02*
X151600000Y-63676190D01*
X151361904Y-64152380D02*
X151361904Y-63152380D01*
X151742857Y-63152380D01*
X151838095Y-63200000D01*
X151885714Y-63247619D01*
X151933333Y-63342857D01*
X151933333Y-63485714D01*
X151885714Y-63580952D01*
X151838095Y-63628571D01*
X151742857Y-63676190D01*
X151361904Y-63676190D01*
X152266666Y-63152380D02*
X152885714Y-63152380D01*
X152552380Y-63533333D01*
X152695238Y-63533333D01*
X152790476Y-63580952D01*
X152838095Y-63628571D01*
X152885714Y-63723809D01*
X152885714Y-63961904D01*
X152838095Y-64057142D01*
X152790476Y-64104761D01*
X152695238Y-64152380D01*
X152409523Y-64152380D01*
X152314285Y-64104761D01*
X152266666Y-64057142D01*
X154633333Y-64152380D02*
X154300000Y-63676190D01*
X154061904Y-64152380D02*
X154061904Y-63152380D01*
X154442857Y-63152380D01*
X154538095Y-63200000D01*
X154585714Y-63247619D01*
X154633333Y-63342857D01*
X154633333Y-63485714D01*
X154585714Y-63580952D01*
X154538095Y-63628571D01*
X154442857Y-63676190D01*
X154061904Y-63676190D01*
X155490476Y-63485714D02*
X155490476Y-64152380D01*
X155252380Y-63104761D02*
X155014285Y-63819047D01*
X155633333Y-63819047D01*
M02*
