G04 #@! TF.GenerationSoftware,KiCad,Pcbnew,(5.1.0)-1*
G04 #@! TF.CreationDate,2019-07-12T21:05:45-04:00*
G04 #@! TF.ProjectId,Genesis_SMS Breakout,47656e65-7369-4735-9f53-4d5320427265,rev?*
G04 #@! TF.SameCoordinates,Original*
G04 #@! TF.FileFunction,Legend,Bot*
G04 #@! TF.FilePolarity,Positive*
%FSLAX46Y46*%
G04 Gerber Fmt 4.6, Leading zero omitted, Abs format (unit mm)*
G04 Created by KiCad (PCBNEW (5.1.0)-1) date 2019-07-12 21:05:45*
%MOMM*%
%LPD*%
G04 APERTURE LIST*
%ADD10C,0.150000*%
%ADD11C,0.010000*%
G04 APERTURE END LIST*
D10*
X168333333Y-64975000D02*
X168428571Y-64927380D01*
X168571428Y-64927380D01*
X168714285Y-64975000D01*
X168809523Y-65070238D01*
X168857142Y-65165476D01*
X168904761Y-65355952D01*
X168904761Y-65498809D01*
X168857142Y-65689285D01*
X168809523Y-65784523D01*
X168714285Y-65879761D01*
X168571428Y-65927380D01*
X168476190Y-65927380D01*
X168333333Y-65879761D01*
X168285714Y-65832142D01*
X168285714Y-65498809D01*
X168476190Y-65498809D01*
X167476190Y-65879761D02*
X167571428Y-65927380D01*
X167761904Y-65927380D01*
X167857142Y-65879761D01*
X167904761Y-65784523D01*
X167904761Y-65403571D01*
X167857142Y-65308333D01*
X167761904Y-65260714D01*
X167571428Y-65260714D01*
X167476190Y-65308333D01*
X167428571Y-65403571D01*
X167428571Y-65498809D01*
X167904761Y-65594047D01*
X167000000Y-65260714D02*
X167000000Y-65927380D01*
X167000000Y-65355952D02*
X166952380Y-65308333D01*
X166857142Y-65260714D01*
X166714285Y-65260714D01*
X166619047Y-65308333D01*
X166571428Y-65403571D01*
X166571428Y-65927380D01*
X165714285Y-65879761D02*
X165809523Y-65927380D01*
X166000000Y-65927380D01*
X166095238Y-65879761D01*
X166142857Y-65784523D01*
X166142857Y-65403571D01*
X166095238Y-65308333D01*
X166000000Y-65260714D01*
X165809523Y-65260714D01*
X165714285Y-65308333D01*
X165666666Y-65403571D01*
X165666666Y-65498809D01*
X166142857Y-65594047D01*
X165285714Y-65879761D02*
X165190476Y-65927380D01*
X165000000Y-65927380D01*
X164904761Y-65879761D01*
X164857142Y-65784523D01*
X164857142Y-65736904D01*
X164904761Y-65641666D01*
X165000000Y-65594047D01*
X165142857Y-65594047D01*
X165238095Y-65546428D01*
X165285714Y-65451190D01*
X165285714Y-65403571D01*
X165238095Y-65308333D01*
X165142857Y-65260714D01*
X165000000Y-65260714D01*
X164904761Y-65308333D01*
X164428571Y-65927380D02*
X164428571Y-65260714D01*
X164428571Y-64927380D02*
X164476190Y-64975000D01*
X164428571Y-65022619D01*
X164380952Y-64975000D01*
X164428571Y-64927380D01*
X164428571Y-65022619D01*
X164000000Y-65879761D02*
X163904761Y-65927380D01*
X163714285Y-65927380D01*
X163619047Y-65879761D01*
X163571428Y-65784523D01*
X163571428Y-65736904D01*
X163619047Y-65641666D01*
X163714285Y-65594047D01*
X163857142Y-65594047D01*
X163952380Y-65546428D01*
X164000000Y-65451190D01*
X164000000Y-65403571D01*
X163952380Y-65308333D01*
X163857142Y-65260714D01*
X163714285Y-65260714D01*
X163619047Y-65308333D01*
X162047619Y-65403571D02*
X161904761Y-65451190D01*
X161857142Y-65498809D01*
X161809523Y-65594047D01*
X161809523Y-65736904D01*
X161857142Y-65832142D01*
X161904761Y-65879761D01*
X162000000Y-65927380D01*
X162380952Y-65927380D01*
X162380952Y-64927380D01*
X162047619Y-64927380D01*
X161952380Y-64975000D01*
X161904761Y-65022619D01*
X161857142Y-65117857D01*
X161857142Y-65213095D01*
X161904761Y-65308333D01*
X161952380Y-65355952D01*
X162047619Y-65403571D01*
X162380952Y-65403571D01*
X161380952Y-65927380D02*
X161380952Y-65260714D01*
X161380952Y-65451190D02*
X161333333Y-65355952D01*
X161285714Y-65308333D01*
X161190476Y-65260714D01*
X161095238Y-65260714D01*
X160380952Y-65879761D02*
X160476190Y-65927380D01*
X160666666Y-65927380D01*
X160761904Y-65879761D01*
X160809523Y-65784523D01*
X160809523Y-65403571D01*
X160761904Y-65308333D01*
X160666666Y-65260714D01*
X160476190Y-65260714D01*
X160380952Y-65308333D01*
X160333333Y-65403571D01*
X160333333Y-65498809D01*
X160809523Y-65594047D01*
X159476190Y-65927380D02*
X159476190Y-65403571D01*
X159523809Y-65308333D01*
X159619047Y-65260714D01*
X159809523Y-65260714D01*
X159904761Y-65308333D01*
X159476190Y-65879761D02*
X159571428Y-65927380D01*
X159809523Y-65927380D01*
X159904761Y-65879761D01*
X159952380Y-65784523D01*
X159952380Y-65689285D01*
X159904761Y-65594047D01*
X159809523Y-65546428D01*
X159571428Y-65546428D01*
X159476190Y-65498809D01*
X159000000Y-65927380D02*
X159000000Y-64927380D01*
X158904761Y-65546428D02*
X158619047Y-65927380D01*
X158619047Y-65260714D02*
X159000000Y-65641666D01*
X158047619Y-65927380D02*
X158142857Y-65879761D01*
X158190476Y-65832142D01*
X158238095Y-65736904D01*
X158238095Y-65451190D01*
X158190476Y-65355952D01*
X158142857Y-65308333D01*
X158047619Y-65260714D01*
X157904761Y-65260714D01*
X157809523Y-65308333D01*
X157761904Y-65355952D01*
X157714285Y-65451190D01*
X157714285Y-65736904D01*
X157761904Y-65832142D01*
X157809523Y-65879761D01*
X157904761Y-65927380D01*
X158047619Y-65927380D01*
X156857142Y-65260714D02*
X156857142Y-65927380D01*
X157285714Y-65260714D02*
X157285714Y-65784523D01*
X157238095Y-65879761D01*
X157142857Y-65927380D01*
X157000000Y-65927380D01*
X156904761Y-65879761D01*
X156857142Y-65832142D01*
X156523809Y-65260714D02*
X156142857Y-65260714D01*
X156380952Y-64927380D02*
X156380952Y-65784523D01*
X156333333Y-65879761D01*
X156238095Y-65927380D01*
X156142857Y-65927380D01*
X154857142Y-64927380D02*
X154761904Y-64927380D01*
X154666666Y-64975000D01*
X154619047Y-65022619D01*
X154571428Y-65117857D01*
X154523809Y-65308333D01*
X154523809Y-65546428D01*
X154571428Y-65736904D01*
X154619047Y-65832142D01*
X154666666Y-65879761D01*
X154761904Y-65927380D01*
X154857142Y-65927380D01*
X154952380Y-65879761D01*
X155000000Y-65832142D01*
X155047619Y-65736904D01*
X155095238Y-65546428D01*
X155095238Y-65308333D01*
X155047619Y-65117857D01*
X155000000Y-65022619D01*
X154952380Y-64975000D01*
X154857142Y-64927380D01*
X154095238Y-65832142D02*
X154047619Y-65879761D01*
X154095238Y-65927380D01*
X154142857Y-65879761D01*
X154095238Y-65832142D01*
X154095238Y-65927380D01*
X153095238Y-65927380D02*
X153666666Y-65927380D01*
X153380952Y-65927380D02*
X153380952Y-64927380D01*
X153476190Y-65070238D01*
X153571428Y-65165476D01*
X153666666Y-65213095D01*
X166928571Y-66577380D02*
X166357142Y-66577380D01*
X166642857Y-67577380D02*
X166642857Y-66577380D01*
X166023809Y-67577380D02*
X166023809Y-66910714D01*
X166023809Y-66577380D02*
X166071428Y-66625000D01*
X166023809Y-66672619D01*
X165976190Y-66625000D01*
X166023809Y-66577380D01*
X166023809Y-66672619D01*
X165547619Y-66910714D02*
X165547619Y-67577380D01*
X165547619Y-67005952D02*
X165500000Y-66958333D01*
X165404761Y-66910714D01*
X165261904Y-66910714D01*
X165166666Y-66958333D01*
X165119047Y-67053571D01*
X165119047Y-67577380D01*
X164642857Y-67577380D02*
X164642857Y-66577380D01*
X164547619Y-67196428D02*
X164261904Y-67577380D01*
X164261904Y-66910714D02*
X164642857Y-67291666D01*
X163452380Y-67529761D02*
X163547619Y-67577380D01*
X163738095Y-67577380D01*
X163833333Y-67529761D01*
X163880952Y-67434523D01*
X163880952Y-67053571D01*
X163833333Y-66958333D01*
X163738095Y-66910714D01*
X163547619Y-66910714D01*
X163452380Y-66958333D01*
X163404761Y-67053571D01*
X163404761Y-67148809D01*
X163880952Y-67244047D01*
X162976190Y-67577380D02*
X162976190Y-66910714D01*
X162976190Y-67101190D02*
X162928571Y-67005952D01*
X162880952Y-66958333D01*
X162785714Y-66910714D01*
X162690476Y-66910714D01*
X162357142Y-66910714D02*
X162357142Y-67910714D01*
X162357142Y-66958333D02*
X162261904Y-66910714D01*
X162071428Y-66910714D01*
X161976190Y-66958333D01*
X161928571Y-67005952D01*
X161880952Y-67101190D01*
X161880952Y-67386904D01*
X161928571Y-67482142D01*
X161976190Y-67529761D01*
X162071428Y-67577380D01*
X162261904Y-67577380D01*
X162357142Y-67529761D01*
X161309523Y-67577380D02*
X161404761Y-67529761D01*
X161452380Y-67434523D01*
X161452380Y-66577380D01*
X160500000Y-66910714D02*
X160500000Y-67577380D01*
X160928571Y-66910714D02*
X160928571Y-67434523D01*
X160880952Y-67529761D01*
X160785714Y-67577380D01*
X160642857Y-67577380D01*
X160547619Y-67529761D01*
X160500000Y-67482142D01*
X160023809Y-66910714D02*
X160023809Y-67577380D01*
X160023809Y-67005952D02*
X159976190Y-66958333D01*
X159880952Y-66910714D01*
X159738095Y-66910714D01*
X159642857Y-66958333D01*
X159595238Y-67053571D01*
X159595238Y-67577380D01*
X159119047Y-67577380D02*
X159119047Y-66577380D01*
X159023809Y-67196428D02*
X158738095Y-67577380D01*
X158738095Y-66910714D02*
X159119047Y-67291666D01*
X158309523Y-67482142D02*
X158261904Y-67529761D01*
X158309523Y-67577380D01*
X158357142Y-67529761D01*
X158309523Y-67482142D01*
X158309523Y-67577380D01*
X157404761Y-67529761D02*
X157500000Y-67577380D01*
X157690476Y-67577380D01*
X157785714Y-67529761D01*
X157833333Y-67482142D01*
X157880952Y-67386904D01*
X157880952Y-67101190D01*
X157833333Y-67005952D01*
X157785714Y-66958333D01*
X157690476Y-66910714D01*
X157500000Y-66910714D01*
X157404761Y-66958333D01*
X156833333Y-67577380D02*
X156928571Y-67529761D01*
X156976190Y-67482142D01*
X157023809Y-67386904D01*
X157023809Y-67101190D01*
X156976190Y-67005952D01*
X156928571Y-66958333D01*
X156833333Y-66910714D01*
X156690476Y-66910714D01*
X156595238Y-66958333D01*
X156547619Y-67005952D01*
X156500000Y-67101190D01*
X156500000Y-67386904D01*
X156547619Y-67482142D01*
X156595238Y-67529761D01*
X156690476Y-67577380D01*
X156833333Y-67577380D01*
X156071428Y-67577380D02*
X156071428Y-66910714D01*
X156071428Y-67005952D02*
X156023809Y-66958333D01*
X155928571Y-66910714D01*
X155785714Y-66910714D01*
X155690476Y-66958333D01*
X155642857Y-67053571D01*
X155642857Y-67577380D01*
X155642857Y-67053571D02*
X155595238Y-66958333D01*
X155500000Y-66910714D01*
X155357142Y-66910714D01*
X155261904Y-66958333D01*
X155214285Y-67053571D01*
X155214285Y-67577380D01*
D11*
G36*
X160390986Y-69152998D02*
G01*
X160232994Y-69153863D01*
X160118653Y-69156205D01*
X160040593Y-69160762D01*
X159991446Y-69168270D01*
X159963841Y-69179466D01*
X159950408Y-69195088D01*
X159943779Y-69215873D01*
X159943135Y-69218563D01*
X159933065Y-69267113D01*
X159914425Y-69362905D01*
X159889155Y-69495743D01*
X159859193Y-69655431D01*
X159826478Y-69831774D01*
X159825336Y-69837967D01*
X159792567Y-70010782D01*
X159761907Y-70163469D01*
X159735336Y-70286871D01*
X159714833Y-70371831D01*
X159702374Y-70409190D01*
X159701780Y-70409852D01*
X159665081Y-70428095D01*
X159589414Y-70458497D01*
X159491122Y-70494493D01*
X159490575Y-70494685D01*
X159366767Y-70541222D01*
X159220804Y-70600504D01*
X159083219Y-70660109D01*
X159076707Y-70663056D01*
X158852610Y-70764765D01*
X158356381Y-70425897D01*
X158204154Y-70322592D01*
X158066259Y-70230237D01*
X157950685Y-70154084D01*
X157865421Y-70099385D01*
X157818456Y-70071393D01*
X157813996Y-70069317D01*
X157779866Y-70078560D01*
X157716119Y-70123156D01*
X157620269Y-70205209D01*
X157489831Y-70326821D01*
X157356672Y-70456205D01*
X157228306Y-70583702D01*
X157113419Y-70700046D01*
X157018927Y-70798052D01*
X156951747Y-70870536D01*
X156918794Y-70910313D01*
X156917568Y-70912361D01*
X156913926Y-70939656D01*
X156927650Y-70984234D01*
X156962131Y-71052112D01*
X157020761Y-71149311D01*
X157106930Y-71281851D01*
X157221800Y-71452476D01*
X157323746Y-71602655D01*
X157414877Y-71737350D01*
X157489927Y-71848740D01*
X157543631Y-71929005D01*
X157570720Y-71970325D01*
X157572426Y-71973130D01*
X157569118Y-72012721D01*
X157544047Y-72089669D01*
X157502202Y-72189432D01*
X157487288Y-72221291D01*
X157422214Y-72363226D01*
X157352788Y-72524273D01*
X157296391Y-72663621D01*
X157255753Y-72767044D01*
X157223474Y-72845642D01*
X157204822Y-72886720D01*
X157202503Y-72889885D01*
X157168197Y-72895128D01*
X157087331Y-72909494D01*
X156970657Y-72930937D01*
X156828925Y-72957413D01*
X156672890Y-72986877D01*
X156513302Y-73017283D01*
X156360915Y-73046588D01*
X156226479Y-73072745D01*
X156120748Y-73093710D01*
X156054474Y-73107439D01*
X156038218Y-73111320D01*
X156021427Y-73120900D01*
X156008751Y-73142536D01*
X155999622Y-73183531D01*
X155993469Y-73251189D01*
X155989720Y-73352812D01*
X155987808Y-73495703D01*
X155987160Y-73687165D01*
X155987126Y-73765645D01*
X155987126Y-74403906D01*
X156140402Y-74434160D01*
X156225678Y-74450564D01*
X156352930Y-74474509D01*
X156506685Y-74503107D01*
X156671466Y-74533467D01*
X156717011Y-74541806D01*
X156869068Y-74571370D01*
X157001532Y-74600442D01*
X157103286Y-74626329D01*
X157163212Y-74646337D01*
X157173195Y-74652301D01*
X157197707Y-74694534D01*
X157232852Y-74776370D01*
X157271827Y-74881683D01*
X157279558Y-74904368D01*
X157330640Y-75045018D01*
X157394046Y-75203714D01*
X157456096Y-75346225D01*
X157456402Y-75346886D01*
X157559733Y-75570440D01*
X156880039Y-76570232D01*
X157316379Y-77007300D01*
X157448351Y-77137381D01*
X157568721Y-77252048D01*
X157670727Y-77345181D01*
X157747609Y-77410658D01*
X157792607Y-77442357D01*
X157799062Y-77444368D01*
X157836960Y-77428529D01*
X157914292Y-77384496D01*
X158022611Y-77317490D01*
X158153468Y-77232734D01*
X158294948Y-77137816D01*
X158438539Y-77040998D01*
X158566565Y-76956751D01*
X158670895Y-76890258D01*
X158743400Y-76846702D01*
X158775842Y-76831264D01*
X158815424Y-76844328D01*
X158890481Y-76878750D01*
X158985532Y-76927380D01*
X158995608Y-76932785D01*
X159123609Y-76996980D01*
X159211382Y-77028463D01*
X159265972Y-77028798D01*
X159294425Y-76999548D01*
X159294590Y-76999138D01*
X159308812Y-76964498D01*
X159342731Y-76882269D01*
X159393716Y-76758814D01*
X159459138Y-76600498D01*
X159536366Y-76413686D01*
X159622771Y-76204742D01*
X159706449Y-76002446D01*
X159798412Y-75779200D01*
X159882850Y-75572392D01*
X159957231Y-75388362D01*
X160019026Y-75233451D01*
X160065703Y-75113996D01*
X160094732Y-75036339D01*
X160103678Y-75007356D01*
X160081244Y-74974110D01*
X160022561Y-74921123D01*
X159944311Y-74862704D01*
X159721466Y-74677952D01*
X159547282Y-74466182D01*
X159423846Y-74231856D01*
X159353246Y-73979434D01*
X159337569Y-73713377D01*
X159348964Y-73590575D01*
X159411050Y-73335793D01*
X159517977Y-73110801D01*
X159663111Y-72917817D01*
X159839822Y-72759061D01*
X160041478Y-72636750D01*
X160261446Y-72553105D01*
X160493094Y-72510344D01*
X160729791Y-72510687D01*
X160964905Y-72556352D01*
X161191804Y-72649559D01*
X161403856Y-72792527D01*
X161492364Y-72873383D01*
X161662111Y-73081007D01*
X161780301Y-73307895D01*
X161847722Y-73547433D01*
X161865160Y-73793007D01*
X161833402Y-74038003D01*
X161753235Y-74275808D01*
X161625445Y-74499807D01*
X161450820Y-74703387D01*
X161255688Y-74862704D01*
X161174409Y-74923602D01*
X161116991Y-74976015D01*
X161096322Y-75007406D01*
X161107144Y-75041639D01*
X161137923Y-75123419D01*
X161186126Y-75246407D01*
X161249222Y-75404263D01*
X161324678Y-75590649D01*
X161409962Y-75799226D01*
X161493781Y-76002496D01*
X161586255Y-76225933D01*
X161671911Y-76432984D01*
X161748118Y-76617286D01*
X161812247Y-76772475D01*
X161861668Y-76892188D01*
X161893752Y-76970061D01*
X161905641Y-76999138D01*
X161933726Y-77028677D01*
X161988051Y-77028591D01*
X162075605Y-76997326D01*
X162203381Y-76933329D01*
X162204392Y-76932785D01*
X162300598Y-76883121D01*
X162378369Y-76846945D01*
X162422223Y-76831408D01*
X162424158Y-76831264D01*
X162457171Y-76847024D01*
X162530054Y-76890850D01*
X162634678Y-76957557D01*
X162762910Y-77041964D01*
X162905052Y-77137816D01*
X163049767Y-77234867D01*
X163180196Y-77319270D01*
X163287890Y-77385801D01*
X163364402Y-77429238D01*
X163400938Y-77444368D01*
X163434582Y-77424482D01*
X163502224Y-77368903D01*
X163597107Y-77283754D01*
X163712470Y-77175153D01*
X163841555Y-77049221D01*
X163883771Y-77007149D01*
X164320261Y-76569931D01*
X163988023Y-76082340D01*
X163887054Y-75932605D01*
X163798438Y-75798220D01*
X163727146Y-75686969D01*
X163678150Y-75606639D01*
X163656422Y-75565014D01*
X163655785Y-75562053D01*
X163667240Y-75522818D01*
X163698051Y-75443895D01*
X163742884Y-75338509D01*
X163774353Y-75267954D01*
X163833192Y-75132876D01*
X163888604Y-74996409D01*
X163931564Y-74881103D01*
X163943234Y-74845977D01*
X163976389Y-74752174D01*
X164008799Y-74679694D01*
X164026601Y-74652301D01*
X164065886Y-74635536D01*
X164151626Y-74611770D01*
X164272697Y-74583697D01*
X164417973Y-74554009D01*
X164482988Y-74541806D01*
X164648087Y-74511468D01*
X164806448Y-74482093D01*
X164942596Y-74456569D01*
X165041057Y-74437785D01*
X165059598Y-74434160D01*
X165212873Y-74403906D01*
X165212873Y-73765645D01*
X165212529Y-73555770D01*
X165211116Y-73396980D01*
X165208064Y-73281973D01*
X165202803Y-73203446D01*
X165194763Y-73154096D01*
X165183373Y-73126619D01*
X165168063Y-73113713D01*
X165161782Y-73111320D01*
X165123896Y-73102833D01*
X165040195Y-73085900D01*
X164921433Y-73062566D01*
X164778361Y-73034875D01*
X164621732Y-73004873D01*
X164462297Y-72974604D01*
X164310809Y-72946115D01*
X164178019Y-72921449D01*
X164074681Y-72902651D01*
X164011545Y-72891767D01*
X163997497Y-72889885D01*
X163984770Y-72864704D01*
X163956600Y-72797622D01*
X163918252Y-72701333D01*
X163903609Y-72663621D01*
X163844548Y-72517921D01*
X163775000Y-72356951D01*
X163712712Y-72221291D01*
X163666879Y-72117561D01*
X163636387Y-72032326D01*
X163626208Y-71980126D01*
X163627831Y-71973130D01*
X163649343Y-71940102D01*
X163698465Y-71866643D01*
X163769923Y-71760577D01*
X163858445Y-71629726D01*
X163958759Y-71481912D01*
X163978594Y-71452734D01*
X164094988Y-71279863D01*
X164180548Y-71148226D01*
X164238684Y-71051761D01*
X164272808Y-70984408D01*
X164286331Y-70940106D01*
X164282664Y-70912794D01*
X164282570Y-70912620D01*
X164253707Y-70876746D01*
X164189867Y-70807391D01*
X164097969Y-70711745D01*
X163984933Y-70596999D01*
X163857679Y-70470341D01*
X163843328Y-70456205D01*
X163682957Y-70300903D01*
X163559195Y-70186870D01*
X163469555Y-70112002D01*
X163411552Y-70074196D01*
X163386004Y-70069317D01*
X163348718Y-70090603D01*
X163271343Y-70139773D01*
X163161867Y-70211575D01*
X163028280Y-70300755D01*
X162878570Y-70402063D01*
X162843618Y-70425897D01*
X162347390Y-70764765D01*
X162123293Y-70663056D01*
X161987011Y-70603783D01*
X161840724Y-70544170D01*
X161714965Y-70496640D01*
X161709425Y-70494685D01*
X161611057Y-70458677D01*
X161535229Y-70428229D01*
X161498282Y-70409905D01*
X161498220Y-70409852D01*
X161486496Y-70376729D01*
X161466568Y-70295267D01*
X161440413Y-70174625D01*
X161410010Y-70023959D01*
X161377337Y-69852428D01*
X161374664Y-69837967D01*
X161341890Y-69661235D01*
X161311802Y-69500810D01*
X161286339Y-69366888D01*
X161267441Y-69269663D01*
X161257047Y-69219332D01*
X161256865Y-69218563D01*
X161250539Y-69197153D01*
X161238239Y-69180988D01*
X161212594Y-69169331D01*
X161166235Y-69161445D01*
X161091792Y-69156593D01*
X160981895Y-69154039D01*
X160829175Y-69153045D01*
X160626262Y-69152874D01*
X160600000Y-69152874D01*
X160390986Y-69152998D01*
X160390986Y-69152998D01*
G37*
X160390986Y-69152998D02*
X160232994Y-69153863D01*
X160118653Y-69156205D01*
X160040593Y-69160762D01*
X159991446Y-69168270D01*
X159963841Y-69179466D01*
X159950408Y-69195088D01*
X159943779Y-69215873D01*
X159943135Y-69218563D01*
X159933065Y-69267113D01*
X159914425Y-69362905D01*
X159889155Y-69495743D01*
X159859193Y-69655431D01*
X159826478Y-69831774D01*
X159825336Y-69837967D01*
X159792567Y-70010782D01*
X159761907Y-70163469D01*
X159735336Y-70286871D01*
X159714833Y-70371831D01*
X159702374Y-70409190D01*
X159701780Y-70409852D01*
X159665081Y-70428095D01*
X159589414Y-70458497D01*
X159491122Y-70494493D01*
X159490575Y-70494685D01*
X159366767Y-70541222D01*
X159220804Y-70600504D01*
X159083219Y-70660109D01*
X159076707Y-70663056D01*
X158852610Y-70764765D01*
X158356381Y-70425897D01*
X158204154Y-70322592D01*
X158066259Y-70230237D01*
X157950685Y-70154084D01*
X157865421Y-70099385D01*
X157818456Y-70071393D01*
X157813996Y-70069317D01*
X157779866Y-70078560D01*
X157716119Y-70123156D01*
X157620269Y-70205209D01*
X157489831Y-70326821D01*
X157356672Y-70456205D01*
X157228306Y-70583702D01*
X157113419Y-70700046D01*
X157018927Y-70798052D01*
X156951747Y-70870536D01*
X156918794Y-70910313D01*
X156917568Y-70912361D01*
X156913926Y-70939656D01*
X156927650Y-70984234D01*
X156962131Y-71052112D01*
X157020761Y-71149311D01*
X157106930Y-71281851D01*
X157221800Y-71452476D01*
X157323746Y-71602655D01*
X157414877Y-71737350D01*
X157489927Y-71848740D01*
X157543631Y-71929005D01*
X157570720Y-71970325D01*
X157572426Y-71973130D01*
X157569118Y-72012721D01*
X157544047Y-72089669D01*
X157502202Y-72189432D01*
X157487288Y-72221291D01*
X157422214Y-72363226D01*
X157352788Y-72524273D01*
X157296391Y-72663621D01*
X157255753Y-72767044D01*
X157223474Y-72845642D01*
X157204822Y-72886720D01*
X157202503Y-72889885D01*
X157168197Y-72895128D01*
X157087331Y-72909494D01*
X156970657Y-72930937D01*
X156828925Y-72957413D01*
X156672890Y-72986877D01*
X156513302Y-73017283D01*
X156360915Y-73046588D01*
X156226479Y-73072745D01*
X156120748Y-73093710D01*
X156054474Y-73107439D01*
X156038218Y-73111320D01*
X156021427Y-73120900D01*
X156008751Y-73142536D01*
X155999622Y-73183531D01*
X155993469Y-73251189D01*
X155989720Y-73352812D01*
X155987808Y-73495703D01*
X155987160Y-73687165D01*
X155987126Y-73765645D01*
X155987126Y-74403906D01*
X156140402Y-74434160D01*
X156225678Y-74450564D01*
X156352930Y-74474509D01*
X156506685Y-74503107D01*
X156671466Y-74533467D01*
X156717011Y-74541806D01*
X156869068Y-74571370D01*
X157001532Y-74600442D01*
X157103286Y-74626329D01*
X157163212Y-74646337D01*
X157173195Y-74652301D01*
X157197707Y-74694534D01*
X157232852Y-74776370D01*
X157271827Y-74881683D01*
X157279558Y-74904368D01*
X157330640Y-75045018D01*
X157394046Y-75203714D01*
X157456096Y-75346225D01*
X157456402Y-75346886D01*
X157559733Y-75570440D01*
X156880039Y-76570232D01*
X157316379Y-77007300D01*
X157448351Y-77137381D01*
X157568721Y-77252048D01*
X157670727Y-77345181D01*
X157747609Y-77410658D01*
X157792607Y-77442357D01*
X157799062Y-77444368D01*
X157836960Y-77428529D01*
X157914292Y-77384496D01*
X158022611Y-77317490D01*
X158153468Y-77232734D01*
X158294948Y-77137816D01*
X158438539Y-77040998D01*
X158566565Y-76956751D01*
X158670895Y-76890258D01*
X158743400Y-76846702D01*
X158775842Y-76831264D01*
X158815424Y-76844328D01*
X158890481Y-76878750D01*
X158985532Y-76927380D01*
X158995608Y-76932785D01*
X159123609Y-76996980D01*
X159211382Y-77028463D01*
X159265972Y-77028798D01*
X159294425Y-76999548D01*
X159294590Y-76999138D01*
X159308812Y-76964498D01*
X159342731Y-76882269D01*
X159393716Y-76758814D01*
X159459138Y-76600498D01*
X159536366Y-76413686D01*
X159622771Y-76204742D01*
X159706449Y-76002446D01*
X159798412Y-75779200D01*
X159882850Y-75572392D01*
X159957231Y-75388362D01*
X160019026Y-75233451D01*
X160065703Y-75113996D01*
X160094732Y-75036339D01*
X160103678Y-75007356D01*
X160081244Y-74974110D01*
X160022561Y-74921123D01*
X159944311Y-74862704D01*
X159721466Y-74677952D01*
X159547282Y-74466182D01*
X159423846Y-74231856D01*
X159353246Y-73979434D01*
X159337569Y-73713377D01*
X159348964Y-73590575D01*
X159411050Y-73335793D01*
X159517977Y-73110801D01*
X159663111Y-72917817D01*
X159839822Y-72759061D01*
X160041478Y-72636750D01*
X160261446Y-72553105D01*
X160493094Y-72510344D01*
X160729791Y-72510687D01*
X160964905Y-72556352D01*
X161191804Y-72649559D01*
X161403856Y-72792527D01*
X161492364Y-72873383D01*
X161662111Y-73081007D01*
X161780301Y-73307895D01*
X161847722Y-73547433D01*
X161865160Y-73793007D01*
X161833402Y-74038003D01*
X161753235Y-74275808D01*
X161625445Y-74499807D01*
X161450820Y-74703387D01*
X161255688Y-74862704D01*
X161174409Y-74923602D01*
X161116991Y-74976015D01*
X161096322Y-75007406D01*
X161107144Y-75041639D01*
X161137923Y-75123419D01*
X161186126Y-75246407D01*
X161249222Y-75404263D01*
X161324678Y-75590649D01*
X161409962Y-75799226D01*
X161493781Y-76002496D01*
X161586255Y-76225933D01*
X161671911Y-76432984D01*
X161748118Y-76617286D01*
X161812247Y-76772475D01*
X161861668Y-76892188D01*
X161893752Y-76970061D01*
X161905641Y-76999138D01*
X161933726Y-77028677D01*
X161988051Y-77028591D01*
X162075605Y-76997326D01*
X162203381Y-76933329D01*
X162204392Y-76932785D01*
X162300598Y-76883121D01*
X162378369Y-76846945D01*
X162422223Y-76831408D01*
X162424158Y-76831264D01*
X162457171Y-76847024D01*
X162530054Y-76890850D01*
X162634678Y-76957557D01*
X162762910Y-77041964D01*
X162905052Y-77137816D01*
X163049767Y-77234867D01*
X163180196Y-77319270D01*
X163287890Y-77385801D01*
X163364402Y-77429238D01*
X163400938Y-77444368D01*
X163434582Y-77424482D01*
X163502224Y-77368903D01*
X163597107Y-77283754D01*
X163712470Y-77175153D01*
X163841555Y-77049221D01*
X163883771Y-77007149D01*
X164320261Y-76569931D01*
X163988023Y-76082340D01*
X163887054Y-75932605D01*
X163798438Y-75798220D01*
X163727146Y-75686969D01*
X163678150Y-75606639D01*
X163656422Y-75565014D01*
X163655785Y-75562053D01*
X163667240Y-75522818D01*
X163698051Y-75443895D01*
X163742884Y-75338509D01*
X163774353Y-75267954D01*
X163833192Y-75132876D01*
X163888604Y-74996409D01*
X163931564Y-74881103D01*
X163943234Y-74845977D01*
X163976389Y-74752174D01*
X164008799Y-74679694D01*
X164026601Y-74652301D01*
X164065886Y-74635536D01*
X164151626Y-74611770D01*
X164272697Y-74583697D01*
X164417973Y-74554009D01*
X164482988Y-74541806D01*
X164648087Y-74511468D01*
X164806448Y-74482093D01*
X164942596Y-74456569D01*
X165041057Y-74437785D01*
X165059598Y-74434160D01*
X165212873Y-74403906D01*
X165212873Y-73765645D01*
X165212529Y-73555770D01*
X165211116Y-73396980D01*
X165208064Y-73281973D01*
X165202803Y-73203446D01*
X165194763Y-73154096D01*
X165183373Y-73126619D01*
X165168063Y-73113713D01*
X165161782Y-73111320D01*
X165123896Y-73102833D01*
X165040195Y-73085900D01*
X164921433Y-73062566D01*
X164778361Y-73034875D01*
X164621732Y-73004873D01*
X164462297Y-72974604D01*
X164310809Y-72946115D01*
X164178019Y-72921449D01*
X164074681Y-72902651D01*
X164011545Y-72891767D01*
X163997497Y-72889885D01*
X163984770Y-72864704D01*
X163956600Y-72797622D01*
X163918252Y-72701333D01*
X163903609Y-72663621D01*
X163844548Y-72517921D01*
X163775000Y-72356951D01*
X163712712Y-72221291D01*
X163666879Y-72117561D01*
X163636387Y-72032326D01*
X163626208Y-71980126D01*
X163627831Y-71973130D01*
X163649343Y-71940102D01*
X163698465Y-71866643D01*
X163769923Y-71760577D01*
X163858445Y-71629726D01*
X163958759Y-71481912D01*
X163978594Y-71452734D01*
X164094988Y-71279863D01*
X164180548Y-71148226D01*
X164238684Y-71051761D01*
X164272808Y-70984408D01*
X164286331Y-70940106D01*
X164282664Y-70912794D01*
X164282570Y-70912620D01*
X164253707Y-70876746D01*
X164189867Y-70807391D01*
X164097969Y-70711745D01*
X163984933Y-70596999D01*
X163857679Y-70470341D01*
X163843328Y-70456205D01*
X163682957Y-70300903D01*
X163559195Y-70186870D01*
X163469555Y-70112002D01*
X163411552Y-70074196D01*
X163386004Y-70069317D01*
X163348718Y-70090603D01*
X163271343Y-70139773D01*
X163161867Y-70211575D01*
X163028280Y-70300755D01*
X162878570Y-70402063D01*
X162843618Y-70425897D01*
X162347390Y-70764765D01*
X162123293Y-70663056D01*
X161987011Y-70603783D01*
X161840724Y-70544170D01*
X161714965Y-70496640D01*
X161709425Y-70494685D01*
X161611057Y-70458677D01*
X161535229Y-70428229D01*
X161498282Y-70409905D01*
X161498220Y-70409852D01*
X161486496Y-70376729D01*
X161466568Y-70295267D01*
X161440413Y-70174625D01*
X161410010Y-70023959D01*
X161377337Y-69852428D01*
X161374664Y-69837967D01*
X161341890Y-69661235D01*
X161311802Y-69500810D01*
X161286339Y-69366888D01*
X161267441Y-69269663D01*
X161257047Y-69219332D01*
X161256865Y-69218563D01*
X161250539Y-69197153D01*
X161238239Y-69180988D01*
X161212594Y-69169331D01*
X161166235Y-69161445D01*
X161091792Y-69156593D01*
X160981895Y-69154039D01*
X160829175Y-69153045D01*
X160626262Y-69152874D01*
X160600000Y-69152874D01*
X160390986Y-69152998D01*
G36*
X154256561Y-78656540D02*
G01*
X154141050Y-78732034D01*
X154085336Y-78799617D01*
X154041196Y-78922255D01*
X154037691Y-79019298D01*
X154045632Y-79149056D01*
X154344885Y-79280039D01*
X154490389Y-79346958D01*
X154585463Y-79400790D01*
X154634899Y-79447416D01*
X154643489Y-79492720D01*
X154616028Y-79542582D01*
X154585747Y-79575632D01*
X154497637Y-79628633D01*
X154401804Y-79632347D01*
X154313788Y-79591041D01*
X154249131Y-79508983D01*
X154237567Y-79480008D01*
X154182175Y-79389509D01*
X154118447Y-79350940D01*
X154031034Y-79317946D01*
X154031034Y-79443034D01*
X154038762Y-79528156D01*
X154069034Y-79599938D01*
X154132482Y-79682356D01*
X154141912Y-79693066D01*
X154212487Y-79766391D01*
X154273153Y-79805742D01*
X154349050Y-79823845D01*
X154411970Y-79829774D01*
X154524513Y-79831251D01*
X154604630Y-79812535D01*
X154654610Y-79784747D01*
X154733162Y-79723641D01*
X154787537Y-79657554D01*
X154821948Y-79574441D01*
X154840612Y-79462254D01*
X154847744Y-79308946D01*
X154848313Y-79231136D01*
X154846378Y-79137853D01*
X154670101Y-79137853D01*
X154668056Y-79187896D01*
X154662961Y-79196092D01*
X154629334Y-79184958D01*
X154556970Y-79155493D01*
X154460253Y-79113601D01*
X154440027Y-79104597D01*
X154317797Y-79042442D01*
X154250453Y-78987815D01*
X154235652Y-78936649D01*
X154271053Y-78884876D01*
X154300289Y-78862000D01*
X154405784Y-78816250D01*
X154504524Y-78823808D01*
X154587188Y-78879651D01*
X154644452Y-78978753D01*
X154662812Y-79057414D01*
X154670101Y-79137853D01*
X154846378Y-79137853D01*
X154844541Y-79049351D01*
X154830641Y-78914853D01*
X154803106Y-78816916D01*
X154758428Y-78744811D01*
X154693099Y-78687813D01*
X154664617Y-78669393D01*
X154535237Y-78621422D01*
X154393588Y-78618403D01*
X154256561Y-78656540D01*
X154256561Y-78656540D01*
G37*
X154256561Y-78656540D02*
X154141050Y-78732034D01*
X154085336Y-78799617D01*
X154041196Y-78922255D01*
X154037691Y-79019298D01*
X154045632Y-79149056D01*
X154344885Y-79280039D01*
X154490389Y-79346958D01*
X154585463Y-79400790D01*
X154634899Y-79447416D01*
X154643489Y-79492720D01*
X154616028Y-79542582D01*
X154585747Y-79575632D01*
X154497637Y-79628633D01*
X154401804Y-79632347D01*
X154313788Y-79591041D01*
X154249131Y-79508983D01*
X154237567Y-79480008D01*
X154182175Y-79389509D01*
X154118447Y-79350940D01*
X154031034Y-79317946D01*
X154031034Y-79443034D01*
X154038762Y-79528156D01*
X154069034Y-79599938D01*
X154132482Y-79682356D01*
X154141912Y-79693066D01*
X154212487Y-79766391D01*
X154273153Y-79805742D01*
X154349050Y-79823845D01*
X154411970Y-79829774D01*
X154524513Y-79831251D01*
X154604630Y-79812535D01*
X154654610Y-79784747D01*
X154733162Y-79723641D01*
X154787537Y-79657554D01*
X154821948Y-79574441D01*
X154840612Y-79462254D01*
X154847744Y-79308946D01*
X154848313Y-79231136D01*
X154846378Y-79137853D01*
X154670101Y-79137853D01*
X154668056Y-79187896D01*
X154662961Y-79196092D01*
X154629334Y-79184958D01*
X154556970Y-79155493D01*
X154460253Y-79113601D01*
X154440027Y-79104597D01*
X154317797Y-79042442D01*
X154250453Y-78987815D01*
X154235652Y-78936649D01*
X154271053Y-78884876D01*
X154300289Y-78862000D01*
X154405784Y-78816250D01*
X154504524Y-78823808D01*
X154587188Y-78879651D01*
X154644452Y-78978753D01*
X154662812Y-79057414D01*
X154670101Y-79137853D01*
X154846378Y-79137853D01*
X154844541Y-79049351D01*
X154830641Y-78914853D01*
X154803106Y-78816916D01*
X154758428Y-78744811D01*
X154693099Y-78687813D01*
X154664617Y-78669393D01*
X154535237Y-78621422D01*
X154393588Y-78618403D01*
X154256561Y-78656540D01*
G36*
X155264310Y-78640018D02*
G01*
X155229415Y-78655269D01*
X155146123Y-78721235D01*
X155074897Y-78816618D01*
X155030847Y-78918406D01*
X155023678Y-78968587D01*
X155047715Y-79038647D01*
X155100439Y-79075717D01*
X155156969Y-79098164D01*
X155182854Y-79102300D01*
X155195458Y-79072283D01*
X155220346Y-79006961D01*
X155231265Y-78977445D01*
X155292492Y-78875348D01*
X155381139Y-78824423D01*
X155494807Y-78825989D01*
X155503226Y-78827994D01*
X155563912Y-78856767D01*
X155608526Y-78912859D01*
X155638998Y-79003163D01*
X155657256Y-79134571D01*
X155665229Y-79313974D01*
X155665977Y-79409433D01*
X155666348Y-79559913D01*
X155668777Y-79662495D01*
X155675240Y-79727672D01*
X155687712Y-79765938D01*
X155708167Y-79787785D01*
X155738581Y-79803707D01*
X155740339Y-79804509D01*
X155798909Y-79829272D01*
X155827925Y-79838391D01*
X155832384Y-79810822D01*
X155836201Y-79734620D01*
X155839101Y-79619541D01*
X155840809Y-79475341D01*
X155841149Y-79369814D01*
X155839412Y-79165613D01*
X155832618Y-79010697D01*
X155818393Y-78896024D01*
X155794362Y-78812551D01*
X155758152Y-78751236D01*
X155707388Y-78703034D01*
X155657261Y-78669393D01*
X155536725Y-78624619D01*
X155396443Y-78614521D01*
X155264310Y-78640018D01*
X155264310Y-78640018D01*
G37*
X155264310Y-78640018D02*
X155229415Y-78655269D01*
X155146123Y-78721235D01*
X155074897Y-78816618D01*
X155030847Y-78918406D01*
X155023678Y-78968587D01*
X155047715Y-79038647D01*
X155100439Y-79075717D01*
X155156969Y-79098164D01*
X155182854Y-79102300D01*
X155195458Y-79072283D01*
X155220346Y-79006961D01*
X155231265Y-78977445D01*
X155292492Y-78875348D01*
X155381139Y-78824423D01*
X155494807Y-78825989D01*
X155503226Y-78827994D01*
X155563912Y-78856767D01*
X155608526Y-78912859D01*
X155638998Y-79003163D01*
X155657256Y-79134571D01*
X155665229Y-79313974D01*
X155665977Y-79409433D01*
X155666348Y-79559913D01*
X155668777Y-79662495D01*
X155675240Y-79727672D01*
X155687712Y-79765938D01*
X155708167Y-79787785D01*
X155738581Y-79803707D01*
X155740339Y-79804509D01*
X155798909Y-79829272D01*
X155827925Y-79838391D01*
X155832384Y-79810822D01*
X155836201Y-79734620D01*
X155839101Y-79619541D01*
X155840809Y-79475341D01*
X155841149Y-79369814D01*
X155839412Y-79165613D01*
X155832618Y-79010697D01*
X155818393Y-78896024D01*
X155794362Y-78812551D01*
X155758152Y-78751236D01*
X155707388Y-78703034D01*
X155657261Y-78669393D01*
X155536725Y-78624619D01*
X155396443Y-78614521D01*
X155264310Y-78640018D01*
G36*
X156285594Y-78635156D02*
G01*
X156201531Y-78673393D01*
X156135550Y-78719726D01*
X156087206Y-78771532D01*
X156053828Y-78838363D01*
X156032747Y-78929769D01*
X156021293Y-79055301D01*
X156016797Y-79224508D01*
X156016322Y-79335933D01*
X156016322Y-79770627D01*
X156090684Y-79804509D01*
X156149254Y-79829272D01*
X156178270Y-79838391D01*
X156183821Y-79811257D01*
X156188225Y-79738094D01*
X156190922Y-79631263D01*
X156191494Y-79546437D01*
X156193954Y-79423887D01*
X156200588Y-79326668D01*
X156210274Y-79267134D01*
X156217968Y-79254483D01*
X156269689Y-79267402D01*
X156350883Y-79300539D01*
X156444898Y-79345461D01*
X156535083Y-79393735D01*
X156604785Y-79436928D01*
X156637352Y-79466608D01*
X156637481Y-79466929D01*
X156634680Y-79521857D01*
X156609561Y-79574292D01*
X156565459Y-79616881D01*
X156501091Y-79631126D01*
X156446079Y-79629466D01*
X156368165Y-79628245D01*
X156327268Y-79646498D01*
X156302705Y-79694726D01*
X156299608Y-79703820D01*
X156288960Y-79772598D01*
X156317435Y-79814360D01*
X156391656Y-79834263D01*
X156471832Y-79837944D01*
X156616110Y-79810658D01*
X156690797Y-79771690D01*
X156783037Y-79680148D01*
X156831957Y-79567782D01*
X156836346Y-79449051D01*
X156794999Y-79338411D01*
X156732803Y-79269080D01*
X156670706Y-79230265D01*
X156573105Y-79181125D01*
X156459368Y-79131292D01*
X156440410Y-79123677D01*
X156315479Y-79068545D01*
X156243461Y-79019954D01*
X156220300Y-78971647D01*
X156241936Y-78917370D01*
X156279080Y-78874943D01*
X156366873Y-78822702D01*
X156463470Y-78818784D01*
X156552056Y-78859041D01*
X156615814Y-78939326D01*
X156624183Y-78960040D01*
X156672904Y-79036225D01*
X156744035Y-79092785D01*
X156833793Y-79139201D01*
X156833793Y-79007584D01*
X156828510Y-78927168D01*
X156805858Y-78863786D01*
X156755633Y-78796163D01*
X156707418Y-78744076D01*
X156632446Y-78670322D01*
X156574194Y-78630702D01*
X156511628Y-78614810D01*
X156440807Y-78612184D01*
X156285594Y-78635156D01*
X156285594Y-78635156D01*
G37*
X156285594Y-78635156D02*
X156201531Y-78673393D01*
X156135550Y-78719726D01*
X156087206Y-78771532D01*
X156053828Y-78838363D01*
X156032747Y-78929769D01*
X156021293Y-79055301D01*
X156016797Y-79224508D01*
X156016322Y-79335933D01*
X156016322Y-79770627D01*
X156090684Y-79804509D01*
X156149254Y-79829272D01*
X156178270Y-79838391D01*
X156183821Y-79811257D01*
X156188225Y-79738094D01*
X156190922Y-79631263D01*
X156191494Y-79546437D01*
X156193954Y-79423887D01*
X156200588Y-79326668D01*
X156210274Y-79267134D01*
X156217968Y-79254483D01*
X156269689Y-79267402D01*
X156350883Y-79300539D01*
X156444898Y-79345461D01*
X156535083Y-79393735D01*
X156604785Y-79436928D01*
X156637352Y-79466608D01*
X156637481Y-79466929D01*
X156634680Y-79521857D01*
X156609561Y-79574292D01*
X156565459Y-79616881D01*
X156501091Y-79631126D01*
X156446079Y-79629466D01*
X156368165Y-79628245D01*
X156327268Y-79646498D01*
X156302705Y-79694726D01*
X156299608Y-79703820D01*
X156288960Y-79772598D01*
X156317435Y-79814360D01*
X156391656Y-79834263D01*
X156471832Y-79837944D01*
X156616110Y-79810658D01*
X156690797Y-79771690D01*
X156783037Y-79680148D01*
X156831957Y-79567782D01*
X156836346Y-79449051D01*
X156794999Y-79338411D01*
X156732803Y-79269080D01*
X156670706Y-79230265D01*
X156573105Y-79181125D01*
X156459368Y-79131292D01*
X156440410Y-79123677D01*
X156315479Y-79068545D01*
X156243461Y-79019954D01*
X156220300Y-78971647D01*
X156241936Y-78917370D01*
X156279080Y-78874943D01*
X156366873Y-78822702D01*
X156463470Y-78818784D01*
X156552056Y-78859041D01*
X156615814Y-78939326D01*
X156624183Y-78960040D01*
X156672904Y-79036225D01*
X156744035Y-79092785D01*
X156833793Y-79139201D01*
X156833793Y-79007584D01*
X156828510Y-78927168D01*
X156805858Y-78863786D01*
X156755633Y-78796163D01*
X156707418Y-78744076D01*
X156632446Y-78670322D01*
X156574194Y-78630702D01*
X156511628Y-78614810D01*
X156440807Y-78612184D01*
X156285594Y-78635156D01*
G36*
X157019876Y-78639840D02*
G01*
X157015421Y-78716653D01*
X157011929Y-78833391D01*
X157009685Y-78980821D01*
X157008965Y-79135455D01*
X157008965Y-79658727D01*
X157101355Y-79751117D01*
X157165022Y-79808047D01*
X157220911Y-79831107D01*
X157297298Y-79829647D01*
X157327620Y-79825934D01*
X157422390Y-79815126D01*
X157500778Y-79808933D01*
X157519885Y-79808361D01*
X157584301Y-79812102D01*
X157676429Y-79821494D01*
X157712150Y-79825934D01*
X157799886Y-79832801D01*
X157858847Y-79817885D01*
X157917310Y-79771835D01*
X157938415Y-79751117D01*
X158030805Y-79658727D01*
X158030805Y-78679947D01*
X157956442Y-78646066D01*
X157892410Y-78620970D01*
X157854948Y-78612184D01*
X157845343Y-78639950D01*
X157836365Y-78717530D01*
X157828614Y-78836348D01*
X157822686Y-78987828D01*
X157819827Y-79115805D01*
X157811839Y-79619425D01*
X157742152Y-79629278D01*
X157678771Y-79622389D01*
X157647714Y-79600083D01*
X157639033Y-79558379D01*
X157631622Y-79469544D01*
X157626069Y-79344834D01*
X157622964Y-79195507D01*
X157622516Y-79118661D01*
X157622069Y-78676287D01*
X157530126Y-78644235D01*
X157465051Y-78622443D01*
X157429653Y-78612281D01*
X157428632Y-78612184D01*
X157425080Y-78639809D01*
X157421177Y-78716411D01*
X157417249Y-78832579D01*
X157413624Y-78978904D01*
X157411092Y-79115805D01*
X157403103Y-79619425D01*
X157227931Y-79619425D01*
X157219893Y-79159965D01*
X157211854Y-78700505D01*
X157126457Y-78656344D01*
X157063407Y-78626019D01*
X157026090Y-78612258D01*
X157025013Y-78612184D01*
X157019876Y-78639840D01*
X157019876Y-78639840D01*
G37*
X157019876Y-78639840D02*
X157015421Y-78716653D01*
X157011929Y-78833391D01*
X157009685Y-78980821D01*
X157008965Y-79135455D01*
X157008965Y-79658727D01*
X157101355Y-79751117D01*
X157165022Y-79808047D01*
X157220911Y-79831107D01*
X157297298Y-79829647D01*
X157327620Y-79825934D01*
X157422390Y-79815126D01*
X157500778Y-79808933D01*
X157519885Y-79808361D01*
X157584301Y-79812102D01*
X157676429Y-79821494D01*
X157712150Y-79825934D01*
X157799886Y-79832801D01*
X157858847Y-79817885D01*
X157917310Y-79771835D01*
X157938415Y-79751117D01*
X158030805Y-79658727D01*
X158030805Y-78679947D01*
X157956442Y-78646066D01*
X157892410Y-78620970D01*
X157854948Y-78612184D01*
X157845343Y-78639950D01*
X157836365Y-78717530D01*
X157828614Y-78836348D01*
X157822686Y-78987828D01*
X157819827Y-79115805D01*
X157811839Y-79619425D01*
X157742152Y-79629278D01*
X157678771Y-79622389D01*
X157647714Y-79600083D01*
X157639033Y-79558379D01*
X157631622Y-79469544D01*
X157626069Y-79344834D01*
X157622964Y-79195507D01*
X157622516Y-79118661D01*
X157622069Y-78676287D01*
X157530126Y-78644235D01*
X157465051Y-78622443D01*
X157429653Y-78612281D01*
X157428632Y-78612184D01*
X157425080Y-78639809D01*
X157421177Y-78716411D01*
X157417249Y-78832579D01*
X157413624Y-78978904D01*
X157411092Y-79115805D01*
X157403103Y-79619425D01*
X157227931Y-79619425D01*
X157219893Y-79159965D01*
X157211854Y-78700505D01*
X157126457Y-78656344D01*
X157063407Y-78626019D01*
X157026090Y-78612258D01*
X157025013Y-78612184D01*
X157019876Y-78639840D01*
G36*
X158206086Y-78854455D02*
G01*
X158206457Y-79072661D01*
X158207892Y-79240519D01*
X158210998Y-79366070D01*
X158216378Y-79457355D01*
X158224638Y-79522415D01*
X158236384Y-79569291D01*
X158252219Y-79606024D01*
X158264210Y-79626991D01*
X158363510Y-79740694D01*
X158489412Y-79811965D01*
X158628709Y-79837538D01*
X158768195Y-79814150D01*
X158851257Y-79772119D01*
X158938455Y-79699411D01*
X158997883Y-79610612D01*
X159033739Y-79494320D01*
X159050219Y-79339135D01*
X159052553Y-79225287D01*
X159052239Y-79217106D01*
X158848276Y-79217106D01*
X158847030Y-79347657D01*
X158841322Y-79434080D01*
X158828196Y-79490618D01*
X158804694Y-79531514D01*
X158776614Y-79562362D01*
X158682312Y-79621905D01*
X158581060Y-79626992D01*
X158485364Y-79577279D01*
X158477916Y-79570543D01*
X158446126Y-79535502D01*
X158426192Y-79493811D01*
X158415400Y-79431762D01*
X158411035Y-79335644D01*
X158410345Y-79229379D01*
X158411841Y-79095880D01*
X158418036Y-79006822D01*
X158431486Y-78948293D01*
X158454749Y-78906382D01*
X158473825Y-78884123D01*
X158562437Y-78827985D01*
X158664492Y-78821235D01*
X158761905Y-78864114D01*
X158780704Y-78880032D01*
X158812707Y-78915382D01*
X158832682Y-78957502D01*
X158843407Y-79020251D01*
X158847661Y-79117487D01*
X158848276Y-79217106D01*
X159052239Y-79217106D01*
X159045496Y-79041947D01*
X159021528Y-78904195D01*
X158976452Y-78800632D01*
X158906072Y-78719856D01*
X158851257Y-78678455D01*
X158751624Y-78633728D01*
X158636145Y-78612967D01*
X158528801Y-78618525D01*
X158468736Y-78640943D01*
X158445165Y-78647323D01*
X158429523Y-78623535D01*
X158418605Y-78559788D01*
X158410345Y-78462687D01*
X158401301Y-78354541D01*
X158388739Y-78289475D01*
X158365881Y-78252268D01*
X158325949Y-78227699D01*
X158300862Y-78216819D01*
X158205977Y-78177072D01*
X158206086Y-78854455D01*
X158206086Y-78854455D01*
G37*
X158206086Y-78854455D02*
X158206457Y-79072661D01*
X158207892Y-79240519D01*
X158210998Y-79366070D01*
X158216378Y-79457355D01*
X158224638Y-79522415D01*
X158236384Y-79569291D01*
X158252219Y-79606024D01*
X158264210Y-79626991D01*
X158363510Y-79740694D01*
X158489412Y-79811965D01*
X158628709Y-79837538D01*
X158768195Y-79814150D01*
X158851257Y-79772119D01*
X158938455Y-79699411D01*
X158997883Y-79610612D01*
X159033739Y-79494320D01*
X159050219Y-79339135D01*
X159052553Y-79225287D01*
X159052239Y-79217106D01*
X158848276Y-79217106D01*
X158847030Y-79347657D01*
X158841322Y-79434080D01*
X158828196Y-79490618D01*
X158804694Y-79531514D01*
X158776614Y-79562362D01*
X158682312Y-79621905D01*
X158581060Y-79626992D01*
X158485364Y-79577279D01*
X158477916Y-79570543D01*
X158446126Y-79535502D01*
X158426192Y-79493811D01*
X158415400Y-79431762D01*
X158411035Y-79335644D01*
X158410345Y-79229379D01*
X158411841Y-79095880D01*
X158418036Y-79006822D01*
X158431486Y-78948293D01*
X158454749Y-78906382D01*
X158473825Y-78884123D01*
X158562437Y-78827985D01*
X158664492Y-78821235D01*
X158761905Y-78864114D01*
X158780704Y-78880032D01*
X158812707Y-78915382D01*
X158832682Y-78957502D01*
X158843407Y-79020251D01*
X158847661Y-79117487D01*
X158848276Y-79217106D01*
X159052239Y-79217106D01*
X159045496Y-79041947D01*
X159021528Y-78904195D01*
X158976452Y-78800632D01*
X158906072Y-78719856D01*
X158851257Y-78678455D01*
X158751624Y-78633728D01*
X158636145Y-78612967D01*
X158528801Y-78618525D01*
X158468736Y-78640943D01*
X158445165Y-78647323D01*
X158429523Y-78623535D01*
X158418605Y-78559788D01*
X158410345Y-78462687D01*
X158401301Y-78354541D01*
X158388739Y-78289475D01*
X158365881Y-78252268D01*
X158325949Y-78227699D01*
X158300862Y-78216819D01*
X158205977Y-78177072D01*
X158206086Y-78854455D01*
G36*
X159534057Y-78621920D02*
G01*
X159401435Y-78670859D01*
X159293990Y-78757419D01*
X159251968Y-78818352D01*
X159206157Y-78930161D01*
X159207109Y-79011006D01*
X159255192Y-79065378D01*
X159272983Y-79074624D01*
X159349796Y-79103450D01*
X159389024Y-79096065D01*
X159402311Y-79047658D01*
X159402988Y-79020920D01*
X159427314Y-78922548D01*
X159490719Y-78853734D01*
X159578846Y-78820498D01*
X159677337Y-78828861D01*
X159757398Y-78872296D01*
X159784439Y-78897072D01*
X159803606Y-78927129D01*
X159816554Y-78972565D01*
X159824936Y-79043476D01*
X159830407Y-79149960D01*
X159834622Y-79302112D01*
X159835713Y-79350287D01*
X159839693Y-79515095D01*
X159844219Y-79631088D01*
X159851005Y-79707833D01*
X159861769Y-79754893D01*
X159878227Y-79781835D01*
X159902094Y-79798223D01*
X159917374Y-79805463D01*
X159982267Y-79830220D01*
X160020466Y-79838391D01*
X160033088Y-79811103D01*
X160040792Y-79728603D01*
X160043620Y-79589941D01*
X160041614Y-79394162D01*
X160040989Y-79363965D01*
X160036579Y-79185349D01*
X160031365Y-79054923D01*
X160023945Y-78962492D01*
X160012918Y-78897858D01*
X159996883Y-78850825D01*
X159974439Y-78811196D01*
X159962698Y-78794215D01*
X159895381Y-78719080D01*
X159820090Y-78660638D01*
X159810872Y-78655536D01*
X159675867Y-78615260D01*
X159534057Y-78621920D01*
X159534057Y-78621920D01*
G37*
X159534057Y-78621920D02*
X159401435Y-78670859D01*
X159293990Y-78757419D01*
X159251968Y-78818352D01*
X159206157Y-78930161D01*
X159207109Y-79011006D01*
X159255192Y-79065378D01*
X159272983Y-79074624D01*
X159349796Y-79103450D01*
X159389024Y-79096065D01*
X159402311Y-79047658D01*
X159402988Y-79020920D01*
X159427314Y-78922548D01*
X159490719Y-78853734D01*
X159578846Y-78820498D01*
X159677337Y-78828861D01*
X159757398Y-78872296D01*
X159784439Y-78897072D01*
X159803606Y-78927129D01*
X159816554Y-78972565D01*
X159824936Y-79043476D01*
X159830407Y-79149960D01*
X159834622Y-79302112D01*
X159835713Y-79350287D01*
X159839693Y-79515095D01*
X159844219Y-79631088D01*
X159851005Y-79707833D01*
X159861769Y-79754893D01*
X159878227Y-79781835D01*
X159902094Y-79798223D01*
X159917374Y-79805463D01*
X159982267Y-79830220D01*
X160020466Y-79838391D01*
X160033088Y-79811103D01*
X160040792Y-79728603D01*
X160043620Y-79589941D01*
X160041614Y-79394162D01*
X160040989Y-79363965D01*
X160036579Y-79185349D01*
X160031365Y-79054923D01*
X160023945Y-78962492D01*
X160012918Y-78897858D01*
X159996883Y-78850825D01*
X159974439Y-78811196D01*
X159962698Y-78794215D01*
X159895381Y-78719080D01*
X159820090Y-78660638D01*
X159810872Y-78655536D01*
X159675867Y-78615260D01*
X159534057Y-78621920D01*
G36*
X160520056Y-78624360D02*
G01*
X160405657Y-78666842D01*
X160404348Y-78667658D01*
X160333597Y-78719730D01*
X160281364Y-78780584D01*
X160244629Y-78859887D01*
X160220366Y-78967309D01*
X160205555Y-79112517D01*
X160197171Y-79305179D01*
X160196436Y-79332628D01*
X160185880Y-79746521D01*
X160274709Y-79792456D01*
X160338982Y-79823498D01*
X160377790Y-79838206D01*
X160379585Y-79838391D01*
X160386300Y-79811250D01*
X160391635Y-79738041D01*
X160394917Y-79631081D01*
X160395632Y-79544469D01*
X160395649Y-79404162D01*
X160402063Y-79316051D01*
X160424420Y-79274025D01*
X160472268Y-79271975D01*
X160555151Y-79303790D01*
X160680287Y-79362272D01*
X160772303Y-79410845D01*
X160819629Y-79452986D01*
X160833542Y-79498916D01*
X160833563Y-79501189D01*
X160810605Y-79580311D01*
X160742630Y-79623055D01*
X160638602Y-79629246D01*
X160563670Y-79628172D01*
X160524161Y-79649753D01*
X160499522Y-79701591D01*
X160485341Y-79767632D01*
X160505777Y-79805104D01*
X160513472Y-79810467D01*
X160585917Y-79832006D01*
X160687367Y-79835055D01*
X160791843Y-79820778D01*
X160865875Y-79794688D01*
X160968228Y-79707785D01*
X161026409Y-79586816D01*
X161037931Y-79492308D01*
X161029138Y-79407062D01*
X160997320Y-79337476D01*
X160934316Y-79275672D01*
X160831969Y-79213772D01*
X160682118Y-79143897D01*
X160672988Y-79139948D01*
X160538003Y-79077588D01*
X160454706Y-79026446D01*
X160419003Y-78980488D01*
X160426797Y-78933683D01*
X160473993Y-78879998D01*
X160488106Y-78867644D01*
X160582641Y-78819741D01*
X160680594Y-78821758D01*
X160765903Y-78868724D01*
X160822504Y-78955669D01*
X160827763Y-78972734D01*
X160878977Y-79055504D01*
X160943963Y-79095372D01*
X161037931Y-79134882D01*
X161037931Y-79032658D01*
X161009347Y-78884072D01*
X160924505Y-78747784D01*
X160880355Y-78702191D01*
X160779995Y-78643674D01*
X160652365Y-78617184D01*
X160520056Y-78624360D01*
X160520056Y-78624360D01*
G37*
X160520056Y-78624360D02*
X160405657Y-78666842D01*
X160404348Y-78667658D01*
X160333597Y-78719730D01*
X160281364Y-78780584D01*
X160244629Y-78859887D01*
X160220366Y-78967309D01*
X160205555Y-79112517D01*
X160197171Y-79305179D01*
X160196436Y-79332628D01*
X160185880Y-79746521D01*
X160274709Y-79792456D01*
X160338982Y-79823498D01*
X160377790Y-79838206D01*
X160379585Y-79838391D01*
X160386300Y-79811250D01*
X160391635Y-79738041D01*
X160394917Y-79631081D01*
X160395632Y-79544469D01*
X160395649Y-79404162D01*
X160402063Y-79316051D01*
X160424420Y-79274025D01*
X160472268Y-79271975D01*
X160555151Y-79303790D01*
X160680287Y-79362272D01*
X160772303Y-79410845D01*
X160819629Y-79452986D01*
X160833542Y-79498916D01*
X160833563Y-79501189D01*
X160810605Y-79580311D01*
X160742630Y-79623055D01*
X160638602Y-79629246D01*
X160563670Y-79628172D01*
X160524161Y-79649753D01*
X160499522Y-79701591D01*
X160485341Y-79767632D01*
X160505777Y-79805104D01*
X160513472Y-79810467D01*
X160585917Y-79832006D01*
X160687367Y-79835055D01*
X160791843Y-79820778D01*
X160865875Y-79794688D01*
X160968228Y-79707785D01*
X161026409Y-79586816D01*
X161037931Y-79492308D01*
X161029138Y-79407062D01*
X160997320Y-79337476D01*
X160934316Y-79275672D01*
X160831969Y-79213772D01*
X160682118Y-79143897D01*
X160672988Y-79139948D01*
X160538003Y-79077588D01*
X160454706Y-79026446D01*
X160419003Y-78980488D01*
X160426797Y-78933683D01*
X160473993Y-78879998D01*
X160488106Y-78867644D01*
X160582641Y-78819741D01*
X160680594Y-78821758D01*
X160765903Y-78868724D01*
X160822504Y-78955669D01*
X160827763Y-78972734D01*
X160878977Y-79055504D01*
X160943963Y-79095372D01*
X161037931Y-79134882D01*
X161037931Y-79032658D01*
X161009347Y-78884072D01*
X160924505Y-78747784D01*
X160880355Y-78702191D01*
X160779995Y-78643674D01*
X160652365Y-78617184D01*
X160520056Y-78624360D01*
G36*
X161855402Y-78423857D02*
G01*
X161846846Y-78543188D01*
X161837019Y-78613506D01*
X161823401Y-78644179D01*
X161803473Y-78644571D01*
X161797011Y-78640910D01*
X161711060Y-78614398D01*
X161599255Y-78615946D01*
X161485586Y-78643199D01*
X161414490Y-78678455D01*
X161341595Y-78734778D01*
X161288307Y-78798519D01*
X161251725Y-78879510D01*
X161228950Y-78987586D01*
X161217081Y-79132580D01*
X161213218Y-79324326D01*
X161213149Y-79361109D01*
X161213103Y-79774288D01*
X161305046Y-79806339D01*
X161370348Y-79828144D01*
X161406176Y-79838297D01*
X161407230Y-79838391D01*
X161410758Y-79810860D01*
X161413761Y-79734923D01*
X161416010Y-79620565D01*
X161417276Y-79477769D01*
X161417471Y-79390951D01*
X161417877Y-79219773D01*
X161419968Y-79097088D01*
X161425053Y-79013000D01*
X161434440Y-78957614D01*
X161449439Y-78921032D01*
X161471358Y-78893359D01*
X161485043Y-78880032D01*
X161579051Y-78826328D01*
X161681636Y-78822307D01*
X161774710Y-78867725D01*
X161791922Y-78884123D01*
X161817168Y-78914957D01*
X161834680Y-78951531D01*
X161845858Y-79004415D01*
X161852104Y-79084177D01*
X161854818Y-79201385D01*
X161855402Y-79362991D01*
X161855402Y-79774288D01*
X161947345Y-79806339D01*
X162012647Y-79828144D01*
X162048475Y-79838297D01*
X162049529Y-79838391D01*
X162052225Y-79810448D01*
X162054655Y-79731630D01*
X162056722Y-79609453D01*
X162058329Y-79451432D01*
X162059377Y-79265083D01*
X162059769Y-79057920D01*
X162059770Y-79048706D01*
X162059770Y-78259020D01*
X161964885Y-78218997D01*
X161870000Y-78178973D01*
X161855402Y-78423857D01*
X161855402Y-78423857D01*
G37*
X161855402Y-78423857D02*
X161846846Y-78543188D01*
X161837019Y-78613506D01*
X161823401Y-78644179D01*
X161803473Y-78644571D01*
X161797011Y-78640910D01*
X161711060Y-78614398D01*
X161599255Y-78615946D01*
X161485586Y-78643199D01*
X161414490Y-78678455D01*
X161341595Y-78734778D01*
X161288307Y-78798519D01*
X161251725Y-78879510D01*
X161228950Y-78987586D01*
X161217081Y-79132580D01*
X161213218Y-79324326D01*
X161213149Y-79361109D01*
X161213103Y-79774288D01*
X161305046Y-79806339D01*
X161370348Y-79828144D01*
X161406176Y-79838297D01*
X161407230Y-79838391D01*
X161410758Y-79810860D01*
X161413761Y-79734923D01*
X161416010Y-79620565D01*
X161417276Y-79477769D01*
X161417471Y-79390951D01*
X161417877Y-79219773D01*
X161419968Y-79097088D01*
X161425053Y-79013000D01*
X161434440Y-78957614D01*
X161449439Y-78921032D01*
X161471358Y-78893359D01*
X161485043Y-78880032D01*
X161579051Y-78826328D01*
X161681636Y-78822307D01*
X161774710Y-78867725D01*
X161791922Y-78884123D01*
X161817168Y-78914957D01*
X161834680Y-78951531D01*
X161845858Y-79004415D01*
X161852104Y-79084177D01*
X161854818Y-79201385D01*
X161855402Y-79362991D01*
X161855402Y-79774288D01*
X161947345Y-79806339D01*
X162012647Y-79828144D01*
X162048475Y-79838297D01*
X162049529Y-79838391D01*
X162052225Y-79810448D01*
X162054655Y-79731630D01*
X162056722Y-79609453D01*
X162058329Y-79451432D01*
X162059377Y-79265083D01*
X162059769Y-79057920D01*
X162059770Y-79048706D01*
X162059770Y-78259020D01*
X161964885Y-78218997D01*
X161870000Y-78178973D01*
X161855402Y-78423857D01*
G36*
X164284448Y-78584676D02*
G01*
X164169342Y-78662111D01*
X164080389Y-78773949D01*
X164027251Y-78916265D01*
X164016503Y-79021015D01*
X164017724Y-79064726D01*
X164027944Y-79098194D01*
X164056039Y-79128179D01*
X164110884Y-79161440D01*
X164201355Y-79204738D01*
X164336328Y-79264833D01*
X164337011Y-79265134D01*
X164461249Y-79322037D01*
X164563127Y-79372565D01*
X164632233Y-79411280D01*
X164658154Y-79432740D01*
X164658161Y-79432913D01*
X164635315Y-79479644D01*
X164581891Y-79531154D01*
X164520558Y-79568261D01*
X164489485Y-79575632D01*
X164404711Y-79550138D01*
X164331707Y-79486291D01*
X164296087Y-79416094D01*
X164261820Y-79364343D01*
X164194697Y-79305409D01*
X164115792Y-79254496D01*
X164046179Y-79226809D01*
X164031623Y-79225287D01*
X164015237Y-79250321D01*
X164014250Y-79314311D01*
X164026292Y-79400593D01*
X164048993Y-79492501D01*
X164079986Y-79573369D01*
X164081552Y-79576509D01*
X164174819Y-79706734D01*
X164295696Y-79795311D01*
X164432973Y-79838786D01*
X164575440Y-79833706D01*
X164711888Y-79776616D01*
X164717955Y-79772602D01*
X164825290Y-79675326D01*
X164895868Y-79548409D01*
X164934926Y-79381526D01*
X164940168Y-79334639D01*
X164949452Y-79113329D01*
X164938322Y-79010124D01*
X164658161Y-79010124D01*
X164654521Y-79074503D01*
X164634611Y-79093291D01*
X164584974Y-79079235D01*
X164506733Y-79046009D01*
X164419274Y-79004359D01*
X164417101Y-79003256D01*
X164342970Y-78964265D01*
X164313219Y-78938244D01*
X164320555Y-78910965D01*
X164351447Y-78875121D01*
X164430040Y-78823251D01*
X164514677Y-78819439D01*
X164590597Y-78857189D01*
X164643035Y-78930001D01*
X164658161Y-79010124D01*
X164938322Y-79010124D01*
X164930356Y-78936261D01*
X164881366Y-78795829D01*
X164813164Y-78697447D01*
X164690065Y-78598030D01*
X164554472Y-78548711D01*
X164416045Y-78545568D01*
X164284448Y-78584676D01*
X164284448Y-78584676D01*
G37*
X164284448Y-78584676D02*
X164169342Y-78662111D01*
X164080389Y-78773949D01*
X164027251Y-78916265D01*
X164016503Y-79021015D01*
X164017724Y-79064726D01*
X164027944Y-79098194D01*
X164056039Y-79128179D01*
X164110884Y-79161440D01*
X164201355Y-79204738D01*
X164336328Y-79264833D01*
X164337011Y-79265134D01*
X164461249Y-79322037D01*
X164563127Y-79372565D01*
X164632233Y-79411280D01*
X164658154Y-79432740D01*
X164658161Y-79432913D01*
X164635315Y-79479644D01*
X164581891Y-79531154D01*
X164520558Y-79568261D01*
X164489485Y-79575632D01*
X164404711Y-79550138D01*
X164331707Y-79486291D01*
X164296087Y-79416094D01*
X164261820Y-79364343D01*
X164194697Y-79305409D01*
X164115792Y-79254496D01*
X164046179Y-79226809D01*
X164031623Y-79225287D01*
X164015237Y-79250321D01*
X164014250Y-79314311D01*
X164026292Y-79400593D01*
X164048993Y-79492501D01*
X164079986Y-79573369D01*
X164081552Y-79576509D01*
X164174819Y-79706734D01*
X164295696Y-79795311D01*
X164432973Y-79838786D01*
X164575440Y-79833706D01*
X164711888Y-79776616D01*
X164717955Y-79772602D01*
X164825290Y-79675326D01*
X164895868Y-79548409D01*
X164934926Y-79381526D01*
X164940168Y-79334639D01*
X164949452Y-79113329D01*
X164938322Y-79010124D01*
X164658161Y-79010124D01*
X164654521Y-79074503D01*
X164634611Y-79093291D01*
X164584974Y-79079235D01*
X164506733Y-79046009D01*
X164419274Y-79004359D01*
X164417101Y-79003256D01*
X164342970Y-78964265D01*
X164313219Y-78938244D01*
X164320555Y-78910965D01*
X164351447Y-78875121D01*
X164430040Y-78823251D01*
X164514677Y-78819439D01*
X164590597Y-78857189D01*
X164643035Y-78930001D01*
X164658161Y-79010124D01*
X164938322Y-79010124D01*
X164930356Y-78936261D01*
X164881366Y-78795829D01*
X164813164Y-78697447D01*
X164690065Y-78598030D01*
X164554472Y-78548711D01*
X164416045Y-78545568D01*
X164284448Y-78584676D01*
G36*
X166551779Y-78566015D02*
G01*
X166414939Y-78637968D01*
X166313949Y-78753766D01*
X166278075Y-78828213D01*
X166250161Y-78939992D01*
X166235871Y-79081227D01*
X166234516Y-79235371D01*
X166245405Y-79385879D01*
X166267847Y-79516205D01*
X166301150Y-79609803D01*
X166311385Y-79625922D01*
X166432618Y-79746249D01*
X166576613Y-79818317D01*
X166732861Y-79839408D01*
X166890852Y-79806802D01*
X166934820Y-79787253D01*
X167020444Y-79727012D01*
X167095592Y-79647135D01*
X167102694Y-79637004D01*
X167131561Y-79588181D01*
X167150643Y-79535990D01*
X167161916Y-79467285D01*
X167167355Y-79368918D01*
X167168938Y-79227744D01*
X167168965Y-79196092D01*
X167168893Y-79186019D01*
X166877011Y-79186019D01*
X166875313Y-79319256D01*
X166868628Y-79407674D01*
X166854575Y-79464785D01*
X166830771Y-79504102D01*
X166818621Y-79517241D01*
X166748764Y-79567172D01*
X166680941Y-79564895D01*
X166612365Y-79521584D01*
X166571465Y-79475346D01*
X166547242Y-79407857D01*
X166533639Y-79301433D01*
X166532706Y-79289020D01*
X166530384Y-79096147D01*
X166554650Y-78952900D01*
X166605176Y-78860160D01*
X166681632Y-78818807D01*
X166708924Y-78816552D01*
X166780589Y-78827893D01*
X166829610Y-78867184D01*
X166859582Y-78942326D01*
X166874101Y-79061222D01*
X166877011Y-79186019D01*
X167168893Y-79186019D01*
X167167878Y-79045659D01*
X167163312Y-78940549D01*
X167153312Y-78867714D01*
X167135921Y-78814108D01*
X167109184Y-78766681D01*
X167103276Y-78757864D01*
X167003968Y-78639007D01*
X166895758Y-78570008D01*
X166764019Y-78542619D01*
X166719283Y-78541281D01*
X166551779Y-78566015D01*
X166551779Y-78566015D01*
G37*
X166551779Y-78566015D02*
X166414939Y-78637968D01*
X166313949Y-78753766D01*
X166278075Y-78828213D01*
X166250161Y-78939992D01*
X166235871Y-79081227D01*
X166234516Y-79235371D01*
X166245405Y-79385879D01*
X166267847Y-79516205D01*
X166301150Y-79609803D01*
X166311385Y-79625922D01*
X166432618Y-79746249D01*
X166576613Y-79818317D01*
X166732861Y-79839408D01*
X166890852Y-79806802D01*
X166934820Y-79787253D01*
X167020444Y-79727012D01*
X167095592Y-79647135D01*
X167102694Y-79637004D01*
X167131561Y-79588181D01*
X167150643Y-79535990D01*
X167161916Y-79467285D01*
X167167355Y-79368918D01*
X167168938Y-79227744D01*
X167168965Y-79196092D01*
X167168893Y-79186019D01*
X166877011Y-79186019D01*
X166875313Y-79319256D01*
X166868628Y-79407674D01*
X166854575Y-79464785D01*
X166830771Y-79504102D01*
X166818621Y-79517241D01*
X166748764Y-79567172D01*
X166680941Y-79564895D01*
X166612365Y-79521584D01*
X166571465Y-79475346D01*
X166547242Y-79407857D01*
X166533639Y-79301433D01*
X166532706Y-79289020D01*
X166530384Y-79096147D01*
X166554650Y-78952900D01*
X166605176Y-78860160D01*
X166681632Y-78818807D01*
X166708924Y-78816552D01*
X166780589Y-78827893D01*
X166829610Y-78867184D01*
X166859582Y-78942326D01*
X166874101Y-79061222D01*
X166877011Y-79186019D01*
X167168893Y-79186019D01*
X167167878Y-79045659D01*
X167163312Y-78940549D01*
X167153312Y-78867714D01*
X167135921Y-78814108D01*
X167109184Y-78766681D01*
X167103276Y-78757864D01*
X167003968Y-78639007D01*
X166895758Y-78570008D01*
X166764019Y-78542619D01*
X166719283Y-78541281D01*
X166551779Y-78566015D01*
G36*
X163182571Y-78577719D02*
G01*
X163088877Y-78631914D01*
X163023736Y-78685707D01*
X162976093Y-78742066D01*
X162943272Y-78810987D01*
X162922594Y-78902468D01*
X162911380Y-79026506D01*
X162906951Y-79193098D01*
X162906437Y-79312851D01*
X162906437Y-79753659D01*
X163030517Y-79809283D01*
X163154598Y-79864907D01*
X163169195Y-79382095D01*
X163175227Y-79201779D01*
X163181555Y-79070901D01*
X163189394Y-78980511D01*
X163199963Y-78921664D01*
X163214477Y-78885413D01*
X163234152Y-78862810D01*
X163240465Y-78857917D01*
X163336112Y-78819706D01*
X163432793Y-78834827D01*
X163490345Y-78874943D01*
X163513755Y-78903370D01*
X163529961Y-78940672D01*
X163540259Y-78997223D01*
X163545951Y-79083394D01*
X163548336Y-79209558D01*
X163548736Y-79341042D01*
X163548814Y-79505999D01*
X163551639Y-79622761D01*
X163561093Y-79701510D01*
X163581060Y-79752431D01*
X163615424Y-79785706D01*
X163668068Y-79811520D01*
X163738383Y-79838344D01*
X163815180Y-79867542D01*
X163806038Y-79349346D01*
X163802357Y-79162539D01*
X163798050Y-79024490D01*
X163791877Y-78925568D01*
X163782598Y-78856145D01*
X163768973Y-78806590D01*
X163749761Y-78767273D01*
X163726598Y-78732584D01*
X163614848Y-78621770D01*
X163478487Y-78557689D01*
X163330175Y-78542339D01*
X163182571Y-78577719D01*
X163182571Y-78577719D01*
G37*
X163182571Y-78577719D02*
X163088877Y-78631914D01*
X163023736Y-78685707D01*
X162976093Y-78742066D01*
X162943272Y-78810987D01*
X162922594Y-78902468D01*
X162911380Y-79026506D01*
X162906951Y-79193098D01*
X162906437Y-79312851D01*
X162906437Y-79753659D01*
X163030517Y-79809283D01*
X163154598Y-79864907D01*
X163169195Y-79382095D01*
X163175227Y-79201779D01*
X163181555Y-79070901D01*
X163189394Y-78980511D01*
X163199963Y-78921664D01*
X163214477Y-78885413D01*
X163234152Y-78862810D01*
X163240465Y-78857917D01*
X163336112Y-78819706D01*
X163432793Y-78834827D01*
X163490345Y-78874943D01*
X163513755Y-78903370D01*
X163529961Y-78940672D01*
X163540259Y-78997223D01*
X163545951Y-79083394D01*
X163548336Y-79209558D01*
X163548736Y-79341042D01*
X163548814Y-79505999D01*
X163551639Y-79622761D01*
X163561093Y-79701510D01*
X163581060Y-79752431D01*
X163615424Y-79785706D01*
X163668068Y-79811520D01*
X163738383Y-79838344D01*
X163815180Y-79867542D01*
X163806038Y-79349346D01*
X163802357Y-79162539D01*
X163798050Y-79024490D01*
X163791877Y-78925568D01*
X163782598Y-78856145D01*
X163768973Y-78806590D01*
X163749761Y-78767273D01*
X163726598Y-78732584D01*
X163614848Y-78621770D01*
X163478487Y-78557689D01*
X163330175Y-78542339D01*
X163182571Y-78577719D01*
G36*
X165428100Y-78561903D02*
G01*
X165316550Y-78617522D01*
X165218092Y-78719931D01*
X165190977Y-78757864D01*
X165161438Y-78807500D01*
X165142272Y-78861412D01*
X165131307Y-78933364D01*
X165126371Y-79037122D01*
X165125287Y-79174101D01*
X165130182Y-79361815D01*
X165147196Y-79502758D01*
X165179823Y-79607908D01*
X165231558Y-79688243D01*
X165305896Y-79754741D01*
X165311358Y-79758678D01*
X165384620Y-79798953D01*
X165472840Y-79818880D01*
X165585038Y-79823793D01*
X165767433Y-79823793D01*
X165767509Y-80000857D01*
X165769207Y-80099470D01*
X165779550Y-80157314D01*
X165806578Y-80192006D01*
X165858332Y-80221164D01*
X165870761Y-80227121D01*
X165928923Y-80255039D01*
X165973956Y-80272672D01*
X166007441Y-80274194D01*
X166030962Y-80253781D01*
X166046100Y-80205607D01*
X166054437Y-80123846D01*
X166057556Y-80002672D01*
X166057040Y-79836260D01*
X166054471Y-79618785D01*
X166053668Y-79553736D01*
X166050778Y-79329502D01*
X166048188Y-79182821D01*
X165767586Y-79182821D01*
X165766009Y-79307326D01*
X165759000Y-79388787D01*
X165743142Y-79442515D01*
X165715019Y-79483823D01*
X165695925Y-79503971D01*
X165617865Y-79562921D01*
X165548753Y-79567720D01*
X165477440Y-79519038D01*
X165475632Y-79517241D01*
X165446617Y-79479618D01*
X165428967Y-79428484D01*
X165420064Y-79349738D01*
X165417291Y-79229276D01*
X165417241Y-79202588D01*
X165423942Y-79036583D01*
X165445752Y-78921505D01*
X165485235Y-78851254D01*
X165544956Y-78819729D01*
X165579472Y-78816552D01*
X165661389Y-78831460D01*
X165717579Y-78880548D01*
X165751402Y-78970362D01*
X165766220Y-79107445D01*
X165767586Y-79182821D01*
X166048188Y-79182821D01*
X166047713Y-79155952D01*
X166043753Y-79025382D01*
X166038174Y-78930087D01*
X166030254Y-78862364D01*
X166019269Y-78814507D01*
X166004499Y-78778813D01*
X165985218Y-78747578D01*
X165976951Y-78735824D01*
X165867288Y-78624797D01*
X165728635Y-78561847D01*
X165568246Y-78544297D01*
X165428100Y-78561903D01*
X165428100Y-78561903D01*
G37*
X165428100Y-78561903D02*
X165316550Y-78617522D01*
X165218092Y-78719931D01*
X165190977Y-78757864D01*
X165161438Y-78807500D01*
X165142272Y-78861412D01*
X165131307Y-78933364D01*
X165126371Y-79037122D01*
X165125287Y-79174101D01*
X165130182Y-79361815D01*
X165147196Y-79502758D01*
X165179823Y-79607908D01*
X165231558Y-79688243D01*
X165305896Y-79754741D01*
X165311358Y-79758678D01*
X165384620Y-79798953D01*
X165472840Y-79818880D01*
X165585038Y-79823793D01*
X165767433Y-79823793D01*
X165767509Y-80000857D01*
X165769207Y-80099470D01*
X165779550Y-80157314D01*
X165806578Y-80192006D01*
X165858332Y-80221164D01*
X165870761Y-80227121D01*
X165928923Y-80255039D01*
X165973956Y-80272672D01*
X166007441Y-80274194D01*
X166030962Y-80253781D01*
X166046100Y-80205607D01*
X166054437Y-80123846D01*
X166057556Y-80002672D01*
X166057040Y-79836260D01*
X166054471Y-79618785D01*
X166053668Y-79553736D01*
X166050778Y-79329502D01*
X166048188Y-79182821D01*
X165767586Y-79182821D01*
X165766009Y-79307326D01*
X165759000Y-79388787D01*
X165743142Y-79442515D01*
X165715019Y-79483823D01*
X165695925Y-79503971D01*
X165617865Y-79562921D01*
X165548753Y-79567720D01*
X165477440Y-79519038D01*
X165475632Y-79517241D01*
X165446617Y-79479618D01*
X165428967Y-79428484D01*
X165420064Y-79349738D01*
X165417291Y-79229276D01*
X165417241Y-79202588D01*
X165423942Y-79036583D01*
X165445752Y-78921505D01*
X165485235Y-78851254D01*
X165544956Y-78819729D01*
X165579472Y-78816552D01*
X165661389Y-78831460D01*
X165717579Y-78880548D01*
X165751402Y-78970362D01*
X165766220Y-79107445D01*
X165767586Y-79182821D01*
X166048188Y-79182821D01*
X166047713Y-79155952D01*
X166043753Y-79025382D01*
X166038174Y-78930087D01*
X166030254Y-78862364D01*
X166019269Y-78814507D01*
X166004499Y-78778813D01*
X165985218Y-78747578D01*
X165976951Y-78735824D01*
X165867288Y-78624797D01*
X165728635Y-78561847D01*
X165568246Y-78544297D01*
X165428100Y-78561903D01*
M02*
