M48
; DRILL file {KiCad (5.1.0)-1} date 7/12/2019 9:05:49 PM
; FORMAT={-:-/ absolute / inch / decimal}
; #@! TF.CreationDate,2019-07-12T21:05:49-04:00
; #@! TF.GenerationSoftware,Kicad,Pcbnew,(5.1.0)-1
FMAT,2
INCH
T1C0.0157
T2C0.0276
T3C0.0354
T4C0.0394
T5C0.0512
T6C0.0591
T7C0.0866
T8C0.1260
T9C0.0669
T10C0.0945
%
G90
G05
T1
X5.5118Y-3.6614
X5.6299Y-3.6614
X5.7087Y-1.8504
X5.9016Y-2.9016
X5.9016Y-3.2205
X5.9055Y-2.6102
X5.9094Y-2.689
X5.9331Y-2.5118
X5.9449Y-1.8504
X5.9449Y-3.6614
X5.9528Y-2.9606
X6.1417Y-3.6614
X6.189Y-3.252
X6.2205Y-1.8504
X6.2244Y-3.0591
X6.4567Y-3.6614
X6.4724Y-2.8031
X6.5236Y-2.4764
X6.5354Y-1.8504
X6.6535Y-3.6614
X6.6811Y-3.2283
X6.7323Y-1.8504
X6.8071Y-3.1417
X6.9685Y-3.6614
X7.126Y-1.8504
X7.3228Y-1.8504
X7.3228Y-1.9685
X7.3228Y-2.0079
X7.3228Y-2.1654
X7.3228Y-2.3622
X7.3228Y-2.5197
X7.3228Y-2.5984
X7.3228Y-2.7559
X7.3228Y-2.874
X7.3228Y-2.9528
X7.3228Y-3.1496
X7.3228Y-3.2677
X7.3228Y-3.4646
X7.3228Y-3.5433
T3
X5.7441Y-2.7008
X5.7441Y-2.8307
X5.7441Y-2.9094
X5.7441Y-3.0157
X5.8425Y-2.7008
X5.8425Y-2.7795
X5.8425Y-2.8583
X5.8425Y-2.937
X5.8425Y-3.0157
T4
X6.811Y-2.2441
X6.811Y-2.3343
X6.811Y-2.4244
X6.811Y-2.5146
X6.811Y-2.6047
X6.911Y-2.199
X6.911Y-2.2892
X6.911Y-2.3793
X6.911Y-2.4695
X6.911Y-2.5596
X7.011Y-2.2441
X7.011Y-2.3343
X7.011Y-2.4244
X7.011Y-2.5146
X7.011Y-2.6047
T5
X5.4705Y-3.2638
X5.7657Y-3.2638
X6.0217Y-3.2638
X6.3169Y-3.2638
X6.5728Y-3.2638
X6.8681Y-3.2638
X5.9272Y-2.3799
X6.0256Y-2.2815
X6.124Y-1.8878
X6.124Y-2.3799
X6.2224Y-2.2815
X6.2224Y-2.4783
X6.3209Y-1.8878
X6.3209Y-2.3799
X6.4193Y-2.2815
X6.5177Y-2.3799
T6
X5.7657Y-3.5492
X6.3169Y-3.5492
X6.8681Y-3.5492
T7
X5.626Y-2.5728
X5.626Y-3.1437
T8
X6.911Y-1.9219
X6.911Y-2.9061
T10
X5.9272Y-2.0846
X6.5177Y-2.0846
T2
G00X5.5941Y-2.8882
M15
G01X5.5941Y-2.8291
M16
G05
T4
G00X5.5689Y-1.9941
M15
G01X5.6083Y-1.9941
M16
G05
G00X5.5689Y-2.2343
M15
G01X5.6083Y-2.2343
M16
G05
G00X5.5689Y-2.4508
M15
G01X5.6083Y-2.4508
M16
G05
G00X5.6476Y-2.0925
M15
G01X5.687Y-2.0925
M16
G05
G00X5.6476Y-2.3091
M15
G01X5.687Y-2.3091
M16
G05
G00X7.1575Y-3.2362
M15
G01X7.1181Y-3.2362
M16
G05
G00X7.1575Y-3.4528
M15
G01X7.1181Y-3.4528
M16
G05
G00X7.2362Y-3.0945
M15
G01X7.1969Y-3.0945
M16
G05
G00X7.2362Y-3.311
M15
G01X7.1969Y-3.311
M16
G05
G00X7.2362Y-3.5512
M15
G01X7.1969Y-3.5512
M16
G05
T9
G00X5.376Y-3.3524
M15
G01X5.376Y-3.4705
M16
G05
G00X6.9626Y-3.3524
M15
G01X6.9626Y-3.4705
M16
G05
T0
M30
